<svg xmlns="http://www.w3.org/2000/svg" width="49.479" height="49.479" viewBox="0 0 49.479 49.479"><g transform="translate(0 0)"><circle cx="24.74" cy="24.74" r="24.74" transform="translate(0 0)" fill="#dd0332"/><g transform="translate(8.464 14.323)"><path d="M20.023,12.319c-.8,5.232-4.7,8.231-9.747,8.231a10.275,10.275,0,1,1,0-20.55,9.749,9.749,0,0,1,6.9,2.68L14.228,5.629a5.423,5.423,0,0,0-3.952-1.543,6.17,6.17,0,0,0-6.049,6.188,6.1,6.1,0,0,0,6.049,6.108c2.8,0,4.92-1.353,5.532-4.063H10.276V8.193H20a12.041,12.041,0,0,1,.176,2.082A13.561,13.561,0,0,1,20.023,12.319Z" transform="translate(0 0)" fill="#fff"/><path d="M9.759,6.16h-3.6v3.6H3.6V6.16H0V3.6H3.6V0H6.158V3.6h3.6V6.16Z" transform="translate(22.604 4.88)" fill="#fff"/></g></g></svg>