<svg xmlns="http://www.w3.org/2000/svg" width="66.266" height="66.266" viewBox="0 0 66.266 66.266"><g transform="translate(1.388 1.388)"><path d="M1.6.522C1.086.5.551.489,0,.478" transform="translate(40.981 0.341)" fill="none" stroke="#555" stroke-linecap="round" stroke-miterlimit="10" stroke-width="2.775"/><path d="M31.746,0A31.746,31.746,0,1,0,63.491,31.745a32.086,32.086,0,0,0-.192-3.512" transform="translate(0 0)" fill="none" stroke="#555" stroke-linecap="round" stroke-miterlimit="10" stroke-width="2.775"/><path d="M10.9,15.032A27.089,27.089,0,0,0,0,0" transform="translate(51.081 4.994)" fill="none" stroke="#555" stroke-linecap="round" stroke-miterlimit="10" stroke-width="2.775"/><path d="M14.051,4.362,0,0V7.285c0,3.369,6.293,6.1,14.055,6.1s14.056-2.73,14.056-6.1c0-.026-.009-.053-.009-.079V0Z" transform="translate(17.695 32.131)" fill="#555"/><path d="M0,9.139,5.02,10.95l.427-.924,1.844-.158.263.276-1.582.378-.231.689S2.167,18.748,2.692,22.435a4.577,4.577,0,0,0,4.461,0l.592-10.081v-.839l3.319-.755-.234.582-2.475.812,1.145.412,14.05,4.362L37.6,12.566l9.5-3.427L23.55,0Z" transform="translate(8.195 17.976)" fill="#555"/></g></svg>