<svg xmlns="http://www.w3.org/2000/svg" width="65.831" height="46.957" viewBox="0 0 65.831 46.957"><path d="M4.616,42.313a15.9,15.9,0,0,1,3.2-24.906,8.631,8.631,0,0,1,3.108-3.864,8.521,8.521,0,0,1,9.668,0A8.636,8.636,0,0,1,23.7,17.408a15.912,15.912,0,0,1,3.2,24.906,15.695,15.695,0,0,1-22.288,0ZM2,31.1a13.76,13.76,0,0,0,1.367,6.015l0,.007A13.838,13.838,0,0,0,13.149,44.7l.017,0,.061.012.033.006.05.009.045.008.019,0A13.679,13.679,0,0,0,15,44.929h.019l.051,0h.017l.085,0,.033,0h.04l.041,0h.036l.068,0h.031l.051,0H15.5l.076,0h.365l.076,0h.026l.051,0h.031l.068,0h.033l.045,0h.073l.086,0h.015l.052,0h.019a13.946,13.946,0,0,0,1.633-.188l.008,0,.054-.01.019,0h.009l.061-.012.049-.009.025-.005.07-.014a13.85,13.85,0,0,0,9.714-7.561l0,0a13.905,13.905,0,0,0-3.828-16.854c0,.035,0,.068,0,.1v.01c0,.031,0,.062,0,.093,0,.01,0,.019,0,.028v.012c0,.059,0,.112,0,.162a8.578,8.578,0,1,1-17.156,0c0-.149,0-.281.009-.4A13.8,13.8,0,0,0,2,31.1ZM9.177,20.669a6.593,6.593,0,0,0,6.274,6.614c.076,0,.157.006.265.007h.044a6.61,6.61,0,0,0,6.583-6.622,6.681,6.681,0,0,0-.119-1.261l0-.014,0-.014a.026.026,0,0,1,0-.008,6.58,6.58,0,0,0-13.039,1.3Zm47.679-1h-.094a8.893,8.893,0,0,1-3.183-.622l0,0-.057-.022a9,9,0,0,1-4.893-4.772l-.175-.4.007-.016A9.065,9.065,0,0,1,52.377,2.807a4.974,4.974,0,0,1,8.954,0,9.067,9.067,0,0,1,3.92,11.022l.007.017-.175.4a9,9,0,0,1-5.278,4.916l-.044.016-.014,0a8.885,8.885,0,0,1-2.558.475h-.008l-.067,0H57.1l-.074,0h-.168Zm-6.212-5.822a6.99,6.99,0,0,0,5.8,3.8h.016l.032,0,.048,0h.02l.038,0h.071l.058,0h.287l.057,0h.009a6.988,6.988,0,0,0,5.984-3.812,6.967,6.967,0,0,0-12.42,0ZM61.721,6.115v0c0,.016-.008.033-.012.049l0,.013c0,.013-.006.026-.01.04s0,.019-.007.028,0,.018-.006.026a4.969,4.969,0,0,1-.658,1.49L61,7.8,61,7.807a5.057,5.057,0,0,1-.755.888,8.988,8.988,0,0,1,3.56,2.641c.022-.231.034-.464.034-.7A7,7,0,0,0,61.8,5.675C61.78,5.825,61.754,5.971,61.721,6.115Zm-11.848,4.52q0,.355.034.7a9.009,9.009,0,0,1,3.559-2.641,5.149,5.149,0,0,1-.592-.66l-.012-.016-.008-.011a4.991,4.991,0,0,1-.944-2.333A7,7,0,0,0,49.873,10.635ZM53.864,4.9h0c0,.012,0,.023,0,.035v0c0,.011,0,.022,0,.032v.044a2.992,2.992,0,1,0,5.984,0V4.974c0-.012,0-.023,0-.035v0A2.992,2.992,0,0,0,53.864,4.9Z" fill="#cf0f11"/><circle cx="6.5" cy="6.5" r="6.5" transform="translate(9 14)" fill="#fff"/></svg>