<svg xmlns="http://www.w3.org/2000/svg" width="39.625" height="21.738" viewBox="0 0 39.625 21.738"><g transform="translate(-0.645 -0.6)"><path d="M12.877,21.738h0L0,0H15.125L27.58,21.024l-2.223-.465a21.169,21.169,0,0,0-4.324-.445,20.917,20.917,0,0,0-7.371,1.33l-.784.294Zm.875-2.447a22.977,22.977,0,0,1,7.281-1.177,23.377,23.377,0,0,1,2.583.144L13.985,2H3.509Zm15.265-.808L21.65,5.109,24.512,0H39.625L29.019,18.482v0ZM23.938,5.117,29.053,14.4,36.172,2H25.684Z" transform="translate(0.645 0.6)" fill="#cf0f11"/></g></svg>