<svg xmlns="http://www.w3.org/2000/svg" width="66.265" height="66.266" viewBox="0 0 66.265 66.266"><g transform="translate(1.388 1.388)"><path d="M1.6.522Q.828.5,0,.478" transform="translate(40.98 0.341)" fill="none" stroke="#555" stroke-linecap="round" stroke-miterlimit="10" stroke-width="2.775"/><path d="M31.745,0A31.746,31.746,0,1,0,63.49,31.745a32.087,32.087,0,0,0-.191-3.512" transform="translate(0 0)" fill="none" stroke="#555" stroke-linecap="round" stroke-miterlimit="10" stroke-width="2.775"/><path d="M10.9,15.032A27.085,27.085,0,0,0,0,0" transform="translate(51.081 4.994)" fill="none" stroke="#555" stroke-linecap="round" stroke-miterlimit="10" stroke-width="2.775"/><path d="M32.262,33.881H1.785A1.756,1.756,0,0,1,0,31.928V1.952A1.854,1.854,0,0,1,1.785,0H17.619a1.954,1.954,0,0,1,1.8,1.952V8.667s0,.285.156.285l14.487-.143V31.928A1.761,1.761,0,0,1,32.262,33.881ZM7.464,22.833a.474.474,0,0,0-.453.453v7.309a.474.474,0,0,0,.453.453H11.8a.4.4,0,0,0,.451-.453V23.286a.4.4,0,0,0-.451-.453Zm19.87,0c-.3,0-.441.144-.441.453v2.381c0,.3.136.594.441.594h3.892c.3,0,.441-.3.441-.594V23.286c0-.309-.14-.453-.441-.453Zm-7.024,0c-.3,0-.441.144-.441.453v2.381c0,.3.136.594.441.594H24.2a.65.65,0,0,0,.441-.594V23.286a.47.47,0,0,0-.441-.453ZM11.8,15.072a.477.477,0,0,0-.441.451V17.9c0,.3.136.6.441.6h3.88c.311,0,.453-.309.453-.6v-2.38a.486.486,0,0,0-.453-.451Zm-8.072,0a.679.679,0,0,0-.595.451V17.9a.628.628,0,0,0,.595.6H7.619a.652.652,0,0,0,.439-.6v-2.38a.7.7,0,0,0-.439-.451ZM27.334,13.88c-.3,0-.441.3-.441.6v2.381c0,.308.14.452.441.452h3.892c.3,0,.441-.144.441-.452V14.476c0-.3-.136-.6-.441-.6Zm-7.024,0c-.3,0-.441.3-.441.6v2.381c0,.308.14.452.441.452H24.2a.473.473,0,0,0,.441-.452V14.476a.651.651,0,0,0-.441-.6ZM11.8,6.286c-.3,0-.441.14-.441.428V9.1c0,.308.14.452.441.452h3.88a.4.4,0,0,0,.453-.452V6.714c0-.284-.152-.428-.453-.428Zm-8.072,0c-.287,0-.595.134-.595.428V9.1c0,.312.3.452.595.452H7.619A.468.468,0,0,0,8.059,9.1V6.714a.468.468,0,0,0-.439-.428Z" transform="translate(14.715 14.805)" fill="#555"/></g></svg>