<svg xmlns="http://www.w3.org/2000/svg" width="49.479" height="49.479" viewBox="0 0 49.479 49.479"><g transform="translate(0 0)"><circle cx="24.74" cy="24.74" r="24.74" transform="translate(0 0)" fill="#dd0332"/><path d="M14.117,24.09h-5.4c0-.131.071-14.745,0-16.254h5.4v2.3a.306.306,0,0,1-.018.027.273.273,0,0,0-.018.027h.036v-.054a5.342,5.342,0,0,1,4.871-2.685,5.849,5.849,0,0,1,4.444,1.785,7.9,7.9,0,0,1,1.777,5.529v9.32H19.8v-8.7c0-2.4-.946-3.675-2.737-3.675a2.967,2.967,0,0,0-2.772,1.976,3.586,3.586,0,0,0-.178,1.317v9.078Zm-8.393,0H.321V7.835h5.4V24.088ZM3.022,5.617H2.987A2.816,2.816,0,1,1,3.058,0a2.817,2.817,0,1,1-.036,5.617Z" transform="translate(12.136 12.695)" fill="#fff"/></g></svg>