<?xml version="1.0" encoding="utf-8"?>
<!-- Generator: Adobe Illustrator 22.0.0, SVG Export Plug-In . SVG Version: 6.00 Build 0)  -->
<svg version="1.1" id="Layer_1" xmlns="http://www.w3.org/2000/svg" xmlns:xlink="http://www.w3.org/1999/xlink" x="0px" y="0px"
	 width="27px" height="27px" viewBox="0 0 27 27" style="enable-background:new 0 0 27 27;" xml:space="preserve">
<style type="text/css">
	.st0{fill:#555555;}
</style>
<path class="st0" d="M26.541,24.326l-8.594-8.594c1.185-1.633,1.893-3.635,1.896-5.806c0-0.003,0-0.005,0-0.008
	C19.841,4.438,15.397-0.002,9.917,0S-0.002,4.446,0,9.925s4.446,9.92,9.926,9.918c2.171-0.003,4.173-0.711,5.806-1.896l8.594,8.594
	c0.612,0.612,1.603,0.612,2.215,0.001C27.153,25.93,27.153,24.938,26.541,24.326z M2.094,9.921c0-4.325,3.506-7.832,7.832-7.832
	v0.004c4.322,0.006,7.825,3.507,7.832,7.829c-0.001,4.325-3.507,7.831-7.832,7.831C5.6,17.753,2.094,14.247,2.094,9.921z"/>
</svg>
