<svg xmlns="http://www.w3.org/2000/svg" width="70" height="69.777" viewBox="0 0 70 69.777"><g transform="translate(0 0)"><path d="M7.368,14.69a7.345,7.345,0,1,1,7.368-7.345A7.365,7.365,0,0,1,7.368,14.69ZM6.141,8.569H8.6A4.89,4.89,0,0,1,6.951,12.2c.054,0,.107.012.159.019a1.887,1.887,0,0,0,.259.023A4.955,4.955,0,1,0,4.1,10.976,2.444,2.444,0,0,0,6.141,8.57Z" transform="translate(40.526 1.225)" fill="#555"/><path d="M7.368,14.69a7.345,7.345,0,1,1,7.368-7.345A7.365,7.365,0,0,1,7.368,14.69Zm0-12.242a4.9,4.9,0,1,0,0,9.794,1.9,1.9,0,0,0,.26-.023c.052-.007.1-.014.158-.019A4.893,4.893,0,0,1,6.141,8.569H8.6a2.443,2.443,0,0,0,2.038,2.407A4.876,4.876,0,0,0,7.368,2.448Z" transform="translate(2.456 15.915)" fill="#555"/><path d="M17.193,69.777H0V67.328H4.912V52.639H1.228A1.228,1.228,0,0,1,0,51.414V37.949a6.138,6.138,0,0,1,6.141-6.121h9.824a1.286,1.286,0,0,1,.388.062l6.926,2.3,7.753-3.311,3.483-6.944a1.256,1.256,0,0,1,.311-.393L42.2,17.421a1.239,1.239,0,0,1,.787-.283H60.176V1.225A1.226,1.226,0,0,1,61.4,0a1.21,1.21,0,0,1,.391.065L69.16,2.513a1.222,1.222,0,0,1,0,2.322L62.632,7v2.79h3.684a1.228,1.228,0,0,1,1.228,1.224v7.345A6.138,6.138,0,0,1,61.4,24.484h-6.14v4.9h4.912a6.137,6.137,0,0,1,6.14,6.12v9.794h2.456v2.448H51.579v6.121a1.228,1.228,0,0,1-1.229,1.224H36.842v6.121a1.228,1.228,0,0,1-1.229,1.224H18.421v6.121A1.228,1.228,0,0,1,17.193,69.777ZM13.509,52.639V67.328h2.456v-6.12a1.227,1.227,0,0,1,1.228-1.224h2.456V52.639Zm-8.6-13.466H7.368V67.328h3.685V51.414A1.227,1.227,0,0,1,12.28,50.19h8.6A1.227,1.227,0,0,1,22.1,51.414v8.57h3.685V50.19A3.682,3.682,0,0,0,22.1,46.518h-6.14a1.228,1.228,0,0,1-1.228-1.224V39.173a1.225,1.225,0,0,1,1.226-1.226,1.218,1.218,0,0,1,.175.013l8.216,1.17,8.238-4.1-.372-.557-.746-1.114-7.656,3.271a1.236,1.236,0,0,1-.486.1,1.2,1.2,0,0,1-.386-.063l-7.179-2.385H12.28v8.569H9.824V34.276H6.141a3.683,3.683,0,0,0-3.685,3.673V50.19H4.912V39.174Zm12.28,1.411V44.07H22.1a6.137,6.137,0,0,1,6.141,6.12v9.794h6.141V53.863a1.227,1.227,0,0,1,1.228-1.224h7.368V26.932L40.2,29.011l-4.8,7.169a.073.073,0,0,1-.019.016.074.074,0,0,0-.019.016,1.192,1.192,0,0,1-.435.382l-9.825,4.9a1.229,1.229,0,0,1-.723.118ZM44.21,23.26a1.242,1.242,0,0,1,.55.129,1.219,1.219,0,0,1,.679,1.1V52.639h3.685V36.725A1.228,1.228,0,0,1,50.35,35.5h8.6a1.228,1.228,0,0,1,1.229,1.225v8.569H63.86V35.5a3.682,3.682,0,0,0-3.684-3.672H54.035A1.228,1.228,0,0,1,52.807,30.6V23.26a1.228,1.228,0,0,1,1.229-1.224H61.4a3.683,3.683,0,0,0,3.685-3.673v-6.12H62.632v6.12A1.228,1.228,0,0,1,61.4,19.587H52.411l-2.146,5.351a1.231,1.231,0,0,1-2.282,0l-2.146-5.351H43.427L36.6,25.259l-3.25,6.48,1.04,1.554,3.89-5.817a1.175,1.175,0,0,1,.285-.3L43.474,23.5a1.232,1.232,0,0,1,.736-.245Zm7.369,14.69v7.345H57.72V37.949Zm-3.1-18.363.643,1.6.643-1.6ZM62.632,2.924v1.5l2.257-.749Z" transform="translate(0 0)" fill="#555"/><rect width="2.456" height="2.448" rx="1.224" transform="translate(29.474 6.122)" fill="#555"/><rect width="2.456" height="2.448" rx="1.224" transform="translate(24.561 6.122)" fill="#555"/><rect width="2.456" height="2.448" rx="1.224" transform="translate(19.649 6.122)" fill="#555"/></g></svg>