<svg xmlns="http://www.w3.org/2000/svg" width="70" height="70" viewBox="0 0 70 70"><path d="M3.5,0H1.167a1.167,1.167,0,0,0,0,2.333H3.5A1.167,1.167,0,1,0,3.5,0Z" transform="translate(46.667 23.333)" fill="#555"/><path d="M3.5,0H1.167a1.167,1.167,0,0,0,0,2.333H3.5A1.167,1.167,0,1,0,3.5,0Z" transform="translate(46.667 28)" fill="#555"/><path d="M3.5,0H1.167a1.167,1.167,0,0,0,0,2.333H3.5A1.167,1.167,0,1,0,3.5,0Z" transform="translate(46.667 18.667)" fill="#555"/><path d="M3.5,0H1.167a1.167,1.167,0,0,0,0,2.333H3.5A1.167,1.167,0,1,0,3.5,0Z" transform="translate(46.667 56)" fill="#555"/><path d="M8.167,18.667h-7A1.168,1.168,0,0,1,0,17.5V1.166A1.168,1.168,0,0,1,1.166,0h7A1.168,1.168,0,0,1,9.333,1.166V17.5A1.168,1.168,0,0,1,8.167,18.667ZM2.334,2.334v14H7v-14Z" transform="translate(16.333 18.667)" fill="#555"/><path d="M8.167,0h-7a1.167,1.167,0,0,0,0,2.333h7A1.167,1.167,0,1,0,8.167,0Z" transform="translate(16.333 56)" fill="#555"/><path d="M8.167,0h-7a1.167,1.167,0,0,0,0,2.333h7A1.167,1.167,0,1,0,8.167,0Z" transform="translate(16.333 60.667)" fill="#555"/><path d="M3.5,0H1.167a1.167,1.167,0,0,0,0,2.333H3.5A1.167,1.167,0,1,0,3.5,0Z" transform="translate(46.667 60.667)" fill="#555"/><path d="M5.833,0H1.167a1.167,1.167,0,0,0,0,2.333H5.833A1.167,1.167,0,0,0,5.833,0Z" transform="translate(58.333 60.667)" fill="#555"/><path d="M5.833,18.667H1.166A1.168,1.168,0,0,1,0,17.5V1.166A1.168,1.168,0,0,1,1.166,0H5.833A1.168,1.168,0,0,1,7,1.166V17.5A1.169,1.169,0,0,1,5.833,18.667ZM2.333,2.333v14H4.667v-14Z" transform="translate(32.667 18.667)" fill="#555"/><path d="M5.833,0H1.167a1.167,1.167,0,0,0,0,2.333H5.833A1.167,1.167,0,0,0,5.833,0Z" transform="translate(58.333 56)" fill="#555"/><path d="M5.833,0H1.167a1.167,1.167,0,0,0,0,2.333H5.833A1.167,1.167,0,0,0,5.833,0Z" transform="translate(32.667 60.667)" fill="#555"/><path d="M1.167,14a1.167,1.167,0,0,0,1.167-1.167V1.167A1.167,1.167,0,0,0,0,1.167V12.833A1.167,1.167,0,0,0,1.167,14Z" transform="translate(58.333 28)" fill="#555"/><path d="M2.333,1.167A1.167,1.167,0,0,0,0,1.167V12.833a1.167,1.167,0,1,0,2.333,0Z" transform="translate(63 28)" fill="#555"/><path d="M66.5,70H3.5A3.5,3.5,0,0,1,0,66.5v-56A3.5,3.5,0,0,1,3.5,7H8.167a1.166,1.166,0,0,1,0,2.333H3.5A1.168,1.168,0,0,0,2.334,10.5v56A1.168,1.168,0,0,0,3.5,67.667h8.167V16.333H5.834a1.166,1.166,0,1,1,0-2.333h5.833V3.5a3.5,3.5,0,0,1,3.5-3.5H26.833a3.463,3.463,0,0,1,3.5,3.5V4.666H38.5A1.167,1.167,0,0,1,38.5,7H30.334V67.667H42V5.834a3.5,3.5,0,0,1,3.5-3.5h7a3.463,3.463,0,0,1,3.5,3.5v10.5h7a1.167,1.167,0,0,1,0,2.334H56v49H66.5A1.168,1.168,0,0,0,67.667,66.5V12.833A1.168,1.168,0,0,0,66.5,11.667h-7a1.167,1.167,0,0,1,0-2.334h7a3.5,3.5,0,0,1,3.5,3.5V66.5A3.5,3.5,0,0,1,66.5,70ZM44.333,11.667v56h9.334V5.834A1.142,1.142,0,0,0,52.5,4.666h-7a1.154,1.154,0,0,0-1.166,1.167v3.5h5.834a1.167,1.167,0,0,1,0,2.334ZM14,9.333V67.667H28V3.5a1.141,1.141,0,0,0-1.166-1.166H15.167A1.154,1.154,0,0,0,14,3.5V7H24.5a1.166,1.166,0,0,1,0,2.333Z" fill="#555"/><path d="M3.5,0H1.167a1.167,1.167,0,0,0,0,2.333H3.5A1.167,1.167,0,1,0,3.5,0Z" transform="translate(4.667 56)" fill="#555"/><path d="M3.5,0H1.167a1.167,1.167,0,0,0,0,2.333H3.5A1.167,1.167,0,1,0,3.5,0Z" transform="translate(4.667 60.667)" fill="#555"/><path d="M5.833,0H1.167a1.167,1.167,0,0,0,0,2.333H5.833A1.167,1.167,0,0,0,5.833,0Z" transform="translate(32.667 56)" fill="#555"/><path d="M3.5,0H1.167a1.167,1.167,0,0,0,0,2.333H3.5A1.167,1.167,0,1,0,3.5,0Z" transform="translate(4.667 28)" fill="#555"/><path d="M3.5,0H1.167a1.167,1.167,0,0,0,0,2.333H3.5A1.167,1.167,0,1,0,3.5,0Z" transform="translate(4.667 32.667)" fill="#555"/></svg>