<?xml version="1.0" encoding="UTF-8"?>
<svg width="352px" height="44px" viewBox="0 0 352 44" version="1.1" xmlns="http://www.w3.org/2000/svg" xmlns:xlink="http://www.w3.org/1999/xlink">
    <!-- Generator: Sketch 61.2 (89653) - https://sketch.com -->
    <title>Group 27</title>
    <desc>Created with Sketch.</desc>
    <defs>
        <polygon id="path-1" points="1.63139802 1.51741935 35.1184475 1.51741935 35.1184475 44.3569892 1.63139802 44.3569892"></polygon>
        <polygon id="path-3" points="0.749829703 0.11716129 114.593426 0.11716129 114.593426 5.10124731 0.749829703 5.10124731"></polygon>
    </defs>
    <g id="PADE-DESKTOP" stroke="none" stroke-width="1" fill="none" fill-rule="evenodd">
        <g id="9-Ventajas-(PADE---Desktop)" transform="translate(-201.000000, -2990.000000)">
            <g id="Group-27" transform="translate(201.000000, 2989.000000)">
                <path d="M24.7863762,22.9713548 C22.8974257,21.8461935 21.0084752,21.3403871 18.5462178,21.3403871 C14.0817426,21.3403871 10.6471287,24.3752258 10.6471287,29.4367312 C10.6471287,34.1025376 14.6550495,37.1373763 19.1195248,37.1373763 C21.4667723,37.1373763 23.8140198,36.6315699 25.5304554,35.7335054 L25.7604752,43.2672688 C23.1832079,44.1102796 20.0936238,44.5593118 17.3438416,44.5593118 C7.49829703,44.5593118 0,38.9369462 0,29.268129 C0,19.5425376 7.49829703,13.920172 17.3438416,13.920172 C20.4369109,13.920172 23.1832079,14.4259785 25.5304554,15.5511398 L24.7863762,22.9713548 Z" id="Fill-1" fill="#545454"></path>
                <path d="M38.163596,32.1901075 C38.7351604,36.24 41.8839921,37.8141935 46.9217743,37.8141935 C49.7255762,37.8141935 52.9319129,37.1931183 56.0232396,35.563871 L56.0232396,42.7036559 C52.7036356,43.9974194 48.9257347,44.5582796 45.0903287,44.5582796 C35.2447842,44.5582796 27.7447446,38.8825806 27.7447446,29.212043 C27.7447446,19.5415054 34.4432,13.9208602 43.7154376,13.9208602 C54.7633584,13.9208602 58.7712792,21.6215054 58.7712792,30.3372043 L58.7712792,32.1901075 L38.163596,32.1901075 Z M49.497299,26.455914 C49.497299,23.0821505 47.8941307,20.3277419 43.7729426,20.3277419 C40.0525465,20.3277419 38.2786059,23.0821505 38.0485861,26.455914 L49.497299,26.455914 Z" id="Fill-3" fill="#545454"></path>
                <path d="M63.2514376,14.5944086 L72.6386851,14.5944086 L72.6386851,19.9913978 L72.753695,19.9913978 C74.8151604,15.7746237 78.9363485,13.9182796 83.6308436,13.9182796 C91.7582099,13.9182796 95.0220515,19.5423656 95.0220515,25.6137634 L95.0220515,43.8830108 L84.7182099,43.8830108 L84.7182099,29.7169892 C84.7182099,24.208172 82.7717545,22.3535484 79.9662099,22.3535484 C75.7300119,22.3535484 73.5552792,25.2197849 73.5552792,31.5165591 L73.5552792,43.8830108 L63.2514376,43.8830108 L63.2514376,14.5944086 Z" id="Fill-5" fill="#545454"></path>
                <g id="Group-9" transform="translate(97.584158, 0.202839)">
                    <mask id="mask-2" fill="white">
                        <use xlink:href="#path-1"></use>
                    </mask>
                    <g id="Clip-8"></g>
                    <path d="M35.1184475,43.6825806 L25.6161901,43.6825806 L25.6161901,38.4541935 L25.5011802,38.4541935 C24.1837941,41.7126882 20.0068436,44.3569892 15.2548436,44.3569892 C6.38165545,44.3569892 1.63139802,37.1604301 1.63139802,28.5032258 C1.63139802,21.3066667 6.15337822,13.7178495 14.397497,13.7178495 C18.5169426,13.7178495 22.0090614,14.7862366 24.6420911,18.1582796 L24.757101,18.1582796 L24.757101,1.51655914 L35.1184475,1.51655914 L35.1184475,43.6825806 Z M18.5169426,36.5995699 C21.953299,36.5995699 24.8146059,33.3944086 24.8146059,29.1208602 C24.8146059,24.6804301 22.2965861,21.4752688 18.5169426,21.4752688 C14.5107644,21.4752688 12.2785267,24.8490323 12.2785267,28.7286022 C12.2785267,33.3944086 14.6257743,36.5995699 18.5169426,36.5995699 L18.5169426,36.5995699 Z" id="Fill-7" fill="#545454" mask="url(#mask-2)"></path>
                </g>
                <path d="M136.794345,29.2684731 C136.794345,19.5428817 144.292642,13.9205161 154.139929,13.9205161 C163.985473,13.9205161 171.48377,19.5428817 171.48377,29.2684731 C171.48377,38.9372903 163.985473,44.5596559 154.139929,44.5596559 C144.292642,44.5596559 136.794345,38.9372903 136.794345,29.2684731 M160.836642,29.2684731 C160.836642,24.8813763 158.890186,21.0018065 154.139929,21.0018065 C149.387929,21.0018065 147.441473,24.8813763 147.441473,29.2684731 C147.441473,33.5970753 149.387929,37.4766452 154.139929,37.4766452 C158.890186,37.4766452 160.836642,33.5970753 160.836642,29.2684731" id="Fill-10" fill="#545454"></path>
                <path d="M198.919556,22.9713548 C197.030606,21.8461935 195.141655,21.3403871 192.679398,21.3403871 C188.214923,21.3403871 184.780309,24.3752258 184.780309,29.4367312 C184.780309,34.1025376 188.78823,37.1373763 193.252705,37.1373763 C195.599952,37.1373763 197.945457,36.6315699 199.663636,35.7335054 L199.891913,43.2672688 C197.316388,44.1102796 194.225061,44.5593118 191.477022,44.5593118 C181.631477,44.5593118 174.13318,38.9369462 174.13318,29.268129 C174.13318,19.5425376 181.631477,13.920172 191.477022,13.920172 C194.568349,13.920172 197.316388,14.4259785 199.663636,15.5511398 L198.919556,22.9713548 Z" id="Fill-12" fill="#545454"></path>
                <path d="M218.680871,44.9336774 C218.109307,44.9336774 217.645782,44.4777634 217.645782,43.9169032 L217.645782,5.44292473 C217.645782,4.88034409 218.109307,4.42615054 218.680871,4.42615054 C219.252436,4.42615054 219.71596,4.88034409 219.71596,5.44292473 L219.71596,43.9169032 C219.71596,44.4777634 219.252436,44.9336774 218.680871,44.9336774" id="Fill-14" fill="#545454"></path>
                <path d="M325.67981,17.5177634 L334.173117,17.5177634 L334.173117,21.7173333 C335.432998,19.9900215 336.743414,18.8029247 337.99981,18.0579785 C339.301513,17.3181935 340.913394,16.9242151 342.774463,16.9242151 C345.294226,16.9242151 347.249394,17.7672258 348.704444,19.3964731 C350.115929,21.0257204 350.819929,23.4928172 350.819929,26.8975484 L350.819929,43.2966882 L341.669671,43.2966882 L341.669671,29.1203441 C341.669671,27.4945376 341.368206,26.3590538 340.86983,25.7156129 C340.259929,25.0274409 339.503651,24.679914 338.501671,24.679914 C337.395137,24.679914 336.490741,25.1220645 335.832048,26.0648602 C335.128048,26.9508817 334.779533,28.5818495 334.779533,30.9491613 L334.779533,43.2966882 L325.67981,43.2966882 L325.67981,17.5177634 Z" id="Fill-16" fill="#545454"></path>
                <path d="M267.385299,34.7538925 L276.437972,34.7538925 C276.641853,37.1710968 278.246764,38.556043 280.71425,38.507871 C281.918368,38.507871 282.869814,38.2136774 283.53025,37.6648602 C284.082646,37.2261505 284.331834,36.7323871 284.331834,36.0923871 C284.331834,35.3474409 283.979834,34.8020645 283.324626,34.4063656 C282.824507,34.1603441 281.515834,33.8145376 279.402091,33.4222796 C276.237576,32.7805591 274.017537,32.2351828 272.766368,31.7414194 C271.557022,31.2476559 270.502764,30.3564731 269.650646,29.1745376 C268.842091,27.9409892 268.389022,26.5543226 268.389022,25.0265806 C268.389022,23.295828 268.842091,21.8162581 269.744745,20.624 C270.701418,19.3956129 271.912507,18.4545376 273.51916,17.867871 C275.131042,17.2209892 277.290091,16.9233548 279.95623,16.9233548 C282.770487,16.9233548 284.88423,17.1710968 286.24518,17.6166882 C287.602646,18.1138925 288.703952,18.8502366 289.613576,19.836043 C291.068626,21.4188387 291.776111,23.196043 292.074091,25.2227097 L283.223556,25.2726022 C283.223556,24.3865806 282.869814,23.491957 282.120507,22.9534624 C281.416507,22.4046452 280.515596,22.1586237 279.501418,22.1586237 C278.499438,22.1586237 277.74316,22.3564731 277.243042,22.7556129 C276.78823,23.147871 276.537299,23.639914 276.537299,24.1887312 C276.537299,24.8270108 276.840507,25.3242151 277.441695,25.6149677 C278.044626,25.9659355 279.358527,26.260129 281.365972,26.5061505 C284.384111,26.8984086 286.645972,27.3938925 288.107992,28.0373333 C289.613576,28.7306667 290.716626,29.6683011 291.52518,30.900129 C292.2832,32.1371183 292.680507,33.472172 292.680507,34.9517419 C292.680507,36.4330323 292.2832,37.9177634 291.420626,39.2975484 C290.617299,40.7323871 289.312111,41.8145376 287.501576,42.6575484 C285.739834,43.4971183 283.324626,43.9409892 280.210646,43.9409892 C275.887319,43.9409892 272.766368,43.2476559 270.955834,41.9143226 C268.490091,40.1353978 267.385299,37.6166882 267.385299,34.7538925" id="Fill-18" fill="#545454"></path>
                <path d="M251.32103,28.1326452 L255.846495,28.1326452 C255.646099,26.2109247 255.194772,24.8259785 254.38796,24.0363011 C253.631683,23.1967312 252.62796,22.7975914 251.373307,22.7975914 C249.911287,22.7975914 248.75596,23.4461935 247.902099,24.6797419 C247.34796,25.4212473 246.99596,26.6049032 246.844356,28.1326452 L251.32103,28.1326452 Z M251.32103,38.1128602 C252.375287,38.1128602 253.230891,37.8651183 254.032475,37.3696344 C255.093703,36.6780215 255.546772,35.8384516 255.945822,34.7545806 L265.050772,34.7545806 C264.29101,37.8651183 262.534495,40.5335054 259.622653,42.2126452 C257.707564,43.3498495 254.938614,43.8900645 251.32103,43.8900645 C248.09901,43.8900645 245.636752,43.3980215 243.826218,42.4569462 C242.015683,41.4711398 240.506614,39.9382366 239.349545,37.8651183 C238.145426,35.7421075 237.53901,33.3231828 237.53901,30.4552258 C237.53901,26.4552258 238.748356,23.1485591 241.109545,20.6831828 C243.526495,18.1593118 246.793822,16.9223226 250.972515,16.9223226 L251.32103,16.9223226 C254.591842,16.9773763 257.153426,17.5175914 259.063287,18.6049032 C261.027168,19.743828 262.534495,21.3713548 263.543446,23.4461935 C264.59596,25.5692043 265.099564,28.3408172 265.099564,31.7421075 L265.099564,32.8810323 L251.32103,32.8810323 L246.844356,32.8810323 C246.99596,34.4535054 247.400238,35.6388817 247.999683,36.4302796 C248.855287,37.5210323 249.960079,38.0629677 251.32103,38.1128602 L251.32103,38.1128602 Z" id="Fill-20" fill="#545454"></path>
                <path d="M307.728333,38.3124301 C308.333006,38.1593118 308.885402,37.9167312 309.436055,37.6173763 C310.342194,37.0754409 310.943382,36.432 311.297125,35.6406022 C311.650867,34.8990968 311.854749,33.859957 311.854749,32.6315699 L311.854749,31.0504946 C310.58964,31.5425376 309.286194,31.9864086 307.932214,32.3855484 C307.881679,32.3855484 307.829402,32.3855484 307.728333,32.4354409 C306.02061,32.9257634 304.91059,33.4212473 304.410471,33.9150108 C303.910352,34.4517849 303.654194,35.1003871 303.654194,35.7421075 C303.654194,36.5283441 303.910352,37.1717849 304.410471,37.6655484 C304.91059,38.1593118 305.666867,38.4122151 306.623541,38.4122151 C307.020848,38.4122151 307.378075,38.3588817 307.728333,38.3124301 M307.728333,22.8474839 C306.728095,22.9524301 305.921283,23.1967312 305.365402,23.5907097 C304.760729,23.9898495 304.509798,24.1395269 304.109006,25.2216774 L295.207937,25.2216774 C295.309006,23.8367312 295.911937,22.1111398 296.664729,20.9756559 C297.267659,20.0431828 298.173798,19.1950108 299.33261,18.5051183 C300.184729,18.0113548 301.343541,17.6173763 302.79859,17.3696344 C304.26061,17.0754409 305.818471,16.924043 307.524451,16.924043 L307.728333,16.924043 C310.392729,16.924043 312.508214,17.120172 314.118352,17.4178065 C315.775541,17.7687742 317.131263,18.4569462 318.239541,19.4909247 C319.042867,20.2341505 319.645798,21.2698495 320.102352,22.6049032 C320.553679,23.9382366 320.75756,25.2216774 320.75756,26.4552258 L320.75756,37.8152258 C320.75756,39.0504946 320.85863,39.9898495 320.956214,40.6797419 C321.106075,41.3747957 321.409283,42.2590968 321.912887,43.2965161 L313.35859,43.2965161 C313.008333,42.6582366 312.806194,42.1575914 312.70861,41.8135054 C312.560491,41.4694194 312.457679,40.924043 312.354867,40.136086 C311.203026,41.4195269 309.990194,42.3141505 308.784333,42.8027527 C308.486352,42.9507097 308.136095,43.0986667 307.728333,43.2483441 C306.369125,43.6939355 304.863541,43.8917849 303.20461,43.8917849 C300.33459,43.8917849 298.173798,43.1984516 296.717006,41.7704946 C295.258471,40.3356559 294.503937,38.5567312 294.503937,36.480172 C294.503937,34.5085591 295.058075,32.9257634 296.114075,31.644043 C297.164848,30.4087742 299.132214,29.4694194 301.997006,28.8294194 C304.614352,28.284043 306.522471,27.8384516 307.728333,27.4943656 C308.136095,27.3945806 308.385283,27.3429677 308.636214,27.2466237 C309.639937,26.9507097 310.695937,26.5550108 311.854749,26.1111398 C311.854749,24.8724301 311.59859,24.0380215 311.150749,23.5425376 C310.695937,23.0487742 309.890867,22.7993118 308.737283,22.7993118 C308.385283,22.7993118 308.033283,22.7993118 307.728333,22.8474839" id="Fill-22" fill="#545454"></path>
                <g id="Group-26" transform="translate(236.990099, 3.643699)">
                    <mask id="mask-4" fill="white">
                        <use xlink:href="#path-3"></use>
                    </mask>
                    <g id="Clip-25"></g>
                    <path d="M111.093117,4.6436129 C111.396325,4.70898925 111.650741,4.74167742 111.854622,4.74167742 C112.40876,4.74167742 112.867057,4.55243011 113.231255,4.16877419 C113.597196,3.78855914 113.780166,3.27070968 113.780166,2.61694624 C113.780166,1.95802151 113.597196,1.44017204 113.231255,1.06167742 C112.867057,0.681462366 112.400048,0.492215054 111.826741,0.492215054 C111.612404,0.492215054 111.366701,0.523182796 111.093117,0.59372043 L111.093117,4.6436129 Z M109.709513,4.98769892 L109.709513,4.85866667 L109.892483,4.85866667 C110.098107,4.85866667 110.242741,4.79329032 110.328127,4.66425806 C110.380404,4.58683871 110.406543,4.41307527 110.406543,4.14468817 L110.406543,1.06683871 C110.406543,0.770924731 110.371691,0.58511828 110.307216,0.509419355 C110.214859,0.406193548 110.075453,0.354580645 109.892483,0.354580645 L109.709513,0.354580645 L109.709513,0.225548387 L111.68385,0.225548387 C112.40876,0.225548387 112.959414,0.306408602 113.337552,0.466408602 C113.715691,0.628129032 114.018899,0.898236559 114.250661,1.27501075 C114.478939,1.65178495 114.593949,2.08705376 114.593949,2.5808172 C114.593949,3.24490323 114.390067,3.79888172 113.980562,4.24275269 C113.51878,4.73995699 112.818265,4.98769892 111.877275,4.98769892 L109.709513,4.98769892 Z M101.134305,3.13307527 L100.31181,1.20791398 L99.468404,3.13307527 L101.134305,3.13307527 Z M101.235374,3.39113978 L99.3568792,3.39113978 L99.0275327,4.14468817 C98.9456317,4.32705376 98.9055525,4.4664086 98.9055525,4.55931183 C98.9055525,4.63156989 98.9421465,4.69522581 99.0118495,4.75027957 C99.083295,4.80533333 99.2331564,4.84146237 99.468404,4.85866667 L99.468404,4.98769892 L97.9401663,4.98769892 L97.9401663,4.85866667 C98.1440475,4.82253763 98.2747406,4.77608602 98.3339881,4.72103226 C98.4559683,4.60748387 98.5901465,4.3803871 98.7382653,4.03458065 L100.444246,0.11716129 L100.569711,0.11716129 L102.256523,4.0775914 C102.392444,4.39415054 102.516166,4.60232258 102.625949,4.69694624 C102.737473,4.79156989 102.892562,4.84662366 103.091216,4.85866667 L103.091216,4.98769892 L101.177869,4.98769892 L101.177869,4.85866667 C101.369552,4.84834409 101.500246,4.81565591 101.568206,4.76060215 C101.637909,4.70898925 101.671018,4.6436129 101.671018,4.56447312 C101.671018,4.46296774 101.622226,4.30124731 101.526384,4.0775914 L101.235374,3.39113978 Z M87.6920871,4.6436129 C87.9935525,4.70898925 88.2479683,4.74167742 88.4535921,4.74167742 C89.0059881,4.74167742 89.4642851,4.55243011 89.8302257,4.16877419 C90.1944238,3.78855914 90.3773941,3.27070968 90.3773941,2.61694624 C90.3773941,1.95802151 90.1944238,1.44017204 89.8302257,1.06167742 C89.4642851,0.681462366 88.9972752,0.492215054 88.4257109,0.492215054 C88.2113743,0.492215054 87.9656713,0.523182796 87.6920871,0.59372043 L87.6920871,4.6436129 Z M86.3084832,4.98769892 L86.3084832,4.85866667 L86.4897109,4.85866667 C86.6953347,4.85866667 86.8399683,4.79329032 86.9253545,4.66425806 C86.9776317,4.58683871 87.0055129,4.41307527 87.0055129,4.14468817 L87.0055129,1.06683871 C87.0055129,0.770924731 86.9706614,0.58511828 86.9061861,0.509419355 C86.8138297,0.406193548 86.6726812,0.354580645 86.4897109,0.354580645 L86.3084832,0.354580645 L86.3084832,0.225548387 L88.2810772,0.225548387 C89.0059881,0.225548387 89.5583842,0.306408602 89.9365228,0.466408602 C90.3146614,0.628129032 90.6178693,0.898236559 90.8478891,1.27501075 C91.0779089,1.65178495 91.1929188,2.08705376 91.1929188,2.5808172 C91.1929188,3.24490323 90.9890376,3.79888172 90.5777901,4.24275269 C90.1177505,4.73995699 89.4154931,4.98769892 88.474503,4.98769892 L86.3084832,4.98769892 Z M79.592602,4.85866667 L79.592602,4.98769892 L77.5137109,4.98769892 L77.5137109,4.85866667 L77.6862257,4.85866667 C77.8866218,4.85866667 78.0312554,4.80017204 78.1218693,4.6831828 C78.1793743,4.6092043 78.208998,4.43027957 78.208998,4.14468817 L78.208998,1.06683871 C78.208998,0.825978495 78.1933149,0.665978495 78.1619485,0.59027957 C78.1375525,0.530064516 78.0887604,0.481892473 78.0155723,0.43888172 C77.9110178,0.380387097 77.8012356,0.354580645 77.6862257,0.354580645 L77.5137109,0.354580645 L77.5137109,0.225548387 L79.592602,0.225548387 L79.592602,0.354580645 L79.4183446,0.354580645 C79.2196911,0.354580645 79.0750574,0.413075269 78.9844436,0.524903226 C78.925196,0.600602151 78.8955723,0.781247312 78.8955723,1.06683871 L78.8955723,4.14468817 C78.8955723,4.38554839 78.9095129,4.54382796 78.9408792,4.62296774 C78.9652752,4.67974194 79.0158099,4.73135484 79.0907406,4.77264516 C79.1935525,4.82769892 79.3033347,4.85866667 79.4183446,4.85866667 L79.592602,4.85866667 Z M70.2053545,0.11716129 L70.2053545,1.7636129 L70.0729188,1.7636129 C70.0293545,1.44705376 69.9526812,1.19587097 69.842899,1.00834409 C69.7313743,0.820817204 69.5728,0.669419355 69.3671762,0.562752688 C69.163295,0.450924731 68.950701,0.397591398 68.7328792,0.397591398 C68.4836911,0.397591398 68.2798099,0.471569892 68.1160079,0.621247312 C67.9539485,0.769204301 67.8737901,0.937806452 67.8737901,1.12705376 C67.8737901,1.27156989 67.9243248,1.40576344 68.0271366,1.52447312 C68.1752554,1.69995699 68.5272554,1.93393548 69.0813941,2.2264086 C69.5344634,2.46382796 69.8446416,2.64791398 70.0101861,2.77694624 C70.1757307,2.90425806 70.3029386,3.05565591 70.3935525,3.22769892 C70.4824238,3.40146237 70.5277307,3.58210753 70.5277307,3.77135484 C70.5277307,4.13264516 70.3848396,4.44404301 70.0990574,4.70554839 C69.8150178,4.96533333 69.4490772,5.09608602 68.9994931,5.09608602 C68.8583446,5.09608602 68.7259089,5.08576344 68.6021861,5.06511828 C68.528998,5.05307527 68.3756515,5.01006452 68.1438891,4.93780645 C67.9103842,4.86382796 67.7640079,4.82425806 67.7012752,4.82425806 C67.6420277,4.82425806 67.5949782,4.8431828 67.5601267,4.87931183 C67.5252752,4.91372043 67.4991366,4.98597849 67.4834535,5.09608602 L67.3510178,5.09608602 L67.3510178,3.46339785 L67.4834535,3.46339785 C67.5461861,3.80576344 67.6298297,4.06210753 67.7343842,4.23070968 C67.8389386,4.3975914 67.9992554,4.5403871 68.2153347,4.65393548 C68.4296713,4.76576344 68.6666614,4.82253763 68.9245624,4.82253763 C69.2225426,4.82253763 69.4577901,4.74511828 69.6320475,4.59027957 C69.8028198,4.43716129 69.8899485,4.25135484 69.8899485,4.04146237 C69.8899485,3.92447312 69.8568396,3.80748387 69.7923644,3.68877419 C69.7261465,3.56834409 69.6233347,3.45823656 69.4856713,3.35501075 C69.3933149,3.28447312 69.138899,3.1347957 68.7241663,2.90597849 C68.3094337,2.67716129 68.0149386,2.49651613 67.8389386,2.36060215 C67.6629386,2.22468817 67.530503,2.07501075 67.4416317,1.91156989 C67.3492752,1.74468817 67.3039683,1.56576344 67.3039683,1.36963441 C67.3039683,1.02554839 67.4381465,0.733075269 67.7047604,0.487053763 C67.9731168,0.239311828 68.3129188,0.11716129 68.7241663,0.11716129 C68.9820673,0.11716129 69.2556515,0.177376344 69.5431762,0.302967742 C69.6756119,0.361462366 69.7714535,0.390709677 69.8254733,0.390709677 C69.8882059,0.390709677 69.9387406,0.371784946 69.9770772,0.335655914 C70.0171564,0.299526882 70.0485228,0.225548387 70.0729188,0.11716129 L70.2053545,0.11716129 Z M57.0558891,2.53952688 L57.1743842,2.53952688 C57.2074931,2.54124731 57.2353743,2.54296774 57.2545426,2.54296774 C57.7180673,2.54296774 58.0683248,2.44490323 58.3018297,2.24705376 C58.5370772,2.05092473 58.6538297,1.80146237 58.6538297,1.49694624 C58.6538297,1.19931183 58.5597307,0.955010753 58.3697901,0.770924731 C58.1798495,0.58511828 57.9289188,0.492215054 57.616998,0.492215054 C57.4793347,0.492215054 57.2911366,0.514580645 57.0558891,0.559311828 L57.0558891,2.53952688 Z M60.4992158,4.98769892 L59.2044832,4.98769892 L57.5629782,2.76146237 C57.4427406,2.76490323 57.3434139,2.76662366 57.2667406,2.76662366 L57.1674139,2.76662366 C57.1308198,2.76490323 57.0942257,2.7631828 57.0558891,2.76146237 L57.0558891,4.14468817 C57.0558891,4.44404301 57.088998,4.62984946 57.1552158,4.70382796 C57.2458297,4.80705376 57.3834931,4.85866667 57.5629782,4.85866667 L57.7546614,4.85866667 L57.7546614,4.98769892 L55.6757703,4.98769892 L55.6757703,4.85866667 L55.856998,4.85866667 C56.0626218,4.85866667 56.208998,4.79156989 56.2961267,4.6608172 C56.3466614,4.58855914 56.3728,4.41651613 56.3728,4.14468817 L56.3728,1.06683871 C56.3728,0.767483871 56.3379485,0.581677419 56.2734733,0.509419355 C56.1793743,0.406193548 56.0399683,0.354580645 55.856998,0.354580645 L55.6757703,0.354580645 L55.6757703,0.225548387 L57.4427406,0.225548387 C57.9568,0.225548387 58.3366812,0.261677419 58.5806416,0.335655914 C58.824602,0.409634409 59.0337109,0.543827957 59.2044832,0.739956989 C59.3717703,0.941247312 59.458899,1.17522581 59.458899,1.45049462 C59.458899,1.74296774 59.3613149,1.9975914 59.1678891,2.21264516 C58.9727208,2.42769892 58.672998,2.5808172 58.2652356,2.66855914 L59.2654733,4.03458065 C59.4937505,4.34941935 59.692404,4.55931183 59.8562059,4.6608172 C60.0200079,4.76404301 60.2360871,4.82769892 60.4992158,4.85866667 L60.4992158,4.98769892 Z M46.1961663,0.485333333 L46.1961663,2.36748387 L47.2608792,2.36748387 C47.5379485,2.36748387 47.7226614,2.32619355 47.8150178,2.24189247 C47.9404832,2.13694624 48.0084436,1.94769892 48.0223842,1.67243011 L48.1548198,1.67243011 L48.1548198,3.33264516 L48.0223842,3.33264516 C47.9892752,3.10210753 47.9561663,2.95415054 47.9230574,2.88705376 C47.8794931,2.80619355 47.8097901,2.7408172 47.7122059,2.69436559 C47.6146218,2.64791398 47.4647604,2.62382796 47.2608792,2.62382796 L46.1961663,2.62382796 L46.1961663,4.19458065 C46.1961663,4.40447312 46.2048792,4.53350538 46.2240475,4.57823656 C46.2432158,4.62468817 46.2763248,4.6608172 46.3233743,4.68662366 C46.3704238,4.71415054 46.4627802,4.72791398 46.5952158,4.72791398 L47.4177109,4.72791398 C47.691295,4.72791398 47.8916911,4.70898925 48.0154139,4.67113978 C48.1408792,4.63329032 48.2593743,4.56103226 48.3726416,4.45092473 C48.5207604,4.3064086 48.6723644,4.08619355 48.8274535,3.79372043 L48.9703446,3.79372043 L48.5521267,4.98769892 L44.8160475,4.98769892 L44.8160475,4.85866667 L44.9868198,4.85866667 C45.1018297,4.85866667 45.2098693,4.82769892 45.3126812,4.77608602 C45.3876119,4.73995699 45.4398891,4.68146237 45.4677703,4.60748387 C45.4939089,4.53350538 45.5078495,4.3803871 45.5078495,4.14812903 L45.5078495,1.0547957 C45.5078495,0.752 45.4782257,0.566193548 45.4154931,0.495655914 C45.3301069,0.402752688 45.1872158,0.354580645 44.9868198,0.354580645 L44.8160475,0.354580645 L44.8160475,0.225548387 L48.5521267,0.225548387 L48.6061465,1.26812903 L48.464998,1.26812903 C48.4162059,1.01694624 48.3604436,0.844903226 48.301196,0.752 C48.2384634,0.659096774 48.1495921,0.58683871 48.0293545,0.536946237 C47.9352554,0.502537634 47.7662257,0.485333333 47.5257505,0.485333333 L46.1961663,0.485333333 Z M38.1646416,0.225548387 L38.1646416,0.354580645 C37.9921267,0.383827957 37.8631762,0.43888172 37.7725624,0.516301075 C37.6488396,0.631569892 37.5355723,0.807053763 37.4379881,1.04275269 L35.7459485,5.09608602 L35.6135129,5.09608602 L33.7977505,0.991139785 C33.7036515,0.779526882 33.6391762,0.650494624 33.6008396,0.605763441 C33.5415921,0.530064516 33.468404,0.475010753 33.3795327,0.43372043 C33.2941465,0.392430108 33.1773941,0.368344086 33.0292752,0.354580645 L33.0292752,0.225548387 L35.0105822,0.225548387 L35.0105822,0.354580645 C34.7857901,0.375225806 34.6411564,0.413075269 34.573196,0.466408602 C34.5069782,0.521462366 34.4738693,0.59027957 34.4738693,0.672860215 C34.4738693,0.791569892 34.5278891,0.973935484 34.6376713,1.22167742 L35.8714139,4.01393548 L37.0145426,1.25780645 C37.1278099,0.985978495 37.1835723,0.796731183 37.1835723,0.691784946 C37.1835723,0.622967742 37.1487208,0.559311828 37.0807604,0.497376344 C37.0093149,0.43544086 36.894305,0.390709677 36.730503,0.366623656 C36.718305,0.363182796 36.6973941,0.359741935 36.6677703,0.354580645 L36.6677703,0.225548387 L38.1646416,0.225548387 Z M26.3743842,4.85866667 L26.3743842,4.98769892 L24.2954931,4.98769892 L24.2954931,4.85866667 L24.4680079,4.85866667 C24.668404,4.85866667 24.8130376,4.80017204 24.9036515,4.6831828 C24.9611564,4.6092043 24.9907802,4.43027957 24.9907802,4.14468817 L24.9907802,1.06683871 C24.9907802,0.825978495 24.9733545,0.665978495 24.9437307,0.59027957 C24.9193347,0.530064516 24.8705426,0.481892473 24.7973545,0.43888172 C24.6910574,0.380387097 24.5830178,0.354580645 24.4680079,0.354580645 L24.2954931,0.354580645 L24.2954931,0.225548387 L26.3743842,0.225548387 L26.3743842,0.354580645 L26.1983842,0.354580645 C26.0014733,0.354580645 25.8568396,0.413075269 25.7662257,0.524903226 C25.7069782,0.600602151 25.6756119,0.781247312 25.6756119,1.06683871 L25.6756119,4.14468817 C25.6756119,4.38554839 25.6930376,4.54382796 25.7226614,4.62296774 C25.7470574,4.67974194 25.7975921,4.73135484 25.8725228,4.77264516 C25.9753347,4.82769892 26.0833743,4.85866667 26.1983842,4.85866667 L26.3743842,4.85866667 Z M12.315295,0.225548387 L13.6309386,0.225548387 L16.5968,3.79716129 L16.5968,1.05135484 C16.5968,0.75888172 16.5619485,0.574795699 16.4957307,0.502537634 C16.408602,0.404473118 16.269196,0.354580645 16.0775129,0.354580645 L15.9084832,0.354580645 L15.9084832,0.225548387 L17.5970376,0.225548387 L17.5970376,0.354580645 L17.4262653,0.354580645 C17.2206416,0.354580645 17.0760079,0.416516129 16.9906218,0.536946237 C16.936602,0.612645161 16.9122059,0.782967742 16.9122059,1.05135484 L16.9122059,5.06511828 L16.7815129,5.06511828 L13.5856317,1.22855914 L13.5856317,4.1636129 C13.5856317,4.45436559 13.616998,4.63673118 13.6814733,4.71070968 C13.7720871,4.80877419 13.9132356,4.85866667 14.0996911,4.85866667 L14.2704634,4.85866667 L14.2704634,4.98769892 L12.5836515,4.98769892 L12.5836515,4.85866667 L12.7509386,4.85866667 C12.9600475,4.85866667 13.1064238,4.79673118 13.1918099,4.67458065 C13.2458297,4.60060215 13.2702257,4.42855914 13.2702257,4.1636129 L13.2702257,0.850064516 C13.1308198,0.688344086 13.0227802,0.581677419 12.9513347,0.528344086 C12.8781465,0.478451613 12.7718495,0.43027957 12.630701,0.383827957 C12.560998,0.366623656 12.4564436,0.354580645 12.315295,0.354580645 L12.315295,0.225548387 Z M4.20535446,0.354580645 L4.20535446,0.225548387 L5.9217901,0.225548387 L5.9217901,0.354580645 L5.7388198,0.354580645 C5.54887921,0.354580645 5.40250297,0.43372043 5.29969109,0.59027957 C5.25089901,0.664258065 5.2247604,0.831139785 5.2247604,1.09436559 L5.2247604,3.02812903 C5.2247604,3.50468817 5.17771089,3.87630108 5.08012673,4.13780645 C4.98428515,4.40103226 4.79434455,4.62984946 4.51204752,4.81737634 C4.22800792,5.00662366 3.84289901,5.10124731 3.35846337,5.10124731 C2.82697822,5.10124731 2.42618614,5.01006452 2.15260198,4.82769892 C1.87727525,4.64877419 1.6838495,4.40791398 1.5688396,4.10339785 C1.49390891,3.89178495 1.45557228,3.50296774 1.45557228,2.92834409 L1.45557228,1.06683871 C1.45557228,0.774365591 1.41549307,0.583397849 1.3318495,0.492215054 C1.24994851,0.401032258 1.11751287,0.354580645 0.934542574,0.354580645 L0.749829703,0.354580645 L0.749829703,0.225548387 L2.84614653,0.225548387 L2.84614653,0.354580645 L2.66143366,0.354580645 C2.46103762,0.354580645 2.31640396,0.416516129 2.23101782,0.542107527 C2.1717703,0.624688172 2.14214653,0.801892473 2.14214653,1.06683871 L2.14214653,3.14339785 C2.14214653,3.3292043 2.15957228,3.53909677 2.19442376,3.77995699 C2.22753267,4.01737634 2.29026535,4.20490323 2.38262178,4.33737634 C2.47149307,4.46984946 2.60218614,4.58167742 2.77295842,4.66769892 C2.94373069,4.75372043 3.1528396,4.79845161 3.40028515,4.79845161 C3.71743366,4.79845161 4.00147327,4.72963441 4.25066139,4.59372043 C4.50159208,4.45952688 4.67410693,4.28576344 4.76646337,4.07243011 C4.85707723,3.8608172 4.90412673,3.50296774 4.90412673,2.99716129 L4.90412673,1.06683871 C4.90412673,0.770924731 4.86927525,0.58511828 4.80305743,0.509419355 C4.70895842,0.406193548 4.57129505,0.354580645 4.38832475,0.354580645 L4.20535446,0.354580645 Z" id="Fill-24" fill="#545454" mask="url(#mask-4)"></path>
                </g>
            </g>
        </g>
    </g>
</svg>