<svg xmlns="http://www.w3.org/2000/svg" width="68.97" height="70" viewBox="0 0 68.97 70"><g transform="translate(-0.015)"><path d="M48.1,57.182H24.9a1.165,1.165,0,0,1-1.159-1.167V44.348A1.164,1.164,0,0,1,24.9,43.182h3.479V37.348H20.264V56.015a1.165,1.165,0,0,1-1.159,1.167H12.146a1.165,1.165,0,0,1-1.159-1.167V34.91L9.618,36.859a1.151,1.151,0,0,1-.858.49c-.032,0-.065,0-.1,0a1.149,1.149,0,0,1-.819-.342L1.71,30.8a5.858,5.858,0,0,1-.232-8.026L8.969,14.4a1.154,1.154,0,0,1,.858-.384h1.288a8.2,8.2,0,0,1-1.5-9.676A8.083,8.083,0,0,1,20.587.955,8.2,8.2,0,0,1,23.952,12L35.839,3.725a1.154,1.154,0,0,1,1.588.257l3.479,4.667a1.161,1.161,0,0,1-.256,1.644L24.9,21.61v6.405h6.958a5.823,5.823,0,0,1,5.8,5.834v9.333H48.1a1.165,1.165,0,0,1,1.16,1.166V56.015A1.165,1.165,0,0,1,48.1,57.182ZM26.063,45.516v9.333H46.937V45.516Zm-13.925-24.5a1.149,1.149,0,0,1,.45.091,1.165,1.165,0,0,1,.719,1.074V54.849h4.639V36.182a1.165,1.165,0,0,1,1.16-1.166H29.542a1.165,1.165,0,0,1,1.16,1.166v7H35.34V33.849a3.494,3.494,0,0,0-3.479-3.5H23.744a1.165,1.165,0,0,1-1.16-1.167V21.015a1.171,1.171,0,0,1,.487-.945L38.344,9.092l-2.1-2.812L22.329,15.975l-3.352,6.732a1.157,1.157,0,0,1-.5.507,1.144,1.144,0,0,1-.528.128,1.156,1.156,0,0,1-1.034-.635l-3.165-6.358h-3.4L3.194,24.34a3.507,3.507,0,0,0,.128,4.841l5.195,5.2,1.96-2.753L6.685,27.653a1.177,1.177,0,0,1,0-1.634l4.639-4.666A1.147,1.147,0,0,1,12.138,21.017Zm-1.15,3.965L9.131,26.849l1.856,1.994Zm5.358-8.634h0l1.6,3.22,1.6-3.22h-3.2Zm.44-14a5.833,5.833,0,1,0,5.8,5.833A5.822,5.822,0,0,0,16.785,2.349Z" transform="translate(0.015 12.818)" fill="#555"/><path d="M10.437,21a1.165,1.165,0,0,1-1.16-1.166A8.151,8.151,0,0,0,1.16,11.667a1.167,1.167,0,0,1,0-2.334A8.151,8.151,0,0,0,9.277,1.166a1.16,1.16,0,1,1,2.319,0,8.152,8.152,0,0,0,8.118,8.167,1.167,1.167,0,0,1,0,2.334A8.152,8.152,0,0,0,11.6,19.833,1.164,1.164,0,0,1,10.437,21Zm0-15.026a10.512,10.512,0,0,1-4.5,4.527,10.5,10.5,0,0,1,4.5,4.526,10.5,10.5,0,0,1,4.5-4.526A10.512,10.512,0,0,1,10.437,5.973Z" transform="translate(48.111)" fill="#555"/><path d="M.007,1.174A1.167,1.167,0,0,1,1.17.008L2.758,0A1.172,1.172,0,0,1,3.934,1.177H3.928A1.159,1.159,0,0,1,2.776,2.332l-1.6,0A1.172,1.172,0,0,1,0,1.163Z" transform="translate(35.816 31.717) rotate(-36.251)" fill="#555"/><path d="M.007,1.22A1.182,1.182,0,0,1,1.185.038L13.225,0a1.187,1.187,0,0,1,1.192,1.188H14.41a1.152,1.152,0,0,1-1.137,1.14L1.192,2.366A1.187,1.187,0,0,1,0,1.178Z" transform="translate(41.604 27.42) rotate(-36.272)" fill="#555"/><path d="M.006,1.193A1.174,1.174,0,0,1,1.176.02L7.2,0A1.178,1.178,0,0,1,8.383,1.183H8.376A1.157,1.157,0,0,1,7.23,2.332l-6.047.017A1.178,1.178,0,0,1,0,1.17Z" transform="translate(41.646 17.677) rotate(-33.692)" fill="#555"/></g></svg>