<svg xmlns="http://www.w3.org/2000/svg" width="40" height="40" viewBox="0 0 40 40">
    <g fill="#CF0F11" fill-rule="nonzero">
        <path d="M38.989 9.81a3.706 3.706 0 0 0 1.002-2.803 3.99 3.99 0 0 0-3.406-3.595A3.99 3.99 0 0 0 32.99.009a3.701 3.701 0 0 0-2.805 1.003A3.068 3.068 0 0 0 29.3 3.35v6.68c0 .37.3.67.668.67h6.652a3.094 3.094 0 0 0 2.369-.888zm-8.349-.449V3.313c-.04-.504.141-1 .496-1.36a2.37 2.37 0 0 1 1.797-.61 2.74 2.74 0 0 1 2.383 2.701.668.668 0 0 0 .637.638 2.74 2.74 0 0 1 2.699 2.386v.141a2.33 2.33 0 0 1-.613 1.657c-.37.358-.875.539-1.388.495h-6.01zM28.29 11.712c-.239-1.364-1.115-2.625-2.531-2.69a2.552 2.552 0 0 0-1.958.697 2.5 2.5 0 0 0-.702 1.787V16.238c0 .362.294.656.657.656h4.568a2.554 2.554 0 0 0 1.958-.698c.495-.526.749-1.235.697-1.956-.062-1.413-1.325-2.288-2.688-2.528zm-.622 1.246c.954.044 1.963.558 2 1.343v.09a1.2 1.2 0 0 1-.317.877 1.272 1.272 0 0 1-.995.314h-3.939v-3.964a1.121 1.121 0 0 1 1.28-1.284c.788.036 1.3 1.045 1.344 1.999.016.338.287.61.626.625zM29.665 28.914l-18.58-18.579a.664.664 0 0 0-1.095.25L.037 39.119a.664.664 0 0 0 .845.845l28.532-9.953a.663.663 0 0 0 .251-1.096zm-9.371-7.493a3.318 3.318 0 1 1-4.37-4.369l4.37 4.369zM7.299 22.748a3.318 3.318 0 1 1-2.175 5.817l.465-1.33 1.563-4.483c.05-.003.1-.004.147-.004zM4.742 37.213a3.31 3.31 0 0 1 5.242-1.827l-5.242 1.827zm11.154-3.89a3.318 3.318 0 1 1 5.998-2.093l-5.998 2.092zm7.286-2.546a4.645 4.645 0 1 0-8.575 2.992l-3.213 1.122a4.634 4.634 0 0 0-8.061 2.812l-1.593.555 2.92-8.376a4.64 4.64 0 1 0 2.946-8.445l3.285-9.415 4.053 4.053a4.604 4.604 0 0 0-2.337 4.019 4.65 4.65 0 0 0 4.645 4.645 4.603 4.603 0 0 0 4.02-2.342l6.707 6.708-4.797 1.672zM21.87 9.014a.666.666 0 0 0 .665-.666 6.665 6.665 0 0 0-6.658-6.658.666.666 0 0 0 0 1.332 5.332 5.332 0 0 1 5.327 5.326c0 .368.298.666.665.666zM23.742 7.887c.356 0 .644-.302.644-.676 0-2.663 1.06-3.535 2.933-4.845a.697.697 0 0 0 .178-.938.625.625 0 0 0-.893-.187C24.552 2.678 23.1 3.947 23.1 7.21c0 .374.288.676.643.676zM18.956 10.838c.142.351.542.521.894.38a.683.683 0 0 0 .382-.89 4.252 4.252 0 0 0-2.342-2.285 4.087 4.087 0 0 0-3.461.584.684.684 0 1 0 .708 1.173 2.804 2.804 0 0 1 2.305-.464 2.88 2.88 0 0 1 1.514 1.502zM13.521 7.324a1.69 1.69 0 1 0 0-3.38 1.69 1.69 0 0 0 0 3.38zm0-2.028a.338.338 0 1 1 0 .676.338.338 0 0 1 0-.676zM20.845 1.69a1.69 1.69 0 1 0 3.38 0 1.69 1.69 0 0 0-3.38 0zm2.028 0a.338.338 0 1 1-.676 0 .338.338 0 0 1 .676 0zM37.008 25.414c.83-3.352-1.351-6.451-5.193-7.367a.672.672 0 0 0-.81.484.654.654 0 0 0 .494.793c2.645.63 4.937 2.815 4.204 5.779a.657.657 0 0 0 .494.794c.36.085.723-.131.81-.484zM39.981 14.296c.087-.336-.133-.675-.49-.757-.357-.082-.718.125-.804.46-.443 1.712-2.721 2.61-5.188 2.046-.357-.082-.718.125-.804.46a.6.6 0 0 0-.019.149c0 .289.21.54.509.608 3.191.73 6.177-.572 6.796-2.966zM27.923 20.979c.547.384.914.95 1.023 1.582-.009.855-.421 1.662-1.127 2.206a.659.659 0 0 0 .037.95.778.778 0 0 0 1.017.018c1.022-.826 1.59-2.04 1.547-3.302-.152-1.037-.748-1.971-1.651-2.59a.774.774 0 0 0-1.03.172.663.663 0 0 0 .184.963zM34.318 27.443a1.69 1.69 0 1 0-3.285-.801 1.69 1.69 0 0 0 3.285.8zm-1.722-.072a.338.338 0 1 1 .16-.657.338.338 0 0 1-.16.657z"/>
        <path d="M39.952 20.119a1.69 1.69 0 1 0-3.285-.799 1.69 1.69 0 0 0 3.285.798zm-1.722-.072a.338.338 0 1 1 .16-.657.338.338 0 0 1-.16.657zM22.372 17.628a.564.564 0 1 0 .068.71.317.317 0 0 0 .05-.096.563.563 0 0 0-.118-.614zM35.538 29.645a.558.558 0 0 0 .518.778.563.563 0 1 0-.4-.964.646.646 0 0 0-.118.186zM6.603 3.544a.654.654 0 0 0-.187-.119.536.536 0 0 0-.43 0 .654.654 0 0 0-.188.119.555.555 0 0 0-.119.614c.029.068.07.13.12.186a.66.66 0 0 0 .186.118c.138.06.294.06.431 0a.654.654 0 0 0 .187-.118.587.587 0 0 0 0-.8zM11.171 2.57a.444.444 0 0 0 .05-.102.347.347 0 0 0 .034-.108.544.544 0 0 0-.336-.625.556.556 0 0 0-.661.174.566.566 0 0 0 0 .689.557.557 0 0 0 .661.174.644.644 0 0 0 .185-.118.946.946 0 0 0 .067-.085zM36.102 34.017a.66.66 0 0 0 .118.186c.055.05.118.09.186.118.137.06.293.06.43 0a.651.651 0 0 0 .186-.118.585.585 0 0 0 0-.8.651.651 0 0 0-.187-.118.559.559 0 0 0-.734.732z"/>
    </g>
</svg>
