<?xml version="1.0" encoding="UTF-8"?>
<svg width="46px" height="46px" viewBox="0 0 46 46" version="1.1" xmlns="http://www.w3.org/2000/svg" xmlns:xlink="http://www.w3.org/1999/xlink">
    <!-- Generator: Sketch 61.2 (89653) - https://sketch.com -->
    <title>Combined Shape</title>
    <desc>Created with Sketch.</desc>
    <g id="PADE-DESKTOP" stroke="none" stroke-width="1" fill="none" fill-rule="evenodd">
        <g id="4-Home-(PADE---Desktop)" transform="translate(-865.000000, -1630.000000)" fill="#CF0F11" fill-rule="nonzero">
            <path d="M888,1630 C900.702549,1630 911,1640.29745 911,1653 C911,1665.70255 900.702549,1676 888,1676 C887.894312,1676 887.788791,1675.99929 887.68344,1675.99787 L887.5,1676 C887.322876,1676 887.14701,1675.99259 886.972462,1675.97794 C874.746716,1675.43993 865,1665.3582 865,1653 C865,1640.6418 874.746716,1630.56007 886.972409,1630.02255 C887.14701,1630.00741 887.322876,1630 887.5,1630 C887.561296,1630 887.622441,1630.00089 887.683433,1630.00265 Z M886,1661 L879.415252,1661.00053 C880.617618,1667.2237 883.148589,1671.81936 886.000673,1673.03683 L886,1661 Z M895.584748,1661.00053 L889,1661 L889.00033,1673.03641 C891.852004,1671.81829 894.382523,1667.22297 895.584748,1661.00053 Z M906.723759,1661.00085 L898.311082,1661.00062 C897.447833,1665.81235 895.81619,1669.8798 893.66103,1672.55989 C899.550783,1670.85703 904.342097,1666.56724 906.723759,1661.00085 Z M876.688918,1661.00062 L869.276241,1661.00085 C871.474769,1666.13922 875.726622,1670.18977 881.000188,1672.12088 C879.012708,1669.44577 877.506332,1665.55686 876.688918,1661.00062 Z M876.261926,1648.00056 L868.262089,1648.00075 C867.858225,1649.60024 867.643678,1651.27506 867.643678,1653 C867.643678,1654.72529 867.858314,1656.40046 868.26234,1658.00024 L876.262033,1658.00045 C876.089943,1656.38852 876,1654.71488 876,1653 C876,1651.28547 876.089905,1649.61217 876.261926,1648.00056 Z M886,1648 L878.95614,1647.99987 C878.772906,1649.5971 878.674419,1651.27177 878.674419,1653 C878.674419,1654.72859 878.772947,1656.4036 878.956255,1658.00113 L886,1658 L886,1648 Z M896.04386,1647.99987 L889,1648 L889,1658 L896.043745,1658.00113 C896.212402,1656.53128 896.30929,1654.99584 896.3237,1653.41343 L896.325581,1653 C896.325581,1651.27177 896.227094,1649.5971 896.04386,1647.99987 Z M907.737911,1648.00075 L898.738074,1648.00056 C898.910095,1649.61217 899,1651.28547 899,1653 C899,1654.71488 898.910057,1656.38852 898.737967,1658.00045 L907.73766,1658.00024 C908.141686,1656.40046 908.356322,1654.72529 908.356322,1653 C908.356322,1651.27506 908.141775,1649.60024 907.737911,1648.00075 Z M881.00014,1633.87866 L880.760462,1633.96863 C875.59752,1635.93373 871.440807,1639.9394 869.275813,1645.00015 L876.688738,1645.00038 C877.506111,1640.44371 879.012562,1636.55443 881.00014,1633.87866 Z M886.000673,1632.96317 C883.148436,1634.1807 880.617347,1638.77679 879.415059,1645.00047 L886,1645 Z M889.00033,1632.96359 L889,1645 L895.584941,1645.00047 C894.382793,1638.77752 891.852157,1634.18178 889.00033,1632.96359 Z M893.661298,1633.44126 L893.765603,1633.57177 C895.869125,1636.25268 897.462075,1640.26635 898.311262,1645.00038 L906.724187,1645.00015 C904.342672,1639.43328 899.551136,1635.14307 893.661298,1633.44126 Z" id="Combined-Shape"></path>
        </g>
    </g>
</svg>