<svg xmlns="http://www.w3.org/2000/svg" width="72.5" height="72.5" viewBox="0 0 72.5 72.5">
  <g id="Group_37" data-name="Group 37" transform="translate(0)">
    <g id="Reloj" transform="translate(7.25 7.25)">
      <path id="Shape" d="M29,58A29.007,29.007,0,0,1,17.712,2.279,29.007,29.007,0,0,1,40.288,55.721,28.819,28.819,0,0,1,29,58ZM29,49.1a1.246,1.246,0,0,1,1.245,1.244v5.1A26.392,26.392,0,0,0,55.462,30.245H50.349a1.244,1.244,0,0,1,0-2.488h5.1A26.4,26.4,0,0,0,30.245,2.551v5.1a1.244,1.244,0,1,1-2.488,0v-5.1A26.393,26.393,0,0,0,2.551,27.756h5.1a1.244,1.244,0,1,1,0,2.488h-5.1a26.393,26.393,0,0,0,25.2,25.205v-5.1A1.245,1.245,0,0,1,29,49.1Z" fill="#555"/>
      <path id="Path" d="M14.638,25.884,2.535,13.8V1.244A1.256,1.256,0,0,0,1.267,0,1.256,1.256,0,0,0,0,1.244V14.311a1.233,1.233,0,0,0,.368.871L12.826,27.626a1.285,1.285,0,0,0,1.793.019A1.229,1.229,0,0,0,14.638,25.884Z" transform="translate(28 15)" fill="#555"/>
    </g>
    <path id="Oval" d="M36.25,72.5A36.26,36.26,0,0,1,22.14,2.849a36.26,36.26,0,0,1,28.22,66.8A36.023,36.023,0,0,1,36.25,72.5Zm0-70A33.75,33.75,0,1,0,70,36.25,33.788,33.788,0,0,0,36.25,2.5Z" fill="#555"/>
  </g>
</svg>
