<svg xmlns="http://www.w3.org/2000/svg" width="46" height="46" viewBox="0 0 46 46">
    <path fill="#CF0F11" fill-rule="nonzero" d="M23 0c12.703 0 23 10.297 23 23S35.703 46 23 46c-.106 0-.211 0-.317-.002L22.5 46c-.177 0-.353-.007-.528-.022C9.747 45.44 0 35.358 0 23 0 10.642 9.747.56 21.972.023a6.105 6.105 0 0 1 .711-.02zm-2 31h-6.585c1.203 6.224 3.734 10.82 6.586 12.037L21 31zm9.585 0H24v12.036c2.852-1.218 5.383-5.813 6.585-12.035zm11.139 0H33.31c-.863 4.812-2.495 8.88-4.65 11.56A20.413 20.413 0 0 0 41.724 31zm-30.035 0H4.276A20.422 20.422 0 0 0 16 42.12c-1.987-2.674-3.494-6.563-4.311-11.12zm-.427-13h-8a20.398 20.398 0 0 0-.618 5c0 1.725.214 3.4.618 5h8A47.178 47.178 0 0 1 11 23c0-1.715.09-3.388.262-5zM21 18h-7.044a43.95 43.95 0 0 0-.282 5c0 1.729.099 3.404.282 5.001L21 28V18zm10.044 0H24v10l7.044.001c.168-1.47.265-3.005.28-4.588l.002-.413a43.95 43.95 0 0 0-.282-5zm11.694 0h-9c.172 1.612.262 3.285.262 5 0 1.715-.09 3.389-.262 5h9c.404-1.6.618-3.275.618-5s-.214-3.4-.618-5zM16 3.88l-.24.09A20.424 20.424 0 0 0 4.276 15h7.413C12.506 10.444 14.013 6.554 16 3.88zm5-.916C18.149 4.181 15.618 8.777 14.416 15H21zm3 0V15h6.585C29.383 8.778 26.852 4.182 24 2.964zm4.661.478l.105.13c2.103 2.682 3.696 6.695 4.545 11.43h8.413A20.409 20.409 0 0 0 28.661 3.44z"/>
</svg>
