<svg xmlns="http://www.w3.org/2000/svg" width="70" height="70" viewBox="0 0 70 70"><g transform="translate(0 0)"><path d="M68.871,70H50.807a1.131,1.131,0,0,1-1.13-1.129V66.613a10.077,10.077,0,0,1,1.78-5.734A10.19,10.19,0,0,1,56.026,57.2a5.58,5.58,0,0,1-1.832-4.136V51.936H50.6a3.368,3.368,0,0,1-6.359,0H40.645v1.129A5.579,5.579,0,0,1,38.813,57.2a10.191,10.191,0,0,1,4.569,3.678,10.077,10.077,0,0,1,1.78,5.734v2.258A1.13,1.13,0,0,1,44.032,70H25.968a1.13,1.13,0,0,1-1.129-1.129V66.613a10.079,10.079,0,0,1,1.78-5.734A10.188,10.188,0,0,1,31.187,57.2a5.58,5.58,0,0,1-1.832-4.136V51.936H25.76a3.368,3.368,0,0,1-6.359,0H15.807v1.129A5.582,5.582,0,0,1,13.974,57.2a10.191,10.191,0,0,1,4.569,3.678,10.077,10.077,0,0,1,1.78,5.734v2.258A1.131,1.131,0,0,1,19.193,70H1.129A1.13,1.13,0,0,1,0,68.871V66.613a10.079,10.079,0,0,1,1.78-5.734A10.188,10.188,0,0,1,6.348,57.2a5.582,5.582,0,0,1-1.832-4.136V50.807a5.645,5.645,0,0,1,11.176-1.129H19.4a3.368,3.368,0,0,1,6.359,0h3.709a5.636,5.636,0,0,1,4.4-4.4V42.744a4.511,4.511,0,0,1-3.387-4.356h-1.13a1.13,1.13,0,0,1-1.129-1.129V33.871H25.968V31.613h2.246A8.257,8.257,0,0,0,25.321,25.7a14.641,14.641,0,0,1-5-11.289A14.86,14.86,0,0,1,34.394.014C34.61,0,34.828,0,35.044,0a14.668,14.668,0,0,1,9.54,25.781,7.756,7.756,0,0,0-2.809,5.82v.012h2.258v2.258H41.774v3.388a1.13,1.13,0,0,1-1.13,1.129H39.516a4.511,4.511,0,0,1-3.388,4.356v2.533a5.634,5.634,0,0,1,4.4,4.4h3.709a3.368,3.368,0,0,1,6.359,0h3.708a5.646,5.646,0,0,1,11.177,1.129v2.258A5.579,5.579,0,0,1,63.652,57.2a10.191,10.191,0,0,1,4.569,3.678A10.077,10.077,0,0,1,70,66.613v2.258A1.131,1.131,0,0,1,68.871,70Zm-5.645-4.516h2.258v2.258h2.258v-1.13a7.9,7.9,0,0,0-15.807,0v1.13h2.258V65.484h2.258v2.258h6.774V65.485Zm-24.839,0h2.258v2.258H42.9v-1.13a7.9,7.9,0,1,0-15.806,0v1.13h2.257V65.484h2.258v2.258h6.774V65.485Zm-24.838,0h2.258v2.258h2.258v-1.13a7.9,7.9,0,0,0-15.807,0v1.13H4.516V65.484H6.774v2.258h6.774V65.485ZM59.838,47.42a3.391,3.391,0,0,0-3.387,3.387v2.258a3.387,3.387,0,0,0,6.774,0V50.807A3.391,3.391,0,0,0,59.838,47.42ZM35,47.42a3.391,3.391,0,0,0-3.388,3.387v2.258a3.387,3.387,0,0,0,6.774,0V50.807A3.391,3.391,0,0,0,35,47.42Zm-24.839,0a3.391,3.391,0,0,0-3.387,3.387v2.258a3.387,3.387,0,0,0,6.774,0V50.807A3.391,3.391,0,0,0,10.161,47.42Zm37.258,2.258a1.129,1.129,0,1,0,1.129,1.129A1.13,1.13,0,0,0,47.419,49.678Zm-24.838,0a1.129,1.129,0,1,0,1.129,1.129A1.13,1.13,0,0,0,22.581,49.678ZM32.742,38.388a2.258,2.258,0,1,0,4.516,0Zm-2.258-4.516V36.13h9.032V33.871Zm4.484-31.61c-.16,0-.322,0-.483.009a12.575,12.575,0,0,0-11.9,12.181A12.383,12.383,0,0,0,26.809,24a10.512,10.512,0,0,1,3.663,7.613h9.044V31.6a10.022,10.022,0,0,1,3.592-7.532,12.41,12.41,0,0,0-8.14-21.809Z" fill="#555"/><path d="M0,2.478A2.787,2.787,0,0,1,2.478,0h0A2.091,2.091,0,0,1,4.336,1.858h0a.7.7,0,0,1-.619.619H2.478A2.787,2.787,0,0,1,0,0Z" transform="translate(32.832 26.637)" fill="#555"/></g></svg>