<svg xmlns="http://www.w3.org/2000/svg" width="136.618" height="39.122" viewBox="0 0 136.618 39.122"><g transform="translate(0 0)"><path d="M37.691,19.562c0,10.421-7.852,18.935-17.735,19.536a3.6,3.6,0,0,0-.028-.442,1.987,1.987,0,0,1,.013-.679.9.9,0,0,0-.021-.446,2.675,2.675,0,0,1-.034-.737c.019-.148-.066-.236,0-.4s.07-.322.164-.392a1.285,1.285,0,0,0,.357-.211l.147-.3s.276-.126.479-.2a2.6,2.6,0,0,1,.532-.191l.26-.018a.481.481,0,0,0,.378.076,2.916,2.916,0,0,1,.527-.037s.066.108.44.148l.345.092.4-.07.494-.177.211.044s.2.032.269-.022c.072-.036.343-.13.592-.257l.4-.369a.52.52,0,0,0,.225-.146l.071-.177-.5-.171-1.277-.126a.121.121,0,0,1-.035-.186,1.7,1.7,0,0,0,.265-.247l.248-.053.223-.044.242-.015.227-.259L25.393,33l-.226-.087-.436-.057c0-.059.049-.156.211-.181a3.825,3.825,0,0,0,.741-.264c-.061-.016-.353-.024-.21-.132l.177-.087c.074-.037.249-.078.266-.121h-.181l-.171-.271a.863.863,0,0,1-.25-.046.446.446,0,0,1-.232-.048l-.325.008s-.2,0-.2-.033l.043-.27a1.913,1.913,0,0,1,.2-.107c.079-.037.509-.145.437-.306,0,0,.072.044.231-.123l-.2-.089h-.564a.681.681,0,0,1-.264.039l-.632-.076-.249-.106-.3-.109-.21-.112a1.4,1.4,0,0,1-.311.034l-.4-.045a1.39,1.39,0,0,1-.392-.034l-.867-.01s-.247.01-.257.018a3.123,3.123,0,0,0-.333.067c-.068,0-.438,0-.478,0l-.3-.027a.937.937,0,0,0,.222-.107l.2-.049.077-.173.314-.083.36-.126-.546-.252s.145-.006.176-.039a.785.785,0,0,0,.312-.141,3.065,3.065,0,0,0,.527-.03.338.338,0,0,1,.209,0c.082.034.218.08.223.118a1.568,1.568,0,0,1,.386.04,3.971,3.971,0,0,0,.476.094.551.551,0,0,1,.2.081.409.409,0,0,0,.265-.026l.34.04a1.055,1.055,0,0,1,.289.088l.275-.145a.4.4,0,0,0,0-.19c.1,0,.194-.029.17-.12l.029-.189a.737.737,0,0,0,.2-.044s.009-.048.225-.048a.2.2,0,0,0-.242-.139c-.036-.008-.143-.082-.209-.106a2.064,2.064,0,0,0-.239,0c-.047.007-.091.049-.226-.128l.086-.232-.206-.053-.173-.079a1.088,1.088,0,0,1,.127-.25s.017-.062.2-.139c.028-.033.052-.073.18-.217l-.3-.082-1.42.034a3.046,3.046,0,0,1-.433.055s-.226-.018-.281.028a3.022,3.022,0,0,1-.647.15c.09.027.258-.011.348.111,0,0,.249.014.326.014l.383.024s.058.033.095.234l-.224.084-.276-.005a4.781,4.781,0,0,1-.854.04,5.776,5.776,0,0,0-.611-.079c.037-.175-.13-.219-.164-.253l-.178-.058s-.05-.043-.068-.234l-.174-.108a.243.243,0,0,0,.107-.226c0-.154,0-.205.067-.246l.235-.166c-.088-.134.011-.175.141-.175a3.306,3.306,0,0,1-.485-.126c.01-.055.161-.159.209-.171a.872.872,0,0,1,.242-.05h.19l.218.013a2.2,2.2,0,0,0,.271.007c.087-.007.248,0,.248,0s.064.065.166.186l.179-.044a3.206,3.206,0,0,0,.472-.007l.57.1a1.39,1.39,0,0,1,.484.029h-.253l.019.191a.593.593,0,0,1-.194.2,2.1,2.1,0,0,0,.208.046c.085.006.2.036.208.119h.356s.191-.04.229-.04l.2-.01.155-.27a1.732,1.732,0,0,1,.2-.084.589.589,0,0,0,.221-.148l.37-.054a2.359,2.359,0,0,1,.461-.031c.1,0,.242-.024.242-.158a.332.332,0,0,0,.164-.092c-.04-.047-.128-.079-.178-.034a.89.89,0,0,1-.2.046.684.684,0,0,0-.183,0,.491.491,0,0,1-.348-.228.312.312,0,0,1,.221-.085l.185-.059a.419.419,0,0,1,.173-.177l-.094-.2-.042-.234-.232-.119-.183-.042h-.352l-.19-.067-.334-.11-.256-.1-.368-.193-.313-.168-.235-.1-.612.015-.169-.015.006-.242.279-.243.165-.078a.909.909,0,0,1,.65-.05,1.2,1.2,0,0,1,.262.035.3.3,0,0,0,.384-.144l.879-.015.436-.033-.14-.168-.287-.1a1.265,1.265,0,0,0-.306-.2.5.5,0,0,1-.22-.189.672.672,0,0,1-.207-.137.845.845,0,0,0-.265-.013.976.976,0,0,1-.333,0c-.08-.03-.114-.077-.142-.2a1.7,1.7,0,0,0,.412-.1l.249-.01.359-.076c0-.043-.145-.043-.2-.051l-.305-.091a.753.753,0,0,1,.237-.062l.186-.058.167-.052a.439.439,0,0,0,.307-.19l-.268-.037-.606-.053-.209.145-.2.135-.327.009a.7.7,0,0,1-.456-.145l.062-.175.072-.2.287-.044.778-.038.749.038-.117-.214c-.034.048-.156.037-.156.037l-.228-.029-.356-.052-.268-.088-.384.132s-.139.064-.359-.1a.208.208,0,0,1,.213-.234,1.3,1.3,0,0,1,.313-.194.181.181,0,0,1-.038-.174c.026-.011.082-.053.056-.194l.108-.185.274-.352a.814.814,0,0,0,.258-.217l-.189-.07h-.392a.581.581,0,0,0-.258-.08c-.087,0-.291-.011-.316-.084l-.293-.225-1.035-.16-.2-.13-.328-.192-.077-.193-.55-.031v-.239l.462-.079a.7.7,0,0,1,.2-.071,1.429,1.429,0,0,0,.32-.043,1.268,1.268,0,0,0,.482-.216l.34-.154.614-.055.33-.034c.039,0,.168-.009.189-.061l.266,0-.514-.213A2,2,0,0,0,22.2,17.3a2.015,2.015,0,0,0,.245-.051c.093-.038.261-.057.332-.166l.313-.017.186-.017-.026-.182a3.933,3.933,0,0,1-.726.015,6.776,6.776,0,0,0-.746-.071c-.065.036-.472.077-.585.123l-.21-.028a.339.339,0,0,1,.385-.158.368.368,0,0,0,.375-.172s.035-.037.258-.212l.178-.069-.2-.071-.262-.164a.484.484,0,0,1,.08-.222l.154-.2.166-.032a.412.412,0,0,0,.332-.182.188.188,0,0,1,.052-.232L22.455,15s.027-.05.174-.087L22.7,14.7l-.176-.207-.3-.027-.274-.046-.234-.2-.369-.151c0-.059-.02-.137.053-.17a.983.983,0,0,1,.346-.1c.093.011.242-.019.195-.113l.33-.075s-.068-.059.162-.187c0,0-.014,0-.429-.241l-.213-.093-.194-.114-.119-.2-1.076.1.041.214-.17.168a.721.721,0,0,1-.257.028c-.088-.014-.265-.072-.324-.044a.207.207,0,0,1-.255-.028V13l-.036-.239-.024-.192.164-.328.441-.059h1.057a.637.637,0,0,0,.2.028c.084-.021.121-.083.367-.193l.106-.183c-.119-.018-.184-.037-.238-.114l-.139-.212-.218-.089-1.2.012-.212-.053-.335-.091L19.36,11.1a.22.22,0,0,0-.013-.182s0-.014.194-.136c.071,0,.071-.071.2-.085.107-.01.316-.01.316-.01s.031-.114.2-.1a.256.256,0,0,1,.253.237l.17.092L21,10.88l.254.033c.132.011.168.044.247.011a.472.472,0,0,1,.252-.044.579.579,0,0,1,.251.077l-.053-.221-.284-.053-.207-.169-.074-.184L21.243,9.9l-.084-.409a1.528,1.528,0,0,1-.111-.279H20.8l-.5.029-.334-.159-.248.047-.291-.176L19.4,8.686l.014-.247h.195s-.114-.147-.195-.169-.016-.211-.016-.211l-.048-.25.1-.242.613-.137.518-.09.167-.192-.227-.036-.2-.036.2-.195L20.29,6.9a1.211,1.211,0,0,1-.252-.069,1.078,1.078,0,0,1-.225.069l-.222-.125a1.037,1.037,0,0,1-.018-.176l.178-.1-.192-.181L19.3,6.106a.883.883,0,0,1,.149-.346l.4.021-.2-.13-.2-.195L19.36,5.07l.057-.3.458-.163-.062-.226-.173-.236-.2-.094-.256-.01.134-.207L19.3,3.6l-.247.031-.216.143.079.206-.059.216-.171.187s-.068.158-.184.148-.39-.01-.464-.031-.135-.057-.2,0a.7.7,0,0,1-.463.205c0,.035.074.05.2.179a1.61,1.61,0,0,1,.439.175c.046.064.085.064.182.064l.386-.137.036.29c-.007.147-.053.223,0,.287-.136.145-.106.283-.245.374l-.177,0c.139.068.089.159.089.245l.326.131a1.041,1.041,0,0,0,.032.222,1.5,1.5,0,0,1,.036.3l-.184.079h-.21A.991.991,0,0,1,18,6.95h-.207l.043.231.225-.068c.089.039.225.039.313.088l.041.3.265.048-.158.221c-.065-.07-.073-.031-.186-.078h-.553a1.543,1.543,0,0,1-.375,0,.486.486,0,0,0-.459.146s-.167.028-.232.048c-.054.042-.109.046-.17.118,0,0,.321.05.53.068s.554,0,.628,0a.487.487,0,0,0,.3-.041l.256-.056.4.071c-.134.141-.173.1-.216.077a.678.678,0,0,0-.34,0,.625.625,0,0,0-.393.265c-.048.048-.187.055-.187.1,0,.065.066.09.185.09s.31-.026.327.046.1.235.207.144c.034,0,.017-.051.135-.215.047-.03.238-.072.306,0,.009.077-.008.2-.061.213.012.2-.053.208-.245.287,0,.065.041.017.192.082-.018.066-.044.165.164.259l-.281.088-.312.054-.24-.092-.243.005a1.357,1.357,0,0,0-.321.03A.505.505,0,0,1,17,9.48a.682.682,0,0,0-.42-.01c-.164.021-.249.021-.249.083A2.546,2.546,0,0,1,16.8,9.6l.056.183.358.009v.252a3.67,3.67,0,0,1-.358.167l.092.2a.417.417,0,0,1,.223.1l.275.043a.35.35,0,0,1,.26.046.479.479,0,0,1,.252.124.591.591,0,0,1,.28.038,2.1,2.1,0,0,0,.392.176.734.734,0,0,1,.025.311c-.037.1-.085.128-.216.238,0,.058-.1.133-.3.263.013.034.021.09-.037.2a1.132,1.132,0,0,1,.349.193c.1.188.223.141.231.31l-.2-.033-.242-.081a.134.134,0,0,0-.164.025c-.012.036-.043.089-.207-.025a2.163,2.163,0,0,0-.348-.008c-.047.008-.073.081-.232.069l-.211-.061-.184-.179h-.176l.084-.239-.226-.052s.063-.3-.08-.3-.327-.08-.3.053a1.056,1.056,0,0,1,.036.227.353.353,0,0,0-.364.126c.151.028.273.028.279.079,0,.028,0,.028-.006.2l.314.072c.029.075.036.209-.077.168-.063,0-.182,0-.165.074,0,.036.157.066.265.237a.648.648,0,0,0-.065.191c-.071,0-.1.046.042.175-.058.148-.161.16-.184.246.034-.008.126-.028.3.195-.028.053-.044.1-.209.117h-.272l-.152.232a.462.462,0,0,1-.254.065c-.1-.018-.269-.039-.292.041s.139.028.224.074c.068.029.34.056.364.115.216,0,.291-.075.325-.058l.173.039c.013-.006.065.008.174.092l.2.088.22.046v.386l-.169-.041c-.025-.033-.04-.111-.089-.2,0,0,0,.091-.244,0a.447.447,0,0,1-.04-.185l-.169-.013s-.033-.013-.2.151l-.244.143h-.311l-.169-.009s-.041-.024-.06-.234l-.316.112s-.148.166-.148.242c0,.05-.051.122-.186.157l-.25.067a.633.633,0,0,1,.2.225,2.947,2.947,0,0,0-.343.093c-.042.015-.08.051-.191.111l.088.227a.76.76,0,0,0,.338.193.51.51,0,0,1,.325.186c.128,0,.287,0,.539-.012a2.124,2.124,0,0,1,.579-.007c.252.042.343.007.275.158l-.523-.01a.569.569,0,0,0-.383.075l.221.113c.075.049.121.1.2.116s.175-.024.175.051-.094.1-.182.121a1.3,1.3,0,0,1-.346-.045c-.083-.038-.187-.076-.242-.038a.193.193,0,0,1-.181.051.394.394,0,0,0-.247.043l-.7.083c-.1,0-.27-.023-.27-.023a.254.254,0,0,0-.2.158.454.454,0,0,1,.18.092c.061.067.12.067.232.078s.237-.065.338-.011c.093.026.214.054.218.114,0,.078-.04.174.052.2a1.641,1.641,0,0,0,.727-.017c.056.017.257.043.325.071a.7.7,0,0,0,.292-.011c.1-.016.295-.036.346-.167l.169-.03c.08.051.185.181.247.181h.481l-.008.208a.312.312,0,0,0-.2-.023c-.1.023-.452.058-.571.082-.132,0-.226,0-.292,0-.014.185-.014.239.175.337a.4.4,0,0,0,.236.154.629.629,0,0,1,.18.117.149.149,0,0,0,.187.087l.2-.016c.06.029.219.034.2.1,0,.089-.045.12-.161.226a.365.365,0,0,1-.379.088,1.908,1.908,0,0,1-.7-.145l-.614,0s-.156-.052-.209,0c-.057.029-.1.055-.238.116,0,0,0,.169-.225.2s-.61.051-.61.051l-.044.226-.4.023-.193.054s-.358.031-.349.09.2.008.349.019.694-.019.943.011a4.018,4.018,0,0,0,.766.041c.078-.041.277-.131.371-.026a.708.708,0,0,0,.454.128.375.375,0,0,1,.2.048v.413l.028.525a.331.331,0,0,0,.236.247l-.251.234-.819-.056-.186.056-.1-.194a.417.417,0,0,1-.215,0c-.055-.032-.187-.138-.187-.138l-.172.01-.167-.093-.1-.191h-.264l-.047-.184v-.228l-.278-.031a1.149,1.149,0,0,0-.273.053l-.247.1a.459.459,0,0,1-.277.174c-.169.009-.256.009-.278.11l.37.191a.719.719,0,0,1,.233.038l.136.236c.088.056.132.066.124.231a.526.526,0,0,1,.28.1l-.1.28c-.252.222-.246.388-.246.442l-.117.205a1.252,1.252,0,0,0-.334.05c-.157.052-.181.035-.329-.05a.334.334,0,0,0-.2.106.192.192,0,0,0,.024.246c.094.2.094.233.173.369L13,23l.563.112a1.159,1.159,0,0,0,.311.007l.194-.028L14.545,23s.2,0,.4.019a1.5,1.5,0,0,1,.407.042c.07.043.145.074.016.265.056.009.621.08.621.08l.216.054.174.054a.5.5,0,0,1,.257.215,3.288,3.288,0,0,1,.5.075l.136.237a2.358,2.358,0,0,0,.392.392,1.722,1.722,0,0,1,.28.01,2.857,2.857,0,0,0,.293.041c.087-.012.189-.051.23-.058.169.185.15.185,0,.27l-.184.041-.713.026a.919.919,0,0,0-.254-.152l-.018-.177-.359-.087-.165-.1-.047-.229a.344.344,0,0,1-.261-.05l-.311-.045-.221-.128-.346-.16a.64.64,0,0,0-.5.021l-.168.073a.321.321,0,0,1-.272.018,5.053,5.053,0,0,1-.627.084,2.3,2.3,0,0,0-.579,0s-.009.031-.2.114c-.023.033-.066.064-.15.176a.319.319,0,0,1-.04.176l.081.173a2.219,2.219,0,0,0-.274.091l-.689.093c-.228.195-.392.195-.444.318l.633-.006c.11-.006.425-.035.48-.027a5.558,5.558,0,0,0,.613.124c.183,0,.154-.046.225-.031.084,0,.2-.093.265-.093a.423.423,0,0,1,.23.043l.166.087c.054.015.173.084.255.318a1.371,1.371,0,0,1,.293.091c.155.142.3.183.415.282.08.057.07.084.008.23a.605.605,0,0,1-.323.025l-.207.082s.063.018.2.178c.026.015.074.037.009.185l-.244.085-.065.182a1,1,0,0,1-.343.16.976.976,0,0,0,.133.234c-.005.045-.194.119-.332.149-.193.146-.224.175-.156.379,0,0-.887.046-1.023.03-.172,0-.382-.114-.552-.055l-.378.117-.134.184-.05.243a.947.947,0,0,1-.254.1c0,.033.017.033.213.11.188.158.219.172.225.339l-.575.138s-.19.031-.19.139a.263.263,0,0,0,.2.1.422.422,0,0,1,.3.035.41.41,0,0,1-.037.182c.176.2.263.19.318.165.075-.014.429-.1.579-.014.033.046.112.039.236.039h.36a1.723,1.723,0,0,1,.321.231.356.356,0,0,0,.137.2c.127.092.167.073.179.12l.169.094a.618.618,0,0,0,.248-.172.438.438,0,0,1,.227-.244c.052,0,.5.039.633.039l.677.005s.134.114.212.088a.5.5,0,0,0,.239-.145,1.183,1.183,0,0,1,.464-.039c.065.039.106.023-.061.208a2.057,2.057,0,0,0-.473.065v.195s-.143-.031-.2-.049l-.182-.045c-.277.081-.406-.012-.61.094-.045,0-.092-.049-.2.141a.365.365,0,0,0-.153.084c-.065.063-.215.3-.273.324s-.077.057-.085.232a.494.494,0,0,1-.456.036l-.18.155c-.032.035-.108.19-.192.176a1.439,1.439,0,0,0-.445-.074c-.086.035-.36.074-.451.116a.728.728,0,0,1-.429.122,2.077,2.077,0,0,0-.454.028l-.3.262-.108.273a.566.566,0,0,1-.078.354.211.211,0,0,0,.067.177c.073.068.052.172.282.172a1.739,1.739,0,0,1,.8.066c.009.034.2.034.254.069s.2.1.2.1a.516.516,0,0,0,.241,0c.17-.044.33-.09.33-.229,0,0,.03,0,.2-.115l.032.3a1.657,1.657,0,0,1,.427.032c.031.026.17-.027.213-.032.048-.029.233,0,.243.044s.032.242-.094.242a1.343,1.343,0,0,0-.24.01l-.287-.052a.844.844,0,0,0-.348.052l-1.992.235-.217.221-.2-.021a1.03,1.03,0,0,0-.21.128l-.194.169-.34.131.45.09.294.192.083.2.244-.132.2.07.381.109.346-.087.32-.185-.274-.085.01-.175.25-.1.274-.091h.319l.309.123.256.107.145.195h.176l.539.127.3-.057,1.486.15.4.112.19.16s.488.052.58.052a1.253,1.253,0,0,1,.41.038c.1.043.142.082.082.272-.109,0-.66.056-.82.039s-.3-.039-.48-.069l-.558-.2a.762.762,0,0,0-.372-.085,8.334,8.334,0,0,1-.931.042,1.485,1.485,0,0,1-.412-.187,1.023,1.023,0,0,0-.555.027c-.261.084-.338.048-.482.164l-.093.361-.351-.033H13l.152.212a1.02,1.02,0,0,0,.272.077c.062.011.265.015.319.035s.194.1.15.187L14,35.99a4.716,4.716,0,0,0,.714.016,1.2,1.2,0,0,0,.365-.282l.252-.009a1.481,1.481,0,0,0,.562.062l.592-.062c.156-.1.235-.049.375-.08a.449.449,0,0,0,.334-.281,3.883,3.883,0,0,0,.572.012c.1-.012.384-.121.469-.049.1.082.208.082.316.155l-.052.3-.393-.029,0,.174.407.246s-.064.475-.064.688a2.244,2.244,0,0,0,.087.647,2.782,2.782,0,0,1,.076,1.162c-.041.219-.065.362-.09.466C8.266,38.952,0,30.262,0,19.562,0,8.76,8.432,0,18.849,0S37.691,8.76,37.691,19.562" transform="translate(0 0)" fill="#fff"/><path d="M6.666,12.293H0V0H6.817C8.941,0,10.16,1.13,10.16,3.1A2.569,2.569,0,0,1,8.093,5.733v.034a2.873,2.873,0,0,1,2.533,3.015C10.626,11.374,8.493,12.293,6.666,12.293ZM1.242,6.51v4.613H6.464c1.819,0,2.821-.831,2.821-2.341,0-1.55-.8-2.273-2.519-2.273Zm0-5.341v4.17H6.161c1.878,0,2.752-.695,2.752-2.187,0-1.334-.762-1.983-2.331-1.983Z" transform="translate(41.898 23.899)" fill="#fff"/><path d="M10.71,7.544c0,2.238-.6,5.061-5.355,5.061S0,9.782,0,7.544V0H1.243V7.544c0,3.218,2.031,3.891,4.112,3.891S9.47,10.762,9.47,7.544V0h1.24Z" transform="translate(55.296 23.899)" fill="#fff"/><path d="M8.845,3.822c-.167-2.1-1.827-2.65-3.76-2.65S1.7,1.947,1.7,3.339c0,1.6,1.461,1.982,4.378,2.479,2.184.381,4.366.9,4.366,3.254,0,3.014-2.668,3.839-5,3.839C2.4,12.912.185,11.847,0,8.542H1.242c.216,2.581,1.9,3.2,4.195,3.2,1.8,0,3.66-.5,3.66-2.446,0-1.877-2.182-2.1-4.361-2.464C1.88,6.37.353,5.545.353,3.564.353.878,2.772,0,5.085,0c2.45,0,4.918.894,5,3.822Z" transform="translate(68.793 23.589)" fill="#fff"/><path d="M0,12.293H1.24V0H0Z" transform="translate(82.251 23.898)" fill="#fff"/><path d="M0,0H1.5L9.873,10.5H9.9V0h1.245V12.292H9.7L1.277,1.792H1.243v10.5H0Z" transform="translate(87.065 23.899)" fill="#fff"/><path d="M0,0H9.537V1.169H1.244V5.338H9.235V6.511H1.244v4.612H9.672v1.169H0Z" transform="translate(101.603 23.899)" fill="#fff"/><path d="M8.849,3.822c-.168-2.1-1.828-2.65-3.762-2.65S1.7,1.947,1.7,3.339c0,1.6,1.46,1.982,4.381,2.479,2.181.381,4.361.9,4.361,3.254,0,3.014-2.667,3.839-5,3.839C2.4,12.912.184,11.847,0,8.542H1.247c.214,2.581,1.9,3.2,4.194,3.2,1.8,0,3.658-.5,3.658-2.446,0-1.877-2.181-2.1-4.362-2.464C1.884,6.37.354,5.545.354,3.564.354.878,2.772,0,5.087,0c2.456,0,4.92.894,5.005,3.822Z" transform="translate(113.403 23.589)" fill="#fff"/><path d="M8.848,3.822c-.167-2.1-1.827-2.65-3.76-2.65S1.7,1.947,1.7,3.339c0,1.6,1.46,1.982,4.38,2.479,2.185.381,4.368.9,4.368,3.254,0,3.014-2.672,3.839-5,3.839C2.4,12.912.186,11.847,0,8.542H1.244c.219,2.581,1.9,3.2,4.2,3.2,1.8,0,3.656-.5,3.656-2.446,0-1.877-2.181-2.1-4.362-2.464C1.881,6.37.352,5.545.352,3.564.352.878,2.77,0,5.088,0c2.448,0,4.92.894,5,3.822Z" transform="translate(126.173 23.589)" fill="#fff"/><path d="M2.4,1.5C2.37.964,2.179.508,1.579.508c-.838,0-.951.946-.951,2.109s.113,2.1.951,2.1.9-1.029.9-1.7H1.511V2.516H3.03V5.131H2.576V4.446H2.56A1.088,1.088,0,0,1,1.5,5.23C.228,5.23,0,3.969,0,2.616,0,1.347.228,0,1.579,0A1.377,1.377,0,0,1,3.03,1.5Z" transform="translate(108.091 6.703)" fill="#fff"/><path d="M.608,5.034H0V0H1.589A1.157,1.157,0,0,1,2.846,1.263c0,.325-.073,1.1-.754,1.269v.013a.821.821,0,0,1,.693.837l.041.859c.025.541.11.695.258.79l-.725,0A1.461,1.461,0,0,1,2.191,4.3l-.039-.784c-.048-.674-.4-.731-.725-.731H.608V5.033Zm0-4.527V2.283h.6c.353,0,1.009,0,1.009-.971A.777.777,0,0,0,1.331.507Z" transform="translate(112.019 6.802)" fill="#fff"/><path d="M.631,5.034H0L1.413,0h.812L3.543,5.032h-.63L2.56,3.651H.994L.631,5.034ZM1.8.712l-.679,2.43H2.438L1.813.712H1.8Z" transform="translate(115.307 6.801)" fill="#fff"/><path d="M1.375,5.033H0V0H1.31C2.9,0,3.033,1.243,3.033,2.516,3.033,4.186,2.475,5.033,1.375,5.033ZM.6.507V4.524h.631c1.03,0,1.162-1.07,1.162-2C2.4,1.5,2.307.507,1.235.507Z" transform="translate(119.428 6.802)" fill="#fff"/><path d="M0,0H.6V3.536c0,.742.234,1.084.834,1.084.647,0,.835-.378.835-1.084V0h.607V3.536c0,.965-.482,1.593-1.442,1.593C.454,5.129,0,4.572,0,3.536Z" transform="translate(123.305 6.803)" fill="#fff"/><path d="M.635,5.034H0L1.414,0h.813L3.545,5.032H2.914l-.35-1.382H1L.635,5.034ZM1.8.712,1.12,3.142H2.439L1.816.712H1.8Z" transform="translate(126.644 6.801)" fill="#fff"/><path d="M1.835,5.032h-.6V.548H0V0H3.072V.548H1.835Z" transform="translate(129.982 6.803)" fill="#fff"/><path d="M0,0H2.535V.549H.6V2.124H2.427v.552H.6V4.481h2.01v.55H0Z" transform="translate(133.682 6.803)" fill="#fff"/><path d="M2.278,1.409c0-.53-.185-.9-.764-.9A.742.742,0,0,0,.7,1.331c0,1.423,2.323.572,2.323,2.421a1.4,1.4,0,0,1-1.529,1.5C.341,5.252,0,4.644,0,3.567H.611c0,.567.034,1.177.922,1.177a.841.841,0,0,0,.855-.894c0-1.43-2.324-.6-2.324-2.456A1.306,1.306,0,0,1,1.507,0c.939,0,1.365.482,1.379,1.409Z" transform="translate(108.045 13.521)" fill="#fff"/><path d="M3.085,3.417c-.054.958-.42,1.835-1.494,1.835C.189,5.252,0,3.9,0,2.627S.23,0,1.591,0C2.6,0,3.019.577,3.047,1.57H2.41C2.4,1,2.218.51,1.591.51.746.51.639,1.458.639,2.627s.107,2.117.952,2.117c.736,0,.841-.709.859-1.326Z" transform="translate(111.427 13.522)" fill="#fff"/><path d="M2.9,5.053H2.3V2.619H.606V5.053H0V0H.606V2.067H2.3V0H2.9Z" transform="translate(114.896 13.62)" fill="#fff"/><path d="M1.589,5.253C.165,5.253,0,3.754,0,2.627S.165,0,1.589,0,3.174,1.5,3.174,2.627,3.01,5.253,1.589,5.253Zm0-4.744C.707.509.633,1.556.633,2.627s.074,2.116.957,2.116.948-1.045.948-2.116S2.464.509,1.589.509Z" transform="translate(118.344 13.521)" fill="#fff"/><path d="M1.583,5.253C.164,5.253,0,3.754,0,2.627S.164,0,1.583,0,3.172,1.5,3.172,2.627,3.007,5.253,1.583,5.253Zm0-4.744C.7.509.631,1.556.631,2.627c0,1.306.159,2.116.952,2.116.88,0,.954-1.045.954-2.116S2.463.509,1.583.509Z" transform="translate(121.998 13.521)" fill="#fff"/><path d="M0,0H.607V4.5h2v.552H0Z" transform="translate(125.715 13.621)" fill="#fff"/><path d="M1.586,5.253C.164,5.253,0,3.754,0,2.627S.164,0,1.586,0,3.173,1.5,3.173,2.627,3.009,5.253,1.586,5.253Zm0-4.744c-.877,0-.95,1.046-.95,2.118s.073,2.116.95,2.116.952-1.045.952-2.116S2.464.509,1.586.509Z" transform="translate(129.996 13.521)" fill="#fff"/><path d="M0,0H2.546V.551H.61V2.136H2.436v.553H.61V5.053H0Z" transform="translate(133.715 13.621)" fill="#fff"/><path d="M8.257,16.368A8.347,8.347,0,0,1,2.287,14.2,8.2,8.2,0,0,1,0,8.14,8.078,8.078,0,0,1,2.4,2.293,8.149,8.149,0,0,1,8.136,0a7.5,7.5,0,0,1,5.587,2.2,9.677,9.677,0,0,1,2.3,7.224H4.941c.088,2.2,1.348,3.519,3.371,3.519a2.921,2.921,0,0,0,2.821-1.7h4.622a6.247,6.247,0,0,1-2.825,3.9A8.825,8.825,0,0,1,8.257,16.368ZM8.136,3.428c-1.669,0-2.893,1.211-3.195,3.161h6.132A3.1,3.1,0,0,0,8.136,3.428Z" transform="translate(40.642 4.436)" fill="#fff"/><path d="M4.711,10.825a2.094,2.094,0,0,0,.812,1.728,3.055,3.055,0,0,0,1.832.536c.957,0,2.324-.416,2.324-1.64,0-1.193-1.538-1.433-2.41-1.64C4.156,9.006.263,8.917.263,4.742.263,1.015,4.189,0,7.149,0c3.318,0,6.776.987,6.953,5.01H9.534A1.46,1.46,0,0,0,8.9,3.67a2.872,2.872,0,0,0-1.573-.389c-.811,0-2.119.089-2.119,1.162,0,1.462,3.313,1.73,5.58,2.238a4.35,4.35,0,0,1,3.837,4.172c0,4.144-3.837,5.516-7.239,5.516C3.812,16.369.149,15.146,0,10.825Z" transform="translate(57.557 4.435)" fill="#fff"/><path d="M5.146,16.368a5.624,5.624,0,0,1-3.652-1.144A4.419,4.419,0,0,1,0,11.686C0,7.564,3.594,7.074,6.766,6.642c.715-.1,1.39-.189,2.012-.319.829-.176,1.309-.467,1.309-1.434C10.086,3.708,8.66,3.28,7.7,3.28a2.212,2.212,0,0,0-2.47,1.939H.611A4.761,4.761,0,0,1,2.966,1.075,9.867,9.867,0,0,1,7.761,0a9.734,9.734,0,0,1,4.858.951,4.443,4.443,0,0,1,2.174,4.238v6.767a9.224,9.224,0,0,0,.585,3.965H10.4a6.359,6.359,0,0,1-.291-1.462A6.651,6.651,0,0,1,5.146,16.368Zm4.881-7.692a5.867,5.867,0,0,1-1.885.575c-.389.077-.79.157-1.165.262-.948.228-2.036.658-2.036,1.967,0,1.1.772,1.758,2.066,1.758A2.851,2.851,0,0,0,9.169,12.5C9.834,11.812,10.1,10.632,10.027,8.676Z" transform="translate(73.081 4.435)" fill="#fff"/><path d="M0,.447H4.8V2.564h.056A5.665,5.665,0,0,1,9.592,0c5.03,0,5.436,3.757,5.436,5.993v9.928H10.087V8.437c0-2.114.23-4.264-2.472-4.264-1.86,0-2.674,1.611-2.674,3.311v8.437H0Z" transform="translate(90.432 4.436)" fill="#fff"/></g></svg>