<svg xmlns="http://www.w3.org/2000/svg" xmlns:xlink="http://www.w3.org/1999/xlink" width="172" height="59" viewBox="0 0 172 59">
    <defs>
        <path id="a" d="M0 58.284h171.99V.052H0z"/>
    </defs>
    <g fill="none" fill-rule="evenodd">
        <path fill="#FFF" d="M74.01 47.16l-4.111 11.002h2.409l.853-2.45h4.048l.816 2.45h2.472l-4.048-11.001h-2.44zm1.183 2.716h.026l1.368 4.036h-2.805l1.41-4.036z"/>
        <g transform="translate(0 .464)">
            <path fill="#FFF" d="M107.884 51.51h2.485c1.018 0 1.567-.435 1.567-1.49 0-1.004-.549-1.445-1.567-1.445h-2.485v2.934zm-2.273-4.812h5.571c1.85 0 3.027 1.37 3.027 3.034 0 1.293-.158 2.463-1.874 3.541l2.317 4.427h-2.412l-2.086-4.3h-2.27v4.3h-2.273V46.698zM116.418 46.698h7.915v2.029h-5.588v2.357h5.128v1.884h-5.128v2.699h5.492v2.032h-7.819zM150.736 46.698h7.915v2.029h-5.588v2.357h5.125v1.884h-5.125v2.699h5.492v2.032h-7.819zM128.922 55.664h2.32c1.397 0 2.732-.866 2.732-3.293 0-2.225-.766-3.64-3.166-3.64h-1.886v6.933zm-2.24-8.966h4.38c2.843 0 5.321 1.784 5.321 5.441 0 3.187-2.174 5.557-5.518 5.557h-4.184V46.698zM162.967 55.664h2.32c1.398 0 2.736-.866 2.736-3.293 0-2.225-.767-3.64-3.166-3.64h-1.89v6.933zm-2.24-8.966h4.381c2.842 0 5.324 1.784 5.324 5.441 0 3.187-2.174 5.557-5.522 5.557h-4.183V46.698z"/>
            <mask id="b" fill="#fff">
                <use xlink:href="#a"/>
            </mask>
            <path fill="#FFF" d="M137.918 57.704h2.21V46.699h-2.21zM144.65 48.731h-3.017V46.7h8.255v2.032h-3.02v8.97h-2.218zM159.006 37.602h5.079c1.877 0 3.202-.345 3.202-2.454 0-2.076-1.084-2.905-3.11-2.905h-5.171v5.359zm0-9.603h5c1.728 0 3.017-.77 3.017-2.626 0-2.102-1.636-2.537-3.394-2.537h-4.623V28zm-4.752-9.364h10.161c4.115 0 7.277 2.026 7.277 6.333 0 2.74-1.437 4.268-3.308 5.236 2.63.812 3.605 2.673 3.605 5.56 0 3.864-3.364 6.012-7.27 6.012h-10.465v-23.14zM79.794 24.215h.063l3.265 9.374h-6.537l3.21-9.374zM86 41.773h4.963l-8.519-23.3h-5.141l-8.648 23.3h5.072l1.361-3.946h9.607L86 41.773z" mask="url(#b)"/>
            <path fill="#FFF" d="M101.444 24.215h.063l3.265 9.374h-6.536l3.208-9.374zm6.034 17.558h5.136l-8.76-23.3h-4.901l-8.648 23.3h4.848l1.361-3.946h9.66l1.304 3.946zM128.478 34.49c-.783 2.142-2.812 3.541-5.463 3.541-4.828 0-6.83-3.896-6.83-7.766 0-4.058 1.93-7.729 6.761-7.729 3.36 0 5.608 2.189 5.951 4.497h5.208c-.647-5.365-5.38-9.013-10.76-9.013-7.57 0-12.024 5.359-12.024 12.245 0 6.695 4.163 12.053 11.734 12.053 5.4 0 9.613-3.014 10.753-7.828h-5.33zM89.472 53.608c-.373 1.014-.895 2.324-2.948 2.324-2.31 0-3.274-1.854-3.274-3.687 0-1.927.928-3.846 3.241-3.846 1.613 0 2.981 1.163 2.856 2.31h2.498c-.314-2.546-2.578-4.283-5.162-4.283-3.628 0-5.766 2.546-5.766 5.819 0 3.176 1.999 5.454 5.63 5.454 3.15 0 4.98-1.767 5.298-4.091h-2.373zM101.76 53.608c-.366 1.014-.875 2.324-2.88 2.324-2.261 0-3.203-1.854-3.203-3.687 0-1.927.905-3.846 3.166-3.846 1.58 0 2.918 1.163 2.795 2.31h2.442c-.307-2.546-2.524-4.283-5.046-4.283-3.549 0-5.637 2.546-5.637 5.819 0 3.176 1.95 5.454 5.502 5.454 3.08 0 4.874-1.767 5.181-4.091h-2.32zM146.703 28.606c-5.714-1.472-6.576-1.98-6.576-3.74 0-1.923 1.672-2.596 3.268-2.596 2.392 0 4.342.706 4.504 3.458h4.514c0-5.282-4.071-7.71-8.827-7.71-4.12 0-8.09 2.584-8.09 7.262 0 4.291 2.968 5.92 6.352 6.814 3.351.896 6.05 1.002 6.05 3.472 0 2.338-2.253 2.596-4.01 2.596-2.555 0-4.555-.872-4.733-3.594h-4.524c.136 5.352 4.144 7.749 9.064 7.749 5.922 0 8.837-3.14 8.837-7.331 0-5.193-4.17-5.959-5.83-6.38M0 39.7h37.357L56.18 58.282H0z" mask="url(#b)"/>
            <path fill="#FFF" d="M0 58.28h18.826V39.7H0z" mask="url(#b)"/>
            <path fill="#FFF" d="M0 2.054l18.826 18.694v18.954H0zM57.945 18.636H20.588L1.765.055h56.18z" mask="url(#b)"/>
            <path fill="#FFF" d="M39.119 18.637h18.826V.056H39.119z" mask="url(#b)"/>
            <path fill="#FFF" d="M57.945 56.279L39.12 37.59V18.635h18.826z" mask="url(#b)"/>
        </g>
    </g>
</svg>
