<svg xmlns="http://www.w3.org/2000/svg" xmlns:xlink="http://www.w3.org/1999/xlink" width="265" height="79" viewBox="0 0 265 79">
    <defs>
        <path id="a" d="M14.105 12.58a.945.945 0 0 1-1.345 0L.9.73v23.71h25.055V.73l-11.85 11.85z"/>
        <linearGradient id="b" x1="50.008%" x2="50.008%" y1="103.995%" y2="-9.686%">
            <stop offset="0%" stop-color="#2FA8AA"/>
            <stop offset="100%" stop-color="#CAB65D"/>
        </linearGradient>
        <path id="d" d="M52.855 25.44H71.53a5.8 5.8 0 0 0 5.79-5.79c0-3.055-2.42-5.775-5.42-5.775-.145.01-5.985-.02-5.985-.02a.947.947 0 1 1 0-1.895h6.07c2.98 0 5.335-2.745 5.335-5.765C77.32 3 74.72.4 71.53.4L52.855.385V25.44zm26.96-19.345c0 3.885 3.16 5.82 5.785 5.82H90L79.815 1.73v4.365zm-40.71 7.485a.945.945 0 0 1-1.345 0L25.9 1.73v23.71h25.055V1.73l-11.85 11.85zm-25.33-1.62h10.23V1.73l-10.23 10.23zm71.59 1.85c-2.945 0-5.55 2.915-5.55 5.84v5.79h23.705L91.905 13.81h-6.54zm-73.49.045L.29 25.44h23.715V13.855h-12.13zm67.94 13.485v23.705L103.52 27.34H79.815zm-53.915 0v23.705L49.61 27.34H25.9zm-25.61 0l23.715 23.705V27.34H.29zm52.565 25.045h25.05v-25.04h-25.05v25.04zm-26.56.955L50.955 78V28.685L26.295 53.34zm26.56.96V78l23.72-23.7h-23.72z"/>
        <path id="f" d="M52.855 25.44H71.53a5.8 5.8 0 0 0 5.79-5.79c0-3.055-2.42-5.775-5.42-5.775-.145.01-5.985-.02-5.985-.02a.947.947 0 1 1 0-1.895h6.07c2.98 0 5.335-2.745 5.335-5.765C77.32 3 74.72.4 71.53.4L52.855.385V25.44zm26.96-19.345c0 3.885 3.16 5.82 5.785 5.82H90L79.815 1.73v4.365zm-40.71 7.485a.945.945 0 0 1-1.345 0L25.9 1.73v23.71h25.055V1.73l-11.85 11.85zm-25.33-1.62h10.23V1.73l-10.23 10.23zm71.59 1.85c-2.945 0-5.55 2.915-5.55 5.84v5.79h23.705L91.905 13.81h-6.54zm-73.49.045L.29 25.44h23.715V13.855h-12.13zm67.94 13.485v23.705L103.52 27.34H79.815zm-53.915 0v23.705L49.61 27.34H25.9zm-25.61 0l23.715 23.705V27.34H.29zm52.565 25.045h25.05v-25.04h-25.05v25.04zm-26.56.955L50.955 78V28.685L26.295 53.34zm26.56.96V78l23.72-23.7h-23.72z"/>
        <linearGradient id="h" x1="50.008%" x2="50.008%" y1="103.821%" y2="-3.822%">
            <stop offset="0%" stop-color="#2FA8AA"/>
            <stop offset="100%" stop-color="#2D597B"/>
        </linearGradient>
        <path id="i" d="M.86.3V24L24.575.3z"/>
        <path id="k" d="M.295 25.34L24.955 50V.685z"/>
        <linearGradient id="l" x1="-5.442%" x2="103.859%" y1="50%" y2="50%">
            <stop offset="0%" stop-color="#2FA8AA"/>
            <stop offset="100%" stop-color="#2D597B"/>
        </linearGradient>
        <path id="n" d="M.9.34v23.705L24.61.34z"/>
        <path id="p" d="M52.855 25.44H71.53a5.8 5.8 0 0 0 5.79-5.79c0-3.055-2.42-5.775-5.42-5.775-.145.01-5.985-.02-5.985-.02a.947.947 0 1 1 0-1.895h6.07c2.98 0 5.335-2.745 5.335-5.765C77.32 3 74.72.4 71.53.4L52.855.385V25.44zm26.96-19.345c0 3.885 3.16 5.82 5.785 5.82H90L79.815 1.73v4.365zm-40.71 7.485a.945.945 0 0 1-1.345 0L25.9 1.73v23.71h25.055V1.73l-11.85 11.85zm-25.33-1.62h10.23V1.73l-10.23 10.23zm71.59 1.85c-2.945 0-5.55 2.915-5.55 5.84v5.79h23.705L91.905 13.81h-6.54zm-73.49.045L.29 25.44h23.715V13.855h-12.13zm67.94 13.485v23.705L103.52 27.34H79.815zm-53.915 0v23.705L49.61 27.34H25.9zm-25.61 0l23.715 23.705V27.34H.29zm52.565 25.045h25.05v-25.04h-25.05v25.04zm-26.56.955L50.955 78V28.685L26.295 53.34zm26.56.96V78l23.72-23.7h-23.72z"/>
        <path id="r" d="M52.855 25.44H71.53a5.8 5.8 0 0 0 5.79-5.79c0-3.055-2.42-5.775-5.42-5.775-.145.01-5.985-.02-5.985-.02a.947.947 0 1 1 0-1.895h6.07c2.98 0 5.335-2.745 5.335-5.765C77.32 3 74.72.4 71.53.4L52.855.385V25.44zm26.96-19.345c0 3.885 3.16 5.82 5.785 5.82H90L79.815 1.73v4.365zm-40.71 7.485a.945.945 0 0 1-1.345 0L25.9 1.73v23.71h25.055V1.73l-11.85 11.85zm-25.33-1.62h10.23V1.73l-10.23 10.23zm71.59 1.85c-2.945 0-5.55 2.915-5.55 5.84v5.79h23.705L91.905 13.81h-6.54zm-73.49.045L.29 25.44h23.715V13.855h-12.13zm67.94 13.485v23.705L103.52 27.34H79.815zm-53.915 0v23.705L49.61 27.34H25.9zm-25.61 0l23.715 23.705V27.34H.29zm52.565 25.045h25.05v-25.04h-25.05v25.04zm-26.56.955L50.955 78V28.685L26.295 53.34zm26.56.96V78l23.72-23.7h-23.72z"/>
        <path id="t" d="M52.855 25.44H71.53a5.8 5.8 0 0 0 5.79-5.79c0-3.055-2.42-5.775-5.42-5.775-.145.01-5.985-.02-5.985-.02a.947.947 0 1 1 0-1.895h6.07c2.98 0 5.335-2.745 5.335-5.765C77.32 3 74.72.4 71.53.4L52.855.385V25.44zm26.96-19.345c0 3.885 3.16 5.82 5.785 5.82H90L79.815 1.73v4.365zm-40.71 7.485a.945.945 0 0 1-1.345 0L25.9 1.73v23.71h25.055V1.73l-11.85 11.85zm-25.33-1.62h10.23V1.73l-10.23 10.23zm71.59 1.85c-2.945 0-5.55 2.915-5.55 5.84v5.79h23.705L91.905 13.81h-6.54zm-73.49.045L.29 25.44h23.715V13.855h-12.13zm67.94 13.485v23.705L103.52 27.34H79.815zm-53.915 0v23.705L49.61 27.34H25.9zm-25.61 0l23.715 23.705V27.34H.29zm52.565 25.045h25.05v-25.04h-25.05v25.04zm-26.56.955L50.955 78V28.685L26.295 53.34zm26.56.96V78l23.72-23.7h-23.72z"/>
        <path id="v" d="M.29.34l23.715 23.705V11.92L12.425.34z"/>
        <path id="x" d="M8.105 12.58a.945.945 0 0 1-1.345 0L.69 18.65l5.785 5.79h13.48V.73L8.105 12.58z"/>
        <linearGradient id="y" x1="50.01%" x2="50.01%" y1="103.998%" y2="-9.683%">
            <stop offset="0%" stop-color="#6DB8BA"/>
            <stop offset="100%" stop-color="#D6C380"/>
        </linearGradient>
        <path id="A" d="M.9.34h12.53v5.79H.9z"/>
        <path id="C" d="M.9.34h12.53v5.79H.9z"/>
        <path id="E" d="M.9 12.44l5.79-5.79L.9.855z"/>
        <linearGradient id="F" x1="50.033%" x2="50.033%" y1="108.183%" y2="-124.478%">
            <stop offset="0%" stop-color="#83C1C3"/>
            <stop offset="100%" stop-color="#DBCA90"/>
        </linearGradient>
        <path id="H" d="M52.855 25.44H71.53a5.8 5.8 0 0 0 5.79-5.79c0-3.055-2.42-5.775-5.42-5.775-.145.01-5.985-.02-5.985-.02a.947.947 0 1 1 0-1.895h6.07c2.98 0 5.335-2.745 5.335-5.765C77.32 3 74.72.4 71.53.4L52.855.385V25.44zm26.96-19.345c0 3.885 3.16 5.82 5.785 5.82H90L79.815 1.73v4.365zm-40.71 7.485a.945.945 0 0 1-1.345 0L25.9 1.73v23.71h25.055V1.73l-11.85 11.85zm-25.33-1.62h10.23V1.73l-10.23 10.23zm71.59 1.85c-2.945 0-5.55 2.915-5.55 5.84v5.79h23.705L91.905 13.81h-6.54zm-73.49.045L.29 25.44h23.715V13.855h-12.13zm67.94 13.485v23.705L103.52 27.34H79.815zm-53.915 0v23.705L49.61 27.34H25.9zm-25.61 0l23.715 23.705V27.34H.29zm52.565 25.045h25.05v-25.04h-25.05v25.04zm-26.56.955L50.955 78V28.685L26.295 53.34zm26.56.96V78l23.72-23.7h-23.72z"/>
        <path id="J" d="M52.855 25.44H71.53a5.8 5.8 0 0 0 5.79-5.79c0-3.055-2.42-5.775-5.42-5.775-.145.01-5.985-.02-5.985-.02a.947.947 0 1 1 0-1.895h6.07c2.98 0 5.335-2.745 5.335-5.765C77.32 3 74.72.4 71.53.4L52.855.385V25.44zm26.96-19.345c0 3.885 3.16 5.82 5.785 5.82H90L79.815 1.73v4.365zm-40.71 7.485a.945.945 0 0 1-1.345 0L25.9 1.73v23.71h25.055V1.73l-11.85 11.85zm-25.33-1.62h10.23V1.73l-10.23 10.23zm71.59 1.85c-2.945 0-5.55 2.915-5.55 5.84v5.79h23.705L91.905 13.81h-6.54zm-73.49.045L.29 25.44h23.715V13.855h-12.13zm67.94 13.485v23.705L103.52 27.34H79.815zm-53.915 0v23.705L49.61 27.34H25.9zm-25.61 0l23.715 23.705V27.34H.29zm52.565 25.045h25.05v-25.04h-25.05v25.04zm-26.56.955L50.955 78V28.685L26.295 53.34zm26.56.96V78l23.72-23.7h-23.72z"/>
        <path id="L" d="M.425.34l11.58 11.58V.34z"/>
        <path id="N" d="M.435.34l11.57 11.595V.34z"/>
        <path id="P" d="M.9 6.44h11.575L6.69.65z"/>
        <linearGradient id="Q" x1="50.017%" x2="50.017%" y1="116.373%" y2="-349.151%">
            <stop offset="0%" stop-color="#ACD4D6"/>
            <stop offset="100%" stop-color="#E6DAB3"/>
        </linearGradient>
        <path id="S" d="M.9 11.915L6.69 6.13.9.34z"/>
        <path id="U" d="M6.475.34L.69 6.13l6.065 6.055L18.61.34z"/>
        <path id="W" d="M.105 12.54l11.85 11.845V.685z"/>
        <linearGradient id="X" x1="-119.427%" x2="108.031%" y1="50.011%" y2="50.011%">
            <stop offset="0%" stop-color="#ACD4D6"/>
            <stop offset="100%" stop-color="#91A5BD"/>
        </linearGradient>
        <path id="Z" d="M.855 25.44H19.53a5.8 5.8 0 0 0 5.79-5.79c0-3.055-2.42-5.775-5.42-5.775-.145.01-5.985-.02-5.985-.02a.947.947 0 1 1 0-1.895h6.07c2.98 0 5.335-2.745 5.335-5.765C25.32 3 22.72.4 19.53.4L.855.385V25.44z"/>
        <linearGradient id="aa" x1="-8.227%" x2="104.491%" y1="59.446%" y2="41.163%">
            <stop offset="0%" stop-color="#D1D6D8"/>
            <stop offset="100%" stop-color="#CAB65D"/>
        </linearGradient>
        <path id="ac" d="M.855.385V25.42l.005.02h18.67a5.796 5.796 0 0 0 4.375-2.005l-9.57-9.58h-.42a.943.943 0 0 1-.955-.945c0-.13.025-.245.07-.36L.86.385H.855z"/>
        <linearGradient id="ad" x1="-2.325%" x2="103.873%" y1="59.01%" y2="40.726%">
            <stop offset="0%" stop-color="#DBDDDF"/>
            <stop offset="100%" stop-color="#D6C380"/>
        </linearGradient>
        <path id="af" d="M.605 6.44H5.53a5.796 5.796 0 0 0 4.375-2.005L6.255.785.605 6.44z"/>
        <linearGradient id="ag" x1="-159.183%" x2="151.813%" y1="70.145%" y2="40.194%">
            <stop offset="0%" stop-color="#E8EBEB"/>
            <stop offset="100%" stop-color="#E6DAB3"/>
        </linearGradient>
        <path id="ai" d="M.255 3.835l3.62 3.635A5.78 5.78 0 0 0 5.32 3.65 6.02 6.02 0 0 0 4.075.02L.255 3.835z"/>
        <linearGradient id="aj" x1="-163.067%" x2="100.872%" y1="99.608%" y2="38.119%">
            <stop offset="0%" stop-color="#DFE2E4"/>
            <stop offset="100%" stop-color="#DBCA90"/>
        </linearGradient>
        <path id="al" d="M.125 6.13l5.785 5.785V.345z"/>
        <linearGradient id="am" x1="49.991%" x2="49.991%" y1="224.691%" y2="-8.271%">
            <stop offset="0%" stop-color="#83C1C3"/>
            <stop offset="100%" stop-color="#6783A1"/>
        </linearGradient>
        <path id="ao" d="M.86.34v25.045L20.125 6.13 14.34.34z"/>
        <linearGradient id="ap" x1="49.997%" x2="49.997%" y1="103.82%" y2="-3.801%">
            <stop offset="0%" stop-color="#ACD4D6"/>
            <stop offset="100%" stop-color="#91A5BD"/>
        </linearGradient>
        <path id="ar" d="M.34.34l5.785 5.79L11.91.345V.34z"/>
        <linearGradient id="as" x1="50.017%" x2="50.017%" y1="449.081%" y2="-16.441%">
            <stop offset="0%" stop-color="#C3DFE1"/>
            <stop offset="100%" stop-color="#ACBACF"/>
        </linearGradient>
        <path id="au" d="M0 82h266.545V.605H0z"/>
    </defs>
    <g fill="none" fill-rule="evenodd">
        <g transform="translate(25 1.395)">
            <mask id="c" fill="#fff">
                <use xlink:href="#a"/>
            </mask>
            <path fill="url(#b)" d="M14.105 12.58a.945.945 0 0 1-1.345 0L.9.73v23.71h25.055V.73l-11.85 11.85z" mask="url(#c)"/>
        </g>
        <g transform="translate(0 .395)">
            <mask id="e" fill="#fff">
                <use xlink:href="#d"/>
            </mask>
            <path fill="#D2D6D8" d="M105.818 26.392l-26.95 26.95v-26.95z" mask="url(#e)"/>
        </g>
        <g transform="translate(0 .395)">
            <mask id="g" fill="#fff">
                <use xlink:href="#f"/>
            </mask>
            <path fill="#2FA8AB" d="M78.865 12.867V-.57l26.95 26.96h-26.95z" mask="url(#g)"/>
        </g>
        <path fill="url(#h)" d="M54.86 56.78h25.05V31.74H54.86z" transform="translate(-2 -4)"/>
        <g transform="translate(52 54.395)">
            <mask id="j" fill="#fff">
                <use xlink:href="#i"/>
            </mask>
            <path d="M.86.3V24L24.575.3z" mask="url(#j)"/>
        </g>
        <g transform="translate(26 28.395)">
            <mask id="m" fill="#fff">
                <use xlink:href="#k"/>
            </mask>
            <path fill="url(#l)" d="M.295 25.34L24.955 50V.685z" mask="url(#m)"/>
        </g>
        <g transform="translate(25 27.395)">
            <mask id="o" fill="#fff">
                <use xlink:href="#n"/>
            </mask>
            <path d="M.9.34v23.705L24.61.34z" mask="url(#o)"/>
        </g>
        <g transform="translate(0 .395)">
            <mask id="q" fill="#fff">
                <use xlink:href="#p"/>
            </mask>
            <path fill="#DE656A" d="M-1.999 26.392h26.95V-.568z" mask="url(#q)"/>
        </g>
        <g transform="translate(0 .395)">
            <mask id="s" fill="#fff">
                <use xlink:href="#r"/>
            </mask>
            <path fill="#E0E2E4" d="M78.865 26.392v13.47l13.48-13.47z" mask="url(#s)"/>
        </g>
        <g transform="translate(0 .395)">
            <mask id="u" fill="#fff">
                <use xlink:href="#t"/>
            </mask>
            <path fill="#83C2C4" d="M92.344 26.387l-13.48-13.48v13.485h13.48z" mask="url(#u)"/>
        </g>
        <g transform="translate(0 27.395)">
            <mask id="w" fill="#fff">
                <use xlink:href="#v"/>
            </mask>
            <path d="M.29.34l23.715 23.705V11.92L12.425.34z" mask="url(#w)"/>
        </g>
        <g transform="translate(31 1.395)">
            <mask id="z" fill="#fff">
                <use xlink:href="#x"/>
            </mask>
            <path fill="url(#y)" d="M8.105 12.58a.945.945 0 0 1-1.345 0L.69 18.65l5.785 5.79h13.48V.73L8.105 12.58z" mask="url(#z)"/>
        </g>
        <path fill="#FFF" d="M24.951 13.306v13.48-13.48z"/>
        <g transform="translate(25 27.395)">
            <mask id="B" fill="#fff">
                <use xlink:href="#A"/>
            </mask>
            <path fill="#FFF" d="M-.049-.608l6.74 6.74 6.746-6.74z" mask="url(#B)"/>
        </g>
        <g transform="translate(25 27.395)">
            <mask id="D" fill="#fff">
                <use xlink:href="#C"/>
            </mask>
            <path fill="#FFF" d="M-.049-.608l6.74 6.74 6.746-6.74z" mask="url(#D)"/>
        </g>
        <g transform="translate(25 13.395)">
            <mask id="G" fill="#fff">
                <use xlink:href="#E"/>
            </mask>
            <path fill="url(#F)" d="M.9 12.44l5.79-5.79L.9.855z" mask="url(#G)"/>
        </g>
        <g transform="translate(0 .395)">
            <mask id="I" fill="#fff">
                <use xlink:href="#H"/>
            </mask>
            <path fill="#DE656A" d="M11.475 26.392h13.48v-13.48z" mask="url(#I)"/>
        </g>
        <g transform="translate(0 .395)">
            <mask id="K" fill="#fff">
                <use xlink:href="#J"/>
            </mask>
            <path fill="#E99794" d="M11.475 26.392h13.48v-13.48z" mask="url(#K)"/>
        </g>
        <g transform="translate(12 27.395)">
            <mask id="M" fill="#fff">
                <use xlink:href="#L"/>
            </mask>
            <path d="M.425.34l11.58 11.58V.34z" mask="url(#M)"/>
        </g>
        <g transform="translate(12 27.395)">
            <mask id="O" fill="#fff">
                <use xlink:href="#N"/>
            </mask>
            <path d="M.435.34l11.57 11.595V.34z" mask="url(#O)"/>
        </g>
        <g transform="translate(25 19.395)">
            <mask id="R" fill="#fff">
                <use xlink:href="#P"/>
            </mask>
            <path fill="url(#Q)" d="M.9 6.44h11.575L6.69.65z" mask="url(#R)"/>
        </g>
        <g transform="translate(25 27.395)">
            <mask id="T" fill="#fff">
                <use xlink:href="#S"/>
            </mask>
            <path d="M.9 11.915L6.69 6.13.9.34z" mask="url(#T)"/>
        </g>
        <g transform="translate(31 27.395)">
            <mask id="V" fill="#fff">
                <use xlink:href="#U"/>
            </mask>
            <path d="M6.475.34L.69 6.13l6.065 6.055L18.61.34z" mask="url(#V)"/>
        </g>
        <g transform="translate(39 28.395)">
            <mask id="Y" fill="#fff">
                <use xlink:href="#W"/>
            </mask>
            <path fill="url(#X)" d="M.105 12.54l11.85 11.845V.685z" mask="url(#Y)"/>
        </g>
        <g transform="translate(52 .395)">
            <mask id="ab" fill="#fff">
                <use xlink:href="#Z"/>
            </mask>
            <path fill="url(#aa)" d="M.855 25.44H19.53a5.8 5.8 0 0 0 5.79-5.79c0-3.055-2.42-5.775-5.42-5.775-.145.01-5.985-.02-5.985-.02a.947.947 0 1 1 0-1.895h6.07c2.98 0 5.335-2.745 5.335-5.765C25.32 3 22.72.4 19.53.4L.855.385V25.44z" mask="url(#ab)"/>
        </g>
        <g transform="translate(52 .395)">
            <mask id="ae" fill="#fff">
                <use xlink:href="#ac"/>
            </mask>
            <path fill="url(#ad)" d="M.855.385V25.42l.005.02h18.67a5.796 5.796 0 0 0 4.375-2.005l-9.57-9.58h-.42a.943.943 0 0 1-.955-.945c0-.13.025-.245.07-.36L.86.385H.855z" mask="url(#ae)"/>
        </g>
        <g transform="translate(66 19.395)">
            <mask id="ah" fill="#fff">
                <use xlink:href="#af"/>
            </mask>
            <path fill="url(#ag)" d="M.605 6.44H5.53a5.796 5.796 0 0 0 4.375-2.005L6.255.785.605 6.44z" mask="url(#ah)"/>
        </g>
        <g transform="translate(72 16.395)">
            <mask id="ak" fill="#fff">
                <use xlink:href="#ai"/>
            </mask>
            <path fill="url(#aj)" d="M.255 3.835l3.62 3.635A5.78 5.78 0 0 0 5.32 3.65 6.02 6.02 0 0 0 4.075.02L.255 3.835z" mask="url(#ak)"/>
        </g>
        <g transform="translate(72 27.395)">
            <mask id="an" fill="#fff">
                <use xlink:href="#al"/>
            </mask>
            <path fill="url(#am)" d="M.125 6.13l5.785 5.785V.345z" mask="url(#an)"/>
        </g>
        <g transform="translate(52 27.395)">
            <mask id="aq" fill="#fff">
                <use xlink:href="#ao"/>
            </mask>
            <path fill="url(#ap)" d="M.86.34v25.045L20.125 6.13 14.34.34z" mask="url(#aq)"/>
        </g>
        <g transform="translate(66 27.395)">
            <mask id="at" fill="#fff">
                <use xlink:href="#ar"/>
            </mask>
            <path fill="url(#as)" d="M.34.34l5.785 5.79L11.91.345V.34z" mask="url(#at)"/>
        </g>
        <g transform="translate(-2 -3.605)">
            <path fill="#009193" d="M130.828 65.016c2.645 0 4.51 1.045 5.895 2.695l-1.26 1.12c-1.29-1.63-2.79-2.31-4.584-2.31-3.905 0-5.65 3.52-5.65 6.985 0 3.475 1.745 6.995 5.65 6.995 1.794 0 3.294-.685 4.585-2.31l1.26 1.115c-1.385 1.65-3.25 2.69-5.895 2.69-5.046 0-7.376-4.145-7.376-8.465 0-4.365 2.33-8.515 7.375-8.515M147.371 65.016c2.645 0 4.51 1.045 5.895 2.695l-1.26 1.12c-1.29-1.63-2.79-2.31-4.584-2.31-3.905 0-5.65 3.52-5.65 6.985 0 3.475 1.745 6.995 5.65 6.995 1.794 0 3.294-.685 4.584-2.31l1.26 1.115c-1.385 1.65-3.25 2.69-5.894 2.69-5.046 0-7.376-4.145-7.376-8.465 0-4.365 2.33-8.515 7.375-8.515M164.886 66.813h-4.075v6.525h3.905c2.06 0 3.59-1.04 3.59-3.32 0-1.996-1.505-3.206-3.42-3.206zm4.125 14.87l-4.685-6.866h-3.515v6.866h-1.725V65.337h5.87c2.79 0 5.07 1.695 5.07 4.656 0 2.715-1.745 4.24-3.83 4.58l4.975 7.11h-2.16zM176.744 81.686V65.33h9.73v1.56h-8.005v5.576h7.275v1.505h-7.275v6.154h8.49v1.56zM198.697 66.837h-4.075v13.34h4.075c4.095 0 6.185-2.79 6.185-6.67 0-4.05-2.4-6.67-6.185-6.67m.12 14.85h-5.92V65.332h5.92c5.365 0 7.84 3.735 7.84 8.15 0 4.515-2.65 8.205-7.84 8.205"/>
            <mask id="av" fill="#fff">
                <use xlink:href="#au"/>
            </mask>
            <path fill="#009193" d="M211.865 81.69h1.725V65.335h-1.725zM225.987 66.886v14.795h-1.725V66.886h-6.065v-1.555h13.835v1.555zM236.634 81.686V65.33h9.73v1.56h-8.005v5.576h7.275v1.505h-7.275v6.154h8.485v1.56zM258.585 66.837h-4.075v13.34h4.075c4.1 0 6.185-2.79 6.185-6.67 0-4.05-2.4-6.67-6.185-6.67m.12 14.85h-5.92V65.332h5.92c5.365 0 7.835 3.735 7.835 8.15 0 4.515-2.645 8.205-7.835 8.205" mask="url(#av)"/>
            <path fill="#002848" d="M178.844 43.033l-12.77-20.495h-3.706v36.895h4.606V32.648l10.185 16.01h3.22l10.18-16.4v27.175h4.71V22.538h-3.65zM214.988 38.205h-8.674v-11.44h8.73c4.034 0 6.44 2.17 6.44 5.8 0 3.535-2.43 5.64-6.496 5.64m8.465 10.505c0 4.434-2.72 6.5-8.57 6.5h-8.57V42.33h8.306c5.614 0 8.834 2.325 8.834 6.38m-1.794-8.82c2.9-1.596 4.585-4.33 4.585-7.535 0-6.78-5.36-9.815-10.666-9.815h-14.03v36.894h13.76c7.96 0 12.91-4.04 12.91-10.56 0-4.425-2.424-7.7-6.56-8.985M252.967 44.361h-11.555l5.755-14.64 5.8 14.64zm-3.735-21.88h-3.87l-15.02 36.956h5.165l4.26-10.895h14.85l4.315 10.895h5.205l-14.905-36.955zM130.939 14.454l9.21 23.25h-18.346l9.136-23.25zm-11.44 29.11h22.965l6.28 15.87h7.38l-22.215-55.05h-5.546l-22.374 55.05h7.3l6.21-15.87z" mask="url(#av)"/>
            <path fill="#00888A" d="M148.998 22.985c-1.785 0-2.71 1.505-2.71 3.16 0 1.63.924 3.16 2.71 3.16 1.785 0 2.704-1.51 2.704-3.16 0-1.636-.92-3.16-2.704-3.16m0 6.995c-2.325 0-3.51-1.846-3.51-3.85 0-2 1.185-3.825 3.51-3.825 2.325 0 3.51 1.825 3.51 3.825 0 2.005-1.186 3.85-3.51 3.85M154.979 26.681v3.155h-.775v-7.385h4.615v.7h-3.84v2.83h3.51v.7zM262.46 22.774c-1.78 0-2.585.805-2.585 1.93 0 3.175 6.67 1.83 6.67 6.08 0 2.19-1.82 3.366-4.23 3.366-1.745 0-3.156-.55-4.33-1.925l.945-.87c.82 1.045 1.89 1.695 3.424 1.695 1.856 0 2.87-.825 2.87-2.035 0-3.515-6.67-1.925-6.67-6.12 0-1.655 1.126-3.226 3.87-3.226 1.66 0 2.89.515 4.01 1.835l-.89.84c-.764-1.015-1.764-1.57-3.084-1.57M150.78 5.729c-2.01 0-2.91.904-2.91 2.17 0 3.574 7.51 2.07 7.51 6.85 0 2.47-2.046 3.795-4.76 3.795-1.97 0-3.56-.625-4.886-2.166l1.07-.985c.92 1.185 2.125 1.905 3.856 1.905 2.09 0 3.234-.92 3.234-2.29 0-3.96-7.51-2.164-7.51-6.89 0-1.87 1.26-3.635 4.356-3.635 1.87 0 3.254.586 4.52 2.07l-1.005.946c-.865-1.145-1.99-1.77-3.475-1.77M163.978 5.729c-2.01 0-2.915.904-2.915 2.17 0 3.574 7.515 2.07 7.515 6.85 0 2.47-2.045 3.795-4.76 3.795-1.97 0-3.56-.625-4.885-2.166l1.065-.985c.925 1.185 2.13 1.905 3.86 1.905 2.09 0 3.235-.92 3.235-2.29 0-3.96-7.515-2.164-7.515-6.89 0-1.87 1.265-3.635 4.36-3.635 1.87 0 3.255.586 4.52 2.07l-1.005.946c-.865-1.145-1.99-1.77-3.475-1.77M177.918 5.729c-3.275 0-4.965 2.754-4.965 5.785 0 2.995 1.69 5.785 4.965 5.785s4.965-2.745 4.965-5.785c0-2.99-1.69-5.785-4.965-5.785m0 12.815c-4.26 0-6.424-3.37-6.424-7.056 0-3.67 2.165-7.004 6.424-7.004 4.26 0 6.43 3.335 6.43 7.005 0 3.684-2.17 7.055-6.43 7.055M192.864 4.484c2.19 0 3.736.86 4.886 2.23l-1.046.924c-1.07-1.345-2.315-1.91-3.8-1.91-3.234 0-4.68 2.915-4.68 5.786 0 2.87 1.446 5.785 4.68 5.785 1.486 0 2.73-.56 3.8-1.905l1.046.92c-1.15 1.37-2.696 2.235-4.886 2.235-4.174 0-6.105-3.44-6.105-7.015 0-3.616 1.93-7.05 6.106-7.05M201.76 18.285h1.425V4.745h-1.425zM212.35 6.612l-2.47 6.29h4.96l-2.49-6.29zm4.62 11.67l-1.65-4.155h-5.925l-1.626 4.155h-1.57l5.59-13.74h1.22l5.55 13.74h-1.59zM224.905 6.032v12.255h-1.43V6.031h-5.02V4.747h11.456v1.285zM233.32 18.285h1.425V4.745h-1.425zM245.094 5.729c-3.275 0-4.965 2.754-4.965 5.785 0 2.995 1.69 5.785 4.965 5.785 3.27 0 4.96-2.745 4.96-5.785 0-2.99-1.69-5.785-4.96-5.785m0 12.815c-4.26 0-6.43-3.37-6.43-7.056 0-3.67 2.17-7.004 6.43-7.004s6.424 3.335 6.424 7.005c0 3.684-2.165 7.055-6.424 7.055M264.82 18.468l-8.4-11.12v10.935h-1.385V4.568h1.045l8.42 11.17V4.743h1.38v13.725z" mask="url(#av)"/>
            <path fill="#009193" d="M113.412 67.589l-2.98 7.59h5.99l-3.01-7.59zm5.58 14.095l-1.986-5.025h-7.16l-1.965 5.025h-1.89l6.74-16.595h1.486l6.695 16.595h-1.92z" mask="url(#av)"/>
        </g>
    </g>
</svg>
