<svg xmlns="http://www.w3.org/2000/svg" xmlns:xlink="http://www.w3.org/1999/xlink" width="186" height="55" viewBox="0 0 186 55">
    <defs>
        <path id="a" d="M9.873 8.806a.661.661 0 0 1-.941 0L.63.511v16.597h17.539V.511L9.873 8.806z"/>
        <path id="c" d="M36.998 17.808h13.073a4.06 4.06 0 0 0 4.053-4.053c0-2.139-1.694-4.043-3.794-4.043-.102.008-4.19-.014-4.19-.014a.663.663 0 1 1 0-1.326h4.25c2.085 0 3.734-1.921 3.734-4.035A4.06 4.06 0 0 0 50.071.28L36.999.27v17.538zM55.871 4.267c0 2.719 2.212 4.074 4.049 4.074H63l-7.13-7.13v3.055zM27.372 9.506a.661.661 0 0 1-.941 0L18.13 1.211v16.597h17.539V1.211l-8.295 8.295zM9.643 8.372h7.16V1.211l-7.16 7.161zm50.112 1.295c-2.061 0-3.885 2.04-3.885 4.088v4.053h16.594l-8.13-8.141h-4.579zm-51.443.031l-8.109 8.11h16.6v-8.11h-8.49zm47.559 9.44v16.593l16.593-16.593H55.871zm-37.741 0v16.593l16.597-16.593H18.13zm-17.927 0l16.6 16.593V19.138H.203zm36.796 17.531h17.534V19.142H36.998v17.527zm-18.593.669L35.67 54.6V20.08L18.407 37.338zM37 38.01V54.6l16.603-16.59H37z"/>
        <path id="e" d="M36.998 17.808h13.073a4.06 4.06 0 0 0 4.053-4.053c0-2.139-1.694-4.043-3.794-4.043-.102.008-4.19-.014-4.19-.014a.663.663 0 1 1 0-1.326h4.25c2.085 0 3.734-1.921 3.734-4.035A4.06 4.06 0 0 0 50.071.28L36.999.27v17.538zM55.871 4.267c0 2.719 2.212 4.074 4.049 4.074H63l-7.13-7.13v3.055zM27.372 9.506a.661.661 0 0 1-.941 0L18.13 1.211v16.597h17.539V1.211l-8.295 8.295zM9.643 8.372h7.16V1.211l-7.16 7.161zm50.112 1.295c-2.061 0-3.885 2.04-3.885 4.088v4.053h16.594l-8.13-8.141h-4.579zm-51.443.031l-8.109 8.11h16.6v-8.11h-8.49zm47.559 9.44v16.593l16.593-16.593H55.871zm-37.741 0v16.593l16.597-16.593H18.13zm-17.927 0l16.6 16.593V19.138H.203zm36.796 17.531h17.534V19.142H36.998v17.527zm-18.593.669L35.67 54.6V20.08L18.407 37.338zM37 38.01V54.6l16.603-16.59H37z"/>
        <path id="g" d="M.602.21V16.8L17.202.21z"/>
        <path id="i" d="M.206 17.738L17.468 35V.48z"/>
        <path id="k" d="M.63.238v16.593L17.227.238z"/>
        <path id="m" d="M36.998 17.808h13.073a4.06 4.06 0 0 0 4.053-4.053c0-2.139-1.694-4.043-3.794-4.043-.102.008-4.19-.014-4.19-.014a.663.663 0 1 1 0-1.326h4.25c2.085 0 3.734-1.921 3.734-4.035A4.06 4.06 0 0 0 50.071.28L36.999.27v17.538zM55.871 4.267c0 2.719 2.212 4.074 4.049 4.074H63l-7.13-7.13v3.055zM27.372 9.506a.661.661 0 0 1-.941 0L18.13 1.211v16.597h17.539V1.211l-8.295 8.295zM9.643 8.372h7.16V1.211l-7.16 7.161zm50.112 1.295c-2.061 0-3.885 2.04-3.885 4.088v4.053h16.594l-8.13-8.141h-4.579zm-51.443.031l-8.109 8.11h16.6v-8.11h-8.49zm47.559 9.44v16.593l16.593-16.593H55.871zm-37.741 0v16.593l16.597-16.593H18.13zm-17.927 0l16.6 16.593V19.138H.203zm36.796 17.531h17.534V19.142H36.998v17.527zm-18.593.669L35.67 54.6V20.08L18.407 37.338zM37 38.01V54.6l16.603-16.59H37z"/>
        <path id="o" d="M36.998 17.808h13.073a4.06 4.06 0 0 0 4.053-4.053c0-2.139-1.694-4.043-3.794-4.043-.102.008-4.19-.014-4.19-.014a.663.663 0 1 1 0-1.326h4.25c2.085 0 3.734-1.921 3.734-4.035A4.06 4.06 0 0 0 50.071.28L36.999.27v17.538zM55.871 4.267c0 2.719 2.212 4.074 4.049 4.074H63l-7.13-7.13v3.055zM27.372 9.506a.661.661 0 0 1-.941 0L18.13 1.211v16.597h17.539V1.211l-8.295 8.295zM9.643 8.372h7.16V1.211l-7.16 7.161zm50.112 1.295c-2.061 0-3.885 2.04-3.885 4.088v4.053h16.594l-8.13-8.141h-4.579zm-51.443.031l-8.109 8.11h16.6v-8.11h-8.49zm47.559 9.44v16.593l16.593-16.593H55.871zm-37.741 0v16.593l16.597-16.593H18.13zm-17.927 0l16.6 16.593V19.138H.203zm36.796 17.531h17.534V19.142H36.998v17.527zm-18.593.669L35.67 54.6V20.08L18.407 37.338zM37 38.01V54.6l16.603-16.59H37z"/>
        <path id="q" d="M36.998 17.808h13.073a4.06 4.06 0 0 0 4.053-4.053c0-2.139-1.694-4.043-3.794-4.043-.102.008-4.19-.014-4.19-.014a.663.663 0 1 1 0-1.326h4.25c2.085 0 3.734-1.921 3.734-4.035A4.06 4.06 0 0 0 50.071.28L36.999.27v17.538zM55.871 4.267c0 2.719 2.212 4.074 4.049 4.074H63l-7.13-7.13v3.055zM27.372 9.506a.661.661 0 0 1-.941 0L18.13 1.211v16.597h17.539V1.211l-8.295 8.295zM9.643 8.372h7.16V1.211l-7.16 7.161zm50.112 1.295c-2.061 0-3.885 2.04-3.885 4.088v4.053h16.594l-8.13-8.141h-4.579zm-51.443.031l-8.109 8.11h16.6v-8.11h-8.49zm47.559 9.44v16.593l16.593-16.593H55.871zm-37.741 0v16.593l16.597-16.593H18.13zm-17.927 0l16.6 16.593V19.138H.203zm36.796 17.531h17.534V19.142H36.998v17.527zm-18.593.669L35.67 54.6V20.08L18.407 37.338zM37 38.01V54.6l16.603-16.59H37z"/>
        <path id="s" d="M.203.238l16.6 16.593V8.344L8.697.238z"/>
        <path id="u" d="M5.673 8.806a.661.661 0 0 1-.941 0L.483 13.055l4.05 4.053h9.435V.511L5.674 8.806z"/>
        <path id="w" d="M.63.238h8.771v4.053H.63z"/>
        <path id="y" d="M.63.238h8.771v4.053H.63z"/>
        <path id="A" d="M.63 8.708l4.053-4.053L.63.599z"/>
        <path id="C" d="M36.998 17.808h13.073a4.06 4.06 0 0 0 4.053-4.053c0-2.139-1.694-4.043-3.794-4.043-.102.008-4.19-.014-4.19-.014a.663.663 0 1 1 0-1.326h4.25c2.085 0 3.734-1.921 3.734-4.035A4.06 4.06 0 0 0 50.071.28L36.999.27v17.538zM55.871 4.267c0 2.719 2.212 4.074 4.049 4.074H63l-7.13-7.13v3.055zM27.372 9.506a.661.661 0 0 1-.941 0L18.13 1.211v16.597h17.539V1.211l-8.295 8.295zM9.643 8.372h7.16V1.211l-7.16 7.161zm50.112 1.295c-2.061 0-3.885 2.04-3.885 4.088v4.053h16.594l-8.13-8.141h-4.579zm-51.443.031l-8.109 8.11h16.6v-8.11h-8.49zm47.559 9.44v16.593l16.593-16.593H55.871zm-37.741 0v16.593l16.597-16.593H18.13zm-17.927 0l16.6 16.593V19.138H.203zm36.796 17.531h17.534V19.142H36.998v17.527zm-18.593.669L35.67 54.6V20.08L18.407 37.338zM37 38.01V54.6l16.603-16.59H37z"/>
        <path id="E" d="M36.998 17.808h13.073a4.06 4.06 0 0 0 4.053-4.053c0-2.139-1.694-4.043-3.794-4.043-.102.008-4.19-.014-4.19-.014a.663.663 0 1 1 0-1.326h4.25c2.085 0 3.734-1.921 3.734-4.035A4.06 4.06 0 0 0 50.071.28L36.999.27v17.538zM55.871 4.267c0 2.719 2.212 4.074 4.049 4.074H63l-7.13-7.13v3.055zM27.372 9.506a.661.661 0 0 1-.941 0L18.13 1.211v16.597h17.539V1.211l-8.295 8.295zM9.643 8.372h7.16V1.211l-7.16 7.161zm50.112 1.295c-2.061 0-3.885 2.04-3.885 4.088v4.053h16.594l-8.13-8.141h-4.579zm-51.443.031l-8.109 8.11h16.6v-8.11h-8.49zm47.559 9.44v16.593l16.593-16.593H55.871zm-37.741 0v16.593l16.597-16.593H18.13zm-17.927 0l16.6 16.593V19.138H.203zm36.796 17.531h17.534V19.142H36.998v17.527zm-18.593.669L35.67 54.6V20.08L18.407 37.338zM37 38.01V54.6l16.603-16.59H37z"/>
        <path id="G" d="M.297.238l8.107 8.106V.238z"/>
        <path id="I" d="M.304.238l8.1 8.117V.237z"/>
        <path id="K" d="M.63 4.508h8.102L4.683.455z"/>
        <path id="M" d="M.63 8.34l4.053-4.049L.63.238z"/>
        <path id="O" d="M4.532.238L.483 4.291 4.729 8.53 13.027.238z"/>
        <path id="Q" d="M.073 8.778L8.37 17.07V.48z"/>
        <path id="S" d="M.599 17.808H13.67a4.06 4.06 0 0 0 4.053-4.053c0-2.139-1.694-4.043-3.794-4.043-.101.008-4.19-.014-4.19-.014a.663.663 0 1 1 0-1.326h4.25c2.086 0 3.734-1.921 3.734-4.035A4.06 4.06 0 0 0 13.671.28L.599.27v17.538z"/>
        <path id="U" d="M.599.27v17.524l.003.014h13.069c1.222 0 2.32-.55 3.063-1.404l-6.7-6.706h-.293a.66.66 0 0 1-.669-.661c0-.091.018-.171.049-.252L.602.27H.599z"/>
        <path id="W" d="M.423 4.508h3.448c1.222 0 2.32-.55 3.063-1.404L4.378.55.423 4.508z"/>
        <path id="Y" d="M.178 2.684L2.712 5.23a4.045 4.045 0 0 0 1.012-2.674c0-.942-.333-1.834-.872-2.541L.18 2.684z"/>
        <path id="aa" d="M.087 4.291l4.05 4.05V.24z"/>
        <path id="ac" d="M.602.238V17.77L14.088 4.29 10.038.238z"/>
        <path id="ae" d="M.238.238l4.05 4.053L8.337.241V.239z"/>
        <path id="ag" d="M0 57.4h186.582V.423H0z"/>
    </defs>
    <g fill="none" fill-rule="evenodd">
        <g transform="translate(17.9 .776)">
            <mask id="b" fill="#fff">
                <use xlink:href="#a"/>
            </mask>
            <path fill="#FFF" d="M9.873 8.806a.661.661 0 0 1-.941 0L.63.511v16.597h17.539V.511L9.873 8.806z" mask="url(#b)"/>
        </g>
        <g transform="translate(.4 .076)">
            <mask id="d" fill="#fff">
                <use xlink:href="#c"/>
            </mask>
            <path fill="#FFF" d="M74.073 18.474L55.208 37.34V18.474z" mask="url(#d)"/>
        </g>
        <g transform="translate(.4 .076)">
            <mask id="f" fill="#fff">
                <use xlink:href="#e"/>
            </mask>
            <path fill="#FFF" d="M55.206 9.007V-.398L74.07 18.474H55.206z" mask="url(#f)"/>
        </g>
        <path fill="#FFF" d="M37.402 36.746h17.535V19.218H37.402z"/>
        <g transform="translate(36.8 37.877)">
            <mask id="h" fill="#fff">
                <use xlink:href="#g"/>
            </mask>
            <path fill="#FFF" d="M.602.21V16.8L17.202.21z" mask="url(#h)"/>
        </g>
        <g transform="translate(18.6 19.677)">
            <mask id="j" fill="#fff">
                <use xlink:href="#i"/>
            </mask>
            <path fill="#FFF" d="M.206 17.738L17.468 35V.48z" mask="url(#j)"/>
        </g>
        <g transform="translate(17.9 18.977)">
            <mask id="l" fill="#fff">
                <use xlink:href="#k"/>
            </mask>
            <path fill="#FFF" d="M.63.238v16.593L17.227.238z" mask="url(#l)"/>
        </g>
        <g transform="translate(.4 .076)">
            <mask id="n" fill="#fff">
                <use xlink:href="#m"/>
            </mask>
            <path fill="#FFF" d="M-1.4 18.474h18.866V-.398z" mask="url(#n)"/>
        </g>
        <g transform="translate(.4 .076)">
            <mask id="p" fill="#fff">
                <use xlink:href="#o"/>
            </mask>
            <path fill="#FFF" d="M55.206 18.474v9.43l9.435-9.43z" mask="url(#p)"/>
        </g>
        <g transform="translate(.4 .076)">
            <mask id="r" fill="#fff">
                <use xlink:href="#q"/>
            </mask>
            <path fill="#FFF" d="M64.64 18.47l-9.435-9.435v9.44h9.436z" mask="url(#r)"/>
        </g>
        <g transform="translate(.4 18.977)">
            <mask id="t" fill="#fff">
                <use xlink:href="#s"/>
            </mask>
            <path fill="#FFF" d="M.203.238l16.6 16.593V8.344L8.697.238z" mask="url(#t)"/>
        </g>
        <g transform="translate(22.1 .776)">
            <mask id="v" fill="#fff">
                <use xlink:href="#u"/>
            </mask>
            <path fill="#FFF" d="M5.673 8.806a.661.661 0 0 1-.941 0L.483 13.055l4.05 4.053h9.435V.511L5.674 8.806z" mask="url(#v)"/>
        </g>
        <path fill="#FFF" d="M17.866 9.114v9.436-9.436z"/>
        <g transform="translate(17.9 18.977)">
            <mask id="x" fill="#fff">
                <use xlink:href="#w"/>
            </mask>
            <path fill="#FFF" d="M-.034-.426l4.718 4.718L9.406-.426z" mask="url(#x)"/>
        </g>
        <g transform="translate(17.9 18.977)">
            <mask id="z" fill="#fff">
                <use xlink:href="#y"/>
            </mask>
            <path fill="#FFF" d="M-.034-.426l4.718 4.718L9.406-.426z" mask="url(#z)"/>
        </g>
        <g transform="translate(17.9 9.177)">
            <mask id="B" fill="#fff">
                <use xlink:href="#A"/>
            </mask>
            <path fill="#FFF" d="M.63 8.708l4.053-4.053L.63.599z" mask="url(#B)"/>
        </g>
        <g transform="translate(.4 .076)">
            <mask id="D" fill="#fff">
                <use xlink:href="#C"/>
            </mask>
            <path fill="#DE656A" d="M8.033 18.474h9.435V9.038z" mask="url(#D)"/>
        </g>
        <g transform="translate(.4 .076)">
            <mask id="F" fill="#fff">
                <use xlink:href="#E"/>
            </mask>
            <path fill="#FFF" d="M8.033 18.474h9.435V9.038z" mask="url(#F)"/>
        </g>
        <g transform="translate(8.8 18.977)">
            <mask id="H" fill="#fff">
                <use xlink:href="#G"/>
            </mask>
            <path fill="#FFF" d="M.297.238l8.107 8.106V.238z" mask="url(#H)"/>
        </g>
        <g transform="translate(8.8 18.977)">
            <mask id="J" fill="#fff">
                <use xlink:href="#I"/>
            </mask>
            <path fill="#FFF" d="M.304.238l8.1 8.117V.237z" mask="url(#J)"/>
        </g>
        <g transform="translate(17.9 13.377)">
            <mask id="L" fill="#fff">
                <use xlink:href="#K"/>
            </mask>
            <path fill="#FFF" d="M.63 4.508h8.102L4.683.455z" mask="url(#L)"/>
        </g>
        <g transform="translate(17.9 18.977)">
            <mask id="N" fill="#fff">
                <use xlink:href="#M"/>
            </mask>
            <path fill="#FFF" d="M.63 8.34l4.053-4.049L.63.238z" mask="url(#N)"/>
        </g>
        <g transform="translate(22.1 18.977)">
            <mask id="P" fill="#fff">
                <use xlink:href="#O"/>
            </mask>
            <path fill="#FFF" d="M4.532.238L.483 4.291 4.729 8.53 13.027.238z" mask="url(#P)"/>
        </g>
        <g transform="translate(27.7 19.677)">
            <mask id="R" fill="#fff">
                <use xlink:href="#Q"/>
            </mask>
            <path fill="#FFF" d="M.073 8.778L8.37 17.07V.48z" mask="url(#R)"/>
        </g>
        <g transform="translate(36.8 .076)">
            <mask id="T" fill="#fff">
                <use xlink:href="#S"/>
            </mask>
            <path fill="#FFF" d="M.599 17.808H13.67a4.06 4.06 0 0 0 4.053-4.053c0-2.139-1.694-4.043-3.794-4.043-.101.008-4.19-.014-4.19-.014a.663.663 0 1 1 0-1.326h4.25c2.086 0 3.734-1.921 3.734-4.035A4.06 4.06 0 0 0 13.671.28L.599.27v17.538z" mask="url(#T)"/>
        </g>
        <g transform="translate(36.8 .076)">
            <mask id="V" fill="#fff">
                <use xlink:href="#U"/>
            </mask>
            <path fill="#FFF" d="M.599 17.794l.003.014h13.069c1.222 0 2.32-.55 3.063-1.404l-6.7-6.706h-.293a.66.66 0 0 1-.62-.913L.602.27.599 17.794z" mask="url(#V)"/>
        </g>
        <g transform="translate(46.6 13.377)">
            <mask id="X" fill="#fff">
                <use xlink:href="#W"/>
            </mask>
            <path fill="#FFF" d="M.423 4.508h3.448c1.222 0 2.32-.55 3.063-1.404L4.378.55.423 4.508z" mask="url(#X)"/>
        </g>
        <g transform="translate(50.8 11.277)">
            <mask id="Z" fill="#fff">
                <use xlink:href="#Y"/>
            </mask>
            <path fill="#FFF" d="M.178 2.684L2.712 5.23a4.045 4.045 0 0 0 1.012-2.674c0-.942-.333-1.834-.872-2.541L.18 2.684z" mask="url(#Z)"/>
        </g>
        <g transform="translate(50.8 18.977)">
            <mask id="ab" fill="#fff">
                <use xlink:href="#aa"/>
            </mask>
            <path fill="#FFF" d="M.087 4.291l4.05 4.05V.24z" mask="url(#ab)"/>
        </g>
        <g transform="translate(36.8 18.977)">
            <mask id="ad" fill="#fff">
                <use xlink:href="#ac"/>
            </mask>
            <path fill="#FFF" d="M.602.238V17.77L14.088 4.29 10.038.238z" mask="url(#ad)"/>
        </g>
        <g transform="translate(46.6 18.977)">
            <mask id="af" fill="#fff">
                <use xlink:href="#ae"/>
            </mask>
            <path fill="#FFF" d="M.238.238l4.05 4.053L8.337.241z" mask="url(#af)"/>
        </g>
        <g transform="translate(-1 -2.724)">
            <path fill="#FFF" d="M91.58 45.511c1.851 0 3.157.732 4.126 1.887l-.882.784c-.903-1.141-1.953-1.617-3.21-1.617-2.733 0-3.954 2.464-3.954 4.89 0 2.432 1.221 4.896 3.955 4.896 1.256 0 2.306-.48 3.21-1.617l.881.78c-.97 1.155-2.275 1.883-4.126 1.883-3.532 0-5.163-2.901-5.163-5.925 0-3.056 1.631-5.96 5.163-5.96M103.16 45.511c1.852 0 3.157.732 4.127 1.887l-.882.784c-.903-1.141-1.953-1.617-3.21-1.617-2.733 0-3.955 2.464-3.955 4.89 0 2.432 1.222 4.896 3.955 4.896 1.257 0 2.307-.48 3.21-1.617l.882.78c-.97 1.155-2.275 1.883-4.127 1.883-3.531 0-5.162-2.901-5.162-5.925 0-3.056 1.63-5.96 5.162-5.96M115.42 46.769h-2.852v4.567h2.733c1.442 0 2.513-.728 2.513-2.324 0-1.396-1.053-2.243-2.394-2.243zm2.888 10.409l-3.28-4.806h-2.46v4.806h-1.208V45.736h4.11c1.952 0 3.548 1.187 3.548 3.259 0 1.9-1.221 2.968-2.68 3.206l3.482 4.977h-1.512zM123.72 57.18V45.73h6.812v1.092h-5.604v3.903h5.093v1.053h-5.093v4.309h5.943v1.092zM139.088 46.786h-2.853v9.338h2.853c2.866 0 4.33-1.953 4.33-4.67 0-2.834-1.68-4.668-4.33-4.668m.084 10.395h-4.144V45.732h4.144c3.755 0 5.488 2.615 5.488 5.705 0 3.16-1.855 5.744-5.488 5.744"/>
            <mask id="ah" fill="#fff">
                <use xlink:href="#ag"/>
            </mask>
            <path fill="#FFF" d="M148.305 57.183h1.208V45.734h-1.208zM158.19 46.82v10.357h-1.207V46.82h-4.245v-1.088h9.684v1.088zM165.644 57.18V45.73h6.81v1.092h-5.603v3.903h5.093v1.053h-5.093v4.309h5.94v1.092zM181.01 46.786h-2.853v9.338h2.852c2.87 0 4.33-1.953 4.33-4.67 0-2.834-1.68-4.668-4.33-4.668m.085 10.395h-4.144V45.732h4.144c3.755 0 5.484 2.615 5.484 5.705 0 3.16-1.852 5.744-5.484 5.744M125.19 30.123l-8.939-14.346h-2.593v25.826h3.223v-18.75l7.13 11.208h2.254l7.126-11.48v19.022h3.297V15.777h-2.555zM150.492 26.743h-6.073v-8.008h6.111c2.825 0 4.508 1.52 4.508 4.06 0 2.475-1.7 3.948-4.546 3.948m5.925 7.354c0 3.104-1.904 4.55-5.999 4.55h-5.999V29.63h5.814c3.93 0 6.184 1.627 6.184 4.466m-1.256-6.174c2.03-1.117 3.21-3.031 3.21-5.275 0-4.746-3.753-6.87-7.466-6.87h-9.821v25.826h9.632c5.572 0 9.037-2.828 9.037-7.392 0-3.097-1.698-5.39-4.592-6.29M177.077 31.053h-8.089l4.029-10.248 4.06 10.248zm-2.615-15.316h-2.709L161.24 41.606h3.616l2.982-7.627h10.395l3.02 7.627h3.644l-10.434-25.869zM91.657 10.118l6.447 16.275H85.262l6.395-16.275zm-8.008 20.377h16.075l4.396 11.11h5.166L93.736 3.068h-3.882L74.192 41.604h5.11l4.347-11.109zM104.298 16.09c-1.25 0-1.897 1.053-1.897 2.211 0 1.141.648 2.212 1.897 2.212 1.25 0 1.894-1.057 1.894-2.212 0-1.144-.644-2.212-1.894-2.212m0 4.897c-1.627 0-2.457-1.292-2.457-2.695 0-1.4.83-2.678 2.457-2.678 1.628 0 2.457 1.278 2.457 2.678 0 1.403-.83 2.695-2.457 2.695M108.485 18.677v2.208h-.542v-5.17h3.23v.49h-2.688v1.982h2.457v.49zM183.722 15.942c-1.246 0-1.81.564-1.81 1.351 0 2.223 4.67 1.281 4.67 4.256 0 1.533-1.275 2.356-2.962 2.356-1.221 0-2.208-.385-3.03-1.348l.66-.609c.575.732 1.324 1.187 2.398 1.187 1.299 0 2.01-.578 2.01-1.425 0-2.46-4.67-1.347-4.67-4.284 0-1.158.788-2.257 2.71-2.257 1.161 0 2.022.36 2.806 1.284l-.623.588c-.535-.71-1.235-1.099-2.16-1.099M105.546 4.01c-1.407 0-2.037.633-2.037 1.519 0 2.502 5.257 1.449 5.257 4.795 0 1.729-1.432 2.656-3.332 2.656-1.38 0-2.492-.437-3.42-1.515l.75-.69c.643.83 1.487 1.334 2.698 1.334 1.463 0 2.264-.644 2.264-1.603 0-2.772-5.257-1.516-5.257-4.823 0-1.309.882-2.545 3.049-2.545 1.309 0 2.278.41 3.164 1.45l-.704.66c-.605-.8-1.393-1.238-2.432-1.238M114.785 4.01c-1.407 0-2.04.633-2.04 1.519 0 2.502 5.26 1.449 5.26 4.795 0 1.729-1.432 2.656-3.332 2.656-1.38 0-2.492-.437-3.42-1.515l.746-.69c.647.83 1.49 1.334 2.702 1.334 1.463 0 2.264-.644 2.264-1.603 0-2.772-5.26-1.516-5.26-4.823 0-1.309.885-2.545 3.052-2.545 1.309 0 2.278.41 3.164 1.45l-.704.66c-.605-.8-1.393-1.238-2.432-1.238M124.543 4.01c-2.293 0-3.476 1.928-3.476 4.05 0 2.096 1.183 4.049 3.476 4.049 2.292 0 3.475-1.922 3.475-4.05 0-2.093-1.183-4.049-3.475-4.049m0 8.97c-2.982 0-4.498-2.359-4.498-4.938 0-2.569 1.516-4.904 4.498-4.904s4.5 2.335 4.5 4.904c0 2.58-1.518 4.938-4.5 4.938M135.005 3.138c1.533 0 2.615.602 3.42 1.561l-.732.648c-.749-.942-1.62-1.337-2.66-1.337-2.264 0-3.276 2.04-3.276 4.05 0 2.008 1.012 4.049 3.276 4.049 1.04 0 1.911-.392 2.66-1.334l.732.644c-.805.96-1.887 1.565-3.42 1.565-2.922 0-4.273-2.408-4.273-4.91 0-2.531 1.35-4.936 4.273-4.936M141.232 12.8h.998V3.32h-.998zM148.645 4.629l-1.73 4.403h3.473l-1.743-4.403zm3.234 8.169l-1.155-2.909h-4.148l-1.137 2.909h-1.1l3.914-9.618h.854l3.885 9.618h-1.113zM157.434 4.222v8.579h-1.001V4.222h-3.514v-.9h8.018v.9zM163.324 12.8h.997V3.32h-.997zM171.565 4.01c-2.292 0-3.475 1.928-3.475 4.05 0 2.096 1.183 4.049 3.475 4.049 2.29 0 3.472-1.922 3.472-4.05 0-2.093-1.183-4.049-3.472-4.049m0 8.97c-2.982 0-4.5-2.359-4.5-4.938 0-2.569 1.518-4.904 4.5-4.904s4.498 2.335 4.498 4.904c0 2.58-1.516 4.938-4.498 4.938M185.374 12.928l-5.88-7.784v7.654h-.97v-9.6h.732l5.894 7.819V3.32h.966v9.608zM79.388 47.312l-2.086 5.313h4.193l-2.107-5.313zm3.906 9.867l-1.39-3.518h-5.011l-1.376 3.518h-1.323l4.718-11.617h1.04l4.686 11.617h-1.344z" mask="url(#ah)"/>
        </g>
    </g>
</svg>
