<svg xmlns="http://www.w3.org/2000/svg" xmlns:xlink="http://www.w3.org/1999/xlink" width="47" height="28" viewBox="0 0 47 28">
    <defs>
        <path id="prefix__a" d="M0 28L46.99 28 46.99 0.589 0 0.589z"/>
    </defs>
    <g fill="none" fill-rule="evenodd">
        <path fill="#000" d="M0 10.532L46.99 10.532 46.99 1.399 0 1.399z" transform="translate(0 -1)"/>
        <path fill="#E1001F" d="M0 19.67L46.99 19.67 46.99 10.532 0 10.532z" transform="translate(0 -1)"/>
        <path fill="#F6D928" d="M0 28.809L46.99 28.809 46.99 19.67 0 19.67z" transform="translate(0 -1)"/>
        <g transform="translate(0 -1) translate(0 .81)">
            <path fill="#F6D728" d="M16.991 7.077v10.97c0 4.109 5.516 3.615 6.503 5.256C24.48 21.662 30 22.156 30 18.047V7.077H16.991z"/>
            <path fill="#000" d="M17.03 7.118v10.93c0 2.59 2.184 3.319 4.109 3.956 1.053.353 1.968.654 2.355 1.225.387-.571 1.303-.872 2.36-1.225 1.92-.637 4.103-1.365 4.103-3.957V7.117H17.03zm6.464 16.266l-.034-.06c-.35-.58-1.277-.886-2.35-1.243-1.851-.613-4.161-1.382-4.161-4.034V7.037h13.09v11.01c0 2.652-2.305 3.42-4.161 4.034-1.073.357-2 .663-2.348 1.243l-.036.06z"/>
            <path fill="#000" d="M23.067 8.657c.066.322-.064 1.11-.23 1.378-.163.26-.592.751-.622 1.244-.167 2.47.756 6.045 1.28 8.607.526-2.562 1.444-6.137 1.28-8.607-.162-2.461-.493-3.119-.493-3.119l-1.215.497z"/>
            <path fill="#CA001C" d="M23.197 9.018c-.612-.046-1.125-.17-1.544-.361.175.215.574.39 1.184.522l.36-.161z"/>
            <path fill="#000" d="M22.843 9.16c-.624-.092-1.026-.27-1.204-.493.437.163.954.286 1.561.326l-.003.044c-.614-.046-1.134-.167-1.55-.367.195.183.588.361 1.196.49"/>
            <path fill="#CA001C" d="M23.003 7.667c-.986-.493-1.58.069-.921.955.067-.165.689-.398.985.396-.15.084-.515.095-1.083.03.294.226 1.183.263 1.344.165.166-.1-.294-.92-.294-.92l-.031-.626z"/>
            <path fill="#000" d="M22.955 9.283c-.336 0-.787-.066-.984-.221.58.03.94.02 1.086-.066-.186-.44-.467-.514-.618-.516h-.003c-.178 0-.31.084-.335.15-.334-.397-.399-.772-.215-.99.203-.241.632-.238 1.124.01l-.019.036c-.466-.233-.887-.242-1.072-.018-.172.201-.105.557.18.938-.003-.08.165-.168.342-.168.161.002.462.077.647.57-.168.114-.528.125-1.106.06.3.186 1.178.224 1.337.126.108-.066-.13-.579-.302-.892.113.12.497.826.325.93-.06.032-.208.051-.387.051"/>
            <path fill="#000" d="M24.218 8.356c.166-.032.427-.131.623-.322-.36 0-1.019-.203-1.283-.332-.26-.133-.72-.425-.72.13 0 .56.592.986.49 1.443l.89-.919z"/>
            <path fill="#F0F7FF" d="M23.398 7.995s-.33-.164-.395-.227c-.064-.065-.165.362.13.492a.507.507 0 01.265-.265"/>
            <path fill="#000" d="M23.167 7.798c-.155.047-.188.164-.1.362.023-.152.13-.25.331-.296l-.23-.066zM24.939 12.266v3.878l4.401 3.612v-9.625c0-.744-.152-1.247-.459-1.51v2.005l-3.942 1.64z"/>
            <mask id="prefix__b" fill="#fff">
                <use xlink:href="#prefix__a"/>
            </mask>
            <path fill="#F6D728" d="M25.698 19.33L25.823 19.33 25.823 11.119 25.698 11.119zM26.621 19.33L26.746 19.33 26.746 11.119 26.621 11.119zM27.539 19.33L27.664 19.33 27.664 11.119 27.539 11.119zM28.459 19.33L28.582 19.33 28.582 11.119 28.459 11.119z" mask="url(#prefix__b)"/>
            <path fill="#000" d="M24.084 12.991c2.957 0 4.206-.955 4.832-1.676V8.657c.325-.093.502-.334.525-.727-.921.757-2.366-1.018-3.222.823.462.919 1.382.823 1.71.296.658.557.131 2.66-3.845 2.627v1.315z" mask="url(#prefix__b)"/>
            <path fill="#CA001C" d="M25.169 19.425c-.23.298-.031.563.165.662a.57.57 0 01.1-.558l-.265-.104z" mask="url(#prefix__b)"/>
            <path fill="#000" d="M25.353 20.081a.403.403 0 01-.298-.3.436.436 0 01.097-.365l.032.025a.398.398 0 00-.091.334.46.46 0 00.25.29c-.096-.178-.061-.369.073-.552-.095.196-.124.374-.063.568" mask="url(#prefix__b)"/>
            <path fill="#CA001C" d="M26.32 20.546c.02.132-.045.296-.198.496.397-.102.56-.235.427-.464l-.23-.032z" mask="url(#prefix__b)"/>
            <path fill="#000" d="M26.128 21.057c.128-.22.192-.382.17-.508l.042-.005c.022.135-.045.309-.202.505.242-.098.382-.172.422-.267.025-.055.014-.118-.03-.192.088.066.095.143.07.207-.047.11-.199.192-.472.26" mask="url(#prefix__b)"/>
            <path fill="#CA001C" d="M27.632 20.051c.068.155.079.33.035.528.296-.266.394-.623.164-.692l-.199.164z" mask="url(#prefix__b)"/>
            <path fill="#000" d="M27.681 20.593c.008-.21-.002-.385-.07-.534l.041-.014a.868.868 0 01.034.54c.16-.195.278-.422.246-.564-.012-.06-.049-.099-.106-.112.085-.022.128.03.147.101.036.158-.086.396-.291.583" mask="url(#prefix__b)"/>
            <path fill="#CA001C" d="M27.6 18.87c.11.025.218.129.328.328.035-.36-.032-.558-.36-.623l.033.295z" mask="url(#prefix__b)"/>
            <path fill="#000" d="M27.948 19.2c-.143-.18-.25-.29-.353-.311l.009-.038c.116.022.232.137.344.336-.003-.377-.095-.536-.385-.594.365.03.417.26.385.608" mask="url(#prefix__b)"/>
            <path fill="#CA001C" d="M24.71 17.787l1.545 1.411s-.59.132-.82.132c-.233 0-.429.064-.363.133.066.066.193.066.262.16.064.1.163.235.294.1.133-.129.592-.26.592-.26s0 .754-.032.851c-.032.1-.132.295-.065.295.065 0 .065-.03.33 0 .26.035.229.101.162-.295-.066-.392-.032-.818-.032-.818s.59.391.788.656c.197.263.166.065.262-.035.1-.096.23-.13.33-.161.098-.034-.263-.135-.363-.2a43.42 43.42 0 00-.852-.492s.425-.132.688-.167c.264-.03.264-.03.232-.162-.035-.13 0-.265 0-.328s-.035-.131-.2 0c-.163.132-.92.46-.92.46l-1.283-1.707-.556.427z" mask="url(#prefix__b)"/>
            <path fill="#000" d="M26.625 20.655a.47.47 0 01-.076-.008l-.1-.014c-.187-.024-.239-.013-.277-.01l-.085-.008c-.021-.034.006-.107.05-.221l.031-.083c.027-.077.032-.634.032-.848-.02.033-.434.156-.557.28-.04.037-.085.063-.137.054-.077-.005-.134-.082-.19-.16-.031-.051-.089-.075-.142-.097-.045-.017-.087-.033-.117-.063l-.01-.012-.006-.049c.03-.07.223-.106.392-.106.226 0 .81-.132.816-.132l-1.552-1.377.028-.03 1.543 1.41c-.033.042-.607.17-.835.17-.196 0-.34.05-.354.08.032.04.067.057.11.07.055.025.121.05.163.113.046.071.1.137.16.141.035.006.07-.01.102-.046.134-.136.58-.262.602-.267.024.051.024.778-.009.883l-.032.081c-.022.055-.064.167-.052.184.082-.012.139-.021.33 0l.103.02c.036.005.073.013.081.005.01-.011 0-.072-.014-.149l-.028-.147a3.89 3.89 0 01-.033-.826c.056 0 .625.385.827.643.074.104.091.118.125.126.012 0 .026-.028.039-.06.018-.03.035-.069.064-.1a.714.714 0 01.301-.155c.03-.02-.073-.063-.141-.09-.073-.03-.149-.057-.186-.082-.101-.066-.854-.492-.854-.492.008-.039.436-.17.697-.203.134-.016.207-.028.224-.049.01-.01 0-.043-.013-.093a.753.753 0 01-.004-.262.793.793 0 00.004-.069c-.03-.06-.064-.063-.162.017-.165.134-.893.445-.927.462l-1.305-1.715 1.313 1.681c-.002-.015.731-.333.892-.462.084-.067.147-.092.19-.072.017.01.04.03.04.09l-.004.073a.699.699 0 00.004.252c.014.058.024.093.005.122-.025.037-.088.042-.253.06-.24.034-.62.149-.678.168.077.005.76.394.852.46.035.018.11.051.18.078.156.063.207.085.207.118l-.07.049a.638.638 0 00-.282.142.366.366 0 00-.054.093c-.022.04-.04.077-.074.08-.042.002-.088-.038-.165-.14-.182-.245-.717-.604-.777-.647.02.043-.003.44.06.795l.024.147c.024.115.03.162.006.183-.01.012-.026.014-.042.014" mask="url(#prefix__b)"/>
            <path fill="#000" d="M23.494 22.055l.691-.823c.79.485 1.368.35 1.74-.39-1.182.198-1.74-.878-1.675-3.219l.887 1.375V17.72l1.083.132-2.858-3.055.132 7.257zM22.049 12.266v3.878l-4.402 3.612v-9.625c0-.744.156-1.247.46-1.51v2.005l3.942 1.64z" mask="url(#prefix__b)"/>
            <path fill="#F6D728" d="M21.167 19.33L21.29 19.33 21.29 11.119 21.167 11.119zM20.247 19.33L20.369 19.33 20.369 11.119 20.247 11.119zM19.327 19.33L19.45 19.33 19.45 11.119 19.327 11.119zM18.404 19.33L18.53 19.33 18.53 11.119 18.404 11.119z" mask="url(#prefix__b)"/>
            <path fill="#000" d="M22.905 12.991c-2.959 0-4.206-.955-4.83-1.676V8.657c-.33-.093-.504-.334-.524-.727.918.757 2.363-1.018 3.217.823-.459.919-1.38.823-1.708.296-.655.557-.131 2.66 3.845 2.627v1.315z" mask="url(#prefix__b)"/>
            <path fill="#CA001C" d="M21.819 19.425c.23.298.035.563-.165.662a.576.576 0 00-.097-.558l.262-.104z" mask="url(#prefix__b)"/>
            <path fill="#000" d="M21.664 20.103c.035-.216.006-.393-.124-.563a.495.495 0 01.134.552c.07-.072.188-.178.22-.317.025-.112-.006-.225-.092-.334l.032-.024c.092.118.127.246.1.364a.49.49 0 01-.27.322" mask="url(#prefix__b)"/>
            <path fill="#CA001C" d="M20.668 20.546c-.021.132.045.296.197.496-.395-.102-.556-.235-.427-.464l.23-.032z" mask="url(#prefix__b)"/>
            <path fill="#000" d="M20.885 21.024c-.3-.035-.45-.117-.494-.226-.03-.066-.02-.143.03-.23-.008.095-.019.158.005.213.043.097.186.17.444.235-.177-.164-.244-.336-.223-.473l.044.006c-.023.125.042.287.194.476" mask="url(#prefix__b)"/>
            <path fill="#CA001C" d="M19.355 20.051a.845.845 0 00-.03.528c-.297-.266-.397-.623-.167-.692l.197.164z" mask="url(#prefix__b)"/>
            <path fill="#000" d="M19.342 20.573c-.241-.166-.361-.404-.322-.562a.175.175 0 01.133-.143c-.045.054-.081.094-.094.152-.035.143.084.37.278.542a.627.627 0 010-.516l.038.014a.838.838 0 00-.033.513" mask="url(#prefix__b)"/>
            <path fill="#CA001C" d="M19.388 18.87c-.108.025-.22.129-.327.328-.034-.36.033-.558.36-.623l-.033.295z" mask="url(#prefix__b)"/>
            <path fill="#000" d="M19.078 19.209c-.07-.356-.018-.585.339-.657-.282.1-.371.258-.336.643.075-.21.187-.322.302-.344l.01.037c-.104.023-.209.132-.315.321" mask="url(#prefix__b)"/>
            <path fill="#CA001C" d="M22.278 17.787l-1.544 1.411s.592.132.823.132c.229 0 .427.064.362.133-.065.066-.196.066-.265.16-.064.1-.162.235-.294.1-.133-.129-.592-.26-.592-.26s0 .754.032.851c.034.1.133.295.064.295-.064 0-.064-.03-.324 0-.265.035-.23.101-.166-.295.065-.392.031-.818.031-.818s-.59.391-.784.656c-.199.263-.166.065-.266-.035-.096-.096-.23-.13-.327-.161-.1-.034.261-.135.36-.2.099-.066.853-.492.853-.492s-.427-.132-.687-.167c-.265-.03-.265-.03-.23-.162.031-.13 0-.265 0-.328s.031-.131.195 0c.165.132.92.46.92.46l1.284-1.707.555.427z" mask="url(#prefix__b)"/>
            <path fill="#000" d="M20.363 20.655c-.017 0-.03-.002-.04-.014-.024-.02-.016-.068.006-.183l.024-.147a3.76 3.76 0 00.034-.815c-.021.052-.569.422-.753.667-.076.102-.124.142-.164.14-.035-.003-.053-.04-.072-.08-.015-.03-.03-.065-.057-.09a.606.606 0 00-.281-.145l-.069-.05c-.003-.032.049-.054.204-.117.073-.027.147-.06.182-.078.09-.066.752-.439.843-.49-.067 0-.435-.104-.669-.138-.165-.018-.225-.023-.253-.06-.017-.03-.01-.064.005-.122a.699.699 0 00.004-.252.969.969 0 01-.004-.074c0-.06.023-.08.04-.09.043-.019.104.006.19.073.16.13.906.455.917.458l1.256-1.7-1.25 1.732c-.057-.01-.783-.322-.948-.456-.097-.08-.135-.077-.146-.071-.02.071-.015.092-.015.123a.664.664 0 01-.005.262c-.012.05-.018.082-.01.093.015.021.09.033.223.05.26.032.689.163.693.163.006.04-.75.465-.847.53-.042.026-.117.053-.19.083a.801.801 0 00-.18.087c.132.031.25.072.34.158.03.031.048.07.064.1.012.032.028.06.04.06.023-.008.05-.022.128-.126.197-.258.768-.643.794-.66.029.02.061.451-.003.843l-.025.147c-.016.077-.028.138-.019.149.006.008.047 0 .084-.006l.103-.02c.191-.02.247-.01.285-.005.055-.011.014-.126-.01-.178l-.03-.08c-.034-.106-.034-.833-.034-.863.048-.016.493.11.627.246.034.036.072.052.101.046.062-.004.116-.07.16-.141.043-.063.107-.088.165-.112a.279.279 0 00.103-.055c-.007-.046-.15-.096-.345-.096-.233 0-.804-.128-.828-.133l1.535-1.448.028.03-1.542 1.412c.053-.02.59.098.807.098.165 0 .36.035.387.106l.006.009-.02.052a.31.31 0 01-.116.063c-.054.022-.109.046-.144.098-.053.077-.112.154-.19.16-.047.008-.093-.018-.138-.055-.127-.13-.578-.26-.58-.26.025.188.032.751.057.828l.03.08c.047.117.072.19.05.224l-.086.008c-.036-.003-.09-.014-.274.01l-.102.014a.455.455 0 01-.076.008" mask="url(#prefix__b)"/>
            <path fill="#000" d="M23.494 22.055l-.689-.823c-.788.485-1.368.35-1.739-.39 1.179.198 1.739-.878 1.672-3.219l-.884 1.375V17.72l-1.086.132 2.857-3.055-.131 7.257z" mask="url(#prefix__b)"/>
        </g>
    </g>
</svg>
