<svg xmlns="http://www.w3.org/2000/svg" xmlns:xlink="http://www.w3.org/1999/xlink" width="75" height="76" viewBox="0 0 75 76">
    <defs>
        <path id="prefix__a" d="M0.001 2.54L74.465 2.54 74.465 77.143 0.001 77.143z"/>
    </defs>
    <g fill="none" fill-rule="evenodd">
        <g transform="translate(0 -2) translate(0 .317)">
            <mask id="prefix__b" fill="#fff">
                <use xlink:href="#prefix__a"/>
            </mask>
            <path fill="#FFF" d="M74.465 39.841c0 20.609-16.672 37.303-37.236 37.303C16.667 77.144 0 60.45 0 39.841 0 19.236 16.667 2.54 37.229 2.54c20.564 0 37.236 16.697 37.236 37.302" mask="url(#prefix__b)"/>
        </g>
        <path fill="#FFF" d="M70.213 40.159c0 18.254-14.77 33.04-32.982 33.04-18.21 0-32.979-14.786-32.979-33.04 0-18.252 14.77-33.04 32.979-33.04 18.212 0 32.982 14.788 32.982 33.04" transform="translate(0 -2)"/>
        <path fill="#BCBCDF" d="M37.776 60.136c.042.035.074.115.074.177 0 .08.028.146.051.169.029.023.051-.094.063-.263l.006-.046c.008-.18-.018-.345-.049-.388-.037-.04-.085-.04-.094.011-.017.046-.049.112-.068.135-.023.028-.023.074 0 .102.02.043.014.052-.018.052-.022-.006-.011.014.035.051M37.948 62.254c.026.037.16.131.302.2.146.066.146.046 0-.043l-.088-.06c-.137-.086-.237-.134-.214-.097M29.426 27.463c-.003.032.04 0 .088-.066.055-.071.06-.102.009-.06-.043.04-.088.095-.097.126M47.058 38.518c-.031.014-.077.054-.108.08-.023.043-.04.091-.023.117.008.02.057.003.105-.037.049-.051.069-.1.049-.1-.026-.006-.026-.026 0-.049.02-.022.011-.025-.023-.011M38.664 61.813c-.02-.051-.054-.043-.063.012-.017.048-.051.068-.063.04-.017-.038-.065-.058-.116-.04-.046.002-.089.097-.095.191-.005.094.02.209.049.257.028.034.097.066.143.054.05-.014.102.012.116.052.018.031-.008.057-.045.057-.046 0-.04.046.017.089.051.06.114.091.123.097.017.011.034-.02.034-.069 0-.04.082-.128.194-.191.108-.063.182-.137.17-.166-.008-.026-.06-.051-.116-.06-.051-.003-.134.029-.171.071-.043.043-.117.038-.163-.011-.054-.04-.068-.134-.034-.191.037-.06.046-.14.02-.192M38.458 62.594c-.074-.011-.114.063-.08.177.026.109.088.215.134.24.037.026.123.043.171.032.054-.014.117-.054.134-.097.029-.043-.017-.137-.085-.197-.072-.08-.192-.143-.274-.155M36.815 31.3c-.077-.012-.18 0-.228.028-.049.029-.037.089.04.149.065.051.17.1.23.108.058 0 .143-.011.192-.034.051-.023.128-.034.177-.028.048.005.074-.015.05-.046-.008-.029-.09-.089-.167-.117-.083-.015-.214-.046-.294-.06M38.207 62.075c.009.026.026.026.049-.011.011-.037.008-.063-.018-.057-.02.006-.034.034-.03.068M38.18 61.573c-.02-.037-.046-.071-.058-.088-.008-.015-.008-.006-.005.028.003.026.025.066.051.089.031.011.04 0 .011-.029M38.29 61.473c-.01-.035-.025-.075-.04-.103-.02-.02-.016.008.006.06.023.054.038.077.035.043M42.93 34.634c.078-.011.16-.069.183-.131.02-.066-.023-.123-.097-.123-.074 0-.12.031-.108.068.023.037-.003.103-.04.137-.049.035-.02.058.063.049M37.96 61.177c.02 0 .034-.026.04-.057.005-.023-.03-.1-.072-.152-.037-.057-.054-.031-.034.055.02.088.051.154.065.154" transform="translate(0 -2)"/>
        <path fill="#BCBCDF" d="M43.454 16.221c-.005.023.006.046.032.052.02.006.128-.094.245-.212l.048-.048c-2.084-.569-4.28-.877-6.55-.877-6.979 0-13.281 2.868-17.81 7.483.071.1.148.194.174.211.034.02.065.014.074-.017.014-.037.068-.052.117-.052.057.009.071.029.031.063-.04.02-.048.086-.017.135.026.065.02.08-.014.048-.029-.034-.063-.054-.074-.048-.012.017 0 .085.023.154.014.068.077.154.13.191.058.037.098.123.09.195-.007.065.073.24.184.362l.092.109c.108.131.2.289.205.357.009.057.14.157.297.212l.18.057c.156.048.31.125.324.163.02.04.075.08.117.094.046.017.132.083.191.134.069.066.129.177.146.254.017.086.08.215.151.3.054.086.16.286.211.446l.034.08c.052.163.114.286.131.28.015 0 .04.054.055.14.022.077.09.169.165.212.074.037.217.165.305.277.1.123.174.285.163.371-.009.086-.089.14-.18.134-.083-.011-.151-.005-.151.006 0 .02.111.114.25.214l.04.023c.14.103.275.189.297.195.029.002.06-.009.083-.043.012-.023.037-.012.054.034.017.037.086.114.154.16.074.051.143.134.166.2.023.051.034.197.023.306-.015.105.011.205.05.205.05 0 .183.089.309.203l.065.055c.126.111.274.28.323.362.057.083.137.129.188.095.046-.029.094-.095.097-.132.003-.045-.051-.148-.14-.237-.077-.088-.16-.143-.18-.134-.022.006-.06.006-.082 0-.017-.009-.08-.149-.134-.312l-.146-.428c-.06-.163-.122-.3-.15-.312-.03-.02-.05-.005-.044.023.003.037.003.049-.008.043-.009-.014-.089-.143-.163-.286l-.228-.42c-.083-.142-.174-.274-.197-.274-.025-.006-.065-.051-.088-.1-.02-.051-.088-.134-.163-.191-.074-.06-.142-.146-.165-.195-.02-.048-.066-.222-.1-.382l-.051-.223c-.032-.157.003-.252.085-.183.08.054.177.097.223.097.04 0 .128.046.194.091.06.052.157.212.202.352.046.137.16.371.24.517l.031.043c.086.143.22.326.3.403.074.088.182.157.23.168.058.009.109.069.126.149.014.068.137.206.268.303l.02.023c.14.102.217.231.194.288-.023.063-.028.134-.017.169.011.034.057.048.083.037.034-.009.06.006.06.034 0 .034.06.077.125.1.071.017.16.069.197.103.034.029.071.094.074.143.006.043.094.148.197.226.102.085.225.222.29.302.055.086.169.203.246.269.068.051.171.223.225.371.054.149.074.318.054.369-.031.049-.037.117-.014.146.02.025.006.063-.04.077-.043.02-.06.088-.04.154.029.072.094.169.149.214.06.046.188.135.29.195.1.06.226.145.277.203.057.057.22.128.374.168.162.034.368.137.456.223.1.083.314.189.47.24l.266.074c.165.052.373.137.479.197.1.058.31.138.473.183.16.043.391.032.51-.028.123-.06.26-.115.303-.12.04-.003.171.025.29.071.118.046.306.174.426.292l.034.034c.117.123.294.277.39.348.098.078.28.158.411.18.137.02.365.083.508.143.143.057.3.106.36.106.048 0 .13-.014.168-.037.051-.02.102-.043.128-.043.026 0 .066.037.088.08.02.046.02.074 0 .074-.022 0-.037.015-.037.026 0 .009.094.117.211.237l.248.26c.123.123.206.272.192.346-.003.071 0 .163.025.214.023.046.091.117.154.154.063.035.126.04.129.012.002-.034-.003-.074-.032-.094-.025-.012-.017-.026.012-.026.022 0 .088.048.134.12.048.063.156.14.23.18.08.034.155.117.155.174.005.057.04.123.07.137.05.012.08.003.084-.017.005-.028.034-.023.062.006.026.031.052.077.066.108.009.026.031.026.048.006.018-.017.117-.023.223-.006.105.015.23.075.28.132.045.063.113.106.145.086.028-.003.065.028.08.094.008.054.037.103.074.103.034 0 .097-.029.148-.052.043-.037.054-.103.014-.148-.04-.046-.062-.115-.06-.14.01-.023.117-.117.243-.203.128-.086.305-.106.39-.049.083.063.18.112.22.117.04.009.046.058.017.095-.042.051-.025.143.029.208.04.06.125.189.177.277.057.092.094.306.09.469l-.005.38c-.003.171.037.306.089.314.05.006.048.069-.015.137-.068.069-.125.155-.137.203-.01.043-.097.103-.19.126-.098.023-.183.111-.192.183-.005.071-.034.157-.074.174-.037.023-.06.066-.051.089.014.031-.083.108-.211.163-.123.065-.226.171-.226.234 0 .066-.034.194-.06.28-.034.094-.096.194-.14.226-.036.028-.076.162-.076.302 0 .132.048.266.097.309.057.034.125.026.162-.023.043-.043.083-.051.097-.02.017.043.023.114.009.169-.009.045-.06.131-.114.177-.052.031-.166.146-.263.24-.088.088-.148.237-.128.34.014.094.04.194.069.217.017.026.017.08 0 .123-.029.031.054.143.174.24.125.094.268.263.325.368.048.106.145.24.202.289.06.051.154.226.214.383l.245.634c.06.149.188.392.283.529l.14.214c.096.14.173.343.182.449.006.105.108.291.225.405h.003c.128.117.334.295.48.383l.02.017c.136.086.378.217.532.277.152.055.38.189.51.295l.21.174c.127.106.256.331.287.491l.014.12c.029.16.055.438.066.598v.034c.011.171.008.431-.009.574-.017.152-.054.317-.09.363-.03.049-.044.22-.038.391l.009.206c.005.166-.009.354-.035.423-.025.06-.042.211-.042.329 0 .111-.049.348-.1.5l-.103.308c-.051.166-.08.394-.063.52.015.12.003.263-.031.306-.029.051-.063.12-.08.168-.006.043 0 .215.026.378l.023.205c.02.172.02.437.002.595-.014.162-.074.414-.125.582l-.288.78c-.049.155-.123.292-.143.292-.025 0-.048.046-.037.106.003.071-.031.14-.082.16-.049.02-.089.177-.089.342 0 .166.026.403.054.532.029.126.017.277-.014.326-.037.048-.074.24-.085.402l-.018.143c-.02.177.009.355.055.406.045.051.122.069.18.034.042-.028.142-.043.207-.034.069.011.08.057.032.1-.06.054-.071.097-.032.103.038.006.069.066.072.123.008.065 0 .103-.017.08-.012-.02-.037-.026-.055-.015-.017.006-.017.038 0 .069.018.026.01.06-.02.083-.028.026-.042.071-.03.106.01.04-.012.122-.044.194-.042.071-.057.163-.034.214.023.046.012.132-.028.183-.035.057-.026.123.028.169.06.037.1.111.109.162.002.046-.046.129-.129.16-.071.04-.131.098-.131.14 0 .035.014.075.046.098.028.014.017.04-.023.057-.032.017-.069.045-.083.065-.008.023.014.023.06.015.04-.017.054-.015.023.02-.023.028-.026.054-.009.054.026.003.009.023-.025.049-.035.025-.072.074-.08.125-.006.049.023.06.054.029.028-.032.043-.029.037.017-.011.026-.06.1-.1.134-.04.052-.077.052-.077 0 0-.034-.011-.048-.034-.023-.009.023-.04.038-.06.023-.023-.003-.034-.034-.02-.063.012-.028.006-.082-.011-.125-.012-.046-.089-.083-.174-.083-.077 0-.123.04-.094.091.028.049-.02.132-.1.18-.08.06-.151.132-.163.175-.011.028 0 .082.026.105.028.023.051.012.046-.037-.006-.034.008-.074.034-.094.025-.017.091-.006.134.028.051.032.128.055.177.055.048-.006.108.017.137.06.025.028.034.077.02.088-.015.015-.015.043 0 .057.014.018-.012.058-.063.092-.046.031-.046.074 0 .094.051.026.077.069.068.097-.006.032.003.049.032.046.028-.014.085.034.13.106.055.077.026.123-.053.103-.083-.02-.152-.02-.157.02-.003.034-.037.02-.066-.02-.034-.043-.048-.02-.04.054.009.066.063.117.117.108.051-.005.108.02.128.046.018.034-.02.052-.074.034-.048-.02-.097.095-.097.238 0 .148.04.234.08.188.04-.048.069-.046.06.012-.017.048-.017.122 0 .14.009.028-.02.062-.06.082-.04.018-.108.086-.145.152-.034.074-.006.18.065.234.077.06.117.117.089.134-.023.018-.04.049-.034.072.005.023.034.034.068.034.046 0 .077.02.086.029.002.023-.026.043-.069.048-.046.017-.077.052-.077.089 0 .04.037.106.086.157.048.046.102.171.117.277.017.112.045.203.057.206.011.006.017-.057.011-.134-.011-.08 0-.083.04-.009.031.071.068.111.083.086.011-.029.011-.069 0-.095-.015-.031.008-.042.062-.037.043.012.055-.005.029-.04-.031-.043-.017-.043.034 0 .06.035.077.095.063.135-.023.037-.023.1.008.157.026.043.02.128-.008.177-.032.051.037.103.162.103.117 0 .26.037.311.083.046.048.06.128.037.171-.028.051-.114.134-.196.186-.08.051-.149.074-.152.048-.008-.025-.02-.037-.04-.037-.014.006-.017.046-.005.083.005.049.065.109.122.154.057.037.154.063.214.063.057 0 .126-.128.151-.3l.009-.04c.02-.16.16-.366.308-.448l.071-.046c.143-.086.34-.143.437-.12.1.008.117-.06.048-.163-.068-.111-.157-.211-.19-.226-.044-.014-.044-.037 0-.057.033-.006.053-.074.036-.16-.017-.08-.048-.14-.08-.134-.025.006-.017-.072.017-.177.043-.097.117-.22.177-.269.054-.046.094-.143.08-.208-.02-.055-.003-.072.026-.02.037.062.105.077.157.051.054-.031.116-.171.148-.309.037-.145.174-.348.294-.462l.136-.123c.129-.112.254-.272.277-.363.031-.094.049-.22.031-.289-.01-.068-.1-.145-.196-.16-.106-.011-.231-.077-.283-.143-.054-.062-.122-.165-.16-.228-.028-.052-.048-.129-.045-.16.006-.032.066-.146.145-.249.075-.108.189-.228.249-.263.068-.042.176-.068.242-.068.074 0 .12-.032.114-.077 0-.04.026-.126.071-.175.046-.057.077-.197.077-.311 0-.117.023-.246.052-.291.025-.035.105-.1.17-.138.07-.028.064-.091-.013-.148-.072-.046-.092-.103-.043-.132.043-.025.114-.017.145.015.032.048.103.071.154.071.054 0 .111-.017.126-.048.014-.043.02-.103.008-.158-.011-.042-.023-.105-.037-.128-.008-.023-.063-.029-.12-.012-.05.02-.08.06-.054.086.023.029.003.049-.04.054-.042.006-.12-.025-.17-.085-.055-.055-.115-.232-.135-.397-.023-.158-.02-.323.009-.346.025-.026.148.011.27.077.12.077.28.126.36.126.071 0 .18-.026.237-.055.06-.037.12-.088.142-.117.023-.037.032-.128.023-.22-.008-.097.014-.234.049-.314.034-.074.045-.171.022-.206-.025-.031-.05-.111-.05-.174 0-.066.025-.097.05-.08.023.02.132.051.24.051.105.009.33-.017.488-.057l.53-.117c.165-.034.33-.103.388-.131.04-.043.1-.109.111-.16.02-.046.089-.166.154-.26.074-.097.134-.257.146-.357.014-.103-.018-.186-.06-.198-.037 0-.1-.048-.129-.1-.034-.054-.048-.157-.02-.225.02-.075-.068-.2-.185-.292-.123-.094-.234-.228-.237-.303-.003-.071.035-.097.094-.037.043.052.152.106.231.106.069.006.22.049.328.097.106.043.3.097.44.106.136.014.322-.009.399-.043.077-.037.205-.16.285-.271.071-.112.214-.298.305-.398.094-.102.191-.257.214-.328.023-.08.145-.223.271-.326.125-.097.297-.274.376-.4.08-.114.183-.32.243-.451.054-.132.19-.343.302-.466l.014-.014c.109-.126.217-.323.237-.44.011-.12.037-.229.046-.237.014-.018.008-.058-.009-.098-.02-.028-.034-.134-.051-.231-.009-.089.02-.237.06-.314.042-.08.17-.24.293-.357l.183-.166c.123-.114.345-.263.5-.323l.216-.094c.148-.066.285-.146.308-.186.017-.031.165-.071.328-.077l.262-.017c.174-.009.325-.043.345-.077.026-.049.106-.123.194-.192.086-.06.174-.18.194-.26.023-.08.111-.254.2-.403l.122-.194c.089-.146.18-.377.2-.514.017-.137.074-.309.12-.369.04-.063.094-.251.117-.42l.011-.108c.023-.169.029-.423.014-.583-.02-.143-.014-.375.009-.5.02-.14.103-.283.182-.332.086-.034.214-.191.291-.334l.02-.049c.08-.151.234-.351.337-.445.108-.095.28-.28.388-.412l.025-.043c.103-.137.22-.38.254-.54l.029-.142c.031-.163.04-.418.008-.555-.023-.148-.074-.308-.114-.363-.034-.054-.197-.114-.365-.128-.163-.026-.402-.132-.536-.237l-.436-.352c-.129-.108-.274-.205-.326-.223-.048-.02-.225-.025-.39-.025h-.146c-.17 0-.436-.055-.59-.109l-.049-.017c-.156-.063-.365-.077-.456-.031-.097.042-.165.04-.15-.009.022-.051-.004-.097-.044-.103-.043-.014-.071-.046-.048-.068.017-.035 0-.089-.032-.129-.025-.043-.094-.057-.142-.037-.049.023-.103 0-.117-.046-.017-.034-.16-.12-.314-.183l-.048-.017c-.154-.06-.368-.1-.474-.094-.1.006-.208.074-.248.151-.037.08-.111.169-.162.189-.057.023-.137.1-.18.18-.037.083-.08.091-.086.014-.005-.068-.148-.114-.308-.103l-.148.003c-.168.012-.314.032-.325.043-.014.023-.014.014-.009-.026.006-.031.072-.057.152-.057.082 0 .148-.043.148-.1 0-.048-.02-.111-.049-.14-.03-.011-.03-.051-.005-.08.02-.031-.017-.014-.083.032-.06.04-.128.014-.131-.072-.012-.08.071-.246.185-.366l.089-.1c.11-.12.22-.271.242-.34.026-.06 0-.131-.054-.154-.06-.017-.134-.168-.194-.328l-.08-.229c-.048-.163-.117-.311-.157-.34-.028-.029-.068-.04-.083-.023-.014.017-.048-.006-.077-.046-.025-.042-.12-.134-.205-.208-.088-.063-.257-.163-.385-.212-.131-.06-.245-.091-.257-.074-.02.014-.03.009-.03-.02 0-.023-.084-.066-.186-.083-.106-.025-.325-.037-.485-.031l-.194.017c-.16.003-.36-.063-.43-.143-.075-.088-.203-.174-.286-.194-.077-.02-.162-.109-.185-.183-.017-.083-.111-.206-.206-.277-.088-.066-.18-.126-.208-.126-.023 0-.082-.026-.125-.066-.04-.037-.111-.051-.146-.034-.037.029-.097.043-.145.034-.046-.005-.06-.034-.043-.054.029-.028.029-.111 0-.177-.017-.069-.103-.163-.18-.203-.077-.043-.202-.074-.256-.074-.069 0-.14-.043-.171-.092-.02-.048-.074-.094-.117-.117-.034-.02.011-.051.108-.085.1-.032.04-.063-.125-.063h-.189c-.168 0-.313.005-.333.011-.012 0 .014.026.057.04.048.017-.023.057-.163.083-.134.04-.296.06-.345.06-.057 0-.14-.034-.194-.086-.054-.045-.236-.077-.402-.06l-.108.009c-.166.011-.34-.046-.374-.114-.034-.086-.17-.178-.296-.2-.129-.026-.266-.12-.303-.192-.031-.086-.1-.106-.128-.051-.046.051-.034.105.014.117.046.006.091.028.1.048.003.02-.086.052-.197.078-.11.022-.254.088-.322.131-.063.051-.114.123-.114.174 0 .037.031.126.071.189.034.06.072.151.077.194.006.04-.04.106-.097.143-.06.034-.14.009-.177-.057-.037-.066-.065-.157-.065-.192 0-.037.028-.131.065-.205.038-.072.046-.215.018-.306-.029-.103-.006-.197.05-.223.055-.028.11-.077.13-.108.013-.032-.015-.089-.064-.106-.045-.032-.122-.032-.162 0-.04.017-.103.08-.126.123-.025.037-.128.117-.225.151-.097.043-.25.092-.353.1-.103.012-.214.066-.243.112-.034.057-.065.082-.08.068-.008-.026-.051-.048-.094-.048-.048 0-.137.054-.202.097-.072.063-.129.191-.14.285 0 .1-.106.258-.228.343-.126.092-.223.223-.223.297 0 .072-.048.072-.108 0-.054-.074-.168-.191-.251-.26-.083-.074-.234-.157-.345-.188-.114-.023-.248-.043-.294-.043-.048 0-.105.037-.134.097-.028.054-.068.083-.094.063-.026-.014-.143.003-.242.049-.112.048-.28.068-.383.048-.102-.011-.193-.068-.208-.111-.02-.049-.062-.109-.088-.129-.029-.023-.117-.094-.185-.143-.066-.063-.157-.174-.2-.257-.049-.08-.091-.194-.111-.24-.015-.048-.003-.234.02-.403l.122-.768c.02-.166-.028-.363-.122-.437-.089-.078-.246-.172-.334-.206-.097-.034-.314-.054-.48-.043l-.647.029c-.173.014-.35.002-.41-.015-.049-.02-.043-.123.011-.234.063-.106.126-.303.149-.446.02-.137.014-.274-.023-.303-.026-.017-.037-.077-.02-.108.023-.037.057-.072.074-.072.017 0 .023.029.02.06-.006.032.011.098.034.143.026.046.077-.023.106-.151.031-.134.048-.257.028-.277-.017-.017-.017-.037 0-.055.02-.017.02-.037 0-.045-.017-.017.04-.143.117-.289l.043-.086c.074-.145.125-.291.102-.325-.02-.032-.077-.066-.134-.077-.05-.009-.12 0-.145.02-.026.02-.048.011-.048-.012 0-.028-.023-.048-.058-.057-.03-.006-.185.023-.353.069l-.282.077c-.157.037-.326.211-.36.377l-.037.14c-.037.163-.108.32-.168.354-.051.032-.094.083-.083.114.006.038-.02.078-.048.103-.032.015-.129.015-.217-.011-.083-.029-.285-.014-.442.031l-.188.049c-.163.048-.343.048-.402.006-.06-.046-.166-.098-.234-.12-.069-.02-.169-.069-.208-.115-.055-.045-.117-.148-.157-.234-.04-.086-.137-.24-.211-.351-.083-.112-.146-.252-.14-.318.006-.057-.031-.162-.089-.242-.05-.075-.09-.243-.085-.383.006-.14-.006-.375-.026-.523-.023-.152-.014-.334.017-.403.032-.086.1-.157.157-.177.052-.023.094-.069.094-.112 0-.04-.028-.151-.068-.251-.04-.1-.063-.217-.057-.263.003-.043-.003-.088-.017-.106-.017-.017-.015-.031.017-.037.026-.003.037-.063.031-.125-.014-.066.057-.172.151-.24.094-.069.171-.158.166-.2-.003-.035.063-.069.142-.069.089 0 .2-.011.254-.037.054-.02.12-.123.146-.232.025-.102.068-.182.094-.162.031.017.04.045.023.071-.018.02.045.006.136-.034.083-.037.297-.052.465-.032l.015.006c.165.02.333.02.37 0 .037-.026.16.014.274.086.12.068.268.128.334.128.065 0 .134-.025.15-.063.027-.031.098-.014.158.043.062.049.137.083.16.066.02-.017-.006-.071-.063-.129-.054-.051-.06-.145-.029-.208.04-.063-.011-.114-.114-.106-.105.003-.188-.02-.19-.051-.007-.032.125-.063.293-.069h.182c.166-.006.323-.066.351-.134.029-.069.057-.06.06.017.006.083.086.117.185.083.094-.029.174-.046.174-.032 0 .012.057.012.134.003.074 0 .226.075.34.175.108.088.313.131.445.082.136-.048.342 0 .467.115l.012.003c.125.111.234.334.236.5.003.154.032.282.055.274.031-.003.042.037.022.097-.02.06.006.154.049.211.04.06.091.106.105.095.015-.006.057.085.097.2.037.114.097.217.137.24.037.023.083.1.114.174.032.077.114.109.189.086.082-.026.168-.112.188-.195.023-.077.043-.225.045-.328.003-.1-.03-.312-.085-.466l-.365-1.02c-.049-.157-.049-.414.008-.577l.04-.1c.054-.163.14-.309.169-.323.045-.026.065-.071.054-.103-.009-.028.034-.06.102-.06.057 0 .183-.057.274-.134.089-.069.194-.183.231-.249.037-.065.163-.151.28-.202.117-.049.245-.135.285-.183.031-.055.154-.135.257-.175.105-.045.193-.1.193-.128 0-.029-.022-.046-.045-.046-.029 0-.029-.028 0-.057.023-.037.017-.077-.017-.097-.043-.023-.049-.052-.012-.063.032-.011.086 0 .126.037.034.026.097.009.145-.037.04-.04.066-.106.043-.14-.017-.043-.037-.043-.043-.009-.011.026-.031.026-.051 0-.012-.034-.074-.065-.134-.065-.057 0-.103-.037-.1-.077.006-.055.026-.072.043-.035.017.035.057.049.097.035.034-.02.097-.026.137-.02.028.02.045-.063.022-.175-.014-.105-.077-.194-.13-.203-.052-.005-.08-.022-.052-.037.028-.014.034-.091.011-.165-.017-.072-.022-.149-.011-.18.023-.012-.057-.1-.165-.189-.106-.083-.189-.174-.189-.18 0-.014.074.017.171.077.097.052.154.066.132.02-.015-.048-.035-.171-.035-.271 0-.103.057-.22.129-.266.065-.037.094-.006.057.083-.043.086-.052.151-.043.157.014.014.02.063.011.117-.011.069.032.163.092.226.051.066.08.174.04.226-.026.071-.043.16-.032.202.006.038.083-.048.151-.202l.063-.126c.074-.146.091-.394.034-.532-.048-.151-.042-.222.017-.174.066.057.12.132.132.174.002.035.068-.014.137-.111.065-.094.145-.229.173-.3.02-.066.02-.157 0-.197-.028-.049-.045-.103-.042-.126.005-.037.114-.117.234-.194.12-.092.345-.166.496-.192.145-.02.296-.071.336-.117.04-.04.08-.057.089-.034.025.02.137.02.262 0 .12-.023.214-.074.205-.106-.005-.037-.017-.037-.025 0-.015.032-.043.069-.077.069s-.109-.074-.174-.163c-.069-.077-.069-.274 0-.434l.06-.152c.062-.157.205-.323.316-.365.114-.046.231-.152.263-.229.028-.069.097-.1.156-.051.052.031.197.02.32-.04.137-.063.242-.132.26-.152.01-.017.01-.04 0-.054-.018-.017-.02-.066-.006-.103.005-.049.125-.097.276-.111.149-.015.362-.115.482-.212.12-.097.226-.174.251-.154.014.011-.005.074-.057.126-.054.054-.091.117-.088.131.011.02.14.04.288.034.157-.008.22.02.131.066-.086.037-.183.051-.202.017-.035-.028-.174.014-.311.103l-.14.086c-.146.091-.237.16-.205.148.02 0 .02.043 0 .1-.032.057-.049.149-.04.203.003.057.06.14.13.183.066.054.223-.006.34-.123.117-.12.231-.248.254-.288.017-.052.083-.075.131-.06.054.005.1-.003.1-.038 0-.028.057-.062.134-.074.074-.006.262-.057.416-.123l.154-.057c.154-.066.251-.126.211-.131-.034-.02-.06-.052-.057-.083.006-.029-.037-.066-.097-.08-.057-.012-.116-.04-.128-.072-.006-.034-.083-.034-.16 0-.08.032-.26.015-.385-.034-.14-.04-.228-.1-.202-.111.014-.023-.029-.057-.111-.089-.083-.034-.16-.086-.186-.117-.022-.034-.045-.129-.054-.214-.011-.089-.063-.155-.105-.16-.052-.012-.046-.097.005-.197.055-.1.077-.203.04-.223-.031-.023-.108-.015-.162.011-.057.023-.123.02-.137-.011-.012-.035-.091-.072-.177-.089-.071-.02-.077-.043-.009-.066.077-.022.189-.025.251-.011.066.017.2-.037.303-.109.097-.085.177-.205.17-.271-.005-.063-.07-.149-.147-.189-.072-.042-.263-.071-.428-.062-.168.011-.425.082-.573.151l-.129.063c-.154.074-.382.223-.507.323-.129.1-.317.291-.42.423l-.054.065c-.1.129-.22.257-.265.277-.043.02-.003-.045.077-.134.088-.103.2-.266.257-.371.048-.109.128-.215.168-.235.048-.017.117-.108.177-.194.051-.083.165-.217.254-.291.085-.077.22-.143.296-.149.077-.017.185-.1.24-.197.04-.097.128-.217.19-.257.055-.054.237-.092.409-.092h.955c.171 0 .36.02.42.049.07.023.236.003.384-.049.151-.054.274-.077.268-.06" transform="translate(0 -2)"/>
        <path fill="#BCBCDF" d="M47.543 38.46c-.009-.015-.035-.007-.046.013-.014.035-.009.046.017.035.029-.015.04-.035.029-.049M47.128 38.858c.005.117.068.226.148.249.074.023.197.017.277-.009.08-.028.194-.108.256-.185.054-.072.109-.178.123-.232.008-.051-.023-.111-.069-.126-.048-.017-.208-.022-.359-.005-.148.011-.3.037-.325.051-.037.023-.057.14-.051.257M47.34 38.384c-.038-.049-.083-.074-.106-.06-.02.011-.032.054-.02.074.011.029.063.055.108.06.052.006.054-.025.017-.074M37.862 30.689c.125-.038.165-.106.085-.169-.071-.049-.205-.097-.288-.097-.082-.012-.157-.049-.157-.092 0-.042-.085-.102-.188-.128-.108-.026-.237-.072-.29-.117-.055-.035-.172-.086-.257-.112-.083-.034-.209-.088-.268-.137-.069-.048-.189-.097-.271-.108-.086-.009-.214-.069-.294-.132-.074-.063-.262-.137-.422-.16-.16-.023-.36-.031-.445-.031-.086 0-.271.031-.405.071-.14.043-.294.103-.348.134-.051.035-.111.115-.131.178-.012.062-.057.125-.091.128-.037.014-.037.037 0 .043.034.014.117-.011.19-.057.072-.04.18-.089.24-.106.069-.014.16-.063.206-.094.048-.037.16-.072.242-.072.086 0 .171.006.191.023.029.006.009.029-.037.055-.043.02-.066.057-.049.08.018.017.152.048.3.057.151.011.328.057.402.108.066.046.228.1.357.115.125.017.282.102.345.194.065.088.202.18.308.203.108.02.14.091.065.154-.068.063-.114.123-.102.129.008 0 .15.005.327.005h.257c.168 0 .405-.028.528-.065M38.458 31.289l-.129-.006c-.168 0-.302.006-.302.017 0 .009.043.051.097.106.054.051.117.063.146.043.028-.032.116-.038.202-.015.083.023.208.029.268.015.06-.023.154-.015.197.008.04.017.1.072.125.114.029.038.109.006.186-.08.077-.085.154-.134.182-.094.029.029.131.023.237-.011.094-.037.262-.052.37-.035.11.029.209.012.235-.022.022-.04 0-.1-.052-.146-.043-.046-.145-.083-.222-.094-.072-.009-.109-.04-.077-.06.031-.023.008-.049-.043-.058-.063-.008-.128-.051-.151-.08-.023-.031-.106-.082-.18-.108-.08-.026-.237-.04-.348-.034-.11.005-.245.022-.302.034-.051.017-.145.011-.214-.017-.06-.023-.16-.023-.21 0-.055.028-.05.063.022.088.054.02.12.089.122.152.006.068.04.14.086.165.046.032.074.063.063.089-.003.017-.14.034-.308.029M41.936 34.235c-.048.014-.054.043-.014.06.04.02.086.02.106 0 .025 0 .025-.026.011-.054-.014-.02-.063-.02-.103-.006M38.639 30.697c-.017-.012-.037-.02-.043-.012-.011.006.006.02.031.026.023.003.026 0 .012-.014M40.764 31.347c-.014.032-.012.074.011.109.023.031.103.06.18.06.08 0 .197-.02.257-.052.054-.025.09-.071.085-.1-.014-.023-.128-.054-.265-.054-.128-.006-.254.011-.268.037M41.961 63.482c-.08 0-.157.025-.17.051-.015.014-.015.032 0 .032.013 0 .09-.023.17-.046.083-.026.083-.046 0-.037M38.355 56.163c-.02-.074-.06-.157-.086-.177-.028-.023-.071-.003-.097.023-.025.042-.068.208-.094.38v.014c-.028.166-.045.32-.043.348.006.029.055.058.109.069.054.011.102-.011.117-.046.008-.04.034-.071.048-.071.009 0 .017-.04.009-.089-.014-.04-.014-.083 0-.083.008 0 0-.025-.009-.062-.014-.032-.011-.08.026-.112.031-.037.043-.123.02-.194M38.923 62.904c-.026.011-.046.057-.037.097.006.043.1.094.214.117.108.023.125-.023.04-.097-.094-.074-.183-.128-.217-.117M37.893 61.35c.034-.011.057-.049.048-.094-.009-.04-.031-.035-.06.011-.026.046-.023.083.012.083M39.505 63.752c.029.029.051.029.051 0 0-.028-.022-.051-.051-.051-.026 0-.026.023 0 .051M40.524 63.777c.04.006.129.006.191 0 .063-.011.109-.054.092-.1-.006-.04-.097-.068-.2-.054-.103.009-.177.052-.174.083.006.023.046.06.091.071M38.503 57.586c.048-.017.082-.057.094-.097.008-.034-.015-.083-.035-.106-.028-.017-.094-.017-.136.012-.049.022-.077.085-.049.134.02.046.074.071.126.057M39.825 63.61c-.071-.011-.13 0-.117.026.012.028.072.034.137.028.063-.014.052-.034-.02-.054M23.519 26.997c0 .029.02.043.051.049.023.005.04-.029.034-.083-.005-.04-.025-.063-.045-.04-.02.02-.04.051-.04.074M35.213 35.608c-.011-.037-.025-.043-.043-.015-.014.026-.01.055.006.072.023.003.04-.017.037-.057M22.494 27.315c0-.037-.008-.042-.017-.02-.014.032-.014.06 0 .072.009.008.017-.012.017-.052M38.193 57.781c.046.026.072.014.063-.023-.008-.037-.048-.051-.085-.045-.037.008-.032.04.022.068M37.636 59.391c-.008.014.014.08.054.154.037.06.043.049.017-.031-.022-.086-.057-.14-.07-.123M38.015 59.146c-.014-.035-.037-.049-.057-.037-.011.008-.003.037.029.057.04.025.045.017.028-.02M40.29 63.945c.114.077.191.1.174.048-.02-.057-.077-.108-.114-.114-.048-.011-.048-.043-.008-.066.034-.02.003-.054-.083-.082-.077-.029-.088-.052-.017-.038.066.003.108-.017.1-.045-.023-.02-.16-.012-.325.023-.16.037-.24.077-.183.082.06.006.086.026.057.052-.023.028-.023.08 0 .111.029.032.08.063.123.066.028.006.037-.029.003-.066-.026-.043-.026-.091 0-.103.034-.008.156.055.273.132M37.998 60.809c-.048-.049-.062-.038-.04.014.029.046.077.103.106.117.037.02.048.009.04-.014-.012-.037-.054-.08-.106-.117M37.728 60.717c.049.034.094.028.106-.015.011-.031-.032-.051-.091-.051-.055.006-.066.031-.015.066M37.622 59.72c0 .03.015.03.04.01.02-.027.02-.067.009-.084-.017-.031-.034-.037-.04-.014-.003.02-.009.054-.009.089" transform="translate(0 -2)"/>
        <path fill="#BCBCDF" d="M39.305 63.245c-.077.031-.132.074-.126.108.006.034.049.06.103.06.057 0 .094.017.088.046-.006.028.126.071.297.088l.091.012c.163.028.336.031.388.028.048-.017.134-.04.19-.057.058-.02.24-.008.403.035l.068.022c.163.038.365.06.451.049.086-.023.191-.066.231-.106.043-.043-.009-.105-.111-.128-.1-.029-.285-.135-.42-.237l-.219-.186c-.128-.106-.288-.269-.356-.366-.06-.091-.077-.18-.046-.191.043-.012.023-.083-.026-.169-.054-.08-.157-.143-.228-.151-.066-.006-.128-.032-.14-.06-.014-.02-.054-.012-.09.034-.035.04-.126.077-.186.091-.077.006-.1.049-.072.069.029.029.029.054 0 .069-.028.011-.06.068-.06.128 0 .054.089.123.214.132.114.017.137.077.055.14-.083.057-.137.168-.132.242.006.072.077.155.143.192.071.028.066.046-.02.026-.077-.026-.145-.029-.148-.018-.012.02 0 .04.02.049.011.011.011.029 0 .049-.02.014-.097-.026-.183-.098-.074-.065-.122-.085-.1-.04.032.058-.008.112-.08.138" transform="translate(0 -2)"/>
        <path fill="#BCBCDF" d="M39.513 62.851c-.017-.08-.06-.08-.082 0-.026.083-.015.177.022.203.049.026.066.026.046.003-.029-.02-.023-.04.006-.046.028-.003.031-.077.008-.16M37.661 60.36c.032.014.04.005.017-.035-.02-.026-.054-.046-.06-.026-.01.018.006.038.043.06" transform="translate(0 -2)"/>
        <path fill="#22398E" d="M37.266 7.578c-17.921 0-32.503 14.608-32.503 32.56 0 17.954 14.582 32.563 32.503 32.563 17.924 0 32.505-14.609 32.505-32.563 0-17.952-14.581-32.56-32.505-32.56m0 66.065c-18.437 0-33.44-15.028-33.44-33.505 0-18.469 15.003-33.497 33.44-33.497 18.44 0 33.438 15.028 33.438 33.497 0 18.477-14.998 33.505-33.438 33.505" transform="translate(0 -2)"/>
        <path fill="#22398E" d="M37.23 15.636c-13.498 0-24.48 11-24.48 24.52 0 13.528 10.982 24.531 24.48 24.531 13.5 0 24.486-11.003 24.486-24.531 0-13.52-10.986-24.52-24.486-24.52m0 49.997c-14.014 0-25.416-11.429-25.416-25.477 0-14.037 11.402-25.46 25.416-25.46 14.02 0 25.421 11.423 25.421 25.46 0 14.048-11.402 25.477-25.421 25.477M8.544 32.025c-.579-.014-.96.352-1.086.892-.223.937.444 1.511 1.263 1.708.893.212 1.725-.008 1.95-.946.16-.671-.225-1.194-.863-1.391l.128-.523c.95.334 1.397 1.077 1.16 2.066-.285 1.208-1.326 1.586-2.463 1.32-1.135-.272-1.9-1.137-1.612-2.34.194-.823.79-1.392 1.646-1.303l-.123.517zM11.827 30.044c.363-.906-.268-1.606-1.018-1.903-.753-.3-1.69-.226-2.053.677-.36.909.274 1.609 1.024 1.906.75.306 1.685.229 2.047-.68m-3.484-1.389c.473-1.185 1.642-1.411 2.666-1.005 1.01.397 1.708 1.377 1.235 2.565-.474 1.18-1.64 1.412-2.658 1.003-1.021-.403-1.717-1.371-1.243-2.563M9.569 26.065L9.86 25.571 13.727 25.368 13.733 25.36 10.915 23.728 11.172 23.288 14.642 25.291 14.351 25.805 10.516 26.014 10.507 26.02 13.299 27.631 13.048 28.074z" transform="translate(0 -2)"/>
        <path fill="#22398E" d="M14.159 21.224c-.497-.305-.919-.154-1.255.292-.283.363-.422.811-.009 1.131.784.603 1.797-1.86 3.046-.897.679.517.442 1.391-.006 1.971-.544.72-1.36 1.049-2.133.455l.314-.397c.527.408 1.106.14 1.474-.34.294-.383.5-.903.046-1.255-.881-.674-1.868 1.809-3.035.909-.641-.494-.493-1.286-.042-1.874.496-.646 1.186-.912 1.908-.398l-.308.403zM14.237 19.313L16.179 17.336 16.498 17.647 14.93 19.253 15.837 20.139 17.305 18.656 17.619 18.97 16.162 20.459 17.148 21.433 18.728 19.827 19.048 20.139 17.097 22.127zM20.333 17.8c.342.418.468 1.03-.222 1.607-.58.474-1.167.417-1.643-.172l-.163-.188.414-.34.111.128c.288.36.596.543.998.212.377-.312.325-.62.043-.969l-1.854-2.28.408-.334 1.908 2.337zM22.703 16.97c.827-.523.724-1.455.294-2.15-.43-.676-1.227-1.17-2.048-.65-.835.514-.727 1.448-.3 2.14.428.685 1.224 1.18 2.054.66m-2-3.183c1.085-.683 2.163-.178 2.747.754.58.931.573 2.128-.507 2.808-1.084.68-2.168.169-2.747-.757-.584-.931-.57-2.128.508-2.805M24.714 11.735L25.21 11.535 26.528 14.849 28.504 14.058 28.672 14.478 26.2 15.466z" transform="translate(0 -2)"/>
        <path fill="#22398E" d="M29.128 12.633l1.315-.357-1.135-1.634-.009.006-.171 1.985zm-.225-2.385l.57-.155 2.555 3.478-.573.154-.73-1.054-1.643.44-.122 1.282-.525.146.468-4.291zM32.582 9.919L31.255 10.11 31.198 9.664 34.37 9.204 34.432 9.653 33.109 9.839 33.617 13.373 33.092 13.45zM35.002 9.196L35.535 9.159 35.783 13.176 35.25 13.202zM36.623 9.081L37.196 9.099 39.198 12.427 39.206 12.427 39.312 9.17 39.82 9.181 39.691 13.199 39.109 13.184 37.116 9.893 37.105 9.89 37.002 13.116 36.497 13.099zM41.998 13.194c.958.175 1.508-.588 1.648-1.383.142-.802-.117-1.702-1.078-1.874-.964-.171-1.512.592-1.651 1.394-.14.792.114 1.692 1.08 1.863m.65-3.7c1.256.223 1.718 1.323 1.526 2.406-.193 1.083-1 1.963-2.255 1.74-1.258-.22-1.714-1.329-1.529-2.406.188-1.08 1.001-1.963 2.259-1.74M45.36 12.639l1.291.42-.054-1.989-.017-.005-1.22 1.574zm1.1-2.123l.562.186.262 4.305-.559-.182-.051-1.283-1.611-.526-.805 1.011-.519-.165 2.721-3.346zM49.169 11.439L49.822 11.762 49.466 15.345 52.092 12.888 52.748 13.213 50.971 16.811 50.515 16.588 51.998 13.591 51.981 13.588 49.386 16.022 48.981 15.822 49.337 12.271 49.326 12.271 47.846 15.265 47.395 15.036zM53.748 13.858L56.026 15.435 55.77 15.804 53.927 14.535 53.206 15.584 54.92 16.77 54.663 17.141 52.952 15.955 52.165 17.101 54.016 18.378 53.765 18.747 51.466 17.17zM56.742 18.476c.367.331.775.526 1.166.086.265-.295.294-.652-.074-.983l-.993-.889-.93 1.046.83.74zm.002-2.477l1.404 1.254c.564.509.644 1.126.213 1.603-.328.369-.741.52-1.197.297l-.009.006c.288.377.12.697-.103 1.02-.24.306-.544.631-.561.983l-.44-.397c-.008-.223.346-.486.542-.832.214-.334.371-.646-.011-.994l-.97-.866-1.149 1.28-.39-.357 2.671-2.997zM59.691 18.777L60.059 19.166 57.133 21.909 56.762 21.52zM61.58 22.937c.378-.437.333-.965-.015-1.411-.576-.763-1.449-.594-2.108-.086-.73.56-1.083 1.343-.499 2.112.425.548 1.07.58 1.62.205l.328.426c-.861.526-1.708.409-2.336-.394-.755-.983-.393-2.034.53-2.749.922-.711 2.074-.763 2.827.217.516.663.585 1.489-.026 2.103l-.322-.423zM61.693 25.223l.676 1.18 1.29-1.509-.007-.014-1.959.343zm2.236-.832l.297.514-2.69 3.369-.296-.509.83-.982-.85-1.48-1.272.217-.271-.475 4.252-.654zM65.283 26.861L65.5 27.389 63.298 30.581 63.304 30.601 66.304 29.349 66.501 29.823 62.791 31.352 62.571 30.812 64.75 27.641 64.744 27.632 61.767 28.861 61.573 28.392zM63.735 33.462c.242.949 1.155 1.137 1.942.943.784-.194 1.503-.803 1.263-1.754-.237-.943-1.152-1.138-1.94-.938-.786.195-1.505.795-1.265 1.749m3.639-.917c.31 1.237-.505 2.111-1.563 2.38-1.067.263-2.202-.114-2.51-1.354-.314-1.238.502-2.112 1.566-2.378 1.064-.271 2.196.112 2.507 1.352M6.686 40.845l.049.874c.014.354.171 1.317 1.645 1.234.953-.051 1.518-.434 1.46-1.397l-.042-.877-3.112.166zm3.531-.714l.074 1.348c.057 1.214-.525 1.923-1.805 1.992-1.343.074-2.133-.463-2.202-1.778l-.074-1.342 4.007-.22zM10.452 43.683L10.928 46.357 10.489 46.437 10.101 44.274 8.849 44.5 9.205 46.511 8.758 46.591 8.401 44.58 7.038 44.817 7.423 46.997 6.978 47.077 6.502 44.385zM11.371 47.991L12.278 50.553 11.856 50.702 11.123 48.633 9.916 49.056 10.598 50.985 10.179 51.139 9.497 49.208 8.188 49.668 8.927 51.753 8.499 51.905 7.589 49.322zM12.368 53.423c.49-.306.545-.748.3-1.237-.197-.397-.528-.717-.999-.489-.89.438.853 2.395-.57 3.092-.762.38-1.432-.209-1.754-.854-.385-.792-.314-1.655.559-2.08l.214.437c-.602.303-.625.931-.357 1.457.203.426.576.831 1.098.577.978-.491-.778-2.426.542-3.08.725-.354 1.369.111 1.688.763.354.717.277 1.448-.504 1.863l-.217-.449zM14.379 56.732c.41-.411.41-.931.105-1.385-.519-.789-1.391-.686-2.087-.22-.765.502-1.181 1.26-.665 2.042.377.575 1.015.643 1.592.312l.285.434c-.89.469-1.723.306-2.276-.531-.673-1.017-.234-2.023.739-2.677.975-.646 2.124-.618 2.789.391.456.68.456 1.5-.191 2.066l-.291-.432zM16.033 60.828c-.764.671-1.537.597-2.182-.154-.667-.755-.701-1.52.103-2.232l1.925-1.691.345.397-1.928 1.694c-.536.469-.565 1.017-.105 1.546.436.5.958.511 1.497.046l1.93-1.692.343.397-1.928 1.689zM18.333 59.486L20.355 61.3 20.056 61.635 18.422 60.172 17.572 61.12 19.095 62.489 18.798 62.826 17.275 61.455 16.351 62.495 17.994 63.969 17.695 64.306 15.661 62.489zM20.639 61.501L21.064 61.798 18.991 64.706 20.679 65.912 20.417 66.283 18.307 64.763zM22.33 65.482l1.164.655.342-1.958-.014-.008-1.492 1.311zm1.492-1.865l.501.285-.613 4.255-.507-.28.214-1.266-1.452-.814-.973.84-.47-.263 3.3-2.757zM27.399 66.612c.162-.565-.089-.917-.594-1.131-.416-.174-.875-.189-1.075.294-.37.92 2.219 1.237 1.617 2.697-.322.795-1.209.8-1.873.526-.816-.34-1.332-1.031-.964-1.931l.459.185c-.257.626.142 1.106.69 1.335.44.182.981.24 1.203-.3.411-1.02-2.187-1.312-1.634-2.672.314-.748 1.104-.82 1.768-.543.748.312 1.173.895.862 1.726l-.46-.186zM29.788 69.854l.85.186c.35.074 1.312.183 1.626-1.266.2-.931-.018-1.568-.953-1.78l-.867-.183-.656 3.043zm.243-3.597l1.32.289c1.18.26 1.705 1.008 1.437 2.268-.282 1.315-1.006 1.935-2.284 1.66l-1.32-.291.847-3.926zM33.509 66.955L36.213 67.207 36.178 67.647 33.994 67.461 33.877 68.724 35.905 68.918 35.867 69.364 33.837 69.175 33.709 70.564 35.905 70.767 35.865 71.207 33.15 70.961zM38.756 69.514l1.326-.097-.793-1.826h-.006l-.527 1.923zm.21-2.38l.58-.049 1.828 3.892-.57.048-.522-1.174-1.66.123-.348 1.237-.536.046 1.229-4.123zM42.346 70.34l.852-.172c.357-.068 1.275-.357.987-1.808-.194-.937-.644-1.44-1.591-1.249l-.864.18.616 3.049zm-1.22-3.389l1.325-.268c1.187-.24 1.974.231 2.228 1.494.265 1.32-.146 2.186-1.432 2.446l-1.323.265-.799-3.937zM44.571 66.244L45.244 66.004 47.554 68.755 47.583 65.158 48.253 64.918 49.616 68.695 49.148 68.864 48.016 65.718 48.005 65.724 47.982 69.284 47.568 69.438 45.275 66.713 45.261 66.721 46.405 69.864 45.937 70.033zM48.774 64.592L49.244 64.363 50.992 67.983 50.522 68.218zM49.807 64.129L50.283 63.837 53.737 65.557 53.748 65.552 52.068 62.763 52.49 62.506 54.564 65.949 54.073 66.237 50.648 64.543 50.642 64.549 52.305 67.309 51.883 67.566zM52.965 62.123L53.384 61.809 55.757 65.043 55.34 65.357zM56.396 60.845c-.422-.4-.864-.343-1.272.02-.336.288-.562.697-.214 1.097.642.746 2.09-1.437 3.123-.243.562.643.166 1.443-.373 1.912-.665.577-1.52.734-2.154 0l.374-.326c.442.506 1.05.366 1.497-.026.36-.308.653-.768.268-1.2-.715-.837-2.139 1.369-3.105.252-.534-.606-.237-1.346.302-1.823.613-.532 1.329-.643 1.928.005l-.374.332zM57.276 58.914L56.387 59.88 56.059 59.583 58.18 57.263 58.511 57.563 57.627 58.531 60.251 60.945 59.897 61.328zM60.7 56.936c.279-.395.421-.815-.055-1.16-.32-.229-.676-.229-.958.16l-.759 1.06 1.13.825.641-.885zm-2.445.223l1.078-1.495c.442-.608 1.032-.734 1.554-.357.4.286.596.68.428 1.152l.012.002c.339-.314.673-.185 1.01.006.33.203.68.483 1.031.46l-.342.474c-.222.029-.516-.291-.887-.457-.345-.185-.673-.305-.966.1l-.753 1.04 1.391 1.009-.308.417-3.248-2.351zM62.629 54.89l.636-1.174-1.95-.331-.01.014 1.324 1.492zm-1.88-1.485l.28-.5 4.258.583-.282.505-1.27-.208-.795 1.468.844.963-.26.472-2.774-3.283zM63.913 49.355c-.576-.092-1.001.203-1.198.717-.342.877.242 1.529 1.021 1.837.853.334 1.711.249 2.05-.628.254-.643-.06-1.203-.655-1.486l.188-.492c.895.472 1.238 1.252.872 2.178-.442 1.142-1.52 1.365-2.606.928-1.087-.431-1.731-1.377-1.29-2.506.3-.765.968-1.234 1.803-1.034l-.185.486zM63.058 47.991L63.206 47.493 67.05 48.613 66.908 49.119zM67.319 45.96c.177-.944-.573-1.498-1.366-1.65-.799-.15-1.697.09-1.877 1.03-.182.94.57 1.49 1.366 1.642.793.157 1.7-.083 1.877-1.023zm-3.685-.704c.237-1.231 1.34-1.668 2.416-1.46 1.078.203 1.942 1.017 1.708 2.246-.24 1.229-1.34 1.663-2.413 1.457-1.078-.206-1.95-1.014-1.71-2.243zm-1.02-.374l.11-.586.65.86-.062.343-.699-.617zM64.088 43.138L64.117 42.587 67.473 40.681 67.473 40.675 64.222 40.501 64.248 40.007 68.255 40.213 68.226 40.787 64.904 42.678 64.904 42.684 68.121 42.844 68.092 43.347zM29.838 32.536c-.156-1.029-1.129-1.82-2.221-1.82-2.014 0-2.77 1.748-2.77 3.565 0 1.738.756 3.483 2.77 3.483 1.366 0 2.139-.945 2.307-2.328h2.167c-.228 2.605-1.965 4.254-4.474 4.254-3.137 0-5.005-2.411-5.005-5.409 0-3.082 1.868-5.488 5.005-5.488 2.221 0 4.118 1.334 4.389 3.743h-2.168zM33.771 29.037L36.009 29.037 36.009 37.517 40.96 37.517 40.96 39.44 33.771 39.44zM45.79 35.418h2.636l-1.283-3.814h-.029l-1.323 3.814zm.218-6.38H48.3l3.808 10.4H49.78l-.768-2.317H45.21l-.801 2.317H42.14l3.867-10.4z" transform="translate(0 -2)"/>
        <path fill="#22398E" d="M28.226 47.896h1.993c1.298 0 2.541-.82 2.541-3.123 0-2.092-.73-3.44-2.934-3.44h-1.6v6.563zm-2.24-8.486h4.39c2.64 0 4.62 1.706 4.62 5.146 0 3.017-1.512 5.263-4.62 5.263h-4.39V39.41zM36.787 39.413L44.398 39.413 44.398 41.333 39.026 41.333 39.026 43.565 43.956 43.565 43.956 45.336 39.026 45.336 39.026 47.899 44.513 47.899 44.513 49.822 36.787 49.822zM49.59 45.792h2.635l-1.284-3.811h-.031l-1.32 3.811zm.208-6.377h2.295l3.808 10.403h-2.325l-.764-2.32h-3.804l-.805 2.32H45.94l3.859-10.403zM8.84 37.433c0 .382-.317.694-.7.694-.393 0-.704-.312-.704-.694 0-.392.311-.709.705-.709.382 0 .698.317.698.709M66.826 37.433c0 .382-.31.694-.699.694-.385 0-.707-.312-.707-.694 0-.392.322-.709.707-.709.388 0 .699.317.699.709" transform="translate(0 -2)"/>
    </g>
</svg>
