<svg xmlns="http://www.w3.org/2000/svg" xmlns:xlink="http://www.w3.org/1999/xlink" width="49" height="78" viewBox="0 0 49 78">
    <defs>
        <path id="prefix__a" d="M1.834 0.246L11.482 0.246 11.482 9.974 1.834 9.974z"/>
        <path id="prefix__c" d="M0.301 0.752L8.897 0.752 8.897 9.423 0.301 9.423z"/>
        <path id="prefix__e" d="M0 79.754L48.563 79.754 48.563 2.857 0 2.857z"/>
    </defs>
    <g fill="none" fill-rule="evenodd" transform="translate(0 -2)">
        <g transform="translate(19.833 2.611)">
            <mask id="prefix__b" fill="#fff">
                <use xlink:href="#prefix__a"/>
            </mask>
            <path fill="#A5233B" d="M11.482 5.108c0 2.689-2.16 4.866-4.825 4.866-2.664 0-4.823-2.177-4.823-4.866 0-2.683 2.16-4.863 4.823-4.863 2.666 0 4.825 2.18 4.825 4.863" mask="url(#prefix__b)"/>
        </g>
        <path fill="#832F3B" d="M33.609 30.373c0 3.917-3.148 7.092-7.032 7.092-3.882 0-7.036-3.175-7.036-7.092s3.154-7.088 7.036-7.088c3.884 0 7.032 3.171 7.032 7.088"/>
        <g transform="translate(39.667 16.897)">
            <mask id="prefix__d" fill="#fff">
                <use xlink:href="#prefix__c"/>
            </mask>
            <path fill="#832F3B" d="M8.898 5.089c0 2.391-1.924 4.334-4.299 4.334C2.225 9.423.301 7.48.301 5.09.301 2.697 2.225.752 4.6.752c2.375 0 4.299 1.945 4.299 4.337" mask="url(#prefix__d)"/>
        </g>
        <path fill="#A5233B" d="M45.662 41.464c0 3.029-2.431 5.475-5.429 5.475s-5.429-2.446-5.429-5.475c0-3.025 2.431-5.474 5.429-5.474s5.429 2.449 5.429 5.474M28.684 47.33c0 3.682-2.958 6.668-6.61 6.668-3.653 0-6.613-2.986-6.613-6.669 0-3.68 2.96-6.666 6.613-6.666 3.652 0 6.61 2.986 6.61 6.666"/>
        <path fill="#832F3B" d="M13.734 14.413c0 2.935-2.36 5.315-5.27 5.315-2.913 0-5.27-2.38-5.27-5.315 0-2.934 2.357-5.314 5.27-5.314 2.91 0 5.27 2.38 5.27 5.314"/>
        <path fill="#7F1A28" d="M6.82 31.612c.107.137.153.291.099.334-.057.043-.193-.034-.3-.171-.114-.14-.156-.292-.1-.334.054-.046.19.031.3.171"/>
        <path fill="#A5233B" d="M41.352 19.257c0 4.017-3.233 7.277-7.22 7.277-3.983 0-7.216-3.26-7.216-7.277 0-4.02 3.233-7.28 7.217-7.28 3.986 0 7.22 3.26 7.22 7.28"/>
        <path fill="#832F3B" d="M18.91 34.656c0 2.203-1.771 3.989-3.956 3.989-2.184 0-3.955-1.786-3.955-3.989s1.77-3.988 3.955-3.988 3.956 1.785 3.956 3.988"/>
        <path fill="#575756" d="M16.096 10.945c-1.95 0-3.71.38-5.197 1.214v.003l-.02-.005c.043.12.083.268.16.394.076.137.158.251.243.351l.003.006c.01.003.04-.023.04-.023 1.325-.737 2.949-1.103 4.77-1.103 3.48-.003 7.665 1.352 11.742 3.92.136-.243.286-.477.448-.703-4.185-2.64-8.498-4.051-12.19-4.054"/>
        <path fill="#A5233B" d="M11.908 33.649c0 3.314-2.666 6.003-5.953 6.003-3.29 0-5.953-2.689-5.953-6.003s2.664-6.006 5.953-6.006c3.287 0 5.953 2.692 5.953 6.006"/>
        <path fill="#575756" d="M16.837 48.06c.017.012.034.015.054.017.006.003.017.003.017.003.062 0 .116-.028.15-.074.12-.177.198-.431.232-.737.006-.077.012-.16.012-.234 0-.172-.023-.323-.06-.455v-.003c-.017-.057-.056-.1-.11-.12-.012-.002-.023-.002-.031-.008-4.1-1.623-6.936-4.049-9.197-7.803-.012-.023-.026-.04-.046-.051-.02-.02-.048-.035-.076-.043-.071-.015-.153-.023-.238-.023-.162 0-.34.023-.53.071-.272.072-.504.177-.663.3-.057.049-.08.123-.057.195.003.017.012.031.023.045 0 0 3.091 6.58 10.52 8.92M31.168 8.82c4.743 1.62 8.685 4.996 11.07 9.35.031.063.094.095.15.095.029 0 .054-.006.077-.017.368-.183.768-.309 1.184-.369.054-.008.105-.046.128-.094.025-.049.025-.112-.003-.163-2.618-4.926-7.06-8.709-12.427-10.446-.051-.014-.113-.005-.159.032-.045.034-.07.091-.065.151.009.123.017.243.017.36 0 .309-.031.612-.085.9-.017.089.031.172.113.2M18.525 34.009c.612-.149 1.153-.297 1.788-.466-.071-.16-.088-.26-.153-.4-.541.14-1.207.326-1.734.452l.099.414zM12.17 11.305c.036.02.07.123.082.266.01.066.017.137.036.214.015.063.08.192.219.212.005.002.017.002.025.002.048 0 .094-.017.125-.054l.3-.32.048-.023c3.148-2.163 6.106-3.383 9.736-3.76.062-.005.119-.045.141-.108.173-.426.21-.806.21-1.057 0-.198-.02-.315-.023-.32-.017-.095-.096-.149-.184-.143-4.077.34-7.916 1.837-11.169 4.334-.017.009-.031.023-.042.037-.043.06-.051.14-.012.197.1.177.278.355.507.523M12.593 35.183c.03-.154.068-.3.113-.445-.292.04-.584.083-.864.12-.02.148-.043.291-.077.434.272-.031.547-.069.828-.109"/>
        <path fill="#575756" d="M14.37 32.24c0 .726.023 1.437.06 2.134-1.462-1.6-2.709-3.263-3.723-4.931 1.164-.617 2.476-1.254 3.916-1.897-.168 1.608-.253 3.18-.253 4.694m31.76-7.031c.008-.035.008-.058-.004-.08 0-.006-.005-.006-.008-.009-.003-.031-.006-.066-.011-.091 0-.02 0-.038-.006-.052-.02-.068-.077-.12-.147-.126-.029-.002-.06-.005-.088-.005-.196.003-.422.057-.66.16-.241.1-.44.231-.576.371l-.002.003c-.043.037-.063.103-.054.154l.005.026c.083.803.122 1.583.122 2.334 0 3.206-.734 6.015-2.17 9.032.014-.257.025-.52.025-.78-.002-3.035-1.11-6.475-3.136-9.866.7-.389 1.337-.766 1.915-1.129-.107-.102-.204-.205-.3-.311-.553.349-1.165.709-1.833 1.077-.196-.317-.397-.634-.607-.946-.218.172-.444.326-.68.475.193.288.374.577.553.863-1.244.648-2.652 1.32-4.19 1.991.133-1.257.218-2.491.252-3.694l.01-.006c-.112-.043-.265-.071-.438-.074-.167-.006-.315.017-.428.054h-.006v.003h-.008l.008.006c-.034 1.331-.136 2.702-.3 4.1-.456.191-.927.382-1.405.574-.026.166-.054.331-.091.494.49-.194.969-.388 1.436-.586-.742 5.818-2.51 10.909-4.703 14.346-3.802-1.057-7.95-3.337-11.707-6.706-.539-.477-1.054-.968-1.547-1.465-.077-1.006-.122-2.04-.122-3.106 0-1.634.102-3.343.303-5.089 2.408-1.034 5.123-2.06 8.027-3.008 2.686-.883 5.281-1.614 7.675-2.192v-.002l.006.002c.006-.057 0-.131-.02-.214-.025-.086-.045-.146-.082-.194-2.405.577-5.012 1.311-7.712 2.194-2.825.929-5.474 1.92-7.84 2.932.918-7.429 3.525-13.698 6.545-16.878-.136-.285-.241-.588-.32-.9-3.378 3.332-6.115 9.906-7.086 17.732-.02.146-.034.291-.049.437-1.541.68-2.946 1.357-4.184 2.017-1.887-3.228-2.902-6.46-2.893-9.234 0-.237.011-.463.025-.697-.28-.012-.552-.049-.816-.1.071-.152.142-.309.221-.457l.017-.026c.029-.054.029-.109.006-.16-.077-.183-.218-.38-.408-.563-.218-.209-.44-.357-.646-.414-.065-.015-.133.005-.176.06-.011.014-.02.028-.028.043-1.743 3.22-2.62 6.748-2.62 10.328-.001 1.106.081 2.22.251 3.326.003.028.012.051.029.08.03.051.085.08.144.08h.006c.2-.009.442-.077.7-.206.272-.131.49-.286.617-.457.017-.026.029-.051.034-.08.006-.017.006-.037.003-.06-.096-.951-.144-1.86-.144-2.751 0-3.043.595-5.786 1.986-8.726-.017.257-.031.514-.031.78.005 2.96 1.054 6.317 2.994 9.634-1.326.74-2.422 1.454-3.25 2.114.018.06.054.12.103.186.048.057.099.106.147.14l.011.009v-.006c.805-.64 1.89-1.346 3.205-2.077 1.201 1.991 2.728 3.968 4.539 5.834.294 3.446 1.04 6.463 2.159 8.769.181-.26.385-.509.6-.737-.855-1.903-1.479-4.323-1.799-7.078.284.275.573.54.867.803 3.76 3.369 7.897 5.689 11.77 6.817-.456.649-.927 1.232-1.411 1.729l-.028.026v.017c.053.106.147.237.274.351.114.109.23.197.338.246v.003c.597-.614 1.17-1.332 1.717-2.134 1.464.362 2.887.548 4.224.551.765 0 1.502-.06 2.207-.183-2.95 1.883-5.936 2.772-9.608 3.083-.022.003-.036.009-.053.011-.029.012-.054.026-.077.049-.139.16-.252.403-.334.703-.054.197-.08.383-.08.551 0 .063 0 .12.012.177.011.06.05.112.107.132.023.008.043.011.063.011h.014c4.706-.148 9.186-1.82 12.875-4.854.014-.011.028-.026.04-.037.045-.049.053-.123.025-.189-.094-.191-.278-.388-.519-.563-.215-.151-.433-.257-.623-.302-.051-.012-.102-.003-.147.031-.009.009-.02.017-.026.026-.365.28-.728.54-1.094.791-.082-.18-.155-.36-.22-.548-.8.18-1.655.274-2.562.274-1.179.003-2.437-.152-3.746-.46 2.247-3.623 3.978-8.8 4.71-14.677l.03-.28c1.644-.709 3.146-1.423 4.463-2.115 1.983 3.306 3.043 6.635 3.04 9.475 0 .728-.073 1.437-.21 2.094 0 0 .318.24.83.191.032-.154.057-.314.083-.471.068.103.147.206.244.309.195.205.396.357.58.442.023.009.046.012.068.012.043 0 .083-.012.12-.046.014-.014.025-.034.036-.057 1.856-3.271 2.825-6.929 2.825-10.683 0-.906-.06-1.817-.173-2.728M41.305 20.06c-.014.144-.04.284-.062.42 1.15.018 2.029.164 2.524.42l.003.004c.043-.04.082-.095.116-.152.049-.08.08-.16.088-.223h-.017l.003-.005c-.6-.306-1.499-.446-2.655-.463M29.386 8.69c.93.83 1.749 2.09 2.417 3.68.272-.093.55-.173.836-.233-.711-1.72-1.604-3.126-2.68-4.095l-.017.017.003-.014c-.11.057-.244.169-.363.312-.09.111-.164.228-.207.328h.017l-.006.006zM45.782 74.885c-.91 1.051-2.244 1.683-4.122 1.688h-3.545V64.496h3.545c1.833.006 3.173.609 4.1 1.637.92 1.038 1.436 2.538 1.464 4.389-.04 1.8-.535 3.311-1.442 4.363M41.66 63.188h-4.845v14.7h4.856c2.063 0 3.8-.735 4.998-2.04 1.204-1.306 1.856-3.155 1.856-5.329 0-1.986-.553-3.814-1.706-5.166-1.153-1.351-2.91-2.171-5.16-2.165"/>
        <mask id="prefix__f" fill="#fff">
            <use xlink:href="#prefix__e"/>
        </mask>
        <path fill="#575756" d="M0 61.506L48.524 61.506 48.524 61.317 0 61.317zM35.836 77.887L35.836 63.184 34.811 63.184 28.778 73.344 22.746 63.184 21.721 63.184 21.721 77.887 23.021 77.887 23.021 66.167 28.365 75.17 29.192 75.17 34.536 66.167 34.536 77.887zM9.882 76.573L1.3 76.573 1.3 71.039 8.67 71.039 8.67 69.725 1.3 69.725 1.3 64.499 9.882 64.499 9.882 63.187.003 63.187.003 77.887 9.882 77.887zM20.743 64.497L20.743 63.186 10.86 63.186 10.86 77.889 12.158 77.889 12.158 71.017 19.53 71.017 19.53 69.706 12.158 69.706 12.158 64.497zM.003 79.754L48.526 79.754 48.526 79.569.003 79.569z" mask="url(#prefix__f)"/>
    </g>
</svg>
