<svg xmlns="http://www.w3.org/2000/svg" width="66.266" height="66.266" viewBox="0 0 66.266 66.266"><g transform="translate(1.388 1.388)"><path d="M1.6.522C1.086.5.551.489,0,.478" transform="translate(40.981 0.341)" fill="none" stroke="#555" stroke-linecap="round" stroke-miterlimit="10" stroke-width="2.775"/><path d="M31.746,0A31.746,31.746,0,1,0,63.491,31.745a32.086,32.086,0,0,0-.192-3.512" fill="none" stroke="#555" stroke-linecap="round" stroke-miterlimit="10" stroke-width="2.775"/><path d="M10.9,15.032A27.089,27.089,0,0,0,0,0" transform="translate(51.081 4.994)" fill="none" stroke="#555" stroke-linecap="round" stroke-miterlimit="10" stroke-width="2.775"/><path d="M34.918,34.257l-.289-.507-.287-.506-.288-.507-.288-.506-.289-.506-.288-.5-.288-.506-.288-.506-.079-.137-.052,0-.342.037-.092-.019-.1-.067L31.9,30l-.073,0L31.709,30l-.053,0-.054-.015-.116-.006-.669.339-.113.039-.138.027-.142.006-.139-.022-.128-.063-.068-.064-.125-.146-.073-.065-.061.014-.236.189v-.581l0-.352v-.355l0-.354v-.356l0-.353v-.354l0-.352v-.169l.025-.11.016-.03.022-.024.027-.02.029-.016h.015l.029.018.015,0,.013-.015.007-.034.011-.019.032-.044.022-.049.006-.052-.019-.057-.033-.04-.082-.063-.029-.042-.019-.052-.02-.09-.027-.05.015,0,.073,0,.015,0,.037.007.027-.007-.038-.065,0-.035.023-.027.037-.01-.006-.009-.009-.021,0-.009.051-.023.013-.035.007-.045.029-.051,0-.006,0-.036-.116.011-.055.011-.054.027-.057.048-.1.119-.052.052-.183.1-.057.042-.1.106-.056.044-.137.075-.046.05-.078.116-.033.027-.07.044-.032.025-.025.033-.033.07-.021.031-.05.04-.172.046-.185.081-.046.034-.036.06L28.1,27.2l-.037.054-.134.044-.1.076-.053.028-.037,0-.024-.013-.02-.017-.03-.01-.038,0-.015.016-.012.02-.028.022-.05.014h-.1l-.493,0h-.491l-.494,0H25.3l.03-.057,0-.049-.006-.049,0-.056.015-.031.044-.051.007-.035-.007-.028-.023-.056-.007-.032-.059-.11-.195-.12-.032-.106.033-.106.008-.053-.016-.048-.074-.089L25,26.312l-.007-.058,0-.081,0-.027-.016-.023-.029,0-.032,0-.027,0-.051-.033-.075-.067-.054-.028-.057-.012-.168.012-.124-.014-.052-.015-.114-.056-.112-.035-.054-.01-.01,0L24,25.88l-.013,0-.015,0-.025-.021-.013-.006-.336-.067-1.109,0,.059-.094.146-.146.063-.085.046-.088.029-.044.035-.021.038,0,.046-.012.037-.022L23,25.23l0-.077.125-.1.029-.035.022-.053.014-.082-.03-.232-.017-.045-.075-.114-.037-.039-.1-.069-.041-.034-.213-.31-.048-.117-.032-.052-.047-.047-.054-.028-.159-.033-.059-.031-.051-.048-.117-.152-.016-.045,0-.052.025-.124,0-.057-.02-.05-.039-.04-.024-.009-.059-.008-.026-.01-.028-.025-.046-.059-.03-.024-.218-.121-.04-.039-.019-.052-.014-.114-.025-.072-.08-.106-.036-.064-.007-.052.015-.1,0-.053-.031-.065-.09-.122-.018-.062-.046-.089-.106-.056-.117-.047-.084-.064-.016-.036-.031-.135,0-.05.042,0,.092.034.091-.056.03-.106-.027-.11-.082-.065-.1-.031-.087-.037-.075-.052-.361-.377-.112-.064-.024-.048.13-.056.035-.06,0-.06.021-.041.015-.046-.016-.07-.081-.134-.01-.05h.06l.112.044.051,0,.062-.023.1-.06.049-.015.07,0,.109,0,.054-.007.045-.027.034-.056-.008-.051-.024-.052-.029-.118-.19-.271-.025-.065.017-.069.038-.077.069-.252,0-.152.016-.045.03-.033.116-.07.028-.035.033-.07.034-.03.077-.047.139-.109.223-.129.187-.159.108-.067.1-.087.06-.02.195,0,.125-.031.095-.051.076-.078.065-.112.046-.114.011-.06v-.06l-.02-.063-.06-.126-.015-.064-.03-.221-.015-.046-.133-.152-.027-.065,0-.127.044-.1.06-.1.157-.348.1-.087.287-.381.04-.074.029-.081.045-.254v-.077l-.024-.089-.013-.09.026-.09.081-.169.011-.044.018-.117.022-.04.029-.036.025-.039,0-.044-.015-.167-.015-.044-.024-.04-.021-.048.012-.04.065-.017.037,0,.022,0,.038-.019,0-.013,0-.04.008-.014.014,0,.035.012.015,0,.112-.022.047-.022.037-.045.033-.027.052.007.056.016h.149l.025-.007.027-.024.009-.025,0-.027.011-.028.037-.035.076-.035.067-.074.044-.033.051-.022.052-.006.039,0,.017-.016.009-.024.015-.024,0-.01v-.015l0-.017.008-.015.012,0,.039,0,.015,0,.059-.031.045-.031.03-.045.02-.149.029-.032.116-.031L24.9,13l.008-.02.014-.018.033-.008.1.015.037,0,.05-.017.05-.028.14-.1.152-.083.052-.044.032-.04.051-.1.02-.022.024,0,.024.011.028.01.024,0,.024-.016.046-.039.082-.027.129-.124.073-.05.046-.014.229-.025.019-.006.01-.012,0-.018.008-.019.022-.012.029,0,.062.028.033.01.052-.006.032-.023.029-.008.044.033.029.027.021.011.025,0,.035-.012.055-.055.029-.009-.011.059.127-.053.039,0,.068.014.022,0,.015-.017.017-.06L27.2,12.1l.038-.016.042-.006.085,0,.127-.019.037,0,.027.021.017.03.024.015.037-.015.01-.008.025-.034.017-.009.019,0,.015.008.01,0,.028-.035v-.028l-.006-.028.007-.031.046-.039.065-.015.064.013.076.084.037-.042.04-.064.046-.027.018.019.031.061.021.02.044.007.026-.015.037-.062.067-.027.144.06.054-.044.013-.062.043.052.058.052.057-.056.025-.053.035-.044.082-.081.026-.044.015-.049.022-.04L29,11.539l.043-.013.007-.027-.023-.065.01-.036.035-.032.13-.063.029,0,.173.045.049,0,.03-.023.031-.084.026-.031.043-.018.043.008,0,.04-.008.05,0,.042.13.075.025-.028.011-.051.019-.047.044-.022.043.018.012.04.008.04.03.017.041-.014.113-.09.043-.019.039-.01.04,0,.047.019.068.06.033.01.051-.078.035.01.032.037.022.04,0,.055-.024.1,0,.048.027.037.136.107.027.009.023,0,.022,0,.019.027.022.044.032.039.052-.047.046-.1.034-.05.051-.027.061,0,.055.02.03.05.014.069.015.02.034.033.033.024.038.01.039,0,.094-.067.047-.065.027-.072-.007-.077-.077-.152-.049-.071-.055-.065-.083-.067-.279-.141-.074-.073-.028-.09-.017-.1-.033-.1-.066-.094-.09-.094-.1-.075-.106-.037-.079.008-.059.037-.109.1-.07.032-.074,0-.147-.037-.029-.02-.375-.194-.121-.013.094-.144.216-.335.217-.335.216-.335.218-.335.216-.335.216-.336.218-.335.217-.335.062-.1v0l-.015-.006-.033-.025-.024-.034-.016-.04-.035-.12-.03-.02-.058.036L31,7.166l-.014.031-.013.021-.025.007-.025-.013,0-.026,0-.027-.009-.028-.055-.042-.046.013-.046.021L30.713,7.1l-.031-.049-.038-.117-.035-.05-.06-.031-.054.019-.055.032-.067.018-.014-.008-.018-.02-.013-.025,0-.023.014-.011.046-.019.013-.009.014-.058-.036-.027-.058-.006H30.26l-.03.008-.065.027-.029,0L30.1,6.741l-.018-.023-.007-.027-.017-.03-.035-.03-.047-.024-.054-.015-.045-.007-.044-.021L29.8,6.526,29.767,6.5l-.047.03-.007.027,0,.03,0,.027-.02.01h-.115l-.018-.013,0-.034V6.54l0-.028-.017-.028-.087-.072-.01,0V6.327L29.428,6.3l-.014-.013-.072-.009-.051-.013-.1-.035-.1-.062-.143-.152-.084-.05L28.81,6l-.07-.013-.117-.048-.08,0-.029.038.007.062.024.069-.024.015-.033,0-.033-.007-.071-.041-.035,0-.077.013-.064.03-.052.129-.079.04-.052.04L28,6.328l-.03-.01-.033-.024-.03-.007-.04.017-.057.03-.052.011-.022-.038-.2.1-.092.02-.032-.057.012-.021.036-.034.009-.023-.011-.028-.065-.082-.049-.085-.028-.01-.039.04-.027.1-.022.031-.043-.02-.018-.042,0-.116-.015-.05L27.115,6l-.159-.033L26.9,5.94l-.051-.04-.055-.032-.065-.011-.092.047-.054.008-.024-.045,0-.1-.022-.015-.06.027-.161.1-.027,0-.014.029-.1.15-.13.1-.022.022-.011.06-.034.034-.048.012-.174-.024h-.09l-.077.03-.077.067-.123.14-.04.011-.179-.04-.028,0-.07.015-.015.012,0,.055-.007.02-.024.006-.065.007-.109.028-.062,0-.052-.01L24.7,6.589l-.037-.033-.013-.031L24.621,6.5l-.284-.045-.052-.015-.125-.1-.049-.027-.05-.008-.034.045-.073.148-.036.032-.045.017-.018-.006-.007-.073-.008-.028-.011-.023-.014-.02-.033.017-.024.02-.014.025-.007.033-.073-.052-.047-.015-.068.034-.08.028-.032.031-.037.014-.118.023h-.025l-.022-.017-.027-.047-.046-.127-.041-.034-.008-.017-.19-.1-.007.03-.033.062-.036.033-.019-.058-.023-.025-.121-.03-.045-.031-.007-.02-.013-.082-.008-.015-.04-.027-.007-.014,0-.017-.027-.042-.006-.027,0-.027.008-.019.025-.03.1-.089.026-.06.081-.132-.037-.035L22.713,5.5,22.7,5.439l-.018-.051-.049-.07-.019-.037-.01-.044,0-.038.026-.069.007-.026-.017-.044-.064-.077-.015-.037.02-.1-.019-.031L22.523,4.8,22.5,4.79l-.026-.02L22.4,4.687h-.029l-.012.072-.016.01-.092-.024-.044.006-.043.043-.022.031-.029,0-.066-.06-.035-.022-.033,0-.029,0-.04,0-.03,0-.013,0,0-.01-.011-.037,0-.01-.178-.108L21.611,4.5l.007-.106.031-.092.024-.04.068-.04V4.171l-.029-.114,0-.037V3.991l0-.027-.022-.031-.057-.042-.032-.048-.1-.047-.025-.042L21.51,3.7l.013-.03-.043-.019-.015-.019-.014-.022,0-.02,0-.059-.006-.023-.01-.019-.01,0-.037,0-.01,0,0-.012,0-.03-.021-.042-.006-.031-.014-.025-.066-.018L21.2,3.3l-.03-.008-.064-.012-.052-.028-.039-.042-.023-.049-.042.015-.044.069-.048.026h-.031l-.046-.01-.073-.025-.037-.025-.029-.029L20.6,3.1l-.041-.109-.018-.025-.045-.017-.087.019-.037-.019,0-.022.024-.049,0-.022-.024-.02-.014.007-.01.019-.01.011-.031.014-.013.015-.015,0-.035-.013-.022-.019L20.2,2.85l-.065-.191-.03-.028-.044.08-.076,0-.167-.064-.165-.03-.074-.04L19.517,2.5l-.038-.123L19.45,2.34l-.068-.047-.016-.025.018-.032.036-.006.043.008H19.5l.017-.031L19.5,2.173l-.028-.028-.016-.032.022-.044-.022-.01-.048,0-.027-.007-.018-.013-.095-.1-.018-.04V1.843l.012-.023.035-.031.007-.019-.131-.283-.007-.023,0-.032L19.161,1.4l-.013-.011-.038,0L19.1,1.385l-.025-.039-.035-.04L19,1.277l-.169-.1-.073-.055L18.646,1,18.568.869,18.542.85l-.029,0-.024.013-.017.014-.015.006-.037,0L18.4.877,18.394.864,18.379.85,18.362.835,18.349.822,18.333.814,18.264.808,18.209.794l-.029,0L18.131.774l.022-.036L18.23.681l-.1-.189L18.1.437,18.037.386l-.031.006L17.936.5l-.031.023-.028,0L17.831.514l-.095-.02L17.679.467,17.641.439,17.53.318,17.511.3,17.486.3h-.049L17.413.287l-.032-.03L17.272.109l-.051-.04L17.161.038,17.038,0l-.055,0-.042.008-.028.028L16.9.089,16.89.123l-.033.043L16.813.2l-.042.013-.033.042L16.675.3,16.64.316,16.6.327l-.044,0L16.466.316l-.024,0-.074.048L16.3.361,16.1.257l-.037-.01h-.038l-.051,0L15.933.244l-.051-.02L15.833.21l-.041.014-.015.048.013.06.027.053.025.028.025.006.059,0,.026,0,.033.02.059.053.033.016.059.02.046.027.032.04.087.31.052.115.078.109.051.047.031.02.029.006.033,0,.016.009.01.017.11.081.011.014.013.031.012.013.013,0,.025-.014.014.006.03.048.01.05-.008.107,0,.023.007.02,0,.02-.007.025-.024.026-.033.016-.031.02-.011.032,0,.028.011.05,0,.027,0,.028-.019.048v.035l.123.414V2.4l0,.048,0,.025.021.031.026.023.02.027v.019h-.153l-.118.016-.064,0-.027-.022-.015-.028-.039-.044-.077-.07-.019.023-.033.135-.084.323-.082.323-.084.323-.082.321-.04.16-.037.094L15.9,4.2l-.151.141-.111.127-.138.159-.139.161-.138.158-.137.16-.138.159-.139.158-.138.16-.138.16-.164.123L14.211,6l-.166.126-.165.125-.164.126-.167.124-.164.125-.165.126-.156.119-.165.1-.255.087-.348.12-.347.121-.347.12-.347.121-.348.12-.346.121-.348.12-.347.121-.183.063L9.632,8.1l-.2.176-.28.371-.133.111-.04.041-.084.163-.035.048-.1.073-.032.038v.06l.032.051.043.03.033.04.007.075-.025.057-.043.016-.049.012L8.679,9.5l-.037.017-.026-.048-.039-.177-.02-.04-.035-.028L8.4,9.193l-.059-.007L8.3,9.2l-.03.052,0,.017.016.055v.031l-.02.117-.041.123-.05.111-.019.054-.007.054,0,.1.01.057,0,.027-.02.015-.035.006-.013,0,0,.015v.034l.035.177-.017.053-.067.065-.022.013-.033.017-.017.012-.028.053-.02.052-.028.2v.02l-.011.01-.038.022-.036.012-.033,0-.03.008-.028.028-.014.045,0,.164-.028.121L7.5,11.5l-.025.121-.024.053-.051.042-.022.057,0,.1.022.1.033.052.065.04L7.5,12.11l-.044.052-.04.065-.007.05,0,.054,0,.053-.025.044-.106.07-.253.1-.113.064-.125.115-.052.07-.033.076L6.7,13l.064.123.012.065-.028.056-.065.014-.072,0-.056.014-.029.044-.032.134-.02.057-.071.075-.08.067-.051-.05-.03-.022-.03-.015-.029,0-.043.012H6.116l-.049-.01-.092-.033-.049-.007-.2.006-.064-.017-.037-.045L5.6,13.407l-.037-.052-.024-.016-.054-.02L5.46,13.3l-.016-.023-.015-.056L5.412,13.2l-.048-.035-.058-.03L5.26,13.1l-.021-.057-.008-.056-.072-.135-.032-.162-.081-.117,0-.059.064-.111.007-.04L5.1,12.331,5.047,12.3H4.98l-.017-.008-.038-.031L4.9,12.25l-.139-.138-.077-.036-.1.014-.1.056-.184.056-.1-.015-.068-.07-.057-.087-.07-.064-.073-.019h-.07l-.073-.008L3.717,11.9l-.056-.039-.089-.1-.051-.042L3.475,11.7l-.057-.01-.046-.015-.018-.027H3.347l-.112.015-.031.01-.029.014-.024.019-.023.039-.029.1-.02.044-.044.047-.213.16-.112.06-.028.023-.022,0H2.614l-.047-.015-.124-.07-.037-.034-.024-.056.011-.047.365-.481.031-.06-.128.015-.12.035-.1-.01-.059-.123V11.31l.012-.052,0-.024L2.381,11.2l-.046-.064L2.322,11.1l.006-.052.024-.071.031-.065.031-.046.042-.028.051-.015.055,0,.057,0,.057.016.116.062.052.012.059-.029.046-.056.04-.064.04-.049.214-.1.044-.048v-.029l-.015-.016-.025-.015-.025-.028-.007-.023v-.05l0-.025-.024-.056-.055-.089-.011-.056,0-.019.011-.02.009-.02,0-.027-.019-.052V10l0-.025.016-.052.006-.028,0-.031-.015-.052,0-.03-.007-.027-.026-.01-.026-.008-.017-.02V9.692l.022-.073,0-.052V9.54l-.007-.025-.019-.02-.046-.019-.016-.015L2.984,9.4,3,9.347,3.008,9.3l-.038-.03-.105-.027-.046-.023L2.8,9.211v.027l-.011.028-.037.062-.008.03-.019.05-.046.035-.055.023-.054.011-.191-.006-.044.017L2.312,9.5l-.027,0-.022.01-.016.056-.118.169L2.05,9.82l-.438.257-.1.081-.073.094-.051.1L1.37,10.4l-.006.063-.017.056-.042.038-.114.065-.1.08L1,10.8l-.149.223-.044.089-.03.031-.049.011-.053.019-.039.044-.05.09-.064.063-.24.163-.032.037-.037.06-.032.065-.013.053.04.154v.064l-.04.094-.02.031L.132,12.1l-.02.013-.029.027-.012.04.019.054.025.056.016.05,0,.044-.023.14-.024.049-.009.023-.01.065-.016.014-.022.01-.015.024L0,12.737v.031l.023.044.09.067.035.055.227.231.021.045.021.061.045.054.108.083.089.089.07.119,0,.109-.109.061L.51,13.8l-.015.025,0,.065,0,.029L.46,13.97l0,.033,0,.014.011.025,0,.015-.007.02-.037.031-.011.017.015.065.057.083.07.08.062.054.168.087.039.057.241.249.052.077.141.311.059.235,0,.233-.076.2-.1.1-.112.037-.121-.024L.8,15.893.759,15.84l-.024-.022H.7l-.065.12-.02.009-.055,0-.048.1-.029.094,0,.11.021.115.049.113.077.11.084.079.094.06.133.064.057.017.029.012.09.067.077.027.116.112.1.04.054.035.038.081.041.023.192.07L2,17.428l.443.207.49.266.431.2.049.031.315.277.017.024.013.009.048.064,0,.015.013.014.015.1.04.089.051.082.138.152.181.119.027.042.02.052.193.219.029.055.015.06.007.067.018.065.046.052.11.1.061.093L4.83,20l.039.122.015.118,0,.02-.015.044v.03l.008.027L4.9,20.4l.018.051.294.394.054.112.006.037-.007.027-.01.022-.007.028,0,.036,0,.019.03.023.258.406.146.158L6,21.952,6.045,22l.089.131.051.029.271.252.057.077.037.08.02.061.146.269.018.074-.019.055-.073.014v.019l.064.069.04.033.086.034.064.045.109.1.083.106.066.114.038.116,0,.119-.047.119-.019.065.017.053.141.162.038.077.049.052.008.014.014.039.026.035.02.044,0,.065-.017.031-.021.022-.015.022,0,.037.057-.015.025.039.011.11.024.05.03.023.038.017.044.023.03.026.03.033.019.042-.007.052-.012.024-.02.016-.024.012-.058.01-.026.013-.014.013.012.006.031.013.027.034.021.045.007.05.012.023.024-.03.027-.056.012-.052.023-.035.052-.011.052.017.024.048,0,.081,0,.026-.017.025-.044.038-.015.031.033.022.019.039.008.036.007.017.015.01.071.065.024-.013.039-.006.034.013.015.035,0,.109,0,.034.04.06.056.04.026.037-.046.055.027.045.019.067.02.176.048.165.063.1.262.314.03.073-.01.052-.027.048-.013.067.01.03.05.094.014.057,0,.011-.008.015-.007.015v.017l.009.015.01.009.011.007.007.007.017.023.018.019.015.026,0,.038.018.058.071.114.008.065-.011.027-.017.011-.011.017v.04l.009.03.015.028.02.023.079.077.042.058.065.126.018.027.056.069.008.029.009.068.012.026.117.106.025.039.008.024.006.062,0,.027.064.1.011.031.013.06.03.041.074.06.226.4.033.036.059.054.022.023.016.03.02.057.02.025.016-.019.03.044.047.149.082.079.037.048,0,.043.081.115.03.065-.015.049.049.055.009.012-.007.033-.027.052-.007.03.022.028.042.028.03.037-.016.048.03.035.011.115.045.087.026.064.013.07-.015.05-.047.02-.048,0-.037.01-.015.059.008.052.025.044.06.064.07.053.428.227.09.076.119.053.047.03.035.049.022.022.03.008.024.013.022.031.038.072.047.053.01.022,0,.024-.021.027.011.02.047.061.03.029.037.013.04.022.04.053.031.065.012.06.048.119v.055l-.069.027.025.053.019.121.015.057.042.067.012.027.021.085.024.062.013.189-.011.066-.027.045-.032.04-.024.052.116.011.121.037.1.07.043.11,0,.03-.011.022L11.9,33.5l.007.04.016.027.049.045.01.015.03,0,.158.065.2.14.144.148.047.077.042.109.007.1-.056.074.03.048.05.035.049.025.021.015.014.031.1.15.076.05.02.027,0,.027,0,.074.025.036.117.231.052.067.191.163.028.033.015.044.01.126.047.241.037.1.007.065.028.052.3.3.156.237.037.039L14,36.58l.039.027.11.169.106.228.022.1.019.209-.047.234-.032.09-.032.092-.011.077-.025.055-.013.076-.049.106-.025.119-.011.036-.03-.019-.03-.026-.025-.031-.011-.031.012-.042,0-.017-.02-.008-.048,0-.025,0-.011.006-.056.028-.039.034-.03.1-.02.042,0,.039.027.045.037.024.039.01h.042l.044-.006.015-.011.013-.02.019-.014.029.007.015.017,0,.019-.008.022,0,.02.038.193,0,0,0,.073.007.026.008.019,0,.016-.017.019.009.034-.009.035-.021.031-.027.011-.01.02.04.212.041.029.029-.022-.013-.064.151.038.035.02.023.037.013.044.024.038.045.017.044.022.033.05.021.063.014.081.014.019.007.015-.01.023-.015.012-.079.025.059.1.018.021.028.01.068.006.029.014.037.038.053.076.033.031.094.057.041.043.015.064-.028.056-.012.035.012.015.018.007.019.016.064.07.022.039.015.044.012.122.024.056.04.04.116.059.02.015.018.019.021.027.016.031.02.027.03.01.023.006.027.014.024.015.009.013.011.032.025.017.06.021.161.1.055.048.041.03.1.035.227.11.122.1.01.02,0,.089,0,.019.03.031.1.067.021.028.02.056.129.187.026.065.023.048.041.031.144.02.055.026.134.125.018.027.014.025,0,.035-.011.028-.032.015-.051,0,.073.073.111.048.081.051-.02.08-.021.013-.027.012L17,42.444,17,42.465l.017.017.065.02.014.01.017.045.042.019.055.008.054.017.032.025.084.092.044.03.018.006.02-.009.041-.006.037.012.075.06.464.258.18.062.048.046.131.087.508.2.024.015.018.019.032.067.014.01.024.01.015.022.007.03.007.056.013.015.179.1.041.028.055.023.134-.01.065.017.051.039.039.039.046.028.119.016.043.012.269.127.051.04.008.023,0,.034,0,.062.008.019.02.011.046.019.222.157.177.156.081.052.21.077.086.047.019.017.027.028.021.035.009.037.16-.035.159.043.306.128.169.042.153.075.08.019.028.014.023.027.035.119.024.039.046-.02.038.015.043.027.051.014.108,0,.047.017.1.073.121.062.054.042.515.227.295.213.1.037.432.05.159.069.117.019.027.015.06.038.016.01.029.006.018.017.029.04.025.019.024,0h.024l.031.01.064.044.154.18.026.056,0,.056.011.052.069.041.13.031.068.031.027.048.024.025.112.065.038.036.006.031,0,.06.015.028.022.01.174.014.062.018.059.025.152.089.068.065.127.152.089.073.105.048.46.115.011.006.046.031.05.044.024.019.066.022.108.019.045.013.045.037.039.088.007.009.1.069.076.1.022.014.017.006.011.013.011.1.039.113.011.052.025.291.017.056.008.057-.011.067-.042.055-.018.034,0,.03.012-.006.091-.013.057.013.06.03.1.074.134.056.044.033.084.1.037.035.059.035.143.14.057.006.163.054.055.03.117.089.044.019.041.025.024.056.037.112.036.032.1.03.046.028.161.148.015.007.027,0,.013.006.015.019.015.031.011.011.211.192.079.054.084.036.089.014.06.027.157.174.164.117.051.047.108-.056.143-.01.295.028.143-.015.068-.019.2-.11.065-.022.082,0,.06-.023.049-.04.13-.156.109-.1.051-.055.059-.091.167-.377.008-.056-.007-.053-.021-.056-.062-.106-.015-.048-.006-.072-.024-.122-.046-.1-.032-.1.02-.122.089-.092.116-.006.13.018.126-.022.125-.085.354-.343v0l0-.206-.008-.1-.032-.085-.041-.052-.054-.057L32.478,48l-.044-.015-.147-.019.047-.073.043-.159.03-.063.011,0,.049-.009.017,0,.149-.135.086-.057.075-.03.078-.015.074-.028.059-.069.013-.045-.013-.017-.02-.01-.009-.016.009-.027.016-.02.119-.069.033-.039.073-.158.28-.3.038-.06L33.6,46.4l.025-.04.045-.028.1-.008.05-.014.161-.082.047-.035.045-.06.034-.044-.074-.1-.013-.049.007-.088,0-.168,0-.056.025-.051.072-.089.093-.048.31-.122.062-.1-.028-.077L34.5,45.1l-.144-.059-.112-.123-.062-.036-.077.024-.09-.028-.031,0-.029.01-.055.041-.029.014h-.071l-.067-.022-.059-.038-.051-.044-.1-.12-.062-.156-.117-.293-.117-.294-.117-.293-.117-.293-.033-.085-.015-.085.024-.084.179-.27.013-.056.009-.056.013-.056.037-.052.028-.015.076-.025.02-.014,0-.023-.033-.085.015-.045.044-.058.053-.049.093-.031.037-.108.054,0,.065,0,.044-.035.007-.052-.065-.065-.068-.1L33.54,41.9l-.165-.123-.045-.045-.158-.243-.047-.044-.059-.056-.019-.048.015-.054.045-.1,0-.022-.012-.232,0-.049.026-.039.061-.036.154-.044.044-.024.038-.082.017-.363.035-.054.055-.006.063.014.059,0,.017-.032-.009-.131.009-.048.016-.013.047-.012.02-.01.108-.126.055-.038.179-.1.055-.05-.015-.057-.036-.056-.022-.051,0-.109,0-.055.015-.048.068-.051.095-.023.186-.023.053-.057-.013-.1-.067-.189-.018-.1-.015-.044-.029-.04-.149-.1-.036-.052-.016-.091,0-.1-.009-.1-.047-.07-.036-.109,0-.039.008-.045.013-.034v-.031l-.03-.042-.149-.121-.057-.081.038-.064.037,0,.085.015.031-.006.024-.031v-.034l0-.035,0-.038.022-.032.059-.064.023-.037.025-.067.016-.069-.01-.065.032-.548-.04-.221-.007-.114.02-.332-.038-.317v-.12l.015-.064.086-.069.029-.067.033-.053.062.008.033-.079.043-.058.056-.039.228-.06.021-.024.064-.126-.029-.032-.089-.025L34.7,34.78l0-.047.025-.04.038-.031.081-.046.041-.034.033-.042.021-.043.017-.055.016-.027L35,34.4Z" transform="translate(12 5)" fill="#555"/></g></svg>