<svg xmlns="http://www.w3.org/2000/svg" width="59" height="62" viewBox="0 0 59 62">
    <g fill="none" fill-rule="evenodd">
        <path fill="#CF0F11" fill-rule="nonzero" d="M21.563 0C33.47 0 43.124 9.654 43.124 21.563c0 11.908-9.654 21.562-21.563 21.562a22 22 0 0 1-.323-.002l-.145.002c-.165 0-.329-.007-.492-.02C9.14 42.602 0 33.149 0 21.563 0 9.976 9.14.523 20.602.02a5.677 5.677 0 0 1 .626-.02zm-1.876 29.062l-6.173.001c1.127 5.834 3.5 10.142 6.173 11.284V29.062zm8.986.001l-6.173-.001v11.284c2.674-1.142 5.046-5.45 6.173-11.283zm10.443 0H31.23c-.81 4.51-2.339 8.324-4.359 10.836a19.136 19.136 0 0 0 12.246-10.837zm-28.158 0h-6.95A19.145 19.145 0 0 0 15 39.487c-1.863-2.509-3.275-6.154-4.042-10.425zm29.109-12.188h-8.438c.162 1.512.246 3.08.246 4.688a44.23 44.23 0 0 1-.246 4.687h7.746l.001 2.173a19.038 19.038 0 0 0 1.27-6.86c0-1.618-.2-3.188-.58-4.688zm-29.509 0h-7.5c-.378 1.5-.58 3.07-.58 4.688 0 1.617.202 3.188.58 4.688h7.5a44.23 44.23 0 0 1-.245-4.689c0-1.607.084-3.175.245-4.686zm9.129 0h-6.603a41.204 41.204 0 0 0-.264 4.688c0 1.62.092 3.19.264 4.688l6.603-.001v-9.375zm9.417 0H22.5v9.375h6.604c.157-1.37.247-2.8.262-4.275l.002-.413c0-1.62-.093-3.19-.264-4.687zM14.999 3.637l-.196.073A19.147 19.147 0 0 0 4.01 14.063l6.95-.001c.766-4.271 2.178-7.916 4.04-10.425zm4.688-.859c-2.673 1.142-5.046 5.45-6.173 11.284h6.173zm2.814 0L22.5 14.063h6.173c-1.127-5.833-3.5-10.141-6.172-11.283zm4.369.448l.108.136c1.967 2.513 3.456 6.27 4.251 10.7h7.887A19.133 19.133 0 0 0 26.87 3.227z"/>
        <g fill="#FFF" stroke="#CF0F11" stroke-width="2.344" transform="translate(21.563 27.188)">
            <path d="M14.016 26.146v6.198l3.688-1.618 3.858 1.618v-6.469"/>
            <rect width="35.578" height="23.719" rx="1.725"/>
            <circle cx="17.789" cy="23.18" r="4.852"/>
            <path stroke-linecap="round" d="M13.125 4.688h8.625M9.703 10.313h16.172M9.703 15.094h3.235M22.641 15.094h3.234"/>
        </g>
    </g>
</svg>
