<svg xmlns="http://www.w3.org/2000/svg" xmlns:xlink="http://www.w3.org/1999/xlink" width="129" height="48" viewBox="0 0 129 48">
    <defs>
        <path id="prefix__a" d="M0 47.511L128.795 47.511 128.795 -0.001 0 -0.001z"/>
    </defs>
    <g fill="none" fill-rule="evenodd">
        <path fill="#706F6F" d="M0 38.272v-5.688h.81l1.816 2.878c.412.665.75 1.257 1.012 1.842l.025-.007c-.067-.755-.085-1.445-.085-2.325v-2.388h.693v5.688h-.745L1.72 35.387c-.398-.635-.776-1.282-1.056-1.9l-.025.008c.043.717.055 1.4.055 2.342v2.435H0zM8.788 35.823c.01-.465-.192-1.205-1.022-1.205-.758 0-1.078.693-1.138 1.205h2.16zm-2.17.53c.018 1.003.65 1.418 1.393 1.418.535 0 .862-.093 1.132-.203l.135.525c-.26.115-.717.263-1.37.263-1.247 0-2.005-.835-2.005-2.063 0-1.24.733-2.202 1.923-2.202 1.335 0 1.677 1.165 1.677 1.917 0 .155-.005.273-.022.358l-2.863-.013zM11.999 33.209v.98h1.062v.562H12v2.203c0 .505.142.794.555.794.202 0 .322-.017.432-.052l.035.568c-.145.047-.372.102-.657.102-.35 0-.628-.117-.805-.315-.203-.225-.288-.593-.288-1.073v-2.227h-.632v-.563h.632v-.752l.728-.227zM14.903 34.188l.547 2.067c.108.455.22.883.295 1.307h.025c.095-.412.228-.852.365-1.3l.665-2.075h.625l.633 2.043c.152.48.27.92.362 1.333h.025c.068-.413.178-.846.313-1.328l.58-2.047h.735l-1.315 4.082h-.675l-.625-1.948c-.143-.465-.26-.872-.363-1.35h-.017c-.103.49-.228.92-.37 1.358l-.658 1.94h-.677l-1.23-4.083h.76zM23.11 37.808c.71 0 1.238-.672 1.238-1.597 0-.69-.345-1.56-1.222-1.56-.868 0-1.25.812-1.25 1.587 0 .892.51 1.57 1.225 1.57h.01zm-.024.555c-1.1 0-1.96-.813-1.96-2.1 0-1.367.905-2.167 2.025-2.167 1.175 0 1.965.85 1.965 2.09 0 1.52-1.053 2.177-2.023 2.177h-.007zM26.742 35.462c0-.483-.01-.893-.035-1.275h.65l.038.805h.022c.185-.553.643-.898 1.14-.898.075 0 .133.008.203.023v.692c-.085-.005-.163-.017-.263-.017-.522 0-.895.4-.997.947-.018.11-.023.23-.023.355v2.178h-.745l.01-2.81zM30.947 36.06h.015c.102-.145.237-.328.355-.468l1.207-1.404h.885l-1.58 1.677 1.8 2.407h-.905l-1.397-1.967-.38.43v1.538h-.743v-5.995h.742v3.782zM38.99 37.808c.71 0 1.238-.672 1.238-1.597 0-.69-.345-1.56-1.222-1.56-.868 0-1.248.812-1.248 1.587 0 .892.508 1.57 1.223 1.57h.01zm-.024.555c-1.098 0-1.958-.813-1.958-2.1 0-1.367.903-2.167 2.023-2.167 1.175 0 1.965.85 1.965 2.09 0 1.52-1.053 2.177-2.023 2.177h-.007zM42.682 38.272v-3.52h-.567v-.563h.567v-.194c0-.575.135-1.098.48-1.425.278-.276.65-.386.988-.386.267 0 .49.063.632.12l-.095.575c-.117-.047-.26-.092-.477-.092-.625 0-.793.555-.793 1.178v.224h.985v.563h-.98v3.52h-.74zM50.87 35.293c0-.43-.01-.77-.034-1.105h.66l.04.665h.02c.2-.38.675-.757 1.347-.757.565 0 1.445.332 1.445 1.737v2.438h-.745v-2.355c0-.66-.242-1.215-.942-1.215-.485 0-.863.347-.998.76-.035.092-.05.227-.05.342v2.468h-.742v-2.978zM57.095 33.209v.98h1.063v.562h-1.063v2.203c0 .505.142.794.555.794.203 0 .32-.017.433-.052l.035.568c-.148.047-.376.102-.66.102-.348 0-.628-.117-.803-.315-.205-.225-.288-.593-.288-1.073v-2.227h-.632v-.563h.633v-.752l.727-.227zM62.209 35.823c.01-.465-.193-1.205-1.023-1.205-.757 0-1.077.693-1.137 1.205h2.16zm-2.168.53c.015 1.003.648 1.418 1.393 1.418.532 0 .862-.093 1.13-.203l.135.525c-.26.115-.718.263-1.37.263-1.248 0-2.005-.835-2.005-2.063 0-1.24.732-2.202 1.922-2.202 1.335 0 1.68 1.165 1.68 1.917 0 .155-.007.273-.022.358l-2.863-.013zM64.534 35.462c0-.483-.01-.893-.035-1.275h.65l.037.805h.023c.185-.553.642-.898 1.14-.898.072 0 .132.008.2.023v.692c-.083-.005-.16-.017-.26-.017-.523 0-.895.4-.998.947-.017.11-.022.23-.022.355v2.178h-.745l.01-2.81zM67.995 35.293c0-.43-.01-.77-.035-1.105h.66l.04.665h.02c.2-.38.675-.757 1.347-.757.568 0 1.445.332 1.445 1.737v2.438h-.745v-2.355c0-.66-.242-1.215-.942-1.215-.485 0-.863.347-.998.76-.035.092-.05.227-.05.342v2.468h-.742v-2.978zM75.507 36.187c-.81-.017-1.73.128-1.73.92 0 .487.32.705.69.705.543 0 .888-.335 1.005-.68.025-.075.035-.163.035-.24v-.705zm.725 1.102c0 .358.017.706.06.986h-.668l-.067-.518h-.025c-.218.32-.667.605-1.248.605-.827 0-1.247-.58-1.247-1.172 0-.985.877-1.523 2.455-1.515v-.085c0-.338-.095-.953-.93-.946-.388 0-.785.108-1.072.303l-.168-.495c.335-.212.835-.358 1.35-.358 1.255 0 1.56.853 1.56 1.67v1.525zM78.96 33.209v.98h1.065v.562H78.96v2.203c0 .505.143.794.558.794.2 0 .322-.017.43-.052l.035.568c-.143.047-.37.102-.658.102-.35 0-.625-.117-.805-.315-.2-.225-.285-.593-.285-1.073v-2.227h-.632v-.563h.632v-.752l.725-.227z"/>
        <mask id="prefix__b" fill="#fff">
            <use xlink:href="#prefix__a"/>
        </mask>
        <path fill="#706F6F" d="M81.54 38.272h.74v-4.085h-.74v4.085zm.355-4.835c-.282 0-.47-.22-.47-.485 0-.258.198-.468.485-.468.285 0 .47.21.47.468 0 .265-.185.485-.48.485h-.005zM85.877 37.808c.71 0 1.237-.672 1.237-1.597 0-.69-.345-1.56-1.222-1.56-.868 0-1.248.812-1.248 1.587 0 .892.508 1.57 1.223 1.57h.01zm-.025.555c-1.098 0-1.96-.813-1.96-2.1 0-1.367.905-2.167 2.025-2.167 1.175 0 1.965.85 1.965 2.09 0 1.52-1.053 2.177-2.023 2.177h-.007zM89.5 35.293c0-.43-.01-.77-.035-1.105h.66l.04.665h.02c.2-.38.675-.757 1.347-.757.568 0 1.446.332 1.446 1.737v2.438h-.745v-2.355c0-.66-.243-1.215-.943-1.215-.485 0-.863.347-.998.76-.035.092-.05.227-.05.342v2.468H89.5v-2.978zM97.012 36.187c-.81-.017-1.733.128-1.733.92 0 .487.323.705.693.705.543 0 .888-.335 1.005-.68.025-.075.035-.163.035-.24v-.705zm.725 1.102c0 .358.017.706.058.986h-.666l-.067-.518h-.025c-.218.32-.668.605-1.248.605-.827 0-1.247-.58-1.247-1.172 0-.985.877-1.523 2.455-1.515v-.085c0-.338-.095-.953-.93-.946-.387 0-.787.108-1.072.303l-.168-.495c.335-.212.835-.358 1.35-.358 1.255 0 1.56.853 1.56 1.67v1.525zM99.605 38.274L100.347 38.274 100.347 32.279 99.605 32.279zM.735 46.858c.153.03.353.038.615.038.763 0 1.46-.28 1.46-1.108 0-.767-.667-1.095-1.467-1.095H.735v2.165zm0-2.715H1.4c.768 0 1.225-.412 1.225-.962 0-.655-.497-.925-1.24-.925-.337 0-.532.02-.65.05v1.837zM0 41.813c.32-.077.835-.122 1.343-.122.732 0 1.205.122 1.552.412.298.218.483.553.483 1 0 .56-.373 1.04-.965 1.253v.025c.542.125 1.172.572 1.172 1.415 0 .49-.192.862-.487 1.137-.39.368-1.03.533-1.958.533-.505 0-.895-.033-1.14-.065v-5.588zM8.653 46.304c0 .42.01.792.032 1.112h-.657l-.043-.664h-.017c-.185.33-.623.76-1.348.76-.642 0-1.407-.365-1.407-1.79v-2.388h.742v2.252c0 .776.243 1.31.908 1.31.497 0 .845-.35.98-.684.042-.103.067-.236.067-.38v-2.498h.743v2.97zM10.462 46.666c.227.135.615.287.987.287.533 0 .785-.26.785-.61 0-.353-.21-.545-.75-.748-.742-.27-1.09-.664-1.09-1.157 0-.657.538-1.198 1.41-1.198.413 0 .775.11.995.255l-.177.528c-.16-.09-.455-.235-.835-.235-.44 0-.675.253-.675.558 0 .347.235.5.767.7.7.262 1.07.614 1.07 1.232 0 .725-.565 1.233-1.517 1.233-.448 0-.86-.12-1.148-.288l.178-.557zM14.582 47.416h.743v-4.082h-.742v4.082zm.355-4.834c-.277 0-.462-.218-.462-.48 0-.26.193-.47.478-.47.29 0 .475.21.475.47 0 .262-.186.48-.48.48h-.01zM17.235 44.439c0-.428-.01-.77-.034-1.105h.657l.043.667h.017c.2-.38.675-.76 1.348-.76.567 0 1.445.336 1.445 1.738v2.438h-.743v-2.355c0-.658-.245-1.213-.945-1.213-.482 0-.86.348-.995.758-.035.092-.05.23-.05.347v2.462h-.743V44.44zM25.186 44.971c.01-.467-.192-1.207-1.023-1.207-.757 0-1.077.694-1.137 1.207h2.16zm-2.17.53c.02 1 .65 1.415 1.395 1.415.53 0 .86-.09 1.13-.2l.133.523c-.26.117-.715.262-1.368.262-1.248 0-2.005-.835-2.005-2.06 0-1.24.735-2.205 1.923-2.205 1.332 0 1.68 1.165 1.68 1.918 0 .154-.008.272-.026.357l-2.862-.01zM27.401 46.666c.228.135.616.287.988.287.533 0 .785-.26.785-.61 0-.353-.212-.545-.75-.748-.742-.27-1.09-.664-1.09-1.157 0-.657.538-1.198 1.407-1.198.413 0 .778.11.998.255l-.178.528c-.16-.09-.457-.235-.837-.235-.44 0-.672.253-.672.558 0 .347.232.5.767.7.7.262 1.07.614 1.07 1.232 0 .725-.565 1.233-1.52 1.233-.445 0-.857-.12-1.145-.288l.177-.557zM31.419 46.666c.227.135.615.287.987.287.533 0 .783-.26.783-.61 0-.353-.208-.545-.748-.748-.742-.27-1.092-.664-1.092-1.157 0-.657.542-1.198 1.41-1.198.415 0 .78.11.997.255l-.177.528c-.16-.09-.455-.235-.835-.235-.44 0-.673.253-.673.558 0 .347.233.5.768.7.7.262 1.07.614 1.07 1.232 0 .725-.568 1.233-1.52 1.233-.448 0-.86-.12-1.148-.288l.178-.557zM40.156 45.335c-.808-.02-1.728.127-1.728.917 0 .488.323.708.693.708.537 0 .884-.335 1.002-.68.028-.078.033-.163.033-.24v-.705zm.73 1.102c0 .358.012.703.057.983h-.67l-.065-.518h-.023c-.222.323-.67.61-1.252.61-.825 0-1.248-.582-1.248-1.177 0-.983.878-1.523 2.456-1.515v-.085c0-.338-.096-.953-.928-.945-.39 0-.785.107-1.07.305l-.172-.498c.34-.212.837-.355 1.35-.355 1.26 0 1.565.853 1.565 1.67v1.525zM42.75 44.439c0-.428-.01-.77-.032-1.105h.655l.045.667h.015c.2-.38.675-.76 1.35-.76.568 0 1.445.336 1.445 1.738v2.438h-.745v-2.355c0-.658-.245-1.213-.945-1.213-.48 0-.86.348-.997.758-.033.092-.05.23-.05.347v2.462h-.74V44.44zM50.895 44.995c0-.102-.01-.22-.032-.322-.11-.46-.515-.85-1.073-.85-.767 0-1.222.675-1.222 1.57 0 .835.41 1.52 1.205 1.52.497 0 .955-.34 1.09-.887.022-.106.032-.206.032-.323v-.708zm.74-3.57v4.936c0 .362.01.777.038 1.06h-.668l-.035-.708h-.015c-.227.453-.717.797-1.385.797-.987 0-1.755-.837-1.755-2.075-.005-1.367.845-2.195 1.833-2.195.632 0 1.05.295 1.23.615h.017v-2.43h.74zM58.975 44.752L56.773 44.752 56.773 46.799 59.235 46.799 59.235 47.416 56.032 47.416 56.032 41.729 59.11 41.729 59.11 42.346 56.773 42.346 56.773 44.147 58.975 44.147zM63.696 47.273c-.193.093-.625.238-1.175.238-1.23 0-2.033-.838-2.033-2.095 0-1.258.862-2.178 2.197-2.178.438 0 .825.113 1.026.223l-.168.562c-.178-.09-.455-.19-.858-.19-.937 0-1.445.698-1.445 1.55 0 .945.608 1.528 1.416 1.528.425 0 .7-.103.912-.193l.128.555zM66.88 46.953c.71 0 1.243-.67 1.243-1.595 0-.692-.345-1.56-1.225-1.56-.868 0-1.248.81-1.248 1.588 0 .89.505 1.567 1.223 1.567h.007zm-.025.558c-1.095 0-1.957-.813-1.957-2.1 0-1.37.902-2.17 2.027-2.17 1.17 0 1.965.852 1.965 2.093 0 1.52-1.055 2.177-2.025 2.177h-.01zM70.506 44.439c0-.428-.01-.77-.035-1.105h.657l.043.667h.015c.202-.38.677-.76 1.352-.76.568 0 1.445.336 1.445 1.738v2.438h-.745v-2.355c0-.658-.247-1.213-.947-1.213-.48 0-.858.348-.995.758-.033.092-.05.23-.05.347v2.462h-.74V44.44zM77.552 46.953c.71 0 1.242-.67 1.242-1.595 0-.692-.345-1.56-1.225-1.56-.865 0-1.247.81-1.247 1.588 0 .89.505 1.567 1.225 1.567h.005zm-.025.558c-1.095 0-1.958-.813-1.958-2.1 0-1.37.903-2.17 2.028-2.17 1.17 0 1.965.852 1.965 2.093 0 1.52-1.055 2.177-2.025 2.177h-.01zM81.177 44.439c0-.428-.015-.77-.035-1.105h.65l.038.66h.022c.228-.39.608-.752 1.29-.752.55 0 .973.335 1.148.817h.017c.128-.235.298-.405.465-.53.245-.185.508-.288.893-.288.552 0 1.35.355 1.35 1.77v2.405h-.723v-2.31c0-.794-.297-1.257-.887-1.257-.43 0-.75.31-.885.665-.035.11-.06.247-.06.372v2.53h-.725V44.97c0-.657-.288-1.12-.853-1.12-.457 0-.802.37-.92.743-.042.107-.06.235-.06.362v2.462h-.725V44.44zM88.895 47.416h.74v-4.082h-.74v4.082zm.358-4.834c-.283 0-.47-.218-.47-.48 0-.26.197-.47.482-.47.287 0 .472.21.472.47 0 .262-.184.48-.48.48h-.005zM94.457 47.273c-.195.093-.627.238-1.175.238-1.23 0-2.032-.838-2.032-2.095 0-1.258.86-2.178 2.195-2.178.44 0 .825.113 1.027.223l-.167.562c-.178-.09-.455-.19-.86-.19-.935 0-1.445.698-1.445 1.55 0 .945.607 1.528 1.417 1.528.425 0 .7-.103.913-.193l.127.555zM98.4 46.522c.33.212.802.372 1.31.372.75 0 1.19-.39 1.19-.972 0-.523-.308-.833-1.07-1.118-.933-.34-1.502-.83-1.502-1.623 0-.884.732-1.542 1.837-1.542.572 0 1.007.137 1.247.28l-.2.598c-.18-.11-.557-.273-1.072-.273-.775 0-1.07.468-1.07.855 0 .53.345.793 1.128 1.095.962.38 1.442.835 1.442 1.67 0 .878-.64 1.648-1.983 1.648-.547 0-1.144-.17-1.45-.376l.193-.614zM106.218 47.273c-.193.093-.626.238-1.173.238-1.233 0-2.035-.838-2.035-2.095 0-1.258.862-2.178 2.197-2.178.438 0 .826.113 1.026.223l-.168.562c-.175-.09-.455-.19-.858-.19-.937 0-1.444.698-1.444 1.55 0 .945.607 1.528 1.414 1.528.425 0 .7-.103.913-.193l.127.555zM107.765 41.426h.743v2.55h.015c.12-.21.307-.405.535-.522.215-.138.477-.213.757-.213.55 0 1.428.338 1.428 1.748v2.43h-.745v-2.345c0-.67-.243-1.215-.943-1.215-.485 0-.852.335-.997.742-.043.1-.05.21-.05.353v2.465h-.743v-5.993zM114.815 46.953c.707 0 1.237-.67 1.237-1.595 0-.692-.345-1.56-1.222-1.56-.868 0-1.25.81-1.25 1.588 0 .89.51 1.567 1.225 1.567h.01zm-.028.558c-1.097 0-1.957-.813-1.957-2.1 0-1.37.905-2.17 2.025-2.17 1.175 0 1.965.852 1.965 2.093 0 1.52-1.053 2.177-2.025 2.177h-.008zM120.132 46.953c.71 0 1.243-.67 1.243-1.595 0-.692-.345-1.56-1.223-1.56-.867 0-1.25.81-1.25 1.588 0 .89.508 1.567 1.225 1.567h.005zm-.025.558c-1.095 0-1.957-.813-1.957-2.1 0-1.37.905-2.17 2.027-2.17 1.173 0 1.965.852 1.965 2.093 0 1.52-1.052 2.177-2.025 2.177h-.01zM123.757 47.419L124.498 47.419 124.498 41.429 123.757 41.429zM126.308 46.666c.227.135.615.287.987.287.533 0 .783-.26.783-.61 0-.353-.208-.545-.75-.748-.74-.27-1.09-.664-1.09-1.157 0-.657.542-1.198 1.41-1.198.415 0 .777.11.997.255l-.177.528c-.16-.09-.455-.235-.835-.235-.44 0-.675.253-.675.558 0 .347.235.5.77.7.697.262 1.067.614 1.067 1.232 0 .725-.565 1.233-1.517 1.233-.448 0-.86-.12-1.148-.288l.178-.557zM48.197 38.274L48.94 38.274 48.94 32.279 48.197 32.279zM9.26 10.789c-4.872 0-8.412 3.158-8.412 7.502v10.913h2.59V18.471c0-3.184 2.45-5.5 5.823-5.5 3.372 0 5.82 2.316 5.82 5.5v10.733h2.595V18.291c0-4.345-3.543-7.502-8.415-7.502M22.005 29.201L24.285 29.201 24.285 12.344 22.005 12.344zM75.374 19.043c-3.12-.672-5.012-1.21-5.012-3.037 0-1.603 1.325-2.333 2.56-2.333h8.142v-2.142h-8.252c-2.873 0-4.878 1.852-4.878 4.51 0 3.575 3.513 4.352 6.61 5.04 2.903.647 5.41 1.202 5.41 3.585 0 .595 0 2.407-3.77 2.407h-8.218v2.14h7.888c5.395 0 6.53-2.59 6.53-4.757 0-3.903-3.722-4.708-7.01-5.413M23.146 4.188c-1.055 0-1.882.827-1.882 1.885 0 1.057.827 1.884 1.882 1.884 1.058 0 1.885-.827 1.885-1.885 0-1.057-.827-1.885-1.885-1.885M86.834 24.888c-1.058 0-1.885.827-1.885 1.882 0 1.058.828 1.888 1.885 1.888 1.055 0 1.882-.83 1.882-1.888 0-1.055-.827-1.882-1.882-1.882M37.72 29.688c-2.837.035-5.565-1.127-7.177-2.977-2.538-2.918-1.903-8.908-1.82-9.583l2.392.29c-.182 1.535-.313 5.918 1.247 7.71 2.04 2.34 6.636 3.095 9.745.595 1.533-1.238 2.206-2.872 2.043-5.01-.32-4.32-4.667-5.513-6.315-5.608-2.348-.132-5.583-1.157-7.148-3.095-1.9-2.35-2.127-4.537-2.137-5.37L28.47.029 30.883 0l.075 6.613c.01.58.177 2.12 1.602 3.882.917 1.13 3.245 2.083 5.412 2.206 3.23.184 8.183 2.422 8.583 7.834.22 2.945-.767 5.32-2.94 7.063-1.775 1.433-3.865 2.068-5.895 2.09M59.777 29.263c-1.77 0-3.795-.045-4.922-.21-3.6-.53-5.88-3.637-5.953-8.11-.035-2.468.87-4.825 2.483-6.465 1.544-1.567 3.642-2.395 6.062-2.395 5.655 0 7.425 4.822 7.578 7.67.062 1.093-.356 1.767-.713 2.15-.815.855-1.975.885-2.102.885h-8.308v-2.2h8.307c.1-.003.383-.053.515-.2.11-.12.12-.345.116-.513-.036-.575-.45-5.602-5.393-5.602-1.85 0-3.36.585-4.5 1.745-1.205 1.223-1.883 3.005-1.85 4.895.05 3.375 1.578 5.605 4.078 5.973 2.057.305 7.855.142 7.915.14l.062 2.187c-.123.005-1.623.05-3.375.05" mask="url(#prefix__b)"/>
    </g>
</svg>
