<svg xmlns="http://www.w3.org/2000/svg" xmlns:xlink="http://www.w3.org/1999/xlink" width="120" height="53" viewBox="0 0 120 53">
    <defs>
        <path id="prefix__a" d="M0 1.094L3.455 1.094 3.455 5.539 0 5.539z"/>
        <path id="prefix__c" d="M0 58.621L119.296 58.621 119.296 2.069 0 2.069z"/>
        <path id="prefix__e" d="M17.925.514c-.149.365-1.684.81-2.49.876-.801.079-1.752-.066-2.122.22-.36.297-1.532.728-1.895.728-.366 0-2.191-1.386-3.076-1.386-.882 0-2.925.372-3.288.807-.363.438-1.539.648-1.826.579-.304-.066-.667-.366-1.178 0-.512.372-1.68.224-1.898.441-.229.218 1.531.655 2.191.728.66.069 4.025.586 4.903.727.874.152 8.923.076 10.606.076 1.687 0 10.759-.293 11.855-.293s3.52-.29 4.456-.358c.961-.083 1.023-.587 1.175-.807.153-.218.806-.731.806-.731.073-.29-.653-.949-1.611-.797-.947.145-3.44.286-4.242.217-.795-.072-1.169-.217-2.047 0-.878.218-1.168.29-1.462.145-.297-.145-.657-.734-1.245-.662-.587.08-1.099.366-1.676.445-.595.072-1.18.217-1.69 0-.516-.228-.955-.366-1.318-.662-.363-.293-1.169-.659-1.169-.659s-1.61 0-1.76.366"/>
        <path id="prefix__h" d="M17.77.928c-.581.365-.508.579-.875.869-.36.3-.36.444-.875.59-.283.079-1.39.072-1.541-.29 0 0-.367-.366-.951-.59-.584-.214-1.241-.214-1.826-.214-.587 0-.954 0-1.462.07-.515.078-.733.368-1.245.368-.515 0-.885-.148-1.465-.148-.585 0-2.05.583-3.73 1.02C2.115 3.045.794 4.213.58 4.648c-.22.438.07.804.582 1.09.511.296.587-.145 1.092-.362.522-.22 1.4-.876 2.057-1.02.653-.142.95 0 1.169.365.22.365-.076.872-.654 1.093-.588.22-.66 1.241-.805 1.607-.152.362-1.321 1.386-1.394 2.265-.072.873.294 2.917.654 3.642.373.73 1.175 1.827 1.908 2.12.733.286 1.169.807 2.195 1.17 1.027.361 1.245.872 1.611.944.367.076.657.362.657.362l-.076 1.166s-.29.438-.511.734c-.218.293-.218.948-.29 1.462-.08.514-.08 1.024.355 1.459.446.438 1.027 1.896 1.397 2.338.37.43.799.58 1.39 1.31.325.4.37.807.508 1.6.156.81-.287 1.759-.138 2.197.138.438.577 1.234.95 1.824.274.43.73 1.669 1.024 2.041.29.362 1.172 1.17 1.466 1.17.293 0 .065-.146-.222-.515-.294-.358-.584-.655-.294-1.093.294-.438 0-.803 0-1.027 0-.21 0-.438.076-.797.066-.369-.217-.876.287-1.165.522-.297 1.024-.514 1.024-.514s-.363-.728-.139-.728c.215 0 .73-.22 1.238-1.02.519-.807.073-1.535.66-1.756.581-.217.951 0 1.169-.73.221-.725 0-2.48.584-2.918.591-.434.81-1.462.221-1.824-.584-.366-1.244-.655-1.68-.876-.435-.217-1.175-.438-1.175-.438s0-.507-.44-.948c-.438-.435-1.53-.655-1.53-.655s-.875-1.242-1.39-1.242c-.516 0-1.249-.145-1.684-.29-.44-.148-.875.066-1.027.366-.142.286-.657.583-.657.583s-.439-.366-.874-.297c-.44.08-.588-.286-.588-.944 0-.663.076-.876-.367-.876-.439 0-.439-.29-.363-.731.073-.438-.145-.731-.446-.51-.286.217-.943 1.02-1.313.654-.37-.365-.585-1.234-.37-1.9.225-.658.74-.872 1.545-.94.802-.077 1.68-.366 1.753 0 .07.365.515.578.736.578.215 0 .436-.579.505-1.093.073-.507.95-1.02 1.459-1.458.519-.435 1.836-1.314 2.126-1.749.297-.444 1.677-.372 3.51-.806.504-.121.514-2.19.877-2.335.37-.145-.878-.659-.878-.659s-.588-.727.156-.727c.722 0 .943.145 1.531 0 .584-.152.882-.728.44-1.097-.44-.365-.73-.727-.73-1.017 0-.176-.177-.169-.367-.165-.131.003-.28.006-.366-.06-.18-.116-.311-.675-.67-.675-.084 0-.177.031-.284.097"/>
        <path id="prefix__k" d="M1.413 1.303c-.505.366-1.02.51-.363.66 0 0 .66.137.805.513.146.355-.442.355-.656.941-.222.583.511.662.577 1.02.08.366.08.811.377 1.097.287.29 1.027-.51 1.459-1.02.442-.514 1.752-.876 2.122-1.238.363-.362 1.608-1.024 1.83-1.462.22-.438 0-.51-.367-.807C6.83.717 6.319.64 5.952.793c-.366.145-1.314.362-1.977.362-.66 0-.948-.072-1.169-.438-.052-.08-.12-.114-.207-.114-.294 0-.785.414-1.186.7"/>
        <path id="prefix__n" d="M15.671.78c-.518.289-1.244 1.168-2.122 1.386-.882.22-1.394.51-1.981.879-.585.358-.875.22-1.532-.148-.664-.366-1.314-.876-1.832-.876-.508 0-1.096 0-1.829.8-.73.807-1.023 1.538-.73 2.19.284.658-.148.879-.515 1.168-.366.297-1.023 0-1.39-.22-.366-.21-.141.879-.293 1.534-.142.655-.95 1.39-1.096 2.045-.149.652.878.872.515 1.386-.37.507-1.393 1.238-1.76 2.045-.366.8-.587 1.748-.874 2.845-.301 1.09.805 2.48 1.531 2.917.733.435 1.397.359 2.054.359.653 0 .947-.142 1.535-.142.577 0 .881.952 1.023 1.755.149.797.733 1.245.878 1.673.142.441.073 1.1-.145 1.907-.218.8-.363.941-.363 1.596 0 .659.733 1.176.733 2.114 0 .952.287 1.831.871 2.12.588.297.95.95 1.248.732.287-.217.802-.731 1.248-1.02.436-.294.871-.8 1.02-1.097.142-.29.508-1.462.58-1.825.08-.365.886-.655 1.173-1.679.29-1.017-.363-1.969-.512-2.407-.145-.441.225-.73.584-1.017.367-.3 1.542-2.117 2.126-2.71.581-.576.944-1.89.944-1.89s0-.445.221-.945c.218-.517.516-.372.737-.586.218-.22.58-1.683.875-2.048.297-.362.508.148 1.095.224.588.069.516.214 1.103.507.578.29.29.658.363 1.241.076.586.294.804.581 1.097.3.293.443.651.657 1.234.228.59.664.228.958-.21.293-.442.511-.88.656-1.459.15-.586.29-.73.516-.88.217-.144.805.15 1.39.363.584.22.514.369.953.88.436.51 1.238 2.91 1.75 3.354.515.445.59-.444.59-1.024 0-.582.948-.876.948-1.31 0-.438-.145-1.61-.145-1.969 0-.369 0-1.028.145-1.39.145-.365.657-.148.733-.434.073-.3.871-.81.654-1.242-.215-.44-1.31-1.83-1.532-2.337-.21-.51.878-.58.657-.656-.214-.072.221-.876.588-1.313.36-.438-1.024-1.756-1.611-1.97-.581-.22-.512-.875.065-1.096.591-.22 1.324.069 1.687.517.363.431 1.03.58 1.32.431.288-.145-.518-.658-1.022-1.169-.519-.51-.222-.796-.222-.796-.076-1.317-6.371-2.773-6.948-2.92-.592-.15-1.978.289-2.486.289-.515 0-1.604 0-2.275-.142-.66-.148-1.535-.586-2.12-.882-.196-.093-.418-.135-.656-.135-.47 0-.975.162-1.314.355"/>
        <path id="prefix__q" d="M3.886 3.693c-.44.517-1.023.37-.95 1.02.072.66 1.244.439 1.755.66.515.22.726.582 1.1.293.366-.294.366-.587.366-.587s.218-1.1-.076-1.241c-.29-.145-.435-.29-.95-.517-.18-.07-.322-.107-.467-.107-.26 0-.488.141-.778.48"/>
        <path id="prefix__t" d="M8.414.448c-.66.149 0 .735.363 1.097.363.369.667 1.165.667 1.607 0 .441-.304 1.39-.885 1.458-.584.073-.58-.658-1.023-.951-.439-.287-.885.293-1.76.662-.874.362-1.752 1.458-2.63 1.893-.875.438-1.539.952-1.978 1.603-.436.659-.218.955-.436 1.538-.217.583.585.655.948.438.363-.224 1.023-.655 1.614-.876.581-.22.94.073 1.245.438.29.366.584 1.531 1.023 1.673.44.151 1.245-.504 1.535-.797.29-.293.95-.662 1.317-.952.363-.29 1.611-1.31 1.611-1.676 0-.365-.08-3.134 0-3.575.073-.435 0-1.166-.221-1.894-.21-.7-.816-1.693-1.314-1.693-.027 0-.052.004-.076.007"/>
        <linearGradient id="prefix__f" x1="100%" x2="8.395%" y1="49.669%" y2="50.674%">
            <stop offset="0%" stop-color="#B1D9F4"/>
            <stop offset="42.031%" stop-color="#87ACDB"/>
            <stop offset="100%" stop-color="#6495CF"/>
        </linearGradient>
        <linearGradient id="prefix__i" x1="64.996%" x2="50%" y1="2.414%" y2="100%">
            <stop offset="0%" stop-color="#B1D9F4"/>
            <stop offset="42.031%" stop-color="#87ACDB"/>
            <stop offset="100%" stop-color="#6495CF"/>
        </linearGradient>
        <linearGradient id="prefix__l" x1="94.161%" x2="0%" y1="27.75%" y2="76.089%">
            <stop offset="0%" stop-color="#B1D9F4"/>
            <stop offset="42.031%" stop-color="#87ACDB"/>
            <stop offset="100%" stop-color="#6495CF"/>
        </linearGradient>
        <linearGradient id="prefix__o" x1="74.904%" x2="6.982%" y1="7.908%" y2="91.45%">
            <stop offset="0%" stop-color="#B1D9F4"/>
            <stop offset="42.031%" stop-color="#87ACDB"/>
            <stop offset="100%" stop-color="#6495CF"/>
        </linearGradient>
        <linearGradient id="prefix__r" x1="100%" x2="0%" y1=".256%" y2="99.744%">
            <stop offset="0%" stop-color="#B1D9F4"/>
            <stop offset="42.031%" stop-color="#87ACDB"/>
            <stop offset="100%" stop-color="#6495CF"/>
        </linearGradient>
        <linearGradient id="prefix__u" x1="81.043%" x2="11.104%" y1="0%" y2="100%">
            <stop offset="0%" stop-color="#B1D9F4"/>
            <stop offset="42.031%" stop-color="#87ACDB"/>
            <stop offset="100%" stop-color="#6495CF"/>
        </linearGradient>
    </defs>
    <g fill="none" fill-rule="evenodd">
        <g transform="translate(0 -6) translate(0 .345)">
            <g transform="translate(0 51.724)">
                <mask id="prefix__b" fill="#fff">
                    <use xlink:href="#prefix__a"/>
                </mask>
                <path fill="#000" d="M1.077 3.083c.232.11.446.149.646.149.62 0 .823-.462.823-.838 0-.728-.4-1.107-1.075-1.107-.149 0-.287.01-.394.024v1.772zm-1.079 2.27h.118c.29 0 .415-.104.415-.51V1.796c0-.407-.125-.51-.415-.51h-.118v-.193c.228.007.526.02.81.02.338 0 .68-.02 1.02-.02 1.005 0 1.32.69 1.32 1.18 0 .561-.343 1.196-1.49 1.196-.197 0-.384-.021-.581-.035V4.69c0 .593.107.662.36.662h.18v.187c-.274-.004-.54-.018-.81-.018-.283 0-.58.014-.809.018v-.187z" mask="url(#prefix__b)"/>
            </g>
            <path fill="#000" d="M5.091 55.811l-.646.269c-.132.055-.418.176-.418.445 0 .169.162.458.504.458.2 0 .377-.117.581-.265-.01-.072-.02-.148-.02-.304v-.603zm0-.445c0-.338-.152-.714-.525-.714-.166 0-.47.17-.47.349 0 .1.038.186.083.282l-.401.19c-.06-.13-.108-.224-.108-.33 0-.2.142-.335.415-.5.27-.163.47-.229.591-.229.775 0 .892.556.892.828v1.269c0 .328.056.397.16.397.058 0 .183-.042.28-.087v.17l-.609.286c-.07.034-.093.034-.118.034-.086 0-.12-.162-.155-.359-.418.3-.605.359-.864.359-.457 0-.706-.338-.706-.676 0-.386.232-.53.654-.693l.881-.345v-.23zM6.49 57.077h.11c.28 0 .335-.072.335-.438v-1.358c0-.207-.062-.3-.207-.3-.052 0-.156.024-.239.069v-.19c.263-.11.564-.255.816-.448h.066v.648h.013c.204-.42.474-.648.792-.648.176 0 .294.038.377.062v.586h-.1c-.045-.172-.228-.224-.398-.224-.252 0-.646.19-.646.796v1.118c0 .276.03.327.273.327h.12v.186c-.141-.003-.418-.017-.622-.017-.217 0-.494.014-.69.017v-.186zM8.88 54.676c.387-.238.753-.59 1.016-1.09l.086-.02v.907h.996l-.094.269h-.902v1.41c0 .338.107.755.546.755.204 0 .394-.096.491-.158l.094.103-.512.435c-.045.017-.093.02-.152.02s-.463-.03-.695-.283c-.225-.244-.249-.558-.249-.837v-1.445H8.88v-.066zM11.435 57.077h.11c.284 0 .336-.072.336-.438v-1.058c0-.562-.076-.655-.221-.655-.056 0-.139.024-.225.068v-.186c.263-.093.563-.23.82-.396h.061v.551c.232-.248.543-.551.951-.551.214 0 .574.114.764.476.118.217.138.493.138.755v1.13c0 .239.045.304.353.304h.087v.186c-.146-.003-.43-.017-.64-.017-.225 0-.515.014-.681.017v-.186h.114c.263 0 .287-.13.287-.517v-.98c0-.337-.024-.496-.197-.665-.087-.083-.225-.152-.436-.152-.262 0-.553.238-.698.373v1.614c0 .276.031.327.273.327h.118v.186c-.146-.003-.415-.017-.626-.017-.211 0-.488.014-.688.017v-.186zM17.286 55.417c0-.676-.57-.79-.76-.79-.578 0-.8.563-.8.79h1.56zm.456 1.562c-.249.155-.574.328-1.054.328-1.003 0-1.46-.804-1.46-1.473 0-.73.633-1.424 1.349-1.424.774 0 1.21.483 1.21 1.159v.062h-2.06c.027.79.366 1.417 1.14 1.417.464 0 .726-.151.875-.262v.193zM18.353 57.077h.11c.28 0 .336-.072.336-.438v-1.358c0-.207-.06-.3-.204-.3-.056 0-.16.024-.242.069v-.19c.262-.11.563-.255.819-.448h.062v.648h.014c.204-.42.47-.648.792-.648.176 0 .297.038.377.062v.586h-.097c-.049-.172-.232-.224-.401-.224-.253 0-.647.19-.647.796v1.118c0 .276.035.327.273.327h.121v.186c-.145-.003-.418-.017-.625-.017-.215 0-.491.014-.688.017v-.186zM22.752 55.188h-.128c-.07-.248-.17-.562-.674-.562-.39 0-.533.238-.533.417 0 .256.242.39.488.504l.342.155c.197.1.584.276.584.748 0 .462-.335.856-1.013.856-.36 0-.65-.083-.874-.16.01-.12.02-.234.02-.368 0-.135-.01-.248-.02-.369h.176c.048.441.304.686.695.686.29 0 .595-.114.595-.465 0-.293-.239-.404-.45-.51l-.463-.242c-.166-.076-.501-.269-.501-.683 0-.324.262-.786.964-.786.332 0 .602.086.768.131l.024.648zM23.397 57.077h.1c.207 0 .397-.08.397-.517v-3.338c0-.193-.08-.314-.231-.314-.107 0-.215.052-.266.07v-.211c.29-.114.57-.241.933-.452h.059c-.018.145-.024.583-.024 1.186v1.38c.283-.21.59-.47.954-.47.363 0 .563.152.712.36.166.217.187.451.187.851v.993c0 .397.065.455.352.462h.104v.186c-.183-.003-.501-.017-.75-.017-.208 0-.47.014-.626.017v-.186h.114c.263-.014.332-.086.332-.545v-.958c0-.193 0-.386-.097-.548-.093-.145-.256-.263-.508-.263-.277 0-.55.207-.774.352v1.562c0 .331.065.393.338.4h.087v.186c-.152-.003-.432-.017-.688-.017-.232 0-.536.014-.705.017v-.186zM27.934 53.168c.18 0 .318.134.318.31 0 .172-.138.31-.318.31-.176 0-.315-.138-.315-.31 0-.176.139-.31.315-.31zm-.733 3.913h.128c.225 0 .37-.082.37-.52v-1.259c0-.255-.08-.32-.197-.32-.09 0-.2.037-.27.065v-.186c.27-.097.702-.328.882-.452h.059v2.152c0 .438.145.52.37.52h.124v.18c-.235-.004-.532-.014-.733-.014-.2 0-.494.01-.733.014v-.18zM30.084 56.784c.215.173.395.314.789.314.612 0 .95-.476.95-1.082 0-.897-.518-1.225-.95-1.225-.34 0-.56.166-.789.349v1.644zm-.94 1.649h.083c.287 0 .384-.11.384-.39v-2.741c0-.255-.08-.318-.197-.318-.09 0-.2.035-.27.063v-.187c.27-.1.702-.32.871-.448h.07v.466c.262-.207.611-.466 1.047-.466.77 0 1.165.69 1.165 1.352 0 .724-.477 1.545-1.532 1.545-.28 0-.57-.09-.68-.152v.886c0 .331.09.39.342.39h.107v.186c-.2-.007-.432-.02-.65-.02-.249 0-.526.013-.74.02v-.186zM35.648 53.168c.18 0 .318.134.318.31 0 .172-.138.31-.318.31-.176 0-.314-.138-.314-.31 0-.176.138-.31.314-.31zm-.733 3.913h.128c.225 0 .37-.082.37-.52v-1.259c0-.255-.08-.32-.197-.32-.09 0-.2.037-.266.065v-.186c.266-.097.698-.328.878-.452h.059v2.152c0 .438.145.52.373.52h.125v.18c-.239-.004-.536-.014-.737-.014-.197 0-.494.01-.733.014v-.18zM36.884 57.077h.11c.28 0 .34-.072.34-.438v-1.058c0-.562-.08-.655-.225-.655-.052 0-.139.024-.225.068v-.186c.263-.093.563-.23.82-.396h.065v.551c.228-.248.54-.551.947-.551.218 0 .574.114.764.476.118.217.139.493.139.755v1.13c0 .239.044.304.352.304h.087v.186c-.146-.003-.426-.017-.643-.017-.222 0-.512.014-.678.017v-.186h.114c.263 0 .287-.13.287-.517v-.98c0-.337-.024-.496-.197-.665-.087-.083-.225-.152-.436-.152-.262 0-.553.238-.698.373v1.614c0 .276.031.327.273.327h.121v.186c-.145-.003-.418-.017-.63-.017-.21 0-.487.014-.687.017v-.186zM42.62 57.077h.114c.287 0 .415-.103.415-.51v-3.045c0-.407-.128-.514-.415-.514h-.114v-.186c.218.004.522.017.802.017.277 0 .54-.013.802-.017v.186h-.117c-.284 0-.408.107-.408.514v3.045c0 .407.124.51.408.51h.117v.186c-.263-.003-.525-.017-.802-.017-.28 0-.584.014-.802.017v-.186zM44.825 57.077h.11c.28 0 .336-.072.336-.438v-1.058c0-.562-.08-.655-.225-.655-.049 0-.135.024-.221.068v-.186c.262-.093.563-.23.819-.396h.059v.551c.231-.248.546-.551.954-.551.214 0 .574.114.764.476.117.217.138.493.138.755v1.13c0 .239.042.304.353.304h.086v.186c-.148-.003-.428-.017-.643-.017-.221 0-.511.014-.677.017v-.186h.11c.266 0 .29-.13.29-.517v-.98c0-.337-.024-.496-.196-.665-.087-.083-.225-.152-.436-.152-.263 0-.553.238-.698.373v1.614c0 .276.027.327.273.327h.12v.186c-.148-.003-.418-.017-.628-.017-.211 0-.488.014-.688.017v-.186zM48.383 54.676c.384-.238.747-.59 1.013-1.09l.083-.02v.907h.996l-.087.269h-.909v1.41c0 .338.11.755.546.755.211 0 .394-.096.491-.158l.1.103-.511.435c-.049.017-.1.02-.152.02-.063 0-.467-.03-.702-.283-.221-.244-.246-.558-.246-.837v-1.445h-.622v-.066zM53.093 55.417c0-.676-.567-.79-.76-.79-.578 0-.796.563-.796.79h1.556zm.456 1.562c-.249.155-.574.328-1.054.328-1.003 0-1.456-.804-1.456-1.473 0-.73.63-1.424 1.345-1.424.774 0 1.21.483 1.21 1.159v.062h-2.057c.024.79.363 1.417 1.137 1.417.464 0 .726-.151.875-.262v.193zM54.16 57.077h.11c.28 0 .336-.072.336-.438v-1.358c0-.207-.06-.3-.204-.3-.056 0-.16.024-.242.069v-.19c.262-.11.563-.255.819-.448h.062v.648h.014c.2-.42.47-.648.792-.648.176 0 .297.038.377.062v.586h-.097c-.049-.172-.232-.224-.401-.224-.253 0-.647.19-.647.796v1.118c0 .276.031.327.273.327h.121v.186c-.145-.003-.418-.017-.625-.017-.215 0-.491.014-.688.017v-.186zM56.688 57.077h.115c.276 0 .331-.072.331-.438v-1.058c0-.562-.079-.655-.224-.655-.052 0-.139.024-.221.068v-.186c.266-.093.563-.23.815-.396h.066v.551c.228-.248.546-.551.95-.551.215 0 .571.114.768.476.118.217.139.493.139.755v1.13c0 .239.038.304.349.304h.09v.186c-.149-.003-.43-.017-.647-.017-.221 0-.508.014-.677.017v-.186h.11c.263 0 .29-.13.29-.517v-.98c0-.337-.027-.496-.2-.665-.086-.083-.221-.152-.432-.152-.263 0-.557.238-.702.373v1.614c0 .276.031.327.277.327h.117v.186c-.142-.003-.418-.017-.622-.017-.218 0-.491.014-.692.017v-.186zM62.097 55.811l-.65.269c-.128.055-.418.176-.418.445 0 .169.166.458.504.458.204 0 .38-.117.581-.265-.01-.072-.017-.148-.017-.304v-.603zm0-.445c0-.338-.152-.714-.53-.714-.168 0-.47.17-.47.349 0 .1.039.186.087.282l-.4.19c-.063-.13-.111-.224-.111-.33 0-.2.141-.335.414-.5.273-.163.47-.229.592-.229.774 0 .891.556.891.828v1.269c0 .328.06.397.156.397.066 0 .19-.042.284-.087v.17l-.609.286c-.066.034-.093.034-.117.034-.083 0-.121-.162-.156-.359-.418.3-.602.359-.864.359-.457 0-.706-.338-.706-.676 0-.386.236-.53.657-.693l.882-.345v-.23zM63.353 54.676c.387-.238.75-.59 1.016-1.09l.087-.02v.907h.995l-.093.269h-.902v1.41c0 .338.107.755.546.755.204 0 .39-.096.49-.158l.098.103-.516.435c-.041.017-.096.02-.148.02-.062 0-.467-.03-.702-.283-.221-.244-.245-.558-.245-.837v-1.445h-.626v-.066zM66.628 53.168c.18 0 .318.134.318.31 0 .172-.138.31-.318.31-.177 0-.315-.138-.315-.31 0-.176.138-.31.315-.31zm-.733 3.913h.128c.225 0 .37-.082.37-.52v-1.259c0-.255-.08-.32-.197-.32-.09 0-.2.037-.27.065v-.186c.27-.097.702-.328.882-.452h.058v2.152c0 .438.146.52.37.52h.128v.18c-.238-.004-.536-.014-.736-.014-.2 0-.495.01-.733.014v-.18zM69.261 54.626c-.387 0-.77.365-.77 1.076 0 .6.317 1.396.991 1.396.595 0 .82-.451.82-1.045 0-.717-.353-1.427-1.04-1.427m.103-.214c.902 0 1.459.686 1.459 1.524 0 .738-.591 1.37-1.432 1.37-.701 0-1.427-.55-1.427-1.487 0-.669.494-1.407 1.4-1.407M71.439 57.077h.11c.28 0 .336-.072.336-.438v-1.058c0-.562-.08-.655-.225-.655-.052 0-.135.024-.221.068v-.186c.262-.093.563-.23.82-.396h.058v.551c.231-.248.546-.551.954-.551.21 0 .574.114.764.476.118.217.138.493.138.755v1.13c0 .239.038.304.35.304h.09v.186c-.15-.003-.43-.017-.644-.017-.22 0-.511.014-.677.017v-.186h.11c.263 0 .29-.13.29-.517v-.98c0-.337-.027-.496-.2-.665-.083-.083-.221-.152-.435-.152-.263 0-.553.238-.702.373v1.614c0 .276.034.327.276.327h.121v.186c-.145-.003-.418-.017-.625-.017-.215 0-.491.014-.688.017v-.186zM76.844 55.811l-.647.269c-.128.055-.418.176-.418.445 0 .169.162.458.501.458.204 0 .38-.117.58-.265-.01-.072-.016-.148-.016-.304v-.603zm0-.445c0-.338-.152-.714-.522-.714-.17 0-.477.17-.477.349 0 .1.041.186.086.282l-.401.19c-.059-.13-.11-.224-.11-.33 0-.2.141-.335.418-.5.27-.163.47-.229.587-.229.778 0 .896.556.896.828v1.269c0 .328.055.397.159.397.059 0 .183-.042.28-.087v.17l-.612.286c-.066.034-.09.034-.114.034-.087 0-.121-.162-.156-.359-.418.3-.605.359-.864.359-.46 0-.705-.338-.705-.676 0-.386.231-.53.653-.693l.882-.345v-.23zM78.228 52.767c.29-.114.57-.241.926-.448h.063c-.014.141-.021.579-.021 1.179v3.062c0 .441.145.517.37.517h.128v.186c-.242-.006-.53-.017-.733-.017-.2 0-.495.01-.733.017v-.186h.128c.225 0 .366-.076.366-.517v-3.341c0-.19-.076-.31-.231-.31-.108 0-.211.048-.263.068v-.21zM82.202 57.077h.11c.308 0 .415-.158.432-.917.018-.869.066-1.738.066-2.638 0-.417-.128-.514-.46-.514h-.107v-.186c.187.004.339.017.536.017.187 0 .422-.013.501-.017l1.718 3.666 1.518-3.666c.204.004.394.017.577.017.19 0 .38-.013.574-.017v.186h-.076c-.287 0-.487.07-.487.514 0 .317.03 1.883.041 2.824.01.628.07.731.44.731h.12v.186c-.204-.003-.466-.017-.805-.017-.315 0-.595.014-.806.017v-.186h.09c.35 0 .422-.11.422-.662v-3.141h-.01l-1.68 4.048h-.139l-1.722-3.69h-.01v2.559c0 .683.062.886.401.886h.093v.186c-.159-.003-.387-.017-.667-.017s-.48.014-.67.017v-.186zM89.98 55.811l-.646.269c-.128.055-.419.176-.419.445 0 .169.163.458.502.458.207 0 .38-.117.58-.265-.01-.072-.017-.148-.017-.304v-.603zm0-.445c0-.338-.152-.714-.522-.714-.173 0-.477.17-.477.349 0 .1.045.186.086.282l-.4.19c-.06-.13-.111-.224-.111-.33 0-.2.141-.335.418-.5.27-.163.47-.229.588-.229.778 0 .895.556.895.828v1.269c0 .328.055.397.16.397.058 0 .182-.042.28-.087v.17l-.61.286c-.068.034-.093.034-.117.034-.086 0-.12-.162-.159-.359-.418.3-.601.359-.864.359-.456 0-.702-.338-.702-.676 0-.386.232-.53.654-.693l.881-.345v-.23zM91.378 57.077h.11c.28 0 .336-.072.336-.438v-1.058c0-.562-.08-.655-.225-.655-.048 0-.135.024-.221.068v-.186c.263-.093.563-.23.82-.396h.061v.551c.229-.248.543-.551.951-.551.218 0 .574.114.764.476.118.217.138.493.138.755v1.13c0 .239.042.304.353.304h.086v.186c-.148-.003-.428-.017-.643-.017-.22 0-.511.014-.677.017v-.186h.11c.267 0 .29-.13.29-.517v-.98c0-.337-.023-.496-.2-.665-.083-.083-.22-.152-.432-.152-.263 0-.553.238-.698.373v1.614c0 .276.028.327.273.327h.118v.186c-.146-.003-.415-.017-.626-.017-.211 0-.488.014-.688.017v-.186zM96.787 55.811l-.65.269c-.128.055-.419.176-.419.445 0 .169.163.458.505.458.204 0 .377-.117.58-.265-.01-.072-.016-.148-.016-.304v-.603zm0-.445c0-.338-.153-.714-.526-.714-.17 0-.474.17-.474.349 0 .1.042.186.083.282l-.397.19c-.062-.13-.11-.224-.11-.33 0-.2.14-.335.417-.5.27-.163.47-.229.588-.229.775 0 .892.556.892.828v1.269c0 .328.055.397.16.397.061 0 .182-.042.28-.087v.17l-.606.286c-.072.034-.093.034-.117.034-.09 0-.125-.162-.16-.359-.421.3-.6.359-.864.359-.453 0-.705-.338-.705-.676 0-.386.235-.53.657-.693l.882-.345v-.23zM99.511 56.097c.394 0 .564-.296.564-.655 0-.596-.294-.841-.612-.841-.301 0-.557.29-.557.679 0 .38.204.817.605.817zm.1 2.307c.477 0 .93-.162.93-.572 0-.431-.477-.545-1.016-.545-.239 0-.895 0-.895.545 0 .286.259.572.981.572zm1.255-3.617h-.539c.097.12.228.269.228.58 0 .63-.622.916-1.002.916-.115 0-.225-.01-.26-.017-.114.07-.38.238-.38.359 0 .172.308.19.66.207.806.045 1.314.176 1.314.865 0 .635-.664.92-1.32.92-.457 0-1.28-.137-1.28-.782 0-.393.311-.596.626-.652v-.01c-.1-.02-.429-.096-.429-.39 0-.193.152-.327.526-.558l.052-.035c-.388-.158-.63-.472-.63-.817 0-.562.467-.962 1.055-.962.242 0 .4.052.54.114h1.02l-.18.262zM59.676 6.683c-23.771 0-43.11 9.818-43.11 21.88 0 12.058 19.339 21.872 43.11 21.872 23.775 0 43.114-9.814 43.114-21.872 0-12.062-19.34-21.88-43.114-21.88m0 43.928c-23.868 0-43.287-9.89-43.287-22.048C16.39 16.397 35.808 6.5 59.676 6.5c23.875 0 43.297 9.896 43.297 22.062 0 12.158-19.422 22.048-43.297 22.048"/>
            <path fill="#000" d="M56.783 50.615c-8.152-.648-16.58-3.376-23.115-7.472-6.942-4.355-10.772-9.624-10.772-14.835 0-9.31 10.51-17.62 26.772-21.172l.038.18C33.53 10.845 23.08 19.083 23.08 28.307c0 5.145 3.8 10.359 10.686 14.68 6.513 4.09 14.904 6.796 23.032 7.444l-.014.183z"/>
            <path fill="#000" d="M54.116 50.433c-6.462-1.913-12.377-5-16.65-8.693-4.646-4.013-7.1-8.451-7.1-12.844 0-9.794 10.512-18.538 26.771-22.27l.045.176c-16.18 3.718-26.63 12.387-26.63 22.094 0 4.34 2.434 8.73 7.028 12.7 4.256 3.679 10.15 6.755 16.591 8.662l-.055.175zM65.837 50.433l-.055-.175c6.44-1.907 12.335-4.983 16.588-8.662 4.601-3.97 7.035-8.36 7.035-12.7 0-9.707-10.451-18.376-26.63-22.094l.04-.175c16.267 3.73 26.773 12.472 26.773 22.269 0 4.393-2.455 8.83-7.097 12.844-4.273 3.693-10.189 6.78-16.654 8.693"/>
            <path fill="#000" d="M62.512 50.615l-.014-.183c8.125-.648 16.522-3.355 23.028-7.444 6.89-4.321 10.686-9.535 10.686-14.68 0-9.224-10.45-17.458-26.627-20.993l.038-.18c16.263 3.553 26.773 11.863 26.773 21.173 0 5.21-3.828 10.48-10.766 14.835-6.54 4.096-14.963 6.824-23.118 7.472"/>
            <mask id="prefix__d" fill="#fff">
                <use xlink:href="#prefix__c"/>
            </mask>
            <path fill="#000" d="M16.48 28.29L103.03 28.29 103.03 28.103 16.48 28.103zM20.829 19.069L98.563 19.069 98.563 18.886 20.829 18.886zM19.108 36.259L100.285 36.259 100.285 36.072 19.108 36.072zM28.67 43.869L90.726 43.869 90.726 43.683 28.67 43.683z" mask="url(#prefix__d)"/>
            <path fill="#000" d="M59.397 50.379L59.584 50.379 59.584 6.517 59.397 6.517zM65.176 49.948l-.094-.158c.077-.049 7.81-4.849 9.172-21.676 1.013-12.428-10.53-20.997-10.644-21.08l.107-.148c.117.086 11.74 8.714 10.727 21.242-.404 4.882-1.614 11.844-5.147 17.317-2.123 3.283-4.104 4.49-4.121 4.503" mask="url(#prefix__d)"/>
            <path fill="#000" d="M66.932 49.44l-.083-.162c.03-.02 3.612-1.883 7.177-5.414 3.28-3.262 7.218-8.648 7.329-15.817.11-7.159-4.709-12.486-8.77-15.693-4.416-3.486-8.91-5.29-8.951-5.307l.062-.173c.052.021 4.57 1.832 8.999 5.332 4.096 3.234 8.957 8.606 8.84 15.844-.114 7.231-4.076 12.662-7.385 15.945-3.581 3.555-7.18 5.424-7.218 5.445M57.451 50.221c-.048-.062-4.891-5.765-5.216-22.169-.29-14.541 5.815-21.376 5.877-21.441l.135.12c-.063.07-6.123 6.859-5.833 21.318.332 16.327 5.127 21.993 5.176 22.051l-.139.121z" mask="url(#prefix__d)"/>
            <path fill="#000" d="M53.427 49.713c-.086-.1-8.923-10.297-8.657-21.597.194-8.017 3.454-13.362 6.161-16.438 2.935-3.33 5.863-4.786 5.894-4.8l.08.166c-.031.01-2.932 1.455-5.843 4.765-2.679 3.049-5.922 8.355-6.105 16.314-.27 11.231 8.522 21.373 8.608 21.466l-.138.124z" mask="url(#prefix__d)"/>
            <path fill="#000" d="M51.327 49.07c-.131-.077-13.434-8.414-13.434-20.877 0-3.41 1.358-8.696 7.827-14.524 3.858-3.479 7.768-5.53 7.806-5.551l.086.162c-.155.079-15.533 8.213-15.533 19.913 0 12.356 13.21 20.638 13.342 20.721l-.094.155zM103.563 55.417c0-.676-.57-.79-.761-.79-.577 0-.799.563-.799.79h1.56zm.456 1.562c-.246.155-.574.328-1.055.328-1.002 0-1.458-.804-1.458-1.473 0-.73.632-1.424 1.348-1.424.778 0 1.213.483 1.213 1.159v.062h-2.064c.028.79.367 1.417 1.141 1.417.463 0 .726-.151.875-.262v.193zM104.629 57.077h.11c.284 0 .336-.072.336-.438v-1.058c0-.562-.076-.655-.221-.655-.056 0-.139.024-.225.068v-.186c.263-.093.564-.23.82-.396h.062v.496c.262-.224.57-.496.957-.496s.73.151.896.538c.238-.235.612-.538 1.075-.538.318 0 .556.107.695.29.145.189.193.389.193.768v1.224c0 .332.083.383.34.383h.103v.186c-.228-.003-.443-.017-.654-.017-.22 0-.439.014-.694.017v-.186h.062c.325 0 .366-.117.366-.486v-1.165c0-.456-.231-.663-.646-.663-.315 0-.53.194-.768.36v1.627c0 .272.087.327.315.327h.131v.186c-.214-.003-.422-.017-.629-.017-.228 0-.46.014-.705.017v-.186h.059c.273 0 .356-.065.356-.327v-1.314c0-.424-.26-.673-.65-.673-.315 0-.526.194-.76.36v1.582c0 .317.124.372.324.372h.121v.186c-.235-.003-.467-.017-.705-.017-.221 0-.467.014-.664.017v-.186zM112.441 55.417c0-.676-.57-.79-.764-.79-.577 0-.795.563-.795.79h1.56zm.457 1.562c-.25.155-.574.328-1.055.328-1.006 0-1.462-.804-1.462-1.473 0-.73.636-1.424 1.352-1.424.774 0 1.21.483 1.21 1.159v.062h-2.06c.024.79.362 1.417 1.14 1.417.46 0 .726-.151.875-.262v.193zM113.508 57.077h.111c.277 0 .335-.072.335-.438v-1.058c0-.562-.083-.655-.228-.655-.048 0-.135.024-.218.068v-.186c.263-.093.564-.23.813-.396h.065v.551c.229-.248.547-.551.951-.551.215 0 .574.114.768.476.117.217.138.493.138.755v1.13c0 .239.038.304.35.304h.089v.186c-.149-.003-.429-.017-.646-.017-.218 0-.509.014-.675.017v-.186h.111c.263 0 .287-.13.287-.517v-.98c0-.337-.024-.496-.2-.665-.084-.083-.222-.152-.433-.152-.262 0-.553.238-.698.373v1.614c0 .276.028.327.273.327h.121v.186c-.145-.003-.418-.017-.626-.017-.214 0-.49.014-.688.017v-.186zM117.063 54.676c.388-.238.747-.59 1.013-1.09l.087-.02v.907h.995l-.09.269h-.905v1.41c0 .338.107.755.546.755.207 0 .39-.096.494-.158l.094.103-.512.435c-.045.017-.1.02-.152.02-.059 0-.463-.03-.702-.283-.221-.244-.245-.558-.245-.837v-1.445h-.623v-.066z" mask="url(#prefix__d)"/>
            <path fill="#88ADDB" d="M71.128 32.502s.149.658.149 1.093c0 .438-.509 1.386-.802 1.755-.298.362-1.248 1.166-1.321.655-.076-.514.584-1.314 1.023-1.972.443-.655.443-1.604.95-1.531" mask="url(#prefix__d)"/>
            <path fill="#070707" d="M3.723 51.555L115.514 51.555 115.514 49.19 3.723 49.19z" mask="url(#prefix__d)"/>
            <path fill="#F7A61D" d="M3.723 51.107L115.514 51.107 115.514 48.741 3.723 48.741z" mask="url(#prefix__d)"/>
            <path fill="#243E76" d="M11.86 29.542c-.494 0-.791.027-1.172.103l-.069.017v8.421l.07.01c.525.118 1.258.197 1.787.197 2.627 0 3.958-1.276 3.958-3.793 0-2.286-1.192-4.955-4.574-4.955zM5.188 47.176c1.642-.048 2.233-.645 2.233-2.258V31.797c0-1.61-.59-2.21-2.233-2.255v-.618c.858.049 2.095.076 3.267.076.712 0 1.418-.02 2.133-.038.709-.02 1.421-.041 2.13-.041 4.594 0 7.021 1.838 7.021 5.31 0 3.249-2.316 4.893-6.89 4.893-.715 0-1.69-.027-2.13-.082l-.1-.01v5.886c0 1.613.585 2.21 2.223 2.258v.617l-.906-.02c-1.452-.042-2.209-.055-2.92-.055-.71 0-1.46.013-2.908.055l-.92.02v-.617z" mask="url(#prefix__d)"/>
            <path fill="#000" d="M63.687 29.1c-2.143.056-3.06.073-3.92.073-.861 0-1.77-.017-3.917-.073v.8c1.746.024 2.23.673 2.23 2.166V45.19c0 1.5-.484 2.138-2.23 2.169v.797c2.147-.049 3.056-.076 3.917-.076.86 0 1.777.027 3.92.076v-.797c-1.742-.031-2.23-.669-2.23-2.169V32.066c0-1.493.488-2.142 2.23-2.166v-.8zm-7.657.187l.463.01c1.721.041 2.506.062 3.274.062.77 0 1.555-.02 3.277-.062l.46-.01v.437c-1.618.066-2.223.718-2.223 2.342V45.19c0 1.628.605 2.272 2.223 2.345v.438l-.605-.014c-1.587-.045-2.382-.069-3.132-.069-.747 0-1.546.024-3.129.069l-.608.014v-.438c1.624-.073 2.236-.717 2.236-2.345V32.066c0-1.624-.612-2.276-2.236-2.342v-.437zM116.385 29.158c-1.075.062-1.957.079-2.683.079-.809 0-1.746-.017-2.655-.08l-6.527 14.676-6.31-14.675c-1.064.062-1.873.079-2.52.079-.64 0-1.96-.045-2.866-.08v.804c1.767.135 2.064.407 2.064 2.117 0 .8-.052 1.686-.083 2.518l-.263 10.01c-.058 2.007-.245 2.596-2.312 2.814v.8c.94-.021 1.88-.076 2.924-.076s1.992.055 2.953.076v-.8c-1.746-.056-2.199-.67-2.199-2.007v-12.88h.055l7.029 15.87h.785l7.27-16.835h.048l.163 10.2c.027 1.048.055 2.117.055 3.052 0 2.224-.404 2.469-2.257 2.6v.8c1.348-.021 2.9-.076 3.927-.076 1.016 0 2.565.055 3.882.076v-.8c-1.663-.087-2.202-.428-2.223-2.359l-.166-8.862c-.027-1.338-.048-3.076-.048-4.145 0-1.665.64-2.093 1.957-2.093v-.803zm-18.289.193l6.261 14.551.16.387.172-.387 6.472-14.551c.83.045 1.729.072 2.541.072.691 0 1.535-.024 2.496-.072v.434c-1.179.035-1.957.473-1.957 2.27 0 1.147.028 2.95.056 4.15l.159 8.86c.027 1.982.612 2.42 2.23 2.527v.445c-.419-.007-.861-.02-1.293-.031-.906-.028-1.764-.048-2.41-.048-.654 0-1.507.02-2.41.048-.446.01-.895.024-1.327.03v-.447c1.787-.149 2.247-.493 2.247-2.77 0-.934-.024-1.972-.055-3.055l-.156-10.2-.003-.179h-.357l-.045.114-7.225 16.724h-.54l-6.98-15.765-.051-.104h-.356v13.059c0 1.49.598 2.093 2.199 2.183v.44c-.26-.006-.522-.016-.785-.03-.636-.024-1.286-.048-1.985-.048-.705 0-1.362.024-1.994.051-.25.01-.498.021-.75.028v-.455c2.053-.249 2.26-.99 2.309-2.97l.273-10.01c.003-.3.017-.606.031-.91.028-.538.052-1.1.052-1.614 0-1.73-.339-2.13-2.067-2.282v-.445l.439.013c.819.025 1.735.06 2.243.06.626 0 1.393-.025 2.406-.073z" mask="url(#prefix__d)"/>
        </g>
        <g transform="translate(0 -6) translate(42.52 45.173)">
            <mask id="prefix__g" fill="#fff">
                <use xlink:href="#prefix__e"/>
            </mask>
            <path fill="url(#prefix__f)" d="M17.925.514c-.149.365-1.684.81-2.49.876-.801.079-1.752-.066-2.122.22-.36.297-1.532.728-1.895.728-.366 0-2.191-1.386-3.076-1.386-.882 0-2.925.372-3.288.807-.363.438-1.539.648-1.826.579-.304-.066-.667-.366-1.178 0-.512.372-1.68.224-1.898.441-.229.218 1.531.655 2.191.728.66.069 4.025.586 4.903.727.874.152 8.923.076 10.606.076 1.687 0 10.759-.293 11.855-.293s3.52-.29 4.456-.358c.961-.083 1.023-.587 1.175-.807.153-.218.806-.731.806-.731.073-.29-.653-.949-1.611-.797-.947.145-3.44.286-4.242.217-.795-.072-1.169-.217-2.047 0-.878.218-1.168.29-1.462.145-.297-.145-.657-.734-1.245-.662-.587.08-1.099.366-1.676.445-.595.072-1.18.217-1.69 0-.516-.228-.955-.366-1.318-.662-.363-.293-1.169-.659-1.169-.659s-1.61 0-1.76.366" mask="url(#prefix__g)"/>
        </g>
        <g transform="translate(0 -6) translate(31.114 8.276)">
            <mask id="prefix__j" fill="#fff">
                <use xlink:href="#prefix__h"/>
            </mask>
            <path fill="url(#prefix__i)" d="M17.77.928c-.581.365-.508.579-.875.869-.36.3-.36.444-.875.59-.283.079-1.39.072-1.541-.29 0 0-.367-.366-.951-.59-.584-.214-1.241-.214-1.826-.214-.587 0-.954 0-1.462.07-.515.078-.733.368-1.245.368-.515 0-.885-.148-1.465-.148-.585 0-2.05.583-3.73 1.02C2.115 3.045.794 4.213.58 4.648c-.22.438.07.804.582 1.09.511.296.587-.145 1.092-.362.522-.22 1.4-.876 2.057-1.02.653-.142.95 0 1.169.365.22.365-.076.872-.654 1.093-.588.22-.66 1.241-.805 1.607-.152.362-1.321 1.386-1.394 2.265-.072.873.294 2.917.654 3.642.373.73 1.175 1.827 1.908 2.12.733.286 1.169.807 2.195 1.17 1.027.361 1.245.872 1.611.944.367.076.657.362.657.362l-.076 1.166s-.29.438-.511.734c-.218.293-.218.948-.29 1.462-.08.514-.08 1.024.355 1.459.446.438 1.027 1.896 1.397 2.338.37.43.799.58 1.39 1.31.325.4.37.807.508 1.6.156.81-.287 1.759-.138 2.197.138.438.577 1.234.95 1.824.274.43.73 1.669 1.024 2.041.29.362 1.172 1.17 1.466 1.17.293 0 .065-.146-.222-.515-.294-.358-.584-.655-.294-1.093.294-.438 0-.803 0-1.027 0-.21 0-.438.076-.797.066-.369-.217-.876.287-1.165.522-.297 1.024-.514 1.024-.514s-.363-.728-.139-.728c.215 0 .73-.22 1.238-1.02.519-.807.073-1.535.66-1.756.581-.217.951 0 1.169-.73.221-.725 0-2.48.584-2.918.591-.434.81-1.462.221-1.824-.584-.366-1.244-.655-1.68-.876-.435-.217-1.175-.438-1.175-.438s0-.507-.44-.948c-.438-.435-1.53-.655-1.53-.655s-.875-1.242-1.39-1.242c-.516 0-1.249-.145-1.684-.29-.44-.148-.875.066-1.027.366-.142.286-.657.583-.657.583s-.439-.366-.874-.297c-.44.08-.588-.286-.588-.944 0-.663.076-.876-.367-.876-.439 0-.439-.29-.363-.731.073-.438-.145-.731-.446-.51-.286.217-.943 1.02-1.313.654-.37-.365-.585-1.234-.37-1.9.225-.658.74-.872 1.545-.94.802-.077 1.68-.366 1.753 0 .07.365.515.578.736.578.215 0 .436-.579.505-1.093.073-.507.95-1.02 1.459-1.458.519-.435 1.836-1.314 2.126-1.749.297-.444 1.677-.372 3.51-.806.504-.121.514-2.19.877-2.335.37-.145-.878-.659-.878-.659s-.588-.727.156-.727c.722 0 .943.145 1.531 0 .584-.152.882-.728.44-1.097-.44-.365-.73-.727-.73-1.017 0-.176-.177-.169-.367-.165-.131.003-.28.006-.366-.06-.18-.116-.311-.675-.67-.675-.084 0-.177.031-.284.097" mask="url(#prefix__j)"/>
        </g>
        <g transform="translate(0 -6) translate(50.468 7.242)">
            <mask id="prefix__m" fill="#fff">
                <use xlink:href="#prefix__k"/>
            </mask>
            <path fill="url(#prefix__l)" d="M1.413 1.303c-.505.366-1.02.51-.363.66 0 0 .66.137.805.513.146.355-.442.355-.656.941-.222.583.511.662.577 1.02.08.366.08.811.377 1.097.287.29 1.027-.51 1.459-1.02.442-.514 1.752-.876 2.122-1.238.363-.362 1.608-1.024 1.83-1.462.22-.438 0-.51-.367-.807C6.83.717 6.319.64 5.952.793c-.366.145-1.314.362-1.977.362-.66 0-.948-.072-1.169-.438-.052-.08-.12-.114-.207-.114-.294 0-.785.414-1.186.7" mask="url(#prefix__m)"/>
        </g>
        <g transform="translate(0 -6) translate(55.314 8.276)">
            <mask id="prefix__p" fill="#fff">
                <use xlink:href="#prefix__n"/>
            </mask>
            <path fill="url(#prefix__o)" d="M15.671.78c-.518.289-1.244 1.168-2.122 1.386-.882.22-1.394.51-1.981.879-.585.358-.875.22-1.532-.148-.664-.366-1.314-.876-1.832-.876-.508 0-1.096 0-1.829.8-.73.807-1.023 1.538-.73 2.19.284.658-.148.879-.515 1.168-.366.297-1.023 0-1.39-.22-.366-.21-.141.879-.293 1.534-.142.655-.95 1.39-1.096 2.045-.149.652.878.872.515 1.386-.37.507-1.393 1.238-1.76 2.045-.366.8-.587 1.748-.874 2.845-.301 1.09.805 2.48 1.531 2.917.733.435 1.397.359 2.054.359.653 0 .947-.142 1.535-.142.577 0 .881.952 1.023 1.755.149.797.733 1.245.878 1.673.142.441.073 1.1-.145 1.907-.218.8-.363.941-.363 1.596 0 .659.733 1.176.733 2.114 0 .952.287 1.831.871 2.12.588.297.95.95 1.248.732.287-.217.802-.731 1.248-1.02.436-.294.871-.8 1.02-1.097.142-.29.508-1.462.58-1.825.08-.365.886-.655 1.173-1.679.29-1.017-.363-1.969-.512-2.407-.145-.441.225-.73.584-1.017.367-.3 1.542-2.117 2.126-2.71.581-.576.944-1.89.944-1.89s0-.445.221-.945c.218-.517.516-.372.737-.586.218-.22.58-1.683.875-2.048.297-.362.508.148 1.095.224.588.069.516.214 1.103.507.578.29.29.658.363 1.241.076.586.294.804.581 1.097.3.293.443.651.657 1.234.228.59.664.228.958-.21.293-.442.511-.88.656-1.459.15-.586.29-.73.516-.88.217-.144.805.15 1.39.363.584.22.514.369.953.88.436.51 1.238 2.91 1.75 3.354.515.445.59-.444.59-1.024 0-.582.948-.876.948-1.31 0-.438-.145-1.61-.145-1.969 0-.369 0-1.028.145-1.39.145-.365.657-.148.733-.434.073-.3.871-.81.654-1.242-.215-.44-1.31-1.83-1.532-2.337-.21-.51.878-.58.657-.656-.214-.072.221-.876.588-1.313.36-.438-1.024-1.756-1.611-1.97-.581-.22-.512-.875.065-1.096.591-.22 1.324.069 1.687.517.363.431 1.03.58 1.32.431.288-.145-.518-.658-1.022-1.169-.519-.51-.222-.796-.222-.796-.076-1.317-6.371-2.773-6.948-2.92-.592-.15-1.978.289-2.486.289-.515 0-1.604 0-2.275-.142-.66-.148-1.535-.586-2.12-.882-.196-.093-.418-.135-.656-.135-.47 0-.975.162-1.314.355" mask="url(#prefix__p)"/>
        </g>
        <g transform="translate(0 -6) translate(82.971 24.483)">
            <mask id="prefix__s" fill="#fff">
                <use xlink:href="#prefix__q"/>
            </mask>
            <path fill="url(#prefix__r)" d="M3.886 3.693c-.44.517-1.023.37-.95 1.02.072.66 1.244.439 1.755.66.515.22.726.582 1.1.293.366-.294.366-.587.366-.587s.218-1.1-.076-1.241c-.29-.145-.435-.29-.95-.517-.18-.07-.322-.107-.467-.107-.26 0-.488.141-.778.48" mask="url(#prefix__s)"/>
        </g>
        <g transform="translate(0 -6) translate(84.006 28.966)">
            <mask id="prefix__v" fill="#fff">
                <use xlink:href="#prefix__t"/>
            </mask>
            <path fill="url(#prefix__u)" d="M8.414.448c-.66.149 0 .735.363 1.097.363.369.667 1.165.667 1.607 0 .441-.304 1.39-.885 1.458-.584.073-.58-.658-1.023-.951-.439-.287-.885.293-1.76.662-.874.362-1.752 1.458-2.63 1.893-.875.438-1.539.952-1.978 1.603-.436.659-.218.955-.436 1.538-.217.583.585.655.948.438.363-.224 1.023-.655 1.614-.876.581-.22.94.073 1.245.438.29.366.584 1.531 1.023 1.673.44.151 1.245-.504 1.535-.797.29-.293.95-.662 1.317-.952.363-.29 1.611-1.31 1.611-1.676 0-.365-.08-3.134 0-3.575.073-.435 0-1.166-.221-1.894-.21-.7-.816-1.693-1.314-1.693-.027 0-.052.004-.076.007" mask="url(#prefix__v)"/>
        </g>
        <g>
            <path fill="#243E76" d="M52.482 19.86c1.649-.048 2.233-.645 2.233-2.259V4.484c0-1.617-.584-2.214-2.233-2.258v-.621l.525.014c1.736.044 2.534.065 3.305.065.771 0 1.57-.02 3.309-.065l.518-.014v.62c-1.642.045-2.23.642-2.23 2.26V17.6c0 1.614.588 2.21 2.23 2.259v.617l-.684-.017c-1.608-.041-2.396-.059-3.143-.059-.743 0-1.535.018-3.139.059l-.691.017v-.617z" transform="translate(0 -6) translate(3.457 27.931)"/>
            <path fill="#000" d="M9.018 10.61c-.533 0-1.255-.076-1.77-.19V2.151c.38-.08.674-.103 1.154-.103 3.488 0 4.48 2.886 4.48 4.869 0 2.6-1.448 3.693-3.864 3.693m.242-9.37c-1.421 0-2.846.083-4.27.083-1.12 0-2.44-.024-3.35-.082v.807c1.746.024 2.23.669 2.23 2.165V17.33c0 1.5-.484 2.142-2.23 2.166v.803c2.147-.048 3.056-.079 3.917-.079.857 0 1.777.031 3.917.08v-.804c-1.742-.024-2.226-.666-2.226-2.166v-5.786c.432.055 1.372.086 2.146.086 4.94 0 6.98-1.876 6.98-4.979 0-3.083-1.856-5.41-7.114-5.41m-.242 9.555c2.686 0 4.048-1.307 4.048-3.88 0-3.73-2.513-5.055-4.664-5.055-.494 0-.802.028-1.186.107l-.148.035v8.565l.145.028c.529.114 1.276.2 1.805.2m.242-9.37c4.598 0 6.928 1.76 6.928 5.225 0 3.228-2.216 4.793-6.794 4.793-.715 0-1.687-.024-2.119-.076l-.207-.024v5.986c0 1.631.605 2.276 2.223 2.345v.438l-.795-.024c-1.48-.035-2.223-.052-2.939-.052-.72 0-1.452.017-2.914.052l-.823.024v-.438c1.625-.069 2.233-.714 2.233-2.345V4.213c0-1.624-.608-2.28-2.233-2.345v-.43c.857.044 2.05.068 3.17.068.716 0 1.442-.02 2.147-.041.691-.02 1.417-.038 2.123-.038" transform="translate(0 -6) translate(3.457 27.931)"/>
            <path fill="#243E76" d="M99.595 20.729L92.571 4.86h-.156l-.059.09v12.876c0 1.472.581 2.03 2.202 2.093v.624c-.297-.007-.587-.017-.885-.028-.636-.027-1.282-.052-1.977-.052-.698 0-1.355.025-1.988.052-.283.01-.563.02-.844.028v-.631c2.064-.228 2.258-.907 2.31-2.89l.27-10.007c.01-.303.017-.603.03-.914.025-.548.049-1.093.049-1.607 0-1.713-.311-2.058-2.067-2.203v-.62l.542.013c.81.031 1.732.059 2.234.059.636 0 1.417-.024 2.465-.073l6.368 14.804 6.579-14.804c.85.045 1.773.073 2.596.073.716 0 1.587-.024 2.596-.073v.618c-1.213.017-1.96.406-1.96 2.175 0 1.152.028 2.96.055 4.156l.163 8.858c.02 1.949.605 2.349 2.226 2.438v.628c-.446-.007-.923-.02-1.386-.031-.885-.024-1.76-.049-2.413-.049-.647 0-1.507.025-2.4.049-.48.01-.967.024-1.427.03v-.627c1.818-.141 2.25-.427 2.25-2.68 0-.934-.027-1.975-.055-3.054l-.155-10.29h-.153l-.076.059-7.25 16.779h-.66z" transform="translate(0 -6) translate(3.457 27.931)"/>
        </g>
    </g>
</svg>
