<svg xmlns="http://www.w3.org/2000/svg" xmlns:xlink="http://www.w3.org/1999/xlink" width="419" height="47" viewBox="0 0 419 47">
    <defs>
        <path id="a" d="M0 46.09h418.428V.693H0z"/>
        <path id="c" d="M122.226.138v40.23h30.155v-8.645h-18.836V24.6h15.883v-8.65h-15.883V8.838h18.787V.138h-30.106zm-19.527 0l-6.925 18.576h-.113L88.638.138H73.842v8.7h8.65l9.344 25.718h7.479l6.862-19.229h.127v25.041h10.907V.138H102.7zm-66.304 0v40.23h11.318V26.603h3.585l7.215 13.765h12.44l-8.836-15.571c5.07-2.258 7.376-6.99 7.376-11.9 0-7.123-4.8-12.759-14.688-12.759h-18.41zm11.318 8.7h5.613c3.335 0 5.128 2.037 5.128 4.85 0 2.773-1.856 4.85-5.182 4.85h-5.559v-9.7zM0 .137v40.23h11.314V27.011h7.831c10.143 0 14.125-7.015 14.125-13.78C33.27 6.127 28.529.138 19.086.138H0zm11.314 8.7h5.754c3.316 0 5.167 2.037 5.167 4.85 0 2.704-1.9 4.85-5.167 4.85h-5.754v-9.7zm62.528 31.53H84.75v-25.31H73.842v25.31z"/>
        <linearGradient id="d" x1="101.893%" x2="17.905%" y1="50.005%" y2="50.005%">
            <stop offset="0%" stop-color="#004F6B"/>
            <stop offset="100%" stop-color="#2F80AA"/>
        </linearGradient>
    </defs>
    <g fill="none" fill-rule="evenodd">
        <g transform="translate(0 .216)">
            <path fill="#004F6C" d="M177.587 9.46c2.517 0 4.094-1.124 4.094-3.422 0-2.155-1.552-3.397-3.707-3.397h-3.82V9.46h3.433zm-5.3-8.395h5.922c3.188 0 5.333 1.944 5.333 4.973 0 2.75-1.959 5.032-5.534 5.032h-3.855v6.539h-1.866V1.065zM185.617 5.96h1.695v2.352h.039c.93-1.861 2.66-2.534 4.182-2.534.29 0 .578.025.843.074v1.62c-.392-.069-.764-.069-1.068-.069-2.199 0-3.908 1.345-3.957 3.844v6.362h-1.734V5.96z"/>
            <mask id="b" fill="#fff">
                <use xlink:href="#a"/>
            </mask>
            <path fill="#004F6C" d="M193.977 17.608h1.72V5.96h-1.72v11.65zm0-14.177h1.72V.898h-1.72V3.43zM198.631 5.96h1.66v2.018h.06c.802-1.498 2.262-2.273 3.81-2.273 2.478 0 3.727 1.625 3.727 3.853v8.051h-1.739v-7.388c0-2.071-.955-3.014-2.522-3.014-1.759 0-3.277 1.325-3.277 3.54v6.862h-1.719V5.96zM210.14 13.204v-2.602c0-3.088 1.978-4.875 4.809-4.875 2.669 0 4.594 1.507 4.594 4.04v.3h-1.675v-.393c0-1.306-.97-2.503-2.895-2.503-1.915 0-3.066 1.32-3.066 3.27v2.817c0 1.86 1.01 3.161 3.09 3.161 1.925 0 2.87-1.173 2.87-2.464v-.349h1.676v.27c0 2.514-1.847 4.036-4.545 4.036-2.905 0-4.859-1.694-4.859-4.708M221.605 17.608h1.714V5.96h-1.714v11.65zm0-14.177h1.714V.898h-1.714V3.43zM234.082 13.573V9.916c0-1.561-1.127-2.72-2.958-2.72-1.49 0-3.154 1.223-3.154 3.451v2.49c0 2.017 1.493 3.283 3.188 3.283 1.415 0 2.924-.849 2.924-2.847zm-7.831-7.609h1.665v1.9h.054c.837-1.532 2.404-2.16 3.653-2.16 2.478 0 4.217 1.566 4.217 4.138v3.57c0 3.136-2.15 4.5-4.422 4.5-1.465 0-2.87-.829-3.39-2.16h-.058v6.363h-1.72V5.964zM238.229 14.757V1.031h1.729v13.805c0 .8.436 1.428 1.503 1.428.47 0 .862-.068 1.283-.122v1.33c-.582.196-1.302.275-1.85.275-2.23 0-2.665-1.655-2.665-2.99M251.86 10.932v-.678c0-1.767-1.033-3.083-2.983-3.083-1.88 0-3.105 1.4-3.105 3.25v.51h6.088zm-7.875 2.253v-2.47c0-3.2 2.184-4.987 4.985-4.987 2.581 0 4.61 1.551 4.61 4.57v1.836h-7.808v1.203c0 1.905 1.288 3.083 3.335 3.083 1.362 0 2.312-.682 2.934-1.483l1.332.8c-1.053 1.616-2.713 2.175-4.383 2.175-2.85 0-5.005-1.526-5.005-4.727zM255.074 16.033l1.186-.972c.935.952 2.042 1.428 3.521 1.428 1.396 0 2.826-.717 2.826-2.076 0-1.296-.803-1.674-2.41-1.974l-1.337-.285c-2.018-.392-3.262-1.315-3.262-2.98 0-2.022 1.631-3.48 4.173-3.48 1.754 0 3.15.407 4.036 1.458l-1.176.898c-.734-.648-1.64-1.016-2.968-1.016-1.405 0-2.375.761-2.375 1.88 0 1.11.95 1.478 2.517 1.802l1.734.363c1.72.388 2.85 1.311 2.85 3.039 0 2.518-2.33 3.77-4.584 3.77-1.9 0-3.634-.51-4.73-1.855M272.986 7.355h-2.072V5.991h2.072V3.983c0-2.136 1.112-3.29 3.15-3.29.43 0 .866.045 1.263.138v1.507c-.397-.098-.671-.108-1.122-.108-.886 0-1.577.447-1.577 1.664v2.097h2.635v1.364H274.7v10.26h-1.714V7.355zM286.388 13.3v-3.078c0-1.777-1.044-3.024-3.13-3.024-1.905 0-3.095 1.129-3.095 3.102v3.063c0 1.836 1.111 3.059 3.159 3.059 1.944 0 3.066-1.04 3.066-3.122m-7.96.103v-3.014c0-3.054 2.22-4.664 4.83-4.664 2.875 0 4.888 1.698 4.888 4.649v2.847c0 3.044-2.18 4.688-4.824 4.688-2.846 0-4.893-1.551-4.893-4.506M290.396 5.96h1.694v2.352h.04c.93-1.861 2.669-2.534 4.163-2.534.313 0 .612.025.871.074v1.62c-.401-.069-.768-.069-1.072-.069-2.194 0-3.918 1.345-3.962 3.844v6.362h-1.734V5.96zM309.69 9.368c2.483 0 3.952-1.084 3.952-3.402 0-2.307-1.577-3.357-4.001-3.357h-3.522v6.76h3.57zm-5.451-8.33h5.857c3.154 0 5.397 1.806 5.397 4.953 0 2.239-1.297 4.261-4.03 4.772l4.795 6.853h-2.082l-4.653-6.686h-3.404v6.686h-1.88V1.038zM325.397 10.932v-.678c0-1.767-1.033-3.083-2.973-3.083-1.885 0-3.115 1.4-3.115 3.25v.51h6.088zm-7.856 2.253v-2.47c0-3.2 2.16-4.987 4.971-4.987 2.572 0 4.614 1.551 4.614 4.57v1.836h-7.817v1.203c0 1.905 1.303 3.083 3.345 3.083 1.337 0 2.307-.682 2.934-1.483l1.332.8c-1.058 1.616-2.723 2.175-4.388 2.175-2.855 0-4.99-1.526-4.99-4.727zM328.63 16.033l1.185-.972c.911.952 2.018 1.428 3.512 1.428 1.39 0 2.826-.717 2.826-2.076 0-1.296-.808-1.674-2.415-1.974l-1.347-.285c-2.017-.392-3.252-1.315-3.252-2.98 0-2.022 1.636-3.48 4.163-3.48 1.764 0 3.155.407 4.05 1.458l-1.184.898c-.74-.648-1.641-1.016-2.959-1.016-1.41 0-2.39.761-2.39 1.88 0 1.11.96 1.478 2.527 1.802l1.73.363c1.718.388 2.855 1.311 2.855 3.039 0 2.518-2.327 3.77-4.585 3.77-1.89 0-3.624-.51-4.716-1.855M347.982 13.573V9.916c0-1.561-1.137-2.72-2.954-2.72-1.503 0-3.159 1.223-3.159 3.451v2.49c0 2.017 1.48 3.283 3.204 3.283 1.4 0 2.909-.849 2.909-2.847zm-7.832-7.609h1.675v1.9h.044c.838-1.532 2.41-2.16 3.654-2.16 2.488 0 4.227 1.566 4.227 4.138v3.57c0 3.136-2.165 4.5-4.438 4.5-1.454 0-2.865-.829-3.379-2.16h-.064v6.363h-1.719V5.964zM359.532 13.3v-3.078c0-1.777-1.038-3.024-3.12-3.024-1.914 0-3.105 1.129-3.105 3.102v3.063c0 1.836 1.117 3.059 3.179 3.059 1.92 0 3.046-1.04 3.046-3.122m-7.953.103v-3.014c0-3.054 2.218-4.664 4.834-4.664 2.86 0 4.883 1.698 4.883 4.649v2.847c0 3.044-2.18 4.688-4.81 4.688-2.855 0-4.907-1.551-4.907-4.506M363.636 5.96h1.66v2.018h.069c.793-1.498 2.258-2.273 3.81-2.273 2.479 0 3.728 1.625 3.728 3.853v8.051h-1.74v-7.388c0-2.071-.974-3.014-2.521-3.014-1.764 0-3.277 1.325-3.277 3.54v6.862h-1.729V5.96zM374.89 16.033l1.18-.972c.926.952 2.038 1.428 3.517 1.428 1.39 0 2.83-.717 2.83-2.076 0-1.296-.812-1.674-2.409-1.974l-1.342-.285c-2.018-.392-3.267-1.315-3.267-2.98 0-2.022 1.646-3.48 4.168-3.48 1.759 0 3.15.407 4.05 1.458l-1.175.898c-.74-.648-1.655-1.016-2.968-1.016-1.41 0-2.385.761-2.385 1.88 0 1.11.95 1.478 2.532 1.802l1.734.363c1.704.388 2.84 1.311 2.84 3.039 0 2.518-2.336 3.77-4.574 3.77-1.915 0-3.639-.51-4.731-1.855M386.422 17.608h1.719V5.96h-1.72v11.65zm0-14.177h1.719V.898h-1.72V3.43zM398.9 13.573V9.857c0-1.542-1.121-2.66-2.963-2.66-1.479 0-3.149 1.295-3.149 3.524v2.415c0 2.018 1.48 3.284 3.184 3.284 1.42 0 2.928-.849 2.928-2.847m-6.112 2.18h-.064v1.86h-1.645V1.07h1.71v6.794h.073c.783-1.547 2.33-2.16 3.59-2.16 2.468 0 4.212 1.576 4.212 4.153v3.554c0 3.137-2.204 4.502-4.501 4.502-1.435 0-2.86-.83-3.375-2.16M403.08 14.757V1.031h1.73v13.805c0 .8.445 1.428 1.503 1.428.465 0 .862-.068 1.264-.122v1.33c-.573.196-1.288.275-1.842.275-2.219 0-2.654-1.655-2.654-2.99M416.707 10.932v-.678c0-1.767-1.038-3.083-2.978-3.083-1.886 0-3.11 1.4-3.11 3.25v.51h6.088zm-7.86 2.253v-2.47c0-3.2 2.169-4.987 4.97-4.987 2.572 0 4.614 1.551 4.614 4.57v1.836h-7.812v1.203c0 1.905 1.303 3.083 3.335 3.083 1.337 0 2.312-.682 2.934-1.483l1.337.8c-1.053 1.616-2.723 2.175-4.388 2.175-2.846 0-4.99-1.526-4.99-4.727zM172.287 24.815h2.277l5.187 10.132h.025l5.069-10.132h2.33v16.539h-1.821v-13.27h-.04l-4.838 9.44h-1.484l-4.839-9.425h-.069v13.255h-1.797zM197.22 37.112v-1.12h-3.012c-1.479 0-2.904.398-2.904 2.136 0 1.419 1.205 2.106 2.635 2.106 2.307 0 3.282-1.291 3.282-3.122m-7.621 1.124c0-2.538 2.292-3.515 4.305-3.515h3.316v-1.625c0-1.674-1.122-2.283-2.782-2.283-1.367 0-2.763.491-2.763 1.817v.388h-1.562v-.344c0-2.371 2.214-3.216 4.393-3.216 2.341 0 4.447.81 4.447 3.427v5.64c0 .653.093 2.372.167 2.828h-1.695c-.049-.343-.093-1.345-.108-1.64h-.053c-.97 1.591-2.366 1.9-3.791 1.9-2.19 0-3.874-1.237-3.874-3.377M201.712 29.7h1.675v2.022h.03c.822-1.512 2.277-2.268 3.824-2.268 2.483 0 3.732 1.616 3.732 3.844v8.051h-1.743v-7.398c0-2.067-.96-2.99-2.523-2.99-1.753 0-3.29 1.321-3.29 3.53v6.858h-1.705V29.7zM220.776 37.112v-1.12h-3.022c-1.48 0-2.9.398-2.9 2.136 0 1.419 1.22 2.106 2.63 2.106 2.303 0 3.292-1.291 3.292-3.122m-7.63 1.124c0-2.538 2.296-3.515 4.31-3.515h3.32v-1.625c0-1.674-1.122-2.283-2.797-2.283-1.351 0-2.747.491-2.747 1.817v.388h-1.563v-.344c0-2.371 2.21-3.216 4.394-3.216 2.33 0 4.447.81 4.447 3.427v5.64c0 .653.083 2.372.161 2.828h-1.694c-.05-.343-.098-1.345-.113-1.64h-.049c-.975 1.591-2.356 1.9-3.8 1.9-2.18 0-3.87-1.237-3.87-3.377M232.604 36.412v-2.317c0-2.028-1.567-3.152-3.169-3.152-1.42 0-2.919.844-2.919 2.862v3.309c0 1.56 1.078 2.71 2.944 2.71 1.523 0 3.144-1.022 3.144-3.412m-7.645 7.471l1.577-.667c.69 1.016 1.611 1.477 2.792 1.477 2.018 0 3.276-1.296 3.276-3.358v-2.243c-.793 1.517-2.199 2.126-3.614 2.126-2.645 0-4.242-1.586-4.242-4.139v-3.146c0-2.99 2.116-4.478 4.3-4.478 1.303 0 2.959.668 3.556 2.175V29.7h1.665v11.4c0 2.72-1.665 4.992-5.069 4.992-1.724 0-3.433-.692-4.241-2.209M244.451 34.667v-.663c0-1.772-1.038-3.097-2.987-3.097-1.871 0-3.1 1.404-3.1 3.25v.51h6.087zm-7.87 2.258v-2.46c0-3.2 2.17-5.002 4.97-5.002 2.572 0 4.624 1.561 4.624 4.57v1.842h-7.812v1.202c0 1.915 1.303 3.113 3.336 3.113 1.347 0 2.316-.712 2.938-1.507l1.333.795c-1.049 1.625-2.714 2.184-4.389 2.184-2.85 0-5-1.541-5-4.737zM248.484 29.7h1.675v2.022h.044c.803-1.512 2.243-2.268 3.84-2.268 1.807 0 2.85 1.041 3.276 2.322h.03c.842-1.492 2.301-2.322 3.981-2.322 2.243 0 3.732 1.42 3.732 3.692v8.203h-1.719v-7.398c0-1.963-.877-2.99-2.512-2.99-1.74 0-3.125 1.434-3.179 3.339v7.05h-1.714v-7.443c-.054-1.88-.862-2.945-2.513-2.945-1.469 0-3.213 1.168-3.213 3.367v7.02h-1.728V29.7zM275.234 34.667v-.663c0-1.772-1.048-3.097-2.987-3.097-1.876 0-3.106 1.404-3.106 3.25v.51h6.093zm-7.875 2.258v-2.46c0-3.2 2.17-5.002 4.98-5.002 2.557 0 4.604 1.561 4.604 4.57v1.842h-7.802v1.202c0 1.915 1.293 3.113 3.336 3.113 1.337 0 2.307-.712 2.933-1.507l1.318.795c-1.038 1.625-2.709 2.184-4.369 2.184-2.85 0-5-1.541-5-4.737zM279.28 29.7h1.665v2.022h.044c.823-1.512 2.268-2.268 3.83-2.268 2.464 0 3.727 1.616 3.727 3.844v8.051h-1.733v-7.398c0-2.067-.98-2.99-2.532-2.99-1.764 0-3.292 1.321-3.292 3.53v6.858h-1.709V29.7zM292.151 38.924v-7.8h-2.008v-1.4h2.008v-3.642h1.72v3.642h3.222v1.4h-3.223v7.344c0 1.173.608 1.516 1.646 1.516.602 0 1.136-.093 1.69-.21v1.497c-.715.22-1.675.294-2.146.294-1.542 0-2.909-.648-2.909-2.64M304.237 24.786h10.609v1.655h-8.723v5.552h7.336v1.645h-7.336v6.043h8.776v1.674h-10.662zM324.297 36.647v-2.445c0-2.018-1.46-3.294-3.199-3.294-1.42 0-2.933.869-2.933 2.862v3.662c0 1.561 1.146 2.725 2.982 2.725 1.509 0 3.15-1.262 3.15-3.51m-7.876.854v-3.569c0-3.127 2.16-4.477 4.447-4.477 1.44 0 2.836.815 3.36 2.13h.069v-6.77h1.719v16.54h-1.675v-2.033h-.044c-.794 1.615-2.43 2.337-3.644 2.337-2.488 0-4.232-1.58-4.232-4.158M328.855 37.759v-8.061h1.734v7.418c0 2.061.999 2.96 2.556 2.96 1.734 0 3.267-1.316 3.267-3.53v-6.848h1.71v11.65h-1.67v-2.013h-.04c-.813 1.541-2.273 2.297-3.825 2.297-2.483 0-3.732-1.67-3.732-3.873M340.386 36.954v-2.607c0-3.083 1.994-4.88 4.82-4.88 2.664 0 4.579 1.517 4.579 4.04v.295h-1.655v-.383c0-1.296-.975-2.513-2.9-2.513-1.934 0-3.06 1.325-3.06 3.279v2.803c0 1.885.998 3.196 3.085 3.196 1.91 0 2.875-1.193 2.875-2.49v-.333h1.655v.26c0 2.504-1.846 4.04-4.53 4.04-2.895 0-4.869-1.698-4.869-4.707M358.82 37.112v-1.12h-3.007c-1.49 0-2.905.398-2.905 2.136 0 1.419 1.205 2.106 2.63 2.106 2.312 0 3.282-1.291 3.282-3.122m-7.616 1.124c0-2.538 2.282-3.515 4.3-3.515h3.316v-1.625c0-1.674-1.107-2.283-2.777-2.283-1.362 0-2.748.491-2.748 1.817v.388h-1.582v-.344c0-2.371 2.229-3.216 4.398-3.216 2.351 0 4.443.81 4.443 3.427v5.64c0 .653.093 2.372.166 2.828h-1.7c-.043-.343-.083-1.345-.102-1.64h-.05c-.969 1.591-2.365 1.9-3.795 1.9-2.18 0-3.87-1.237-3.87-3.377M364.095 38.924v-7.8h-2.008v-1.4h2.008v-3.642h1.724v3.642h3.218v1.4h-3.218v7.344c0 1.173.598 1.516 1.636 1.516.602 0 1.136-.093 1.685-.21v1.497c-.715.22-1.67.294-2.136.294-1.547 0-2.909-.648-2.909-2.64M370.94 41.349h1.704v-11.65h-1.704v11.65zm0-14.173h1.704v-2.528h-1.704v2.528zM382.987 37.044v-3.092c0-1.763-1.038-3.01-3.12-3.01-1.92 0-3.095 1.125-3.095 3.098v3.073c0 1.831 1.107 3.073 3.164 3.073 1.925 0 3.051-1.06 3.051-3.142m-7.958.104v-3.024c0-3.049 2.228-4.654 4.839-4.654 2.865 0 4.878 1.693 4.878 4.639v2.842c0 3.059-2.17 4.708-4.81 4.708-2.85 0-4.907-1.551-4.907-4.511M387.096 29.7h1.665v2.022h.059c.808-1.512 2.253-2.268 3.81-2.268 2.469 0 3.728 1.616 3.728 3.844v8.051h-1.74v-7.398c0-2.067-.974-2.99-2.517-2.99-1.768 0-3.281 1.321-3.281 3.53v6.858h-1.724V29.7z" mask="url(#b)"/>
        </g>
        <g transform="translate(0 1.216)">
            <mask id="e" fill="#fff">
                <use xlink:href="#c"/>
            </mask>
            <path fill="url(#d)" d="M122.226.138v40.23h30.155v-8.645h-18.836V24.6h15.883v-8.65h-15.883V8.838h18.787V.138h-30.106zm-19.527 0l-6.925 18.576h-.113L88.638.138H73.842v8.7h8.65l9.344 25.718h7.479l6.862-19.229h.127v25.041h10.907V.138H102.7zm-66.304 0v40.23h11.318V26.603h3.585l7.215 13.765h12.44l-8.836-15.571c5.07-2.258 7.376-6.99 7.376-11.9 0-7.123-4.8-12.759-14.688-12.759h-18.41zm11.318 8.7h5.613c3.335 0 5.128 2.037 5.128 4.85 0 2.773-1.856 4.85-5.182 4.85h-5.559v-9.7zM0 .137v40.23h11.314V27.011h7.831c10.143 0 14.125-7.015 14.125-13.78C33.27 6.127 28.529.138 19.086.138H0zm11.314 8.7h5.754c3.316 0 5.167 2.037 5.167 4.85 0 2.704-1.9 4.85-5.167 4.85h-5.754v-9.7zm62.528 31.53H84.75v-25.31H73.842v25.31z" mask="url(#e)"/>
        </g>
    </g>
</svg>
