<svg xmlns="http://www.w3.org/2000/svg" xmlns:xlink="http://www.w3.org/1999/xlink" width="85" height="23" viewBox="0 0 85 23">
    <defs>
        <linearGradient id="prefix__b" x1="101.893%" x2="17.905%" y1="50.005%" y2="50.005%">
            <stop offset="0%" stop-color="#004F6B"/>
            <stop offset="100%" stop-color="#2F80AA"/>
        </linearGradient>
        <path id="prefix__a" d="M67.904 0v22.35h16.752v-4.803H74.192V13.59h8.824V8.785h-8.824V4.833h10.437V0H67.904zM57.055 0l-3.847 10.32h-.063L49.243 0h-8.22v4.833h4.806L51.02 19.12h4.155l3.812-10.683h.07V22.35h6.06V0h-8.062zM20.22 0v22.35h6.288v-7.647H28.5l4.008 7.647h6.911L34.51 13.7c2.816-1.255 4.097-3.885 4.097-6.612 0-3.957-2.666-7.088-8.16-7.088H20.22zm6.288 4.833h3.118c1.853 0 2.85 1.132 2.85 2.694 0 1.541-1.032 2.695-2.88 2.695h-3.088v-5.39zM0 0v22.35h6.285v-7.42h4.351c5.635 0 7.847-3.898 7.847-7.656C18.483 3.327 15.85 0 10.603 0H0zm6.285 4.833h3.197c1.843 0 2.871 1.132 2.871 2.694 0 1.503-1.056 2.695-2.87 2.695H6.284v-5.39zM41.023 22.35h6.06V8.288h-6.06V22.35z"/>
    </defs>
    <g fill="none" fill-rule="evenodd">
        <mask id="prefix__c" fill="#fff">
            <use xlink:href="#prefix__a"/>
        </mask>
        <path fill="url(#prefix__b)" d="M67.904 0v22.35h16.752v-4.803H74.192V13.59h8.824V8.785h-8.824V4.833h10.437V0H67.904zM57.055 0l-3.847 10.32h-.063L49.243 0h-8.22v4.833h4.806L51.02 19.12h4.155l3.812-10.683h.07V22.35h6.06V0h-8.062zM20.22 0v22.35h6.288v-7.647H28.5l4.008 7.647h6.911L34.51 13.7c2.816-1.255 4.097-3.885 4.097-6.612 0-3.957-2.666-7.088-8.16-7.088H20.22zm6.288 4.833h3.118c1.853 0 2.85 1.132 2.85 2.694 0 1.541-1.032 2.695-2.88 2.695h-3.088v-5.39zM0 0v22.35h6.285v-7.42h4.351c5.635 0 7.847-3.898 7.847-7.656C18.483 3.327 15.85 0 10.603 0H0zm6.285 4.833h3.197c1.843 0 2.871 1.132 2.871 2.694 0 1.503-1.056 2.695-2.87 2.695H6.284v-5.39zM41.023 22.35h6.06V8.288h-6.06V22.35z" mask="url(#prefix__c)"/>
    </g>
</svg>
