<svg xmlns="http://www.w3.org/2000/svg" xmlns:xlink="http://www.w3.org/1999/xlink" width="233" height="26" viewBox="0 0 233 26">
    <defs>
        <path id="prefix__a" d="M0 27.273L232.46 27.273 232.46 2.051 0 2.051z"/>
        <path id="prefix__c" d="M67.904 2.3v22.35h16.752v-4.804H74.192V15.89h8.824v-4.805h-8.824V7.132h10.437V2.299H67.904zm-10.849 0l-3.847 10.32h-.063L49.243 2.3h-8.22v4.832h4.806L51.02 21.42h4.155l3.812-10.683h.07V24.65h6.06V2.3h-8.062zm-36.836 0v22.35h6.288v-7.648H28.5l4.008 7.647h6.911L34.51 16c2.816-1.255 4.097-3.884 4.097-6.612 0-3.957-2.666-7.088-8.16-7.088H20.22zm6.288 4.832h3.118c1.853 0 2.85 1.132 2.85 2.694 0 1.541-1.032 2.695-2.88 2.695h-3.088V7.13zM0 2.299v22.35h6.285v-7.42h4.351c5.635 0 7.847-3.898 7.847-7.656 0-3.947-2.634-7.274-7.88-7.274H0zm6.285 4.833h3.197c1.843 0 2.871 1.132 2.871 2.694 0 1.503-1.056 2.695-2.87 2.695H6.284V7.13zm34.738 17.517h6.06V10.587h-6.06V24.65z"/>
        <linearGradient id="prefix__d" x1="101.893%" x2="17.905%" y1="50.005%" y2="50.005%">
            <stop offset="0%" stop-color="#004F6B"/>
            <stop offset="100%" stop-color="#2F80AA"/>
        </linearGradient>
    </defs>
    <g fill="none" fill-rule="evenodd">
        <g transform="translate(0 -2) translate(0 .676)">
            <path fill="#004F6C" d="M98.66 6.922c1.398 0 2.274-.624 2.274-1.9 0-1.198-.863-1.888-2.06-1.888h-2.122v3.788h1.907zm-2.945-4.664h3.29c1.771 0 2.963 1.08 2.963 2.763 0 1.527-1.088 2.796-3.075 2.796h-2.141v3.632h-1.037V2.26zM103.12 4.978h.942v1.306h.022c.517-1.033 1.477-1.407 2.323-1.407.161 0 .321.014.468.04v.9c-.217-.037-.424-.037-.593-.037-1.221 0-2.171.747-2.198 2.135v3.535h-.963V4.978z"/>
            <mask id="prefix__b" fill="#fff">
                <use xlink:href="#prefix__a"/>
            </mask>
            <path fill="#004F6C" d="M107.765 11.45h.955V4.976h-.955v6.472zm0-7.877h.955V2.165h-.955v1.408zM110.35 4.978h.923v1.12h.033c.446-.831 1.257-1.262 2.117-1.262 1.376 0 2.07.903 2.07 2.14v4.474h-.966V7.345c0-1.15-.53-1.674-1.401-1.674-.977 0-1.82.736-1.82 1.966v3.813h-.955V4.978zM116.744 9.002V7.557c0-1.716 1.1-2.708 2.672-2.708 1.483 0 2.552.837 2.552 2.244v.166h-.93v-.218c0-.725-.54-1.39-1.608-1.39-1.064 0-1.704.733-1.704 1.816v1.565c0 1.034.56 1.757 1.717 1.757 1.07 0 1.595-.652 1.595-1.37v-.193h.93v.15c0 1.396-1.026 2.242-2.525 2.242-1.613 0-2.699-.941-2.699-2.616M123.114 11.45h.952V4.976h-.952v6.472zm0-7.877h.952V2.165h-.952v1.408zM130.046 9.207V7.175c0-.867-.626-1.51-1.644-1.51-.827 0-1.752.679-1.752 1.917v1.383c0 1.12.83 1.824 1.771 1.824.786 0 1.625-.472 1.625-1.582zm-4.351-4.227h.925v1.055h.03c.465-.85 1.336-1.2 2.03-1.2 1.376 0 2.342.87 2.342 2.3v1.982c0 1.743-1.194 2.501-2.457 2.501-.813 0-1.594-.46-1.883-1.2h-.032v3.535h-.955V4.98zM132.35 9.865V2.24h.96v7.669c0 .444.242.793.835.793.261 0 .479-.038.713-.068v.74c-.324.108-.724.152-1.029.152-1.238 0-1.48-.92-1.48-1.66M139.922 7.74v-.377c0-.981-.574-1.712-1.657-1.712-1.045 0-1.725.777-1.725 1.805v.284h3.382zm-4.375 1.252V7.62c0-1.778 1.213-2.771 2.77-2.771 1.434 0 2.56.862 2.56 2.539v1.02h-4.337v.668c0 1.058.716 1.713 1.853 1.713.756 0 1.284-.38 1.63-.824l.74.445c-.585.897-1.507 1.208-2.435 1.208-1.584 0-2.781-.848-2.781-2.626zM141.708 10.574l.658-.54c.52.529 1.135.793 1.957.793.775 0 1.57-.398 1.57-1.153 0-.72-.446-.93-1.339-1.097l-.743-.158c-1.12-.218-1.812-.73-1.812-1.655 0-1.124.906-1.934 2.318-1.934.974 0 1.75.226 2.242.81l-.653.5c-.408-.36-.911-.565-1.649-.565-.78 0-1.32.422-1.32 1.044 0 .616.529.821 1.4 1.001l.963.202c.955.215 1.583.728 1.583 1.688 0 1.4-1.295 2.095-2.547 2.095-1.055 0-2.019-.284-2.628-1.031M151.659 5.753h-1.151v-.758h1.15V3.879c0-1.186.619-1.827 1.75-1.827.24 0 .482.025.702.076v.838c-.22-.055-.372-.06-.623-.06-.492 0-.876.248-.876.924v1.165h1.464v.758h-1.464v5.7h-.952v-5.7zM159.104 9.055v-1.71c0-.987-.58-1.68-1.738-1.68-1.059 0-1.72.628-1.72 1.724v1.702c0 1.02.618 1.699 1.755 1.699 1.08 0 1.703-.578 1.703-1.735m-4.421.058V7.438c0-1.696 1.232-2.59 2.683-2.59 1.597 0 2.715.943 2.715 2.582v1.582c0 1.69-1.21 2.604-2.68 2.604-1.58 0-2.718-.862-2.718-2.503M161.331 4.978h.941v1.306h.022c.517-1.033 1.483-1.407 2.313-1.407.174 0 .34.014.484.04v.9c-.223-.037-.427-.037-.596-.037-1.219 0-2.176.747-2.2 2.135v3.535h-.964V4.978zM172.05 6.871c1.38 0 2.196-.602 2.196-1.89 0-1.281-.876-1.865-2.223-1.865h-1.957V6.87h1.984zm-3.029-4.628h3.255c1.752 0 2.998 1.004 2.998 2.752 0 1.244-.72 2.367-2.24 2.65l2.665 3.808h-1.157l-2.585-3.714h-1.89v3.714h-1.046v-9.21zM180.776 7.74v-.377c0-.981-.574-1.712-1.651-1.712-1.048 0-1.731.777-1.731 1.805v.284h3.382zm-4.364 1.252V7.62c0-1.778 1.2-2.771 2.762-2.771 1.428 0 2.563.862 2.563 2.539v1.02h-4.343v.668c0 1.058.724 1.713 1.858 1.713.743 0 1.282-.38 1.63-.824l.74.445c-.587.897-1.512 1.208-2.438 1.208-1.586 0-2.772-.848-2.772-2.626zM182.572 10.574l.659-.54c.506.529 1.12.793 1.95.793.773 0 1.57-.398 1.57-1.153 0-.72-.448-.93-1.34-1.097l-.75-.158c-1.12-.218-1.806-.73-1.806-1.655 0-1.124.909-1.934 2.313-1.934.98 0 1.752.226 2.25.81l-.658.5c-.411-.36-.912-.565-1.644-.565-.783 0-1.328.422-1.328 1.044 0 .616.534.821 1.404 1.001l.961.202c.955.215 1.586.728 1.586 1.688 0 1.4-1.292 2.095-2.547 2.095-1.05 0-2.013-.284-2.62-1.031M193.323 9.207V7.175c0-.867-.631-1.51-1.64-1.51-.836 0-1.756.679-1.756 1.917v1.383c0 1.12.822 1.824 1.78 1.824.778 0 1.616-.472 1.616-1.582zm-4.35-4.227h.93v1.055h.024c.466-.85 1.34-1.2 2.03-1.2 1.383 0 2.348.87 2.348 2.3v1.982c0 1.743-1.202 2.501-2.465 2.501-.808 0-1.591-.46-1.877-1.2h-.036v3.535h-.955V4.98zM199.74 9.055v-1.71c0-.987-.577-1.68-1.733-1.68-1.064 0-1.725.628-1.725 1.724v1.702c0 1.02.62 1.699 1.766 1.699 1.066 0 1.692-.578 1.692-1.735m-4.419.058V7.438c0-1.696 1.233-2.59 2.686-2.59 1.589 0 2.713.943 2.713 2.582v1.582c0 1.69-1.211 2.604-2.672 2.604-1.586 0-2.727-.862-2.727-2.503M202.02 4.978h.922v1.12h.039c.44-.831 1.254-1.262 2.116-1.262 1.377 0 2.071.903 2.071 2.14v4.474h-.966V7.345c0-1.15-.541-1.674-1.401-1.674-.98 0-1.82.736-1.82 1.966v3.813h-.96V4.978zM208.272 10.574l.656-.54c.514.529 1.132.793 1.954.793.772 0 1.572-.398 1.572-1.153 0-.72-.451-.93-1.338-1.097l-.746-.158c-1.12-.218-1.815-.73-1.815-1.655 0-1.124.914-1.934 2.316-1.934.977 0 1.75.226 2.25.81l-.653.5c-.41-.36-.92-.565-1.649-.565-.784 0-1.325.422-1.325 1.044 0 .616.528.821 1.407 1.001l.963.202c.947.215 1.578.728 1.578 1.688 0 1.4-1.298 2.095-2.541 2.095-1.064 0-2.022-.284-2.629-1.031M214.679 11.45h.955V4.976h-.955v6.472zm0-7.877h.955V2.165h-.955v1.408zM221.611 9.207V7.143c0-.857-.623-1.478-1.646-1.478-.822 0-1.75.72-1.75 1.958v1.342c0 1.12.822 1.824 1.77 1.824.788 0 1.626-.472 1.626-1.582m-3.395 1.211h-.036v1.034h-.914V2.26h.95v3.774h.04c.436-.859 1.296-1.2 1.995-1.2 1.371 0 2.34.876 2.34 2.308v1.974c0 1.743-1.225 2.501-2.5 2.501-.798 0-1.59-.46-1.875-1.2M223.934 9.865V2.24h.96v7.669c0 .444.248.793.835.793.259 0 .48-.038.702-.068v.74c-.318.108-.715.152-1.023.152-1.232 0-1.474-.92-1.474-1.66M231.504 7.74v-.377c0-.981-.577-1.712-1.655-1.712-1.047 0-1.727.777-1.727 1.805v.284h3.382zm-4.367 1.252V7.62c0-1.778 1.205-2.771 2.761-2.771 1.429 0 2.564.862 2.564 2.539v1.02h-4.34v.668c0 1.058.723 1.713 1.853 1.713.742 0 1.284-.38 1.63-.824l.742.445c-.585.897-1.513 1.208-2.438 1.208-1.58 0-2.772-.848-2.772-2.626zM95.715 15.453L96.98 15.453 99.862 21.082 99.875 21.082 102.691 15.453 103.987 15.453 103.987 24.641 102.974 24.641 102.974 17.269 102.953 17.269 100.264 22.514 99.44 22.514 96.752 17.277 96.714 17.277 96.714 24.641 95.715 24.641zM109.567 22.284v-.622h-1.673c-.822 0-1.614.221-1.614 1.187 0 .788.67 1.17 1.464 1.17 1.281 0 1.823-.717 1.823-1.735m-4.234.625c0-1.41 1.274-1.953 2.392-1.953h1.842v-.903c0-.93-.623-1.268-1.546-1.268-.759 0-1.534.273-1.534 1.01v.215h-.868v-.191c0-1.317 1.23-1.787 2.44-1.787 1.301 0 2.471.45 2.471 1.904v3.134c0 .362.052 1.317.093 1.57h-.942c-.027-.19-.051-.747-.06-.91h-.03c-.538.883-1.314 1.055-2.106 1.055-1.216 0-2.152-.687-2.152-1.876M112.062 18.167h.93v1.123h.017c.457-.84 1.265-1.26 2.125-1.26 1.38 0 2.073.898 2.073 2.136v4.472h-.968v-4.11c0-1.148-.534-1.66-1.402-1.66-.974 0-1.828.733-1.828 1.96v3.81h-.947v-6.471zM122.653 22.284v-.622h-1.679c-.821 0-1.61.221-1.61 1.187 0 .788.677 1.17 1.46 1.17 1.28 0 1.83-.717 1.83-1.735m-4.24.625c0-1.41 1.276-1.953 2.394-1.953h1.845v-.903c0-.93-.623-1.268-1.553-1.268-.751 0-1.527.273-1.527 1.01v.215h-.868v-.191c0-1.317 1.227-1.787 2.44-1.787 1.296 0 2.471.45 2.471 1.904v3.134c0 .362.047 1.317.09 1.57h-.941c-.027-.19-.055-.747-.063-.91h-.027c-.541.883-1.309 1.055-2.111 1.055-1.211 0-2.15-.687-2.15-1.876M129.225 21.895v-1.287c0-1.126-.871-1.75-1.76-1.75-.79 0-1.623.468-1.623 1.59v1.837c0 .868.6 1.506 1.636 1.506.846 0 1.747-.567 1.747-1.896m-4.248 4.151l.876-.37c.384.564.896.82 1.551.82 1.121 0 1.82-.72 1.82-1.865v-1.247c-.44.843-1.221 1.181-2.007 1.181-1.47 0-2.357-.88-2.357-2.299v-1.748c0-1.66 1.176-2.487 2.39-2.487.723 0 1.643.37 1.975 1.208v-1.072h.925V24.5c0 1.51-.925 2.774-2.816 2.774-.958 0-1.908-.385-2.357-1.228M135.806 20.926v-.368c0-.985-.577-1.721-1.66-1.721-1.039 0-1.722.78-1.722 1.805v.284h3.382zm-4.372 1.255v-1.367c0-1.778 1.205-2.779 2.761-2.779 1.429 0 2.569.867 2.569 2.54v1.022h-4.34v.668c0 1.064.724 1.73 1.853 1.73.748 0 1.287-.396 1.633-.838l.74.442c-.583.903-1.508 1.213-2.438 1.213-1.584 0-2.778-.856-2.778-2.631zM138.046 18.167h.931v1.123h.024c.447-.84 1.247-1.26 2.134-1.26 1.004 0 1.583.578 1.82 1.29h.016c.468-.829 1.28-1.29 2.212-1.29 1.247 0 2.074.788 2.074 2.051v4.557h-.955v-4.11c0-1.09-.487-1.66-1.396-1.66-.966 0-1.736.796-1.766 1.854v3.916h-.952v-4.134c-.03-1.045-.48-1.636-1.396-1.636-.816 0-1.785.649-1.785 1.87v3.9h-.96v-6.471zM152.908 20.926v-.368c0-.985-.582-1.721-1.66-1.721-1.042 0-1.725.78-1.725 1.805v.284h3.385zm-4.375 1.255v-1.367c0-1.778 1.205-2.779 2.767-2.779 1.42 0 2.557.867 2.557 2.54v1.022h-4.334v.668c0 1.064.718 1.73 1.853 1.73.743 0 1.282-.396 1.63-.838l.732.442c-.577.903-1.505 1.213-2.427 1.213-1.584 0-2.778-.856-2.778-2.631zM155.156 18.167h.925v1.123h.024c.457-.84 1.26-1.26 2.128-1.26 1.369 0 2.07.898 2.07 2.136v4.472h-.963v-4.11c0-1.148-.544-1.66-1.406-1.66-.98 0-1.829.733-1.829 1.96v3.81h-.95v-6.471zM162.306 23.291v-4.333h-1.115v-.778h1.115v-2.023h.955v2.023h1.79v.778h-1.79v4.08c0 .651.338.842.914.842.335 0 .632-.052.94-.117v.832c-.398.123-.931.163-1.193.163-.857 0-1.616-.36-1.616-1.467M169.021 15.437L174.914 15.437 174.914 16.356 170.068 16.356 170.068 19.441 174.144 19.441 174.144 20.354 170.068 20.354 170.068 23.711 174.944 23.711 174.944 24.641 169.021 24.641zM180.165 22.026v-1.358c0-1.121-.811-1.83-1.777-1.83-.79 0-1.63.483-1.63 1.59v2.034c0 .868.637 1.514 1.657 1.514.838 0 1.75-.7 1.75-1.95m-4.375.475v-1.983c0-1.737 1.2-2.487 2.47-2.487.8 0 1.576.452 1.867 1.183h.038v-3.76h.955v9.187h-.93v-1.129h-.025c-.441.898-1.35 1.299-2.025 1.299-1.382 0-2.35-.879-2.35-2.31M182.697 22.644v-4.478h.963v4.12c0 1.146.555 1.645 1.42 1.645.964 0 1.816-.73 1.816-1.96v-3.805h.95v6.471h-.929V23.52h-.021c-.452.857-1.263 1.277-2.126 1.277-1.379 0-2.073-.928-2.073-2.152M189.104 22.196v-1.448c0-1.712 1.107-2.71 2.677-2.71 1.48 0 2.544.842 2.544 2.244v.164h-.92v-.213c0-.72-.541-1.397-1.61-1.397-1.075 0-1.701.737-1.701 1.822v1.558c0 1.047.555 1.775 1.714 1.775 1.061 0 1.597-.663 1.597-1.383v-.185h.92v.144c0 1.391-1.026 2.245-2.517 2.245-1.608 0-2.704-.944-2.704-2.616M199.344 22.284v-.622h-1.67c-.827 0-1.614.221-1.614 1.187 0 .788.67 1.17 1.461 1.17 1.285 0 1.823-.717 1.823-1.735m-4.23.625c0-1.41 1.267-1.953 2.388-1.953h1.842v-.903c0-.93-.615-1.268-1.542-1.268-.757 0-1.527.273-1.527 1.01v.215h-.879v-.191c0-1.317 1.238-1.787 2.444-1.787 1.306 0 2.468.45 2.468 1.904v3.134c0 .362.051 1.317.092 1.57h-.944c-.025-.19-.046-.747-.057-.91h-.027c-.54.883-1.315 1.055-2.11 1.055-1.21 0-2.149-.687-2.149-1.876M202.275 23.291v-4.333h-1.116v-.778h1.116v-2.023h.958v2.023h1.787v.778h-1.787v4.08c0 .651.332.842.909.842.334 0 .63-.052.936-.117v.832c-.398.123-.928.163-1.187.163-.86 0-1.616-.36-1.616-1.467M206.078 24.638h.947v-6.472h-.947v6.472zm0-7.873h.947V15.36h-.947v1.405zM212.77 22.247v-1.718c0-.98-.576-1.672-1.732-1.672-1.067 0-1.72.624-1.72 1.72v1.708c0 1.017.615 1.707 1.758 1.707 1.069 0 1.695-.589 1.695-1.745m-4.422.057v-1.68c0-1.693 1.238-2.585 2.689-2.585 1.591 0 2.71.94 2.71 2.577v1.58c0 1.698-1.206 2.615-2.672 2.615-1.584 0-2.727-.862-2.727-2.507M215.053 18.167h.925v1.123h.033c.45-.84 1.252-1.26 2.117-1.26 1.371 0 2.07.898 2.07 2.136v4.472h-.965v-4.11c0-1.148-.542-1.66-1.399-1.66-.982 0-1.823.733-1.823 1.96v3.81h-.958v-6.471z" mask="url(#prefix__b)"/>
        </g>
        <g transform="translate(0 -2) translate(0 .676)">
            <mask id="prefix__e" fill="#fff">
                <use xlink:href="#prefix__c"/>
            </mask>
            <path fill="url(#prefix__d)" d="M67.904 2.3v22.35h16.752v-4.804H74.192V15.89h8.824v-4.805h-8.824V7.132h10.437V2.299H67.904zm-10.849 0l-3.847 10.32h-.063L49.243 2.3h-8.22v4.832h4.806L51.02 21.42h4.155l3.812-10.683h.07V24.65h6.06V2.3h-8.062zm-36.836 0v22.35h6.288v-7.648H28.5l4.008 7.647h6.911L34.51 16c2.816-1.255 4.097-3.884 4.097-6.612 0-3.957-2.666-7.088-8.16-7.088H20.22zm6.288 4.832h3.118c1.853 0 2.85 1.132 2.85 2.694 0 1.541-1.032 2.695-2.88 2.695h-3.088V7.13zM0 2.299v22.35h6.285v-7.42h4.351c5.635 0 7.847-3.898 7.847-7.656 0-3.947-2.634-7.274-7.88-7.274H0zm6.285 4.833h3.197c1.843 0 2.871 1.132 2.871 2.694 0 1.503-1.056 2.695-2.87 2.695H6.284V7.13zm34.738 17.517h6.06V10.587h-6.06V24.65z" mask="url(#prefix__e)"/>
        </g>
    </g>
</svg>
