<svg xmlns="http://www.w3.org/2000/svg" xmlns:xlink="http://www.w3.org/1999/xlink" width="33" height="54" viewBox="0 0 33 54">
    <defs>
        <path id="prefix__a" d="M16.335 0C7.251.062-.062 7.476.001 16.56c.061 9.084 16.701 36.833 16.701 36.833s16.135-27.767 16.193-36.956v-.102C32.833 7.326 25.54.06 16.56 0h-.225zM8.563 15.993c-.03-4.353 3.475-7.907 7.827-7.936 4.353-.03 7.907 3.475 7.936 7.828.03 4.352-3.475 7.906-7.827 7.936h-.056c-4.327 0-7.851-3.494-7.88-7.828z"/>
    </defs>
    <g fill="none" fill-rule="evenodd">
        <mask id="prefix__b" fill="#fff">
            <use xlink:href="#prefix__a"/>
        </mask>
        <path fill="#CF0F11" d="M16.335 0C7.251.062-.062 7.476.001 16.56c.061 9.084 16.701 36.833 16.701 36.833s16.135-27.767 16.193-36.956v-.102C32.833 7.326 25.54.06 16.56 0h-.225zM8.563 15.993c-.03-4.353 3.475-7.907 7.827-7.936 4.353-.03 7.907 3.475 7.936 7.828.03 4.352-3.475 7.906-7.827 7.936h-.056c-4.327 0-7.851-3.494-7.88-7.828z" mask="url(#prefix__b)"/>
    </g>
</svg>
