<svg xmlns="http://www.w3.org/2000/svg" xmlns:xlink="http://www.w3.org/1999/xlink" width="173" height="49" viewBox="0 0 173 49">
    <defs>
        <path id="prefix__a" d="M0 48.234L172.473 48.234 172.473 0 0 0z"/>
    </defs>
    <g fill="none" fill-rule="evenodd">
        <path fill="#575756" d="M126.792 5.849c-.652-.74-1.36-1.277-2.117-1.61-.758-.332-1.594-.5-2.512-.5-1.017 0-1.92.168-2.705.5-.786.333-1.433.797-1.942 1.389-.508.594-.896 1.276-1.156 2.052-.265.78-.393 1.613-.393 2.5s.152 1.721.45 2.498c.3.781.719 1.463 1.256 2.055.538.595 1.185 1.055 1.943 1.387.76.334 1.606.5 2.547.5 2.016 0 3.573-.713 4.671-2.148l2.278 2.037c-.894.963-1.937 1.669-3.14 2.113-1.203.44-2.474.664-3.809.664-1.412 0-2.705-.224-3.884-.664-1.172-.444-2.176-1.076-2.999-1.892-.826-.813-1.465-1.776-1.924-2.887-.456-1.11-.687-2.331-.687-3.663 0-1.308.231-2.518.687-3.626.459-1.11 1.106-2.074 1.942-2.89.84-.813 1.838-1.447 3.004-1.905 1.162-.455 2.449-.681 3.861-.681 1.36 0 2.648.22 3.864.663 1.216.445 2.283 1.134 3.203 2.073l-2.438 2.035zM131.58 10.179c0-1.358.248-2.587.746-3.697.498-1.11 1.177-2.069 2.04-2.871.864-.803 1.895-1.424 3.098-1.872 1.203-.442 2.51-.665 3.924-.665 1.412 0 2.718.223 3.924.665 1.2.448 2.236 1.069 3.098 1.872.862.802 1.544 1.76 2.04 2.87.497 1.111.744 2.34.744 3.698 0 1.36-.247 2.592-.745 3.7-.495 1.113-1.177 2.068-2.04 2.871-.861.805-1.897 1.424-3.097 1.868-1.206.443-2.512.666-3.924.666-1.413 0-2.721-.223-3.924-.666-1.203-.444-2.234-1.063-3.099-1.868-.862-.803-1.54-1.758-2.039-2.871-.498-1.108-.747-2.34-.747-3.7m3.295 0c0 .916.152 1.758.453 2.537.3.779.737 1.458 1.314 2.034.574.579 1.26 1.04 2.06 1.374.797.331 1.69.494 2.687.494.993 0 1.89-.163 2.689-.494.797-.335 1.481-.795 2.058-1.374.574-.576 1.011-1.255 1.316-2.034.298-.78.45-1.621.45-2.537 0-.913-.152-1.758-.45-2.534-.305-.78-.742-1.458-1.316-2.034-.577-.582-1.261-1.04-2.058-1.374-.8-.332-1.696-.495-2.69-.495-.995 0-1.89.163-2.686.495-.8.334-1.486.792-2.06 1.374-.577.576-1.015 1.255-1.314 2.034-.301.776-.453 1.62-.453 2.534M155.943 5.628c0-.79-.029-1.53-.078-2.221-.055-.69-.082-1.319-.082-1.89h2.907c0 .471.013.94.037 1.408.026.471.042.95.042 1.442h.076c.21-.418.506-.824.88-1.218.383-.395.834-.75 1.358-1.056.522-.307 1.112-.555 1.765-.74.655-.186 1.357-.278 2.117-.278 1.201 0 2.244.174 3.122.518.876.345 1.6.827 2.176 1.445.574.616 1.001 1.363 1.271 2.237.278.876.414 1.832.414 2.871v10.695h-3.061V8.44c0-1.455-.338-2.603-1.017-3.442-.68-.84-1.738-1.26-3.18-1.26-.993 0-1.848.162-2.569.48-.718.322-1.308.78-1.764 1.372-.458.592-.796 1.295-1.02 2.11-.222.813-.332 1.71-.332 2.698v8.442h-3.062V5.628z"/>
        <mask id="prefix__b" fill="#fff">
            <use xlink:href="#prefix__a"/>
        </mask>
        <path fill="#575756" d="M104.589 18.845L107.648 18.845 107.648 1.521 104.589 1.521z" mask="url(#prefix__b)"/>
        <path fill="#498BCA" d="M52.713 20.456c-.197-1.208-.49-2.397-.858-3.555-.364-1.155-.849-2.266-1.389-3.332-.537-1.068-1.169-2.073-1.843-3.029-.673-.95-1.404-1.842-2.19-2.655-.205-.208-.378-.403-.604-.613-.199-.187-.396-.371-.592-.558-.186-.182-.406-.363-.616-.545-.212-.176-.422-.355-.632-.531-1.688-1.356-3.465-2.419-5.187-3.221-1.72-.814-3.392-1.35-4.891-1.708C32.406.343 31.069.16 29.966.085c-.276-.018-.535-.047-.781-.058-.244-.008-.475-.013-.69-.016-.215-.005-.411-.008-.592-.01-.181.005-.346.008-.496.01-.587.024-.901.035-.901.035l.702.089c.055.01.116.018.178.029.063.013.126.029.194.045.137.031.286.07.443.108.163.029.328.094.504.16.175.063.364.121.555.197.768.327 1.633.848 2.504 1.569.867.726 1.722 1.676 2.516 2.797.786 1.124 1.502 2.434 2.136 3.86.147.364.304.711.448 1.093.032.09.066.176.097.263-.013.005-.026.005-.041.008-.517.09-1.049.176-1.592.271-.542.076-1.082.126-1.635.197-.275.03-.553.066-.834.098-.139.018-.278.037-.42.05l-.432.031c-.579.037-1.16.071-1.748.121-.587.058-1.185.048-1.78.066-.351.013-.705.021-1.056.03-.042-1.261-.108-2.459-.168-3.559-.055-1.129-.126-2.166-.191-3.081-.058-.916-.126-1.719-.181-2.377-.053-.658-.11-1.17-.142-1.523-.036-.356-.057-.542-.057-.542l-.055.542c-.032.352-.09.865-.142 1.523-.052.658-.123 1.46-.18 2.377-.066.915-.137 1.952-.192 3.081-.06 1.1-.123 2.298-.168 3.558-.354-.008-.71-.02-1.064-.029-.608-.018-1.222-.01-1.796-.068-.579-.05-1.156-.087-1.727-.121l-.43-.032c-.141-.013-.283-.031-.422-.05-.286-.031-.566-.068-.844-.1-.558-.07-1.109-.124-1.643-.197-.535-.095-1.057-.18-1.563-.266-.018-.003-.036-.008-.052-.01.031-.082.063-.169.092-.253.141-.374.304-.734.453-1.1.634-1.432 1.347-2.74 2.139-3.863.792-1.121 1.646-2.071 2.514-2.795C22.299 1.519 23.16 1 23.934.674c.189-.078.378-.134.553-.2.176-.063.341-.128.501-.157.16-.037.307-.077.44-.108.069-.016.134-.032.197-.045.063-.01.123-.018.18-.029l.7-.09s-.311-.01-.898-.034c-.145-.002-.312-.005-.493-.01-.181.002-.38.005-.593.01-.215.006-.445.01-.692.016-.246.013-.505.04-.78.06-1.104.077-2.441.259-3.943.624-1.502.358-3.174.895-4.891 1.708-1.722.803-3.497 1.863-5.188 3.221-.828.69-1.67 1.424-2.44 2.242l-.286.298-.288.32c-.189.22-.385.438-.566.661-.36.45-.724.903-1.054 1.382-.673.953-1.305 1.96-1.843 3.029-.54 1.063-1.027 2.174-1.389 3.329-.367 1.158-.663 2.347-.86 3.555-.186 1.21-.285 2.434-.301 3.66l.026.908c.003.29.037.611.06.922.04.628.132 1.226.215 1.834.197 1.208.49 2.392.86 3.552.362 1.156.847 2.269 1.387 3.332.537 1.068 1.169 2.074 1.843 3.029.673.953 1.41 1.845 2.19 2.658.205.208.378.4.604.613.199.182.396.371.592.555.186.18.406.363.616.545.212.176.425.358.632.534 1.69 1.355 3.465 2.419 5.187 3.221 1.72.81 3.39 1.348 4.894 1.708 1.502.36 2.839.547 3.94.621.278.019.537.05.78.06.247.006.478.011.693.014l.592.013.496-.013.899-.032s-.241-.037-.698-.092l-.18-.024c-.058-.018-.126-.034-.194-.05-.137-.031-.283-.068-.446-.105-.16-.031-.325-.097-.5-.158-.176-.065-.365-.123-.554-.202-.768-.327-1.635-.845-2.506-1.566-.867-.73-1.722-1.68-2.516-2.797-.786-1.127-1.502-2.437-2.136-3.864-.147-.36-.304-.71-.448-1.092-.032-.087-.066-.176-.097-.263.013-.003.026-.003.039-.008.519-.087 1.051-.176 1.596-.27.538-.077 1.078-.127 1.633-.196.275-.031.553-.065.834-.102.139-.013.278-.034.42-.048l.432-.029c.576-.036 1.16-.076 1.748-.123.587-.058 1.182-.048 1.78-.066.351-.01.705-.018 1.059-.026.042 1.26.107 2.455.168 3.56.055 1.124.125 2.16.188 3.077.058.918.129 1.718.184 2.376.05.658.107 1.174.139 1.526l.055.542.057-.542c.032-.352.09-.868.142-1.526.052-.658.123-1.458.18-2.376.064-.916.134-1.953.19-3.077.06-1.105.125-2.3.167-3.56l1.067.026c.608.018 1.222.01 1.796.071.579.045 1.156.084 1.73.121l.427.03c.141.012.283.033.425.046.283.037.563.071.84.103.562.071 1.11.124 1.647.2.532.09 1.054.179 1.56.263.018.005.034.008.052.01-.031.082-.063.17-.092.253-.141.371-.306.737-.453 1.1-.634 1.432-1.347 2.74-2.139 3.866-.794 1.119-1.646 2.069-2.514 2.795-.87.724-1.735 1.24-2.506 1.566-.191.079-.38.137-.555.202-.176.06-.341.127-.501.158-.16.04-.307.074-.44.105-.069.016-.134.032-.197.05l-.178.024c-.459.055-.705.092-.705.092s.314.01.901.032c.15.002.312.008.493.013.184-.003.38-.008.593-.013l.692-.016c.246-.01.505-.04.78-.06 1.104-.074 2.441-.258 3.943-.622 1.502-.36 3.174-.897 4.894-1.707 1.72-.803 3.5-1.864 5.185-3.221.828-.693 1.67-1.424 2.443-2.245l.283-.298.288-.318c.189-.218.385-.437.566-.66.36-.453.724-.906 1.054-1.385.674-.952 1.308-1.958 1.843-3.029.54-1.063 1.027-2.173 1.389-3.329.37-1.16.663-2.344.86-3.552.08-.606.175-1.216.215-1.824.02-.305.057-.616.057-.918l.029-.942c-.013-1.153-.115-2.448-.301-3.64m-6.498-10.332c.32.43.647.861.943 1.319 1.227 1.803 2.173 3.842 2.863 5.981.327 1.077.592 2.18.762 3.3.158 1.103.236 2.137.244 3.303-.325-.026-.726-.063-1.198-.097-.697-.048-1.541-.116-2.516-.169-.973-.063-2.068-.126-3.264-.181-.93-.042-1.92-.092-2.959-.13-.037-1.636-.155-3.344-.383-4.965-.073-.46-.146-.921-.222-1.376-.074-.456-.186-.906-.278-1.353-.05-.224-.092-.45-.147-.671l-.173-.66c-.115-.437-.223-.874-.367-1.298-.139-.426-.265-.85-.406-1.268-.1-.25-.194-.5-.291-.756.382-.131.76-.257 1.119-.381.433-.166.841-.345 1.227-.51l.569-.24c.089-.04.178-.082.267-.116.086-.045.173-.09.257-.132.666-.35 1.253-.644 1.704-.92.288-.18.53-.34.728-.469.16.163.333.374.5.555.177.2.35.4.515.61.165.209.34.411.506.624m-11.19-5.718c-.934-1.126-1.958-2.045-2.965-2.724-.983-.67-1.95-1.09-2.778-1.336.201.031.411.073.631.107 1.072.177 2.354.49 3.78.943 1.42.46 2.978 1.102 4.571 1.968 1.589.871 3.201 1.979 4.737 3.316.183.17.372.342.556.516.183.168.372.339.558.539.144.15.291.297.438.453-.22.079-.477.17-.774.286-.246.108-.534.177-.836.277-.301.095-.629.2-.977.308-.339.12-.732.2-1.128.31-.4.1-.81.227-1.25.327-.396.081-.805.173-1.232.265-.07-.163-.141-.326-.215-.49-.167-.378-.37-.765-.55-1.136-.752-1.479-1.625-2.8-2.566-3.929m-6.648 8.547c.621-.018 1.24-.036 1.85-.115 1.222-.124 2.423-.235 3.587-.474.576-.11 1.156-.2 1.698-.326.535-.137 1.057-.277 1.562-.408.058-.013.113-.027.168-.042l.241.747c.12.397.223.813.338 1.224.422 1.647.755 3.379.978 5.152.176 1.55.278 3.074.312 4.671-1.046-.034-2.126-.07-3.234-.092-1.497-.037-3.041-.063-4.611-.079-1.245-.018-2.506-.02-3.77-.026-.005-1.192-.007-2.382-.026-3.558-.015-1.479-.044-2.94-.084-4.347-.015-.784-.042-1.548-.068-2.29.352-.013.705-.026 1.06-.037m-10.853-.907c.546.126 1.114.213 1.688.32 1.143.237 2.362.353 3.597.474.624.08 1.224.095 1.835.113.348.01.705.027 1.053.037-.028.745-.052 1.508-.07 2.29-.037 1.408-.069 2.868-.084 4.347-.016 1.176-.021 2.366-.027 3.558-1.263.003-2.524.008-3.769.024-1.57.015-3.114.042-4.61.079-1.11.02-2.19.058-3.232.092.028-1.569.133-3.132.309-4.669.22-1.77.556-3.51.978-5.15.112-.408.21-.805.33-1.21.084-.258.162-.508.244-.76.055.012.11.028.165.041.516.137 1.048.274 1.593.414M10.01 6.677c1.54-1.337 3.148-2.445 4.74-3.316 1.59-.865 3.148-1.508 4.571-1.968C20.747.94 22.029.627 23.101.45c.225-.034.44-.077.647-.11-.833.25-1.806.67-2.791 1.344-1.007.676-2.03 1.595-2.965 2.724-.938 1.126-1.814 2.45-2.566 3.923-.178.371-.375.745-.548 1.127-.07.17-.144.331-.218.5-.43-.092-.846-.187-1.247-.271-.443-.1-.842-.227-1.243-.324-.393-.108-.778-.184-1.122-.305-.35-.11-.676-.221-.983-.313-.301-.1-.595-.172-.836-.274-.293-.116-.55-.208-.77-.287.503-.532 1.027-1.029 1.551-1.508M2.993 17.424c.685-2.142 1.636-4.178 2.86-5.981.296-.46.624-.892.946-1.319.163-.213.333-.41.496-.615l.249-.308.27-.31c.165-.19.333-.374.503-.559.202.132.446.295.737.477.456.279 1.035.568 1.7.918.082.04.169.087.255.13.09.036.178.078.27.117l.569.243c.39.165.807.35 1.237.513.357.123.729.247 1.106.381-.089.245-.186.49-.28.737-.144.41-.273.848-.414 1.274-.147.431-.252.866-.37 1.305-.055.219-.113.44-.17.66-.055.222-.1.445-.15.67-.089.446-.202.896-.275 1.352-.076.455-.15.915-.225 1.376-.226 1.632-.344 3.297-.383 4.963-1.038.037-2.029.087-2.957.132-1.198.052-2.29.116-3.266.179-.97.052-1.819.12-2.516.17-.47.035-.87.07-1.198.095.008-1.102.086-2.207.244-3.3.17-1.12.432-2.223.762-3.3M6.8 38.111c-.32-.431-.647-.863-.943-1.318-1.227-1.805-2.173-3.842-2.863-5.984-.327-1.077-.592-2.18-.762-3.298-.068-.56-.152-1.129-.181-1.681-.019-.28-.047-.545-.047-.848l-.016-.773c.328.029.729.063 1.198.094.697.05 1.546.119 2.516.171.975.064 2.068.13 3.266.182.928.042 1.919.092 2.957.132.037 1.65.155 3.34.383 4.963.073.46.146.918.222 1.376.076.455.187.903.278 1.35.05.224.092.453.147.669l.173.663c.115.44.223.876.367 1.297.139.426.265.853.412 1.266.094.255.188.505.285.755l-1.119.382c-.433.168-.841.347-1.23.51-.19.084-.38.163-.563.245-.092.04-.18.079-.27.116-.086.044-.173.09-.257.129-.668.352-1.25.644-1.704.92-.288.18-.53.34-.73.472-.158-.163-.329-.374-.499-.558-.176-.197-.349-.4-.514-.61-.165-.206-.34-.409-.506-.622m11.193 5.716c.933 1.13 1.955 2.047 2.962 2.726.98.669 1.95 1.09 2.778 1.335-.201-.032-.411-.074-.631-.108-1.072-.177-2.354-.49-3.78-.942-1.42-.458-2.978-1.103-4.571-1.969-1.589-.87-3.2-1.979-4.74-3.313-.18-.171-.367-.342-.553-.518-.183-.169-.372-.34-.558-.537l-.438-.455c.22-.077.477-.172.774-.287.246-.108.534-.174.836-.277.301-.094.629-.2.977-.31.341-.119.732-.195 1.128-.305.4-.1.81-.227 1.25-.327.396-.084.807-.173 1.232-.266.07.164.141.327.215.49.168.379.37.763.55 1.137.755 1.479 1.628 2.8 2.569 3.926m6.645-8.547c-.621.02-1.24.037-1.85.116-1.222.126-2.423.236-3.587.473-.576.11-1.156.203-1.698.327-.535.139-1.054.276-1.562.407-.058.014-.113.027-.17.043-.08-.248-.158-.495-.24-.745-.117-.403-.222-.813-.335-1.224-.424-1.653-.757-3.379-.978-5.155-.178-1.545-.28-3.087-.311-4.669 1.043.037 2.123.074 3.231.095 1.497.034 3.041.06 4.611.076 1.245.019 2.506.024 3.772.027.003 1.192.008 2.379.026 3.558.016 1.479.048 2.94.084 4.347.016.779.042 1.542.071 2.29-.351.01-.71.023-1.064.034m10.852.91c-.546-.126-1.114-.213-1.688-.326-1.14-.232-2.362-.347-3.597-.471-.626-.08-1.224-.092-1.835-.113-.35-.01-.705-.024-1.053-.034.026-.748.052-1.511.068-2.29.042-1.408.068-2.868.084-4.347.018-1.18.023-2.366.029-3.558 1.263-.005 2.524-.01 3.769-.03 1.57-.015 3.114-.041 4.61-.075 1.11-.024 2.19-.058 3.238-.095l-.016.629c.003.452-.04.905-.063 1.358-.042.902-.141 1.794-.236 2.684-.22 1.774-.556 3.51-.975 5.15-.113.41-.212.808-.333 1.21-.084.258-.162.51-.244.76-.055-.012-.11-.025-.165-.041-.516-.134-1.048-.271-1.593-.41m7.515 5.368c-1.539 1.334-3.148 2.442-4.74 3.313-1.59.863-3.15 1.51-4.57 1.968-1.427.456-2.709.766-3.78.942-.226.035-.441.08-.646.108.831-.244 1.804-.666 2.79-1.34 1.006-.676 2.03-1.594 2.964-2.726.941-1.126 1.817-2.447 2.566-3.92.178-.374.375-.748.548-1.132.07-.169.144-.33.218-.498l1.247.272c.44.1.844.226 1.243.326.393.108.78.181 1.124.302.349.111.674.222.98.314.305.1.596.168.837.273.296.116.55.208.77.287-.503.53-1.027 1.03-1.551 1.51m7.963-15.736c-.029.566-.113 1.129-.184 1.69-.17 1.118-.432 2.22-.762 3.3-.685 2.139-1.636 4.176-2.86 5.98-.294.459-.621.89-.946 1.32-.163.212-.33.41-.496.612l-.249.308-.27.31c-.165.193-.333.375-.503.559-.202-.132-.443-.295-.737-.474-.456-.279-1.035-.568-1.7-.92-.085-.04-.169-.085-.255-.127-.09-.04-.178-.082-.267-.119-.19-.081-.378-.16-.572-.244-.39-.166-.807-.348-1.237-.51-.357-.125-.726-.25-1.106-.383.092-.244.186-.492.28-.736.144-.414.273-.85.414-1.28.145-.428.255-.86.367-1.3.058-.218.116-.439.173-.662.058-.222.097-.445.15-.669.089-.447.202-.895.278-1.35l.22-1.376c.113-.927.246-1.86.293-2.8.03-.471.071-.945.074-1.416l.018-.75c1.038-.04 2.029-.09 2.96-.132 1.195-.052 2.29-.118 3.263-.181.975-.053 1.819-.121 2.516-.169.472-.031.873-.068 1.2-.097l-.018.763c.006.282-.028.569-.044.853" mask="url(#prefix__b)"/>
        <path fill="#575756" d="M76.697 14.733c0 .79.027 1.529.076 2.22.056.693.082 1.322.082 1.89h-2.907c0-.47-.013-.94-.034-1.407-.03-.469-.042-.95-.042-1.443h-.076c-.21.419-.509.824-.884 1.219-.382.397-.833.747-1.352 1.055-.524.308-1.117.555-1.77.742-.655.184-1.357.277-2.115.277-1.203 0-2.246-.174-3.122-.519-.875-.345-1.599-.826-2.175-1.445-.577-.615-1.002-1.36-1.274-2.236-.278-.877-.412-1.832-.412-2.872V1.52h3.06v10.4c0 1.455.337 2.602 1.016 3.442.684.84 1.74 1.258 3.182 1.258.994 0 1.846-.16 2.57-.48.717-.32 1.307-.778 1.76-1.37.46-.592.803-1.295 1.023-2.11.223-.814.335-1.711.335-2.703V1.52h3.06v13.213zM82.503 5.628c0-.79-.026-1.53-.078-2.221-.053-.69-.08-1.319-.08-1.89h2.905c0 .471.01.94.037 1.408.026.471.04.95.04 1.442h.078c.21-.418.506-.824.883-1.218.38-.395.831-.75 1.355-1.056.522-.307 1.112-.555 1.764-.74.653-.186 1.36-.278 2.118-.278 1.204 0 2.244.174 3.12.518.875.345 1.601.827 2.178 1.445.574.616.999 1.363 1.274 2.237.275.876.411 1.832.411 2.871v10.695H95.45V8.44c0-1.455-.338-2.603-1.02-3.442-.68-.84-1.74-1.26-3.179-1.26-.993 0-1.848.162-2.569.48-.718.322-1.308.78-1.761 1.372-.461.592-.802 1.295-1.025 2.11-.22.813-.333 1.71-.333 2.698v8.442h-3.059V5.628zM60.529 25.129L172.473 25.129 172.473 24.858 60.529 24.858zM167.516 35.392h.443V32.79h-.443v-.613h1.921c.572 0 1.004.113 1.413.506.396.373.574.89.574 1.42 0 .485-.173.97-.519 1.332-.404.43-.88.566-1.478.566h-1.911v-.608zm1.216-.05h.603c.388 0 .723-.047.988-.334.22-.242.33-.595.33-.905 0-.345-.1-.721-.353-.971-.276-.271-.577-.308-.954-.308h-.614v2.518zM158.815 35.467h.449l-.239-.574h-1.429l-.23.574h.438v.537h-1.654v-.61h.432l1.182-2.609h-.448v-.608h1.355l1.418 3.216h.433v.61h-1.707v-.536zm-.492-2.45h-.008l-.52 1.313h1.036l-.508-1.313zM164.012 35.392L164.455 35.392 164.455 32.789 164.012 32.789 164.012 32.176 167.016 32.176 167.016 33.329 166.242 33.329 166.242 32.829 165.228 32.829 165.228 33.787 166.405 33.787 166.405 34.35 165.228 34.35 165.228 35.363 166.242 35.363 166.242 34.845 167.016 34.845 167.016 36 164.012 36zM161.649 34.865c0 .316.225.587.6.587.333 0 .598-.2.598-.529 0-.379-.38-.474-.695-.558-.293-.084-.545-.152-.794-.326-.291-.208-.443-.497-.443-.84 0-.631.571-1.102 1.224-1.102.28 0 .55.084.723.297v-.216h.59v1.027h-.69c-.007-.282-.227-.495-.529-.495-.304 0-.55.174-.55.474 0 .373.349.455.663.54.315.083.608.162.87.35.257.197.404.483.404.802 0 .695-.545 1.2-1.284 1.2-.312 0-.585-.103-.779-.327v.253h-.613v-1.137h.705zM152.705 35.392h.438V32.79h-.438v-.613h1.798c.302 0 .598.027.842.2.26.187.38.453.38.76 0 .346-.186.667-.527.811.448.177.702.532.702.987 0 .305-.136.613-.38.81-.272.227-.584.256-.93.256h-1.885v-.608zm1.208-.029h.428c.18 0 .4.005.56-.097.147-.087.229-.255.229-.416 0-.171-.071-.326-.223-.432-.165-.113-.362-.113-.561-.113h-.433v1.058zm.008-1.66h.39c.187 0 .365.01.522-.098.126-.081.181-.218.181-.36 0-.156-.07-.298-.21-.384-.141-.082-.322-.072-.487-.072h-.396v.914zM149.341 35.392L149.784 35.392 149.784 36 148.133 36 148.133 35.392 148.571 35.392 148.571 34.668 147.496 32.789 147.087 32.789 147.087 32.176 148.655 32.176 148.655 32.789 148.28 32.789 148.961 34.05 149.638 32.789 149.25 32.789 149.25 32.176 150.812 32.176 150.812 32.789 150.408 32.789 149.341 34.668zM150.822 34.918L152.274 34.918 152.274 34.271 150.822 34.271zM141.324 32.18L141.324 32.785 141.767 32.785 141.767 35.39 141.324 35.39 141.324 36.001 142.976 36.001 142.976 35.39 142.54 35.39 142.54 32.785 142.976 32.785 142.976 32.18zM145.446 35.392L145.889 35.392 145.889 36 144.229 36 144.229 35.392 144.672 35.392 144.672 32.824 144.08 32.824 144.08 33.382 143.464 33.382 143.464 32.176 146.654 32.176 146.654 33.382 146.043 33.382 146.043 32.824 145.446 32.824zM134.692 32.789h-.438v-.61h1.811c.399 0 .745.034 1.062.294.317.258.482.613.482 1.008 0 .55-.39 1.103-1.006 1.15l.631.758h.462v.613h-.95l-1.284-1.72v1.107h.349v.613h-1.557v-.613h.438v-2.6zm1.192 1.424c.239 0 .472-.01.674-.158.184-.132.278-.334.278-.55 0-.206-.09-.41-.265-.542-.17-.132-.359-.132-.574-.132h-.535v1.382h.422zM138.962 34.865c0 .316.225.587.6.587.335 0 .598-.2.598-.529 0-.379-.38-.474-.692-.558-.297-.084-.546-.152-.795-.326-.29-.208-.443-.497-.443-.84 0-.631.572-1.102 1.225-1.102.277 0 .55.084.72.297v-.216h.593v1.027h-.695c-.005-.282-.225-.495-.524-.495-.304 0-.55.174-.55.474 0 .373.348.455.663.54.314.083.605.162.87.35.257.197.4.483.4.802 0 .695-.544 1.2-1.28 1.2-.313 0-.588-.103-.782-.327v.253h-.613v-1.137h.705zM123.373 36.001L122.654 36.001 120.744 33.483 120.744 35.393 121.186 35.393 121.186 36.001 119.535 36.001 119.535 35.393 119.973 35.393 119.973 32.788 119.535 32.788 119.535 32.178 120.67 32.178 122.599 34.741 122.599 32.788 122.156 32.788 122.156 32.178 123.81 32.178 123.81 32.788 123.373 32.788zM124.205 32.18L124.205 32.785 124.645 32.785 124.645 35.39 124.205 35.39 124.205 36.001 125.856 36.001 125.856 35.39 125.421 35.39 125.421 32.785 125.856 32.785 125.856 32.18zM128.705 36.001L127.861 36.001 126.694 32.788 126.259 32.788 126.259 32.178 127.9 32.178 127.9 32.788 127.515 32.788 128.317 34.993 129.174 32.788 128.778 32.788 128.778 32.178 130.377 32.178 130.377 32.788 129.944 32.788zM130.75 35.392L131.193 35.392 131.193 32.789 130.75 32.789 130.75 32.176 133.754 32.176 133.754 33.329 132.983 33.329 132.983 32.829 131.963 32.829 131.963 33.787 133.146 33.787 133.146 34.35 131.963 34.35 131.963 35.363 132.983 35.363 132.983 34.845 133.754 34.845 133.754 36 130.75 36zM105.423 34.09c0-1.124.96-2.009 2.14-2.009 1.153 0 2.112.89 2.112 1.977 0 1.118-.941 2.023-2.126 2.023-1.172 0-2.126-.89-2.126-1.992m3.458-.026c0-.687-.595-1.25-1.324-1.25-.737 0-1.34.555-1.34 1.255 0 .708.58 1.284 1.332 1.284.755 0 1.332-.581 1.332-1.29M110.336 32.789h-.438v-.61h1.811c.399 0 .745.034 1.062.294.317.258.482.613.482 1.008 0 .55-.39 1.103-1.006 1.15l.631.758h.462v.613h-.95l-1.284-1.72v1.107h.349v.613h-1.557v-.613h.438v-2.6zm1.192 1.424c.239 0 .472-.01.674-.158.184-.132.28-.334.28-.55 0-.206-.091-.41-.267-.542-.17-.132-.359-.132-.574-.132h-.535v1.382h.422zM119.182 32.177v.61h-.437v1.896c0 .4-.069.715-.373 1.008-.285.284-.665.386-1.07.386-.39 0-.754-.086-1.042-.355-.33-.305-.407-.64-.407-1.06v-1.874h-.437v-.61h1.58v.61h-.37v1.8c0 .181.006.376.119.534.125.18.338.269.558.269.202 0 .393-.074.519-.23.139-.165.152-.376.152-.573v-1.8h-.372v-.61h1.58zM102.572 32.789L102.129 32.789 102.129 32.178 105.154 32.178 105.154 33.331 104.383 33.331 104.383 32.831 103.345 32.831 103.345 33.813 104.519 33.813 104.519 34.376 103.345 34.376 103.345 35.389 103.788 35.389 103.788 36.002 102.129 36.002 102.129 35.389 102.572 35.389zM99.505 35.392L99.948 35.392 99.948 36 98.297 36 98.297 35.392 98.732 35.392 98.732 33.168 97.613 36 97.067 36 95.917 33.168 95.917 35.392 96.389 35.392 96.389 36 94.703 36 94.703 35.392 95.146 35.392 95.146 32.789 94.703 32.789 94.703 32.176 96.223 32.176 97.324 34.879 98.425 32.176 99.948 32.176 99.948 32.789 99.505 32.789zM94.332 32.177v.61h-.438v1.896c0 .4-.068.715-.37 1.008-.288.284-.668.386-1.074.386-.388 0-.752-.086-1.04-.355-.331-.305-.407-.64-.407-1.06v-1.874h-.438v-.61h1.58v.61h-.369v1.8c0 .181.005.376.118.534.126.18.336.269.556.269.204 0 .396-.074.522-.23.138-.165.152-.376.152-.573v-1.8h-.373v-.61h1.58zM88.496 32.18L88.496 32.785 88.939 32.785 88.939 35.39 88.496 35.39 88.496 36.001 90.147 36.001 90.147 35.39 89.712 35.39 89.712 32.785 90.147 32.785 90.147 32.18zM86.824 35.392L87.267 35.392 87.267 36 85.61 36 85.61 35.392 86.053 35.392 86.053 32.824 85.458 32.824 85.458 33.382 84.842 33.382 84.842 32.176 88.032 32.176 88.032 33.382 87.422 33.382 87.422 32.824 86.824 32.824zM74.26 34.865c0 .316.226.587.601.587.333 0 .595-.2.595-.529 0-.379-.377-.474-.692-.558-.296-.084-.545-.152-.792-.326-.293-.208-.445-.497-.445-.84 0-.631.571-1.102 1.224-1.102.28 0 .55.084.723.297v-.216h.59v1.027h-.69c-.007-.282-.227-.495-.529-.495-.304 0-.55.174-.55.474 0 .373.348.455.663.54.315.083.606.162.87.35.257.197.404.483.404.802 0 .695-.545 1.2-1.284 1.2-.312 0-.588-.103-.779-.327v.253h-.613v-1.137h.705zM76.582 34.09c0-1.124.957-2.009 2.137-2.009 1.156 0 2.115.89 2.115 1.977 0 1.118-.941 2.023-2.128 2.023-1.172 0-2.124-.89-2.124-1.992m3.455-.026c0-.687-.595-1.25-1.324-1.25-.736 0-1.336.555-1.336 1.255 0 .708.576 1.284 1.329 1.284.754 0 1.331-.581 1.331-1.29M81.492 32.789h-.438v-.61h1.811c.401 0 .747.034 1.065.294.317.258.48.613.48 1.008 0 .55-.389 1.103-1.005 1.15l.632.758h.459v.613h-.95l-1.283-1.72v1.107h.35v.613h-1.559v-.613h.438v-2.6zm1.193 1.424c.24 0 .474-.01.676-.158.18-.132.278-.334.278-.55 0-.206-.092-.41-.265-.542-.173-.132-.362-.132-.577-.132h-.534v1.382h.422zM72.763 36.001L72.045 36.001 70.134 33.483 70.134 35.393 70.577 35.393 70.577 36.001 68.926 36.001 68.926 35.393 69.364 35.393 69.364 32.788 68.926 32.788 68.926 32.178 70.063 32.178 71.99 34.741 71.99 32.788 71.547 32.788 71.547 32.178 73.201 32.178 73.201 32.788 72.763 32.788zM63.32 33.383c-.228-.364-.681-.585-1.12-.585-.765 0-1.325.548-1.325 1.266 0 .684.584 1.258 1.315 1.258.467 0 .892-.21 1.14-.579h.837c-.265.782-1.104 1.334-1.971 1.334-.546 0-1.101-.226-1.487-.59-.395-.378-.61-.894-.61-1.428 0-1.074.917-1.984 2.07-1.984.47 0 .923.15 1.253.473v-.386h.635v1.22h-.737zM64.493 34.09c0-1.124.959-2.009 2.136-2.009 1.156 0 2.115.89 2.115 1.977 0 1.118-.94 2.023-2.128 2.023-1.17 0-2.123-.89-2.123-1.992m3.454-.026c0-.687-.595-1.25-1.323-1.25-.734 0-1.337.555-1.337 1.255 0 .708.576 1.284 1.329 1.284.755 0 1.331-.581 1.331-1.29M171.079 46.003L169.829 46.003 166.524 41.638 166.524 44.946 167.292 44.946 167.292 46.003 164.427 46.003 164.427 44.946 165.184 44.946 165.184 40.432 164.427 40.432 164.427 39.369 166.395 39.369 169.74 43.811 169.74 40.432 168.972 40.432 168.972 39.369 171.837 39.369 171.837 40.432 171.079 40.432z" mask="url(#prefix__b)"/>
        <path fill="#575756" d="M157.22 42.688c0-1.95 1.665-3.481 3.712-3.481 1.998 0 3.662 1.54 3.662 3.426 0 1.94-1.636 3.508-3.69 3.508-2.03 0-3.683-1.54-3.683-3.453m5.994-.05c0-1.184-1.032-2.168-2.293-2.168-1.28 0-2.323.963-2.323 2.179 0 1.229 1.004 2.231 2.304 2.231 1.308 0 2.312-1.013 2.312-2.242M146.413 45.073h.779l-.415-.995h-2.471l-.404.995h.76v.932h-2.865v-1.06h.747l2.047-4.514h-.778v-1.06h2.354l2.461 5.573h.747v1.06h-2.962v-.93zm-.857-4.242h-.01l-.894 2.274h1.79l-.886-2.274zM151.993 44.944L152.761 44.944 152.761 46 149.886 46 149.886 44.944 150.654 44.944 150.654 40.497 149.624 40.497 149.624 41.463 148.557 41.463 148.557 39.373 154.09 39.373 154.09 41.463 153.029 41.463 153.029 40.497 151.993 40.497z" mask="url(#prefix__b)"/>
        <path fill="#575756" d="M156.512 44.944L157.269 44.944 157.269 46 154.404 46 154.404 44.944 155.172 44.944 155.172 40.431 154.404 40.431 154.404 39.373 157.269 39.373 157.269 40.431 156.512 40.431zM122.308 44.944h.768v-4.513h-.768v-1.058h3.334c.985 0 1.743.195 2.453.871.68.65.994 1.543.994 2.461 0 .847-.304 1.682-.907 2.31-.698.748-1.526.985-2.556.985h-3.318v-1.056zm2.107-.084h1.054c.668 0 1.247-.084 1.709-.584.385-.418.571-1.032.571-1.571 0-.592-.175-1.242-.608-1.679-.485-.466-1.004-.529-1.654-.529h-1.072v4.363zM135.398 39.373v1.055h-.757v3.29c0 .686-.118 1.234-.64 1.744-.503.495-1.16.669-1.86.669-.68 0-1.309-.145-1.812-.61-.571-.53-.7-1.117-.7-1.838v-3.255h-.757v-1.055h2.736v1.055h-.64v3.124c0 .316.008.65.208.926.217.308.582.463.964.463.354 0 .68-.129.905-.394.238-.293.256-.65.256-.995v-3.124h-.64v-1.055h2.737zM140.774 41.462c-.393-.631-1.182-1.013-1.94-1.013-1.329 0-2.301.948-2.301 2.192 0 1.187 1.012 2.18 2.283 2.18.807 0 1.544-.359 1.979-1h1.447c-.464 1.357-1.914 2.31-3.416 2.31-.946 0-1.913-.387-2.581-1.019-.687-.66-1.065-1.552-1.065-2.484 0-1.852 1.6-3.431 3.594-3.431.818 0 1.607.26 2.176.815v-.668h1.1v2.118h-1.276zM116.717 44.944L117.485 44.944 117.485 40.431 116.717 40.431 116.717 39.373 121.92 39.373 121.92 41.368 120.586 41.368 120.586 40.505 118.825 40.505 118.825 42.155 120.872 42.155 120.872 43.139 118.825 43.139 118.825 44.897 120.586 44.897 120.586 43.997 121.92 43.997 121.92 46 116.717 46zM108.587 44.944L109.355 44.944 109.355 40.431 108.587 40.431 108.587 39.373 113.793 39.373 113.793 41.368 112.456 41.368 112.456 40.505 110.695 40.505 110.695 42.155 112.742 42.155 112.742 43.139 110.695 43.139 110.695 44.897 112.456 44.897 112.456 43.997 113.793 43.997 113.793 46 108.587 46zM105.526 46.003L104.055 46.003 102.042 40.432 101.282 40.432 101.282 39.369 104.129 39.369 104.129 40.432 103.458 40.432 104.844 44.259 106.333 40.432 105.654 40.432 105.654 39.369 108.42 39.369 108.42 40.432 107.67 40.432zM95.788 44.944L96.556 44.944 96.556 46 93.681 46 93.681 44.944 94.449 44.944 94.449 40.497 93.419 40.497 93.419 41.463 92.352 41.463 92.352 39.373 97.888 39.373 97.888 41.463 96.824 41.463 96.824 40.497 95.788 40.497zM100.309 44.944L101.064 44.944 101.064 46 98.199 46 98.199 44.944 98.967 44.944 98.967 40.431 98.199 40.431 98.199 39.373 101.064 39.373 101.064 40.431 100.309 40.431zM84.088 41.462c-.393-.631-1.182-1.013-1.94-1.013-1.329 0-2.301.948-2.301 2.192 0 1.187 1.011 2.18 2.283 2.18.807 0 1.544-.359 1.979-1h1.447c-.464 1.357-1.911 2.31-3.416 2.31-.946 0-1.913-.387-2.582-1.019-.687-.66-1.064-1.552-1.064-2.484 0-1.852 1.596-3.431 3.594-3.431.818 0 1.607.26 2.175.815v-.668h1.101v2.118h-1.276zM92.159 39.373v1.055H91.4v3.29c0 .686-.118 1.234-.64 1.744-.505.495-1.163.669-1.86.669-.68 0-1.308-.145-1.814-.61-.57-.53-.698-1.117-.698-1.838v-3.255h-.757v-1.055h2.736v1.055h-.64v3.124c0 .316.009.65.208.926.217.308.58.463.965.463.353 0 .678-.129.904-.394.236-.293.254-.65.254-.995v-3.124h-.637v-1.055h2.737zM73.221 44.944L73.989 44.944 73.989 40.431 73.221 40.431 73.221 39.373 78.427 39.373 78.427 41.368 77.09 41.368 77.09 40.505 75.329 40.505 75.329 42.155 77.376 42.155 77.376 43.139 75.329 43.139 75.329 44.897 77.09 44.897 77.09 43.997 78.427 43.997 78.427 46 73.221 46zM72.935 46.003L70.051 46.003 70.051 45.03 70.738 45.03 69.48 43.514 68.209 45.03 68.909 45.03 68.909 46.003 66.025 46.003 66.025 44.946 66.712 44.946 68.673 42.643 66.822 40.432 66.106 40.432 66.106 39.369 68.998 39.369 68.998 40.348 68.348 40.348 69.48 41.759 70.612 40.348 69.962 40.348 69.962 39.369 72.869 39.369 72.869 40.432 72.156 40.432 70.266 42.643 72.219 44.946 72.935 44.946zM60.464 44.944L61.232 44.944 61.232 40.431 60.464 40.431 60.464 39.373 65.672 39.373 65.672 41.368 64.335 41.368 64.335 40.505 62.571 40.505 62.571 42.155 64.618 42.155 64.618 43.139 62.571 43.139 62.571 44.897 64.335 44.897 64.335 43.997 65.672 43.997 65.672 46 60.464 46z" mask="url(#prefix__b)"/>
    </g>
</svg>
