<svg xmlns="http://www.w3.org/2000/svg" xmlns:xlink="http://www.w3.org/1999/xlink" width="135" height="135" viewBox="0 0 135 135">
    <defs>
        <path id="a" d="M.001.572h134.035v134.285H.001z"/>
    </defs>
    <g fill="none" fill-rule="evenodd">
        <g transform="translate(0 -.43)">
            <mask id="b" fill="#fff">
                <use xlink:href="#a"/>
            </mask>
            <path fill="#FFF" d="M134.037 67.715c0 37.095-30.009 67.145-67.025 67.145C30 134.86 0 104.81 0 67.715c0-37.09 30-67.146 67.01-67.146 37.017 0 67.026 30.055 67.026 67.146" mask="url(#b)"/>
        </g>
        <path fill="#FFF" d="M126.383 67.285c0 32.858-26.586 59.472-59.367 59.472-32.777 0-59.362-26.614-59.362-59.472 0-32.852 26.585-59.472 59.362-59.472 32.781 0 59.367 26.62 59.367 59.472"/>
        <path fill="#BCBCDF" d="M67.996 103.245c.077.062.134.206.134.32 0 .143.05.261.092.303.051.04.092-.17.113-.474l.01-.082c.016-.324-.03-.622-.087-.7-.067-.071-.154-.071-.17.021-.03.083-.087.2-.123.242a.155.155 0 0 0 0 .185c.036.077.026.093-.03.093-.042-.01-.021.025.061.092M68.307 107.057c.046.067.287.237.544.36.262.118.262.082 0-.077l-.16-.108c-.246-.154-.425-.242-.384-.175M52.967 44.434c-.005.056.072 0 .159-.119.097-.128.108-.185.015-.108-.077.072-.159.17-.174.227M84.705 64.332c-.057.026-.139.098-.195.144-.042.078-.072.165-.042.211.016.036.103.005.19-.067.088-.092.124-.18.088-.18-.047-.01-.047-.046 0-.087.036-.041.02-.046-.041-.02M69.595 106.264c-.036-.093-.097-.077-.113.02-.03.088-.092.124-.113.072-.03-.067-.118-.103-.21-.072-.082.005-.16.175-.17.345-.01.17.036.375.088.463.051.061.174.118.256.097.093-.025.185.02.21.093.032.057-.015.103-.081.103-.082 0-.072.082.03.16.093.107.206.164.221.174.031.02.062-.036.062-.123 0-.072.149-.232.349-.345.195-.113.328-.247.308-.298-.016-.046-.108-.093-.21-.108a.449.449 0 0 0-.309.128c-.077.078-.21.067-.292-.02-.098-.072-.123-.242-.062-.345.067-.108.082-.252.036-.344M69.224 107.67c-.133-.02-.205.113-.144.319.046.195.16.385.242.432.066.046.22.077.308.056.097-.026.21-.098.24-.175.052-.077-.03-.247-.153-.355a.926.926 0 0 0-.493-.277M66.267 51.34c-.139-.021-.324 0-.411.05-.087.052-.067.16.072.268.118.093.308.18.416.196a.95.95 0 0 0 .344-.062.702.702 0 0 1 .318-.051c.087.01.133-.026.092-.083-.015-.051-.164-.16-.303-.21-.148-.026-.385-.083-.528-.109M68.773 106.736c.015.046.046.046.087-.02.02-.068.015-.114-.03-.104-.037.01-.062.062-.057.124M68.723 105.832c-.036-.067-.082-.129-.103-.16-.015-.025-.015-.01-.01.052a.303.303 0 0 0 .092.16c.057.02.072 0 .021-.052M68.923 105.65a1.546 1.546 0 0 0-.072-.185c-.036-.036-.03.016.01.108.042.098.067.14.062.078M77.275 57.341c.139-.02.288-.123.329-.236.036-.119-.041-.222-.175-.222-.133 0-.215.057-.195.124.041.067-.005.185-.072.247-.087.061-.036.103.113.087M68.327 105.118c.036 0 .061-.046.072-.103.01-.04-.052-.18-.129-.272-.066-.103-.097-.057-.061.098.036.16.092.277.118.277"/>
        <path fill="#BCBCDF" d="M78.218 24.199c-.01.04.01.082.056.092.036.01.231-.17.442-.38l.087-.088a44.754 44.754 0 0 0-11.791-1.579c-12.562 0-23.906 5.164-32.058 13.47.128.18.267.35.313.38.062.036.118.026.133-.03.026-.068.124-.093.211-.093.103.015.128.051.056.113-.071.036-.087.154-.03.241.046.119.036.144-.026.088-.051-.062-.113-.098-.134-.088-.02.031 0 .155.042.278a.654.654 0 0 0 .236.345.395.395 0 0 1 .159.35c-.01.118.133.431.333.653l.165.195c.195.237.36.52.37.643.015.103.25.283.533.38l.324.103c.282.088.56.227.585.293a.406.406 0 0 0 .21.17c.082.031.236.15.344.242.123.118.231.319.262.458.03.154.144.385.272.54.098.154.288.514.38.802l.062.144c.092.293.205.514.236.504.025 0 .072.098.097.252a.723.723 0 0 0 .298.38c.133.067.39.299.55.5.179.22.312.514.292.668-.016.154-.16.252-.324.242-.148-.021-.272-.01-.272.01 0 .036.2.206.452.386l.072.04c.251.186.493.34.534.35.051.006.108-.015.149-.077.02-.04.066-.02.097.062.031.067.154.206.277.288a.844.844 0 0 1 .298.36c.041.093.062.355.041.55-.025.19.02.37.093.37.087 0 .328.16.554.366l.118.097c.226.201.493.504.58.654.103.149.247.231.339.17.082-.052.17-.17.174-.237.006-.083-.092-.268-.251-.427-.139-.16-.288-.257-.323-.242a.363.363 0 0 1-.15 0c-.03-.015-.143-.267-.24-.56l-.262-.772c-.108-.293-.221-.54-.272-.56-.052-.036-.088-.01-.077.04.005.068.005.088-.016.078-.015-.026-.159-.257-.292-.514l-.411-.756c-.149-.258-.313-.494-.354-.494-.047-.01-.118-.093-.16-.18-.035-.093-.159-.242-.292-.345a1.225 1.225 0 0 1-.298-.35 6.275 6.275 0 0 1-.18-.689l-.092-.4c-.056-.284.005-.453.154-.33.144.098.318.175.4.175.072 0 .232.082.35.165.107.092.282.38.364.632.082.247.288.669.431.931l.057.077c.154.257.395.586.539.725.133.16.328.283.416.304.102.015.195.123.225.267.026.124.247.37.483.545l.036.041c.251.186.39.417.349.52a.553.553 0 0 0-.03.303c.02.062.102.088.148.067.062-.015.108.01.108.062 0 .062.108.139.226.18.128.03.287.123.354.185.061.051.128.17.133.257.01.077.17.268.355.406.184.155.405.402.523.546.098.154.303.365.442.483.123.093.308.401.405.669.098.267.134.57.098.663-.057.087-.067.21-.026.262.036.047.01.113-.072.14-.077.035-.108.159-.072.277.052.128.17.303.267.386.108.082.339.241.524.35.18.107.405.262.498.364.102.103.395.232.672.304.293.062.662.247.822.401.18.15.564.34.847.432l.477.134c.298.092.672.247.862.355.18.102.56.246.852.329.288.077.704.056.92-.052.22-.108.466-.205.543-.216.072-.005.308.047.524.129.21.082.55.314.765.524l.062.062c.21.221.528.499.703.628.174.138.503.282.739.324.246.036.657.149.914.257.256.103.539.19.647.19a.727.727 0 0 0 .302-.067c.093-.036.185-.077.231-.077.047 0 .118.067.16.144.035.082.035.134 0 .134-.042 0-.067.025-.067.046 0 .015.17.21.38.427l.446.468c.221.221.37.488.344.622-.005.129 0 .293.046.386.041.082.165.21.278.278.113.061.225.072.23.02.006-.062-.005-.134-.056-.17-.046-.02-.03-.046.02-.046.042 0 .16.088.242.216.087.113.282.252.416.324.143.062.277.211.277.314.01.103.072.221.128.247.088.02.144.005.15-.031.01-.052.06-.041.112.01a.99.99 0 0 1 .118.196c.016.046.057.046.087.01.031-.031.21-.041.4-.01.19.025.417.133.504.236.082.113.205.19.262.154.051-.005.118.052.143.17.016.098.067.185.134.185.061 0 .174-.051.267-.092.077-.067.097-.185.025-.268a.44.44 0 0 1-.107-.252c.015-.04.21-.21.436-.365.231-.154.55-.19.703-.087.15.113.324.2.396.21.071.016.082.103.03.17-.077.093-.046.257.052.376.072.108.226.34.318.499.103.164.17.55.164.843l-.01.684c-.005.309.067.55.16.566.091.01.086.123-.027.247-.123.123-.225.277-.246.365-.02.077-.175.185-.344.226-.174.041-.328.2-.344.33-.01.128-.061.282-.133.313-.067.041-.108.118-.093.16.026.056-.149.195-.38.292-.22.119-.405.309-.405.422 0 .118-.062.35-.108.504-.062.17-.174.35-.251.406-.067.052-.139.294-.139.546 0 .236.087.478.174.555.103.062.226.046.293-.041.077-.077.149-.093.175-.036.03.077.04.206.015.303a.702.702 0 0 1-.205.32c-.093.056-.298.261-.473.431-.159.16-.267.427-.23.612.025.17.071.35.123.391.03.046.03.144 0 .221-.052.057.097.257.313.432.226.17.482.473.585.664.087.19.262.432.364.519.108.093.278.406.385.69l.442 1.14c.108.268.339.705.508.952l.252.386c.174.252.313.617.328.807.01.19.195.525.406.73h.005c.23.212.6.53.862.69l.036.03c.247.155.683.392.96.5.272.097.683.339.919.53l.375.313c.23.19.462.597.518.885l.026.216c.051.288.097.786.118 1.074v.062c.02.309.015.777-.016 1.034-.03.272-.097.57-.164.653-.051.087-.077.396-.067.705l.016.37c.01.298-.016.638-.062.761-.046.108-.077.38-.077.591 0 .201-.087.628-.18.9l-.184.556c-.093.298-.144.71-.113.936.026.216.005.473-.057.55a2.299 2.299 0 0 0-.143.304c-.01.077 0 .385.046.678l.041.37c.036.31.036.788.005 1.07a6.097 6.097 0 0 1-.226 1.05l-.518 1.404c-.088.277-.221.524-.257.524-.046 0-.087.082-.067.19.005.129-.056.252-.149.288-.087.036-.159.32-.159.618s.047.725.098.956c.051.226.03.499-.026.586-.067.088-.133.432-.154.726l-.03.257c-.037.319.015.637.097.73.082.093.22.123.323.062.077-.052.257-.077.375-.062.123.02.144.103.057.18-.108.098-.129.175-.057.185.067.01.123.118.128.221.016.119 0 .185-.03.144-.02-.036-.067-.046-.098-.025-.03.01-.03.066 0 .123.03.046.015.108-.036.15-.051.045-.077.128-.056.19.02.071-.02.22-.077.35-.077.128-.103.292-.062.385.041.082.02.236-.051.329a.227.227 0 0 0 .051.303c.108.067.18.201.195.294.005.082-.082.231-.23.288-.13.072-.237.174-.237.252 0 .061.026.133.082.174.051.026.031.072-.04.103a.52.52 0 0 0-.15.119c-.015.04.026.04.108.025.072-.03.098-.025.041.036-.041.052-.046.098-.015.098.046.005.015.041-.047.087a.387.387 0 0 0-.143.227c-.01.087.04.108.097.051.052-.056.077-.051.067.031a.94.94 0 0 1-.18.242c-.072.092-.138.092-.138 0 0-.062-.02-.088-.062-.041-.015.04-.072.066-.108.04-.04-.004-.061-.061-.036-.112.021-.052.01-.15-.02-.227-.02-.082-.16-.149-.313-.149-.139 0-.221.072-.17.165.052.087-.036.236-.18.324-.143.108-.271.236-.292.313-.02.052 0 .15.046.19.052.042.093.021.082-.066a.187.187 0 0 1 .062-.17c.046-.03.164-.01.241.052a.711.711 0 0 0 .319.097c.087-.01.195.031.246.108.046.052.062.14.036.16a.078.078 0 0 0 0 .103c.026.03-.02.102-.113.164-.082.057-.082.134 0 .17.092.046.139.123.123.175-.01.056.005.087.057.082.051-.026.154.062.236.19.097.14.046.221-.098.185-.149-.036-.272-.036-.282.036-.005.062-.067.036-.118-.036-.062-.077-.087-.036-.072.098.015.118.113.211.21.196.093-.01.195.036.231.082.031.062-.036.092-.133.062-.087-.036-.175.17-.175.426 0 .268.072.422.144.34.072-.088.123-.082.108.02-.03.088-.03.222 0 .252.015.052-.036.114-.108.15-.072.03-.195.154-.262.272-.061.134-.01.324.118.422.139.108.21.21.16.242-.042.03-.072.087-.062.128.01.041.062.062.123.062.082 0 .139.036.154.051.005.041-.046.077-.123.088-.082.03-.139.092-.139.16 0 .071.067.19.154.282.088.082.185.309.21.499.032.2.083.365.103.37.021.01.031-.103.021-.242-.02-.144 0-.149.072-.015.056.129.123.2.149.154a.241.241 0 0 0 0-.17c-.026-.056.015-.077.113-.066.077.02.097-.01.051-.072-.056-.077-.03-.077.062 0 .107.061.138.17.113.241-.042.067-.042.18.015.283.046.077.036.232-.015.32-.057.092.066.184.292.184.21 0 .467.067.56.15.082.087.107.23.066.308a1.18 1.18 0 0 1-.354.334c-.144.093-.267.134-.272.088-.015-.047-.036-.067-.072-.067-.025.01-.03.082-.01.149.01.087.118.195.22.278a.83.83 0 0 0 .386.113c.102 0 .226-.232.272-.54l.015-.072c.036-.288.288-.658.555-.808l.128-.082c.257-.154.61-.257.785-.216.18.016.21-.108.088-.293-.124-.2-.283-.38-.344-.406-.077-.026-.077-.067 0-.103.061-.01.097-.134.066-.288-.03-.144-.087-.252-.143-.242-.047.01-.031-.128.03-.319.077-.175.211-.396.319-.483.097-.082.17-.257.143-.376-.035-.097-.005-.128.047-.036.066.114.19.14.282.093.098-.057.21-.309.267-.555.067-.263.313-.628.529-.834l.246-.22c.231-.201.457-.49.498-.654.056-.17.087-.396.056-.52-.02-.123-.18-.262-.354-.287-.19-.02-.416-.14-.508-.257a3.328 3.328 0 0 1-.287-.412.67.67 0 0 1-.083-.288c.01-.056.119-.262.262-.447.134-.196.34-.412.447-.473a.953.953 0 0 1 .436-.124c.134 0 .216-.056.206-.139 0-.072.046-.226.128-.313.082-.103.138-.355.138-.561 0-.21.042-.442.093-.525.046-.061.19-.18.308-.246.123-.052.113-.165-.026-.268-.128-.082-.164-.185-.077-.236.077-.047.206-.031.262.025.056.088.185.129.277.129.098 0 .2-.031.226-.088a.574.574 0 0 0 .015-.282c-.02-.078-.04-.19-.066-.232-.016-.041-.113-.051-.216-.02-.092.036-.144.108-.097.154.04.051.005.087-.072.098-.077.01-.216-.047-.308-.155-.098-.097-.206-.416-.242-.715-.04-.282-.035-.58.016-.622.046-.046.267.02.488.139.215.139.503.226.646.226.129 0 .324-.046.426-.097.108-.067.216-.16.257-.211.041-.067.057-.232.041-.396a1.366 1.366 0 0 1 .087-.566c.062-.134.083-.309.041-.37a.597.597 0 0 1-.092-.314c0-.118.046-.175.092-.144.042.036.237.093.432.093.19.015.595-.031.877-.103l.955-.211c.298-.062.596-.185.698-.237.072-.077.18-.195.2-.288.037-.082.16-.298.278-.468.133-.175.241-.463.262-.643.025-.185-.031-.334-.108-.354-.067 0-.18-.088-.231-.18a.504.504 0 0 1-.036-.407c.036-.133-.123-.36-.334-.524-.22-.17-.42-.412-.426-.545-.005-.129.062-.175.17-.067.077.092.272.19.415.19.124.01.396.087.59.175.19.077.54.175.791.19.247.026.58-.015.719-.077.138-.067.37-.288.513-.489.129-.2.385-.534.55-.714.169-.186.343-.463.384-.592.042-.144.262-.401.488-.586.226-.175.534-.494.678-.72.143-.206.328-.576.436-.813.098-.236.344-.617.544-.838l.026-.026c.195-.226.39-.58.426-.792.02-.216.067-.411.082-.427.026-.03.015-.102-.015-.174-.036-.052-.062-.242-.093-.417a1.25 1.25 0 0 1 .108-.566c.077-.144.308-.432.529-.643l.328-.298c.221-.206.621-.473.899-.581l.39-.17c.267-.118.513-.262.554-.334.031-.057.298-.129.59-.139l.473-.03c.313-.016.585-.078.621-.14.046-.087.19-.22.349-.344.154-.108.313-.324.35-.468.04-.144.2-.458.358-.725l.221-.35c.16-.262.324-.679.36-.926.03-.247.133-.555.215-.663.072-.113.17-.453.21-.756l.021-.196c.041-.303.051-.76.026-1.049a3.497 3.497 0 0 1 .015-.9c.036-.252.185-.509.329-.596.154-.062.385-.345.523-.602l.036-.087c.144-.273.421-.633.606-.803.195-.17.503-.504.698-.74l.046-.077c.185-.247.396-.684.457-.972l.051-.258c.057-.293.072-.75.016-.997-.041-.268-.134-.556-.205-.653-.062-.098-.355-.206-.658-.232a2.463 2.463 0 0 1-.965-.427l-.785-.632c-.231-.196-.493-.37-.585-.401-.087-.036-.406-.047-.703-.047h-.262c-.308 0-.786-.097-1.063-.195l-.087-.031c-.282-.113-.657-.139-.821-.057-.175.078-.298.072-.273-.015.042-.093-.005-.175-.077-.185-.077-.026-.128-.082-.087-.124.031-.061 0-.159-.056-.231-.046-.077-.17-.103-.257-.067-.087.041-.185 0-.21-.082-.031-.062-.288-.216-.565-.33l-.087-.03c-.278-.108-.663-.18-.852-.17a.58.58 0 0 0-.447.273c-.067.144-.2.303-.293.34-.102.04-.246.18-.323.323-.067.15-.144.165-.154.026-.01-.124-.267-.206-.554-.185l-.267.005c-.303.02-.565.056-.586.077-.025.041-.025.026-.015-.046.01-.057.128-.103.272-.103.149 0 .267-.077.267-.18 0-.088-.036-.2-.087-.252-.057-.02-.057-.093-.01-.144.035-.057-.031-.026-.15.056-.107.072-.23.026-.236-.128-.02-.144.129-.442.334-.658l.16-.18c.2-.216.395-.489.436-.612.046-.108 0-.237-.098-.278-.108-.031-.241-.304-.349-.592l-.144-.411c-.087-.293-.21-.56-.282-.612-.051-.051-.123-.072-.149-.041-.026.03-.087-.01-.139-.082-.046-.078-.215-.242-.37-.376a3.65 3.65 0 0 0-.692-.38c-.236-.108-.442-.165-.462-.134-.036.026-.057.015-.057-.036 0-.041-.148-.118-.333-.15-.19-.046-.585-.066-.873-.056l-.349.031c-.287.005-.647-.113-.775-.257-.134-.16-.365-.314-.513-.35a.556.556 0 0 1-.334-.329c-.03-.15-.2-.37-.37-.499-.159-.118-.323-.226-.374-.226a.453.453 0 0 1-.226-.118c-.072-.067-.2-.093-.262-.062a.359.359 0 0 1-.262.062c-.082-.01-.108-.062-.077-.098.051-.052.051-.2 0-.319-.03-.123-.185-.293-.323-.365a1.231 1.231 0 0 0-.462-.134.394.394 0 0 1-.308-.164.49.49 0 0 0-.21-.211c-.062-.036.02-.093.194-.155.18-.056.072-.113-.226-.113h-.338c-.303 0-.565.01-.601.02-.02 0 .026.047.103.073.087.03-.041.103-.293.149a2.87 2.87 0 0 1-.621.108.574.574 0 0 1-.35-.154c-.097-.083-.425-.14-.723-.108l-.195.015c-.298.02-.61-.082-.672-.206-.062-.154-.308-.318-.534-.36-.231-.046-.478-.216-.544-.344-.057-.154-.18-.19-.231-.093-.083.093-.062.19.025.211.082.01.164.052.18.088.005.036-.154.092-.354.138-.2.042-.457.16-.58.237-.113.093-.206.221-.206.314 0 .067.057.226.129.34.061.107.128.272.138.349.01.072-.072.19-.174.257-.108.062-.252.015-.319-.103a.972.972 0 0 1-.118-.344c0-.067.052-.237.118-.37.067-.13.083-.386.031-.551-.051-.185-.01-.355.093-.401a.698.698 0 0 0 .23-.196c.026-.056-.025-.159-.112-.19-.082-.056-.221-.056-.293 0a.62.62 0 0 0-.226.221c-.046.067-.23.211-.405.273a2.357 2.357 0 0 1-.637.18c-.185.02-.385.118-.436.2-.062.103-.118.15-.144.124-.015-.046-.092-.088-.17-.088-.087 0-.246.098-.364.175-.128.113-.23.345-.251.515 0 .18-.19.462-.411.617-.226.164-.4.4-.4.535 0 .128-.088.128-.195 0a3.204 3.204 0 0 0-.452-.468 1.826 1.826 0 0 0-.621-.34 4.022 4.022 0 0 0-.529-.077c-.087 0-.19.067-.241.175-.052.098-.124.149-.17.113-.046-.026-.256.005-.436.087-.2.088-.503.124-.688.088-.185-.02-.349-.124-.375-.2a.7.7 0 0 0-.159-.232c-.051-.041-.21-.17-.333-.257a2.11 2.11 0 0 1-.36-.463c-.087-.144-.164-.35-.2-.432-.026-.088-.005-.422.036-.725l.22-1.384c.037-.298-.05-.653-.22-.787a2.535 2.535 0 0 0-.6-.37c-.175-.062-.565-.098-.863-.077l-1.165.051c-.313.026-.632.006-.74-.025-.087-.036-.077-.221.021-.422.113-.19.226-.545.267-.802.036-.247.026-.494-.041-.545-.046-.031-.067-.14-.036-.196.041-.067.103-.128.133-.128.031 0 .041.051.036.108-.01.056.02.174.062.257.046.082.139-.041.19-.273.056-.242.087-.463.051-.499-.03-.03-.03-.067 0-.097.036-.031.036-.067 0-.083-.03-.03.072-.257.21-.52l.078-.153c.133-.263.226-.525.184-.587-.035-.056-.138-.118-.24-.139-.093-.015-.216 0-.263.036-.046.036-.087.021-.087-.02 0-.052-.04-.088-.103-.103-.056-.01-.333.041-.636.123l-.508.14c-.283.066-.585.38-.647.678l-.067.252c-.067.293-.195.576-.303.638-.092.056-.169.149-.149.206.01.066-.035.138-.087.185-.056.025-.23.025-.39-.02-.149-.052-.513-.027-.796.056l-.338.087c-.293.088-.616.088-.724.01a1.718 1.718 0 0 0-.421-.216c-.123-.036-.303-.123-.375-.205-.097-.083-.21-.268-.282-.422a6.235 6.235 0 0 0-.38-.633c-.149-.2-.262-.452-.252-.57.01-.103-.056-.294-.159-.438-.092-.133-.164-.437-.154-.689.01-.252-.01-.673-.046-.94-.041-.273-.026-.603.03-.726.057-.154.18-.283.283-.319.093-.041.17-.123.17-.2 0-.072-.052-.273-.124-.453-.071-.18-.113-.39-.102-.473.005-.077-.005-.16-.031-.19-.03-.031-.026-.057.03-.067.047-.005.067-.113.057-.227-.025-.118.103-.308.272-.432.17-.123.308-.282.298-.36-.005-.061.113-.123.257-.123.159 0 .359-.02.457-.067.097-.036.215-.221.261-.416.047-.186.124-.33.17-.294.056.031.072.083.04.129-.03.036.083.01.247-.062.15-.067.534-.092.837-.056l.026.01c.297.036.6.036.667 0 .067-.046.287.026.493.154.215.124.482.232.6.232s.242-.047.272-.113c.047-.057.175-.026.283.077.113.087.246.149.287.118.036-.03-.01-.129-.113-.231-.097-.093-.108-.263-.051-.376.072-.113-.02-.206-.205-.19-.19.005-.34-.036-.344-.093-.01-.056.226-.113.528-.123h.329c.298-.01.58-.118.631-.242.052-.123.103-.108.108.031.01.15.154.21.334.15.17-.052.313-.083.313-.057 0 .02.103.02.241.005.134 0 .406.133.611.313.195.16.565.237.8.15.247-.088.617 0 .843.205l.02.005c.226.201.421.602.426.9.005.278.057.51.098.494.056-.005.077.067.041.175-.036.108.01.278.087.38.072.109.164.19.19.17.026-.01.103.155.175.36.066.206.174.391.246.432.067.041.149.18.205.314a.273.273 0 0 0 .34.154.546.546 0 0 0 .338-.35c.041-.138.077-.406.082-.59.005-.18-.056-.561-.154-.84l-.657-1.835a1.932 1.932 0 0 1 .015-1.039l.072-.18c.098-.293.252-.555.303-.581.082-.046.118-.129.098-.185-.016-.052.061-.108.185-.108.102 0 .328-.103.492-.242.16-.123.35-.33.416-.447.067-.119.293-.273.503-.366.21-.087.442-.241.514-.329.056-.097.277-.241.462-.313.19-.083.349-.18.349-.232a.081.081 0 0 0-.083-.082c-.05 0-.05-.052 0-.103.042-.067.031-.139-.03-.175-.077-.041-.088-.092-.02-.113.056-.02.153 0 .225.067.062.046.175.015.262-.067.072-.072.118-.19.077-.252-.031-.077-.067-.077-.077-.015-.02.046-.057.046-.093 0-.02-.062-.133-.119-.24-.119-.104 0-.186-.067-.18-.139.01-.097.046-.128.076-.061.031.061.103.087.175.061.062-.036.175-.046.246-.036.052.036.083-.113.041-.313-.025-.19-.138-.35-.236-.365-.092-.01-.143-.042-.092-.067.051-.026.062-.165.02-.299-.03-.128-.04-.267-.02-.324.041-.02-.103-.18-.298-.339a2.047 2.047 0 0 1-.339-.324c0-.026.134.03.308.139.175.092.278.118.237.036a2.15 2.15 0 0 1-.062-.489c0-.185.103-.396.231-.478.118-.067.17-.01.103.15-.077.153-.093.272-.077.282.025.026.036.113.02.21-.02.124.057.294.164.407.093.118.144.314.072.406-.046.129-.077.288-.056.366.01.066.149-.088.272-.366l.113-.226c.133-.262.164-.71.061-.956-.087-.273-.077-.402.031-.314.118.103.216.236.236.314.005.061.124-.026.247-.201.118-.17.262-.411.313-.54.036-.118.036-.283 0-.355a.483.483 0 0 1-.077-.226c.01-.067.205-.211.42-.35.216-.164.622-.298.894-.344.262-.036.534-.129.606-.211.072-.072.143-.103.159-.062.046.036.246.036.472 0 .216-.041.385-.134.37-.19-.01-.067-.031-.067-.046 0-.026.056-.077.123-.139.123-.062 0-.195-.134-.313-.293-.123-.139-.123-.494 0-.782l.108-.272c.113-.283.37-.581.57-.659.205-.082.415-.272.472-.411.051-.123.174-.18.282-.093.092.057.354.036.575-.072.246-.113.436-.236.467-.272.02-.031.02-.072 0-.098-.03-.03-.036-.118-.01-.185.01-.087.226-.175.498-.2.267-.026.652-.206.867-.381.216-.175.406-.314.452-.278.026.02-.01.134-.103.226-.097.098-.164.211-.159.237.02.036.252.072.519.062.282-.016.395.036.236.118-.154.067-.329.093-.365.03-.061-.05-.313.027-.56.186l-.25.154c-.263.165-.427.288-.37.268.036 0 .036.077 0 .18a.676.676 0 0 0-.072.365c.005.103.108.252.236.329.118.098.4-.01.61-.221.211-.216.417-.448.458-.52.03-.092.149-.133.236-.108.097.01.18-.005.18-.066 0-.052.102-.114.24-.134.134-.01.473-.103.75-.221l.277-.103c.278-.118.452-.226.38-.237-.061-.036-.108-.092-.102-.149.01-.051-.067-.118-.175-.144-.103-.02-.21-.072-.23-.128-.011-.062-.15-.062-.288 0-.144.056-.468.025-.693-.062-.252-.072-.411-.18-.365-.2.026-.042-.051-.104-.2-.16a1.009 1.009 0 0 1-.334-.211c-.04-.062-.082-.231-.097-.386-.02-.16-.113-.277-.19-.288-.093-.02-.082-.175.01-.355.098-.18.139-.365.072-.4-.057-.042-.195-.026-.293.02-.102.041-.22.036-.246-.02-.02-.062-.164-.13-.318-.16-.129-.036-.139-.077-.016-.118.139-.042.34-.047.452-.021.118.03.36-.067.544-.195.175-.155.318-.37.308-.489-.01-.113-.128-.267-.267-.34-.128-.077-.472-.128-.77-.113-.303.021-.765.15-1.032.273l-.23.113a5.88 5.88 0 0 0-.914.581c-.231.18-.57.525-.755.761l-.097.119c-.18.231-.396.463-.478.499-.077.036-.005-.083.139-.242.159-.185.36-.478.462-.669.087-.195.23-.385.303-.421.087-.031.21-.196.318-.35.092-.15.298-.391.457-.525.154-.139.395-.257.534-.267.138-.031.333-.18.43-.355.073-.175.232-.39.345-.463.097-.098.426-.164.734-.164h1.72c.307 0 .646.036.754.087.128.041.426.005.693-.087.272-.098.493-.14.483-.108"/>
        <path fill="#BCBCDF" d="M85.577 64.226c-.016-.025-.062-.01-.082.026-.026.062-.016.082.03.062.052-.026.072-.062.052-.088M84.83 64.945c.01.21.123.406.267.447.133.041.354.031.498-.015.143-.052.349-.196.462-.334.097-.129.195-.32.22-.417.016-.093-.04-.2-.123-.226-.087-.031-.374-.041-.647-.01-.266.02-.539.066-.585.092-.066.041-.102.252-.092.463M85.21 64.091c-.066-.087-.148-.134-.19-.108-.035.02-.056.098-.035.134.02.051.113.098.195.108.092.01.097-.046.03-.134M68.151 50.24c.226-.067.298-.19.154-.304a1.133 1.133 0 0 0-.518-.175c-.15-.02-.283-.087-.283-.164 0-.078-.154-.186-.338-.232-.196-.046-.427-.128-.524-.21a2.304 2.304 0 0 0-.462-.201c-.149-.062-.375-.16-.483-.247a1.298 1.298 0 0 0-.487-.196c-.154-.015-.385-.123-.529-.236-.133-.113-.472-.247-.76-.288a6.687 6.687 0 0 0-.8-.057c-.155 0-.488.057-.73.129a4.032 4.032 0 0 0-.626.242.705.705 0 0 0-.236.318c-.02.114-.103.227-.164.232-.067.026-.067.067 0 .077.061.026.21-.02.344-.103a2.52 2.52 0 0 1 .431-.19c.123-.026.287-.113.37-.17a.858.858 0 0 1 .436-.128c.154 0 .308.01.344.04.051.011.015.052-.067.098-.077.036-.118.103-.087.144.03.031.272.088.539.103.272.02.59.103.724.196.118.082.41.18.641.205.226.031.509.186.621.35.119.16.365.324.555.365.195.036.251.165.118.278-.123.113-.205.221-.185.231.016 0 .272.01.59.01h.462c.303 0 .73-.05.95-.118M69.224 51.32l-.231-.01c-.303 0-.544.01-.544.03 0 .015.077.093.174.19.098.093.21.113.262.077.052-.056.21-.066.365-.025.149.04.374.051.482.025a.516.516 0 0 1 .354.016c.072.03.18.128.226.206.052.066.195.01.334-.144.139-.155.277-.242.328-.17.052.051.237.041.427-.02a1.52 1.52 0 0 1 .667-.062c.195.051.375.02.42-.042.042-.072 0-.18-.092-.262-.077-.082-.261-.149-.4-.17-.128-.015-.195-.072-.139-.108.057-.04.016-.087-.077-.102a.489.489 0 0 1-.272-.144c-.04-.057-.19-.15-.323-.196a2.139 2.139 0 0 0-.626-.062c-.2.01-.442.042-.544.062a.637.637 0 0 1-.385-.03.6.6 0 0 0-.38 0c-.098.05-.088.112.04.159.098.036.216.16.221.272.01.124.072.252.154.299.083.056.134.113.113.159-.005.03-.251.062-.554.051M75.486 56.623c-.088.025-.098.077-.026.108.072.036.154.036.19 0 .046 0 .046-.047.02-.098-.025-.036-.112-.036-.184-.01M69.55 50.254c-.03-.02-.067-.036-.077-.02-.02.01.01.036.056.046.042.005.047 0 .021-.026M73.375 51.425a.207.207 0 0 0 .02.195c.041.057.185.108.324.108.144 0 .354-.036.462-.092.097-.047.164-.129.154-.18-.026-.041-.231-.098-.478-.098-.23-.01-.456.02-.482.067M75.53 109.267c-.143 0-.282.046-.308.093-.025.025-.025.056 0 .056.026 0 .165-.04.308-.082.15-.046.15-.082 0-.067M69.039 96.093c-.036-.134-.108-.283-.154-.319-.052-.04-.129-.005-.175.041-.046.078-.123.376-.17.684v.026a4.675 4.675 0 0 0-.076.628c.01.051.097.102.195.123.097.02.185-.02.21-.082.016-.072.062-.129.088-.129.015 0 .03-.072.015-.16-.026-.071-.026-.148 0-.148.015 0 0-.047-.015-.114a.173.173 0 0 1 .046-.2c.056-.067.077-.221.036-.35M70.061 108.227c-.046.02-.082.103-.066.175.01.077.18.17.385.21.195.042.225-.04.071-.174-.169-.134-.328-.231-.39-.21M68.207 105.43c.061-.02.102-.087.087-.17-.016-.072-.057-.061-.108.02-.046.083-.041.15.02.15M71.109 109.754c.051.052.092.052.092 0a.092.092 0 0 0-.092-.092c-.046 0-.046.04 0 .092M72.944 109.8c.072.01.23.01.344 0 .113-.021.195-.098.164-.18-.01-.073-.175-.124-.36-.098-.184.015-.318.092-.313.149.01.04.083.108.165.128M69.305 98.655a.272.272 0 0 0 .169-.175c.015-.062-.026-.15-.062-.19-.05-.031-.169-.031-.246.02-.087.041-.139.155-.087.242a.191.191 0 0 0 .226.103M71.685 109.498c-.128-.02-.236 0-.21.046.02.052.128.062.246.052.113-.026.093-.062-.036-.098M42.334 43.595c0 .051.036.077.092.087.042.01.072-.051.062-.149-.01-.072-.046-.113-.082-.072-.036.036-.072.093-.072.134M63.384 59.094c-.02-.067-.046-.077-.077-.026-.026.046-.02.098.01.129.041.005.072-.031.067-.103M40.49 44.168c0-.067-.016-.077-.031-.036-.026.056-.026.108 0 .128.015.016.03-.02.03-.092M68.748 99.006c.082.046.128.026.113-.041s-.087-.093-.154-.082c-.067.015-.056.072.041.123M67.745 101.904c-.015.026.026.144.098.278.066.108.077.087.03-.057-.04-.154-.102-.252-.128-.22M68.427 101.462c-.025-.061-.066-.087-.102-.067-.02.016-.005.067.051.103.072.047.082.031.051-.036M72.523 110.1c.205.14.344.18.313.088-.036-.103-.139-.195-.205-.206-.088-.02-.088-.077-.016-.118.062-.036.005-.098-.149-.149-.138-.051-.159-.093-.03-.067.118.005.195-.03.18-.082-.042-.036-.288-.02-.586.041-.288.067-.431.139-.329.15.108.01.154.045.103.092-.041.051-.041.144 0 .2a.375.375 0 0 0 .22.119c.052.01.068-.052.006-.119-.046-.077-.046-.164 0-.185.062-.015.282.098.493.237M68.397 104.455c-.087-.087-.113-.066-.072.026a.708.708 0 0 0 .19.211c.067.036.087.015.072-.026-.02-.067-.098-.144-.19-.21M67.91 104.29c.088.062.17.051.19-.026.021-.056-.056-.092-.163-.092-.098.01-.118.056-.026.118M67.72 102.497c0 .051.026.051.072.015.036-.046.036-.118.016-.149-.031-.056-.062-.067-.072-.025-.005.036-.016.097-.016.159"/>
        <path fill="#BCBCDF" d="M70.748 108.84c-.138.057-.236.134-.226.196.01.061.088.108.185.108.103 0 .17.03.16.082-.011.051.225.129.533.16l.164.02c.293.051.606.057.698.051.088-.03.242-.072.344-.102.103-.036.432-.016.724.061l.123.041c.293.067.657.108.811.088.154-.041.344-.118.416-.19.077-.078-.015-.19-.2-.232-.18-.051-.513-.242-.755-.427l-.395-.334a4.232 4.232 0 0 1-.641-.658c-.108-.165-.14-.324-.083-.345.077-.02.041-.15-.046-.303a.673.673 0 0 0-.41-.273c-.119-.01-.231-.056-.252-.108-.026-.036-.098-.02-.164.062-.062.072-.226.139-.334.164-.139.01-.18.088-.128.124.051.051.051.098 0 .123-.052.02-.108.124-.108.232 0 .097.159.22.385.236.205.031.246.14.097.252-.148.103-.246.304-.236.437.01.129.139.278.257.345.128.051.118.082-.036.046-.139-.046-.262-.051-.267-.03-.02.035 0 .071.036.087.02.02.02.051 0 .087-.036.026-.174-.046-.328-.175-.134-.118-.221-.154-.18-.072.056.103-.016.2-.144.247"/>
        <path fill="#BCBCDF" d="M71.124 108.132c-.03-.144-.108-.144-.149 0-.046.15-.026.319.041.365.087.046.118.046.082.005-.051-.036-.04-.072.01-.082.052-.005.057-.139.016-.288M67.79 103.647c.057.026.072.01.031-.062-.036-.046-.097-.082-.108-.046-.02.03.01.067.077.108"/>
        <path fill="#22398E" d="M67.079 8.64C34.82 8.64 8.574 34.935 8.574 67.248c0 32.318 26.247 58.613 58.505 58.613 32.263 0 58.51-26.295 58.51-58.613 0-32.313-26.247-58.608-58.51-58.608m0 118.918c-33.187 0-60.194-27.051-60.194-60.31 0-33.244 27.007-60.295 60.194-60.295 33.192 0 60.188 27.051 60.188 60.295 0 33.259-26.996 60.31-60.188 60.31"/>
        <path fill="#22398E" d="M67.014 23.144c-24.296 0-44.065 19.8-44.065 44.136 0 24.352 19.769 44.157 44.065 44.157 24.3 0 44.074-19.805 44.074-44.157 0-24.336-19.773-44.136-44.074-44.136m0 89.995c-25.226 0-45.749-20.571-45.749-45.859 0-25.267 20.523-45.828 45.749-45.828 25.235 0 45.758 20.561 45.758 45.828 0 25.288-20.523 45.86-45.758 45.86M15.38 52.645c-1.043-.025-1.73.633-1.956 1.605-.4 1.687.8 2.72 2.274 3.075 1.606.38 3.105-.015 3.51-1.702.288-1.209-.405-2.15-1.554-2.505l.23-.94c1.71.601 2.516 1.938 2.09 3.718-.514 2.175-2.387 2.854-4.435 2.376-2.043-.489-3.42-2.047-2.9-4.212.348-1.482 1.421-2.505 2.961-2.346l-.22.931zM21.29 49.08c.651-1.631-.483-2.891-1.833-3.426-1.355-.54-3.044-.406-3.696 1.219-.647 1.635.493 2.895 1.843 3.43 1.35.55 3.034.412 3.685-1.224m-6.272-2.5c.852-2.134 2.956-2.54 4.8-1.81 1.816.715 3.074 2.48 2.222 4.619-.852 2.124-2.952 2.54-4.784 1.805-1.838-.725-3.09-2.469-2.238-4.613M17.224 41.918l.523-.89 6.961-.365.01-.016-5.071-2.936.462-.792 6.247 3.605-.524.926-6.904.375-.015.01 5.025 2.901-.451.797z"/>
        <path fill="#22398E" d="M25.485 33.204c-.893-.55-1.652-.278-2.258.524-.508.653-.76 1.46-.016 2.037 1.412 1.085 3.234-3.348 5.483-1.615 1.222.93.795 2.505-.01 3.549-.98 1.296-2.45 1.887-3.84.817l.564-.715c.95.736 1.992.252 2.654-.612.53-.689.899-1.625.083-2.257-1.587-1.214-3.363 3.255-5.462 1.635-1.155-.89-.888-2.314-.077-3.374.893-1.162 2.135-1.64 3.434-.714l-.555.725zM25.626 29.764l3.496-3.56.575.561-2.823 2.89 1.632 1.595 2.644-2.67.564.567-2.623 2.679 1.776 1.754 2.844-2.89.575.56-3.511 3.58zM36.6 27.042c.616.75.842 1.851-.4 2.89-1.043.854-2.1.75-2.958-.309l-.292-.34.744-.611.2.231c.519.648 1.073.977 1.797.38.678-.56.585-1.115.077-1.743l-3.337-4.104.734-.601 3.435 4.207zM40.865 25.545c1.49-.941 1.304-2.618.53-3.867-.776-1.22-2.208-2.109-3.687-1.173-1.504.926-1.309 2.607-.539 3.852.77 1.234 2.203 2.124 3.696 1.188m-3.598-5.73c1.95-1.228 3.891-.318 4.943 1.359 1.042 1.676 1.032 3.831-.913 5.055-1.951 1.224-3.902.303-4.944-1.363-1.052-1.676-1.026-3.831.914-5.05M44.485 16.123l.893-.36 2.372 5.965 3.557-1.424.303.756-4.45 1.78z"/>
        <path fill="#22398E" d="M52.43 17.74l2.367-.643-2.043-2.941-.016.01-.308 3.574zm-.405-4.294l1.026-.278 4.6 6.259-1.032.278-1.314-1.898-2.957.792-.22 2.31-.945.261.842-7.724zM58.647 12.853l-2.387.345-.103-.802 5.708-.828.113.807-2.382.334.914 6.362-.944.139zM63.003 11.553l.96-.067.446 7.23-.96.047zM65.92 11.347l1.033.03 3.603 5.992h.016l.19-5.863.913.02-.23 7.231-1.048-.025-3.588-5.925-.02-.005-.186 5.806-.908-.03zM75.596 18.75c1.724.313 2.715-1.06 2.967-2.49.256-1.445-.21-3.065-1.94-3.373-1.736-.309-2.721 1.064-2.973 2.51-.252 1.424.205 3.044 1.946 3.353m1.17-6.66c2.259.4 3.09 2.38 2.746 4.33-.349 1.95-1.802 3.533-4.06 3.132-2.264-.396-3.085-2.391-2.752-4.33.34-1.944 1.802-3.533 4.066-3.132M81.647 17.75l2.325.756-.097-3.58-.031-.01-2.197 2.834zm1.981-3.821l1.011.334.473 7.75-1.006-.329-.093-2.309-2.9-.946-1.448 1.82-.934-.298 4.897-6.022zM88.504 15.59l1.176.582-.642 6.449 4.728-4.423 1.18.586-3.197 6.475-.822-.401 2.67-5.395-.031-.005-4.672 4.382-.728-.36.641-6.393h-.02l-2.665 5.39-.81-.412zM96.746 19.945l4.101 2.839-.462.663-3.316-2.283-1.298 1.887 3.085 2.134-.462.67-3.08-2.135-1.417 2.062 3.331 2.299-.451.663-4.138-2.839zM102.135 28.257c.662.596 1.396.946 2.1.154.477-.53.528-1.172-.134-1.77l-1.786-1.598-1.674 1.882 1.494 1.332zm.005-4.46l2.526 2.259c1.016.915 1.16 2.026.385 2.885-.59.663-1.335.936-2.156.535l-.016.01c.519.679.216 1.255-.185 1.836-.43.55-.98 1.137-1.01 1.77l-.791-.716c-.016-.4.62-.874.975-1.496.385-.602.667-1.163-.02-1.79l-1.746-1.558-2.069 2.304-.703-.643 4.81-5.395zM107.443 28.8l.662.699-5.266 4.937-.668-.7zM110.843 36.287c.682-.786.6-1.738-.026-2.54-1.037-1.373-2.608-1.07-3.794-.154-1.314 1.008-1.95 2.417-.898 3.8.765.988 1.925 1.044 2.916.37l.59.767c-1.55.946-3.075.735-4.204-.71-1.36-1.77-.709-3.662.955-4.947 1.658-1.281 3.732-1.374 5.087.39.929 1.194 1.052 2.68-.046 3.786l-.58-.762zM111.048 40.4l1.216 2.125 2.32-2.716-.01-.026-3.526.618zm4.024-1.496l.534.926-4.84 6.063-.534-.915 1.493-1.77-1.53-2.663-2.289.39-.487-.853 7.653-1.178zM117.51 43.349l.39.951-3.963 5.745.01.036 5.4-2.253.355.854-6.679 2.752-.395-.972 3.922-5.709-.01-.015-5.36 2.211-.349-.843zM114.722 55.232c.437 1.707 2.08 2.046 3.496 1.697 1.412-.35 2.705-1.445 2.274-3.158-.426-1.697-2.074-2.047-3.49-1.687-1.417.35-2.71 1.43-2.28 3.148m6.55-1.651c.56 2.227-.908 3.8-2.813 4.284-1.92.473-3.963-.206-4.517-2.438-.565-2.227.904-3.8 2.818-4.279 1.915-.488 3.953.2 4.512 2.433M12.036 68.52l.087 1.574c.026.638.308 2.371 2.962 2.222 1.714-.092 2.73-.782 2.628-2.515l-.077-1.579-5.6.299zm6.355-1.285l.133 2.427c.103 2.186-.944 3.462-3.25 3.585-2.417.134-3.839-.833-3.962-3.199l-.134-2.417 7.213-.396zM18.813 73.629l.857 4.813-.79.144-.698-3.893-2.254.406.642 3.621-.806.144-.642-3.62-2.453.426.693 3.924-.801.144-.858-4.844zM20.468 81.383l1.632 4.613-.76.268-1.319-3.724-2.171.761 1.226 3.472-.754.277-1.227-3.476-2.356.828 1.33 3.754-.77.273-1.638-4.65zM22.262 91.162c.883-.55.98-1.348.54-2.227-.355-.715-.95-1.291-1.797-.88-1.602.787 1.534 4.31-1.027 5.565-1.37.684-2.577-.375-3.157-1.538-.693-1.424-.565-2.977 1.006-3.744l.385.787c-1.083.545-1.124 1.677-.642 2.623.365.766 1.037 1.497 1.977 1.039 1.76-.885-1.402-4.366.975-5.544 1.304-.638 2.464.2 3.039 1.373.637 1.29.498 2.607-.909 3.353l-.39-.807zM25.882 97.118c.739-.74.739-1.676.19-2.494-.935-1.42-2.505-1.234-3.758-.396-1.376.905-2.125 2.268-1.196 3.677.678 1.034 1.827 1.157 2.864.56l.514.782c-1.602.844-3.1.55-4.097-.956-1.211-1.831-.42-3.641 1.33-4.82 1.755-1.161 3.824-1.11 5.02.705.822 1.224.822 2.7-.344 3.719l-.523-.777zM28.86 104.49c-1.377 1.209-2.768 1.075-3.928-.277-1.201-1.358-1.263-2.736.185-4.017l3.465-3.044.621.714-3.47 3.05c-.965.844-1.017 1.831-.19 2.782.785.9 1.725.921 2.695.083l3.475-3.045.616.715-3.47 3.04zM33 102.075l3.64 3.266-.54.601-2.94-2.633-1.53 1.708 2.74 2.463-.533.607-2.741-2.469-1.664 1.872 2.957 2.654-.539.607-3.66-3.271zM37.151 105.701l.765.535-3.732 5.235 3.039 2.17-.472.67-3.8-2.737zM40.194 112.868l2.094 1.178.616-3.523-.025-.015-2.685 2.36zm2.685-3.358l.903.514-1.103 7.658-.914-.504.385-2.278-2.613-1.466-1.75 1.512-.848-.473 5.94-4.963zM49.317 114.902c.293-1.018-.159-1.65-1.067-2.036-.75-.314-1.576-.34-1.936.53-.667 1.655 3.994 2.226 2.911 4.854-.58 1.43-2.176 1.44-3.373.946-1.468-.612-2.397-1.856-1.735-3.476l.827.334c-.462 1.126.257 1.99 1.242 2.402.79.329 1.766.432 2.166-.54.74-1.836-3.937-2.36-2.941-4.809.565-1.347 1.987-1.476 3.183-.977 1.345.56 2.11 1.61 1.55 3.106l-.827-.334zM53.619 120.738l1.53.334c.63.134 2.36.33 2.925-2.278.36-1.677-.03-2.824-1.714-3.204l-1.56-.33-1.181 5.478zm.436-6.475l2.377.52c2.125.467 3.07 1.815 2.587 4.083-.508 2.365-1.812 3.481-4.112 2.988l-2.377-.525 1.525-7.066zM60.316 115.52l4.867.452-.062.792-3.932-.334-.21 2.273 3.65.35-.068.802-3.655-.34-.23 2.5 3.952.365-.072.792-4.887-.442zM69.76 120.125l2.387-.175-1.427-3.286h-.01l-.95 3.461zm.38-4.284l1.042-.087 3.29 7.004-1.026.088-.94-2.114-2.987.221-.626 2.227-.965.082 2.212-7.42zM76.222 121.611l1.535-.308c.642-.124 2.295-.643 1.776-3.256-.349-1.686-1.16-2.592-2.864-2.247l-1.555.324 1.108 5.487zm-2.197-6.099l2.387-.483c2.136-.432 3.552.416 4.01 2.69.477 2.375-.262 3.934-2.578 4.402l-2.381.478-1.438-7.087zM80.228 114.24l1.211-.433 4.158 4.953.052-6.475 1.206-.432 2.454 6.799-.842.303-2.038-5.662-.02.01-.042 6.408-.744.278-4.127-4.906-.026.015 2.059 5.657-.842.304zM87.792 111.266l.847-.412 3.147 6.516-.847.422zM89.652 110.432l.857-.525 6.217 3.096.02-.01-3.023-5.02.76-.462 3.732 6.197-.883.52-6.166-3.05-.01.01 2.993 4.968-.76.463zM95.337 106.821l.754-.566 4.271 5.822-.75.566zM101.513 104.52c-.76-.72-1.555-.616-2.29.037-.605.52-1.01 1.255-.384 1.975 1.155 1.342 3.762-2.587 5.62-.438 1.012 1.158.298 2.598-.672 3.441-1.196 1.039-2.736 1.322-3.875 0l.672-.586c.796.91 1.89.658 2.695-.047.647-.555 1.176-1.383.483-2.16-1.289-1.506-3.85 2.464-5.59.453-.96-1.09-.427-2.422.544-3.281 1.103-.957 2.392-1.157 3.47.01l-.673.597zM103.097 101.045l-1.601 1.738-.59-.534 3.819-4.176.595.54-1.591 1.743 4.722 4.346-.636.689zM109.258 97.484c.503-.71.76-1.465-.097-2.088-.575-.411-1.217-.411-1.725.288l-1.365 1.908 2.032 1.487 1.155-1.595zm-4.399.401l1.94-2.69c.796-1.095 1.859-1.321 2.798-.642.719.514 1.073 1.224.77 2.072l.02.006c.612-.566 1.212-.335 1.818.01.595.365 1.227.869 1.858.828l-.616.854c-.4.051-.929-.525-1.596-.823-.621-.335-1.212-.55-1.74.18l-1.356 1.872 2.505 1.815-.554.751-5.847-4.233zM112.732 93.803l1.145-2.114-3.511-.596-.016.025 2.382 2.685zm-3.383-2.674l.503-.9 7.664 1.049-.508.91-2.284-.375-1.432 2.643 1.52 1.733-.468.849-4.995-5.91zM115.043 83.839c-1.037-.165-1.802.365-2.156 1.29-.616 1.58.436 2.752 1.838 3.307 1.535.602 3.08.448 3.69-1.131.458-1.157-.107-2.165-1.18-2.674l.339-.885c1.612.849 2.228 2.253 1.57 3.919-.795 2.057-2.735 2.458-4.691 1.671-1.956-.776-3.116-2.478-2.32-4.51.539-1.378 1.74-2.222 3.244-1.862l-.334.875zM113.504 81.383l.267-.895 6.92 2.016-.257.91zM121.174 77.726c.318-1.697-1.032-2.694-2.459-2.967-1.437-.273-3.054.16-3.378 1.851-.328 1.692 1.027 2.685 2.46 2.958 1.426.282 3.059-.15 3.377-1.842zm-6.632-1.265c.426-2.216 2.412-3.003 4.348-2.628 1.94.365 3.495 1.831 3.074 4.043-.43 2.211-2.412 2.993-4.342 2.622-1.94-.37-3.512-1.825-3.08-4.037zm-1.838-.673l.2-1.055 1.17 1.548-.112.617-1.258-1.11zM115.359 72.649l.051-.993 6.042-3.43v-.01l-5.852-.314.046-.89 7.213.37-.052 1.034-5.98 3.405v.01l5.79.288-.051.905zM53.709 53.564c-.282-1.851-2.033-3.276-3.999-3.276-3.624 0-4.984 3.148-4.984 6.419 0 3.126 1.36 6.269 4.984 6.269 2.459 0 3.85-1.703 4.153-4.192h3.901c-.41 4.69-3.536 7.658-8.054 7.658-5.646 0-9.009-4.34-9.009-9.735 0-5.55 3.363-9.88 9.01-9.88 3.998 0 7.412 2.402 7.9 6.737h-3.902zM60.787 47.266h4.03V62.53h8.912v3.461H60.787zM82.423 58.752h4.744l-2.31-6.865h-.052l-2.382 6.865zm.39-11.484h4.128l6.853 18.72h-4.19l-1.38-4.17h-6.848l-1.442 4.17h-4.081l6.96-18.72z"/>
        <path fill="#22398E" d="M50.806 81.212h3.588c2.336 0 4.574-1.476 4.574-5.62 0-3.765-1.314-6.193-5.282-6.193h-2.88v11.813zm-4.03-15.274h7.9c4.754 0 8.317 3.07 8.317 9.262 0 5.431-2.721 9.473-8.316 9.473h-7.9V65.938zM66.216 65.944h13.701V69.4h-9.67v4.017h8.875v3.188h-8.876v4.613h9.877v3.462H66.216zM89.261 77.426h4.743l-2.31-6.861h-.056l-2.377 6.86zm.375-11.48h4.132l6.853 18.726h-4.184l-1.375-4.176h-6.848l-1.448 4.176H82.69l6.946-18.725zM15.91 62.379c0 .689-.569 1.25-1.257 1.25-.708 0-1.268-.561-1.268-1.25 0-.705.56-1.276 1.268-1.276.688 0 1.258.571 1.258 1.276M120.287 62.379c0 .689-.56 1.25-1.258 1.25-.693 0-1.273-.561-1.273-1.25 0-.705.58-1.276 1.273-1.276.698 0 1.258.571 1.258 1.276"/>
    </g>
</svg>
