<svg xmlns="http://www.w3.org/2000/svg" width="70" height="70" viewBox="0 0 70 70"><path d="M68.834,0H1.167A1.166,1.166,0,0,0,0,1.166H0V24.5H2.333V2.333H67.667V28H26.833v2.333h42A1.166,1.166,0,0,0,70,29.167h0v-28A1.166,1.166,0,0,0,68.834,0Z" transform="translate(0 0)" fill="#555"/><rect width="23.333" height="2.333" rx="1.167" transform="translate(38.5 5.833)" fill="#555"/><rect width="23.333" height="2.333" rx="1.167" transform="translate(42 12.833)" fill="#555"/><rect width="23.333" height="2.333" rx="1.167" transform="translate(37.333 19.833)" fill="#555"/><path d="M31.5,65.334H19.833a1.169,1.169,0,0,1-1.166-1.167V54.39a5.327,5.327,0,0,1,2.082-4.223H11.918A5.33,5.33,0,0,1,14,54.39v9.777a1.17,1.17,0,0,1-1.167,1.167H1.166A1.169,1.169,0,0,1,0,64.166V54.39a5.354,5.354,0,0,1,2.93-4.767,5.824,5.824,0,0,1,4.062-10H7a5.813,5.813,0,0,1,3.5,1.2V23.935L9.28,27.818a3.768,3.768,0,0,1-2.146,2.243,3.736,3.736,0,0,1-4.871-4.813L5.377,14.513a8.007,8.007,0,0,1,7.438-5.179h.048a5.835,5.835,0,1,1,9.9-1.021L32.22,3.4c.032-.015.065-.029.1-.042a3.765,3.765,0,0,1,2.893,6.952L24.5,15.875V39.741a5.83,5.83,0,0,1,5.238,9.881,5.352,5.352,0,0,1,2.929,4.767v9.777A1.168,1.168,0,0,1,31.5,65.334Zm-7.443-14A3.066,3.066,0,0,0,21,54.39V63h9.334V54.39a3.066,3.066,0,0,0-3.057-3.056Zm-18.666,0A3.065,3.065,0,0,0,2.334,54.39V63h9.333V54.39a3.066,3.066,0,0,0-3.057-3.056Zm20.276-9.376a3.5,3.5,0,1,0,3.5,3.5A3.5,3.5,0,0,0,25.667,41.957ZM7,41.957a3.5,3.5,0,1,0,3.5,3.5A3.508,3.508,0,0,0,7,41.957ZM16.333,28h2.334V47.833h1.685a5.754,5.754,0,0,1,1.815-7.014V15.167a1.163,1.163,0,0,1,.629-1.036L34.224,8.2a1.5,1.5,0,0,0,.881-.863,1.433,1.433,0,0,0-1.9-1.822l-11.6,6.018a1.172,1.172,0,0,1-.537.131H12.814a5.6,5.6,0,0,0-5.227,3.591L4.472,25.993a1.434,1.434,0,0,0,.652,1.852,1.3,1.3,0,0,0,.15.064,1.4,1.4,0,0,0,1.8-.84l3.483-11.085a1.167,1.167,0,0,1,2.28.349V45.5a5.825,5.825,0,0,1-.517,2.333h4.018V28ZM17.5,2.334a3.5,3.5,0,1,0,3.5,3.5A3.5,3.5,0,0,0,17.5,2.334Z" transform="translate(0 4.667)" fill="#555"/><path d="M12.835,25.722H1.166A1.168,1.168,0,0,1,0,24.556V14.779a5.354,5.354,0,0,1,2.93-4.767c-.027-.026-.053-.052-.079-.078L2.822,9.9A5.834,5.834,0,0,1,7,0,5.828,5.828,0,0,1,12.83,5.909a5.794,5.794,0,0,1-1.759,4.1A5.355,5.355,0,0,1,14,14.779v9.777A1.168,1.168,0,0,1,12.835,25.722Zm-7.444-14a3.065,3.065,0,0,0-3.057,3.056v8.61h9.333v-8.61a3.066,3.066,0,0,0-3.057-3.056ZM7,2.345a3.5,3.5,0,1,0,3.5,3.5A3.51,3.51,0,0,0,7,2.345Z" transform="translate(37.333 44.278)" fill="#555"/><path d="M12.835,25.722H1.166A1.168,1.168,0,0,1,0,24.556V14.779a5.354,5.354,0,0,1,2.93-4.767c-.027-.026-.053-.052-.079-.078L2.822,9.9A5.834,5.834,0,0,1,7,0,5.828,5.828,0,0,1,12.83,5.909a5.794,5.794,0,0,1-1.759,4.1A5.355,5.355,0,0,1,14,14.779v9.777A1.168,1.168,0,0,1,12.835,25.722Zm-7.444-14a3.065,3.065,0,0,0-3.057,3.056v8.61h9.333v-8.61a3.066,3.066,0,0,0-3.057-3.056ZM7,2.345a3.5,3.5,0,1,0,3.5,3.5A3.51,3.51,0,0,0,7,2.345Z" transform="translate(56 44.278)" fill="#555"/></svg>