<svg xmlns="http://www.w3.org/2000/svg" xmlns:xlink="http://www.w3.org/1999/xlink" width="88" height="139" viewBox="0 0 88 139">
    <defs>
        <path id="a" d="M.302.442h17.365v17.511H.302z"/>
        <path id="c" d="M.542.353h15.472v15.609H.542z"/>
        <path id="e" d="M0 139.558h87.414V1.143H0z"/>
    </defs>
    <g fill="none" fill-rule="evenodd" transform="translate(0 -1)">
        <g transform="translate(38.7 .7)">
            <mask id="b" fill="#fff">
                <use xlink:href="#a"/>
            </mask>
            <path fill="#A5233B" d="M17.667 9.195c0 4.84-3.886 8.758-8.685 8.758-4.794 0-8.68-3.919-8.68-8.758 0-4.83 3.886-8.753 8.68-8.753 4.799 0 8.685 3.924 8.685 8.753" mask="url(#b)"/>
        </g>
        <path fill="#832F3B" d="M60.496 50.672c0 7.05-5.666 12.764-12.658 12.764-6.987 0-12.663-5.713-12.663-12.764 0-7.051 5.676-12.76 12.663-12.76 6.992 0 12.658 5.709 12.658 12.76"/>
        <g transform="translate(71.4 27.415)">
            <mask id="d" fill="#fff">
                <use xlink:href="#c"/>
            </mask>
            <path fill="#832F3B" d="M16.016 8.16c0 4.305-3.463 7.802-7.737 7.802S.542 12.465.542 8.16 4.005.353 8.28.353s7.737 3.502 7.737 7.807" mask="url(#d)"/>
        </g>
        <path fill="#A5233B" d="M82.191 70.636c0 5.451-4.376 9.853-9.772 9.853-5.395 0-9.771-4.402-9.771-9.853 0-5.447 4.376-9.854 9.771-9.854 5.396 0 9.772 4.407 9.772 9.854M51.63 81.192c0 6.63-5.324 12.004-11.897 12.004-6.574 0-11.904-5.374-11.904-12.004 0-6.624 5.33-11.998 11.904-11.998 6.573 0 11.898 5.374 11.898 11.998"/>
        <path fill="#832F3B" d="M24.721 21.944c0 5.282-4.248 9.566-9.486 9.566-5.243 0-9.486-4.284-9.486-9.566 0-5.282 4.243-9.566 9.486-9.566 5.238 0 9.486 4.284 9.486 9.566"/>
        <path fill="#7F1A28" d="M12.275 52.902c.194.246.276.524.179.601-.102.077-.347-.061-.54-.308-.205-.252-.281-.525-.18-.602.097-.082.342.057.541.309"/>
        <path fill="#A5233B" d="M74.434 30.663c0 7.23-5.82 13.099-12.995 13.099-7.17 0-12.99-5.868-12.99-13.1 0-7.235 5.82-13.103 12.99-13.103 7.176 0 12.995 5.868 12.995 13.104"/>
        <path fill="#832F3B" d="M34.037 58.381c0 3.965-3.187 7.18-7.12 7.18-3.931 0-7.119-3.215-7.119-7.18s3.188-7.18 7.12-7.18 7.12 3.215 7.12 7.18"/>
        <path fill="#575756" d="M28.972 15.701c-3.509 0-6.676.684-9.353 2.186v.005l-.036-.01c.076.216.148.483.286.71a3.9 3.9 0 0 0 .438.632l.005.01c.02.006.072-.04.072-.04 2.386-1.328 5.309-1.986 8.588-1.986 6.263-.005 13.796 2.433 21.134 7.056.245-.437.516-.859.806-1.265-7.532-4.752-15.295-7.293-21.94-7.298"/>
        <path fill="#A5233B" d="M21.434 56.568c0 5.966-4.799 10.805-10.715 10.805-5.92 0-10.715-4.84-10.715-10.805 0-5.966 4.794-10.81 10.715-10.81 5.916 0 10.715 4.844 10.715 10.81"/>
        <path fill="#575756" d="M30.307 82.509c.03.02.061.025.097.03.01.006.03.006.03.006.112 0 .21-.052.27-.134.215-.32.358-.777.419-1.327.01-.139.02-.288.02-.422 0-.308-.04-.58-.107-.817v-.006a.323.323 0 0 0-.199-.216c-.02-.005-.04-.005-.056-.015-7.38-2.921-12.485-7.287-16.555-14.045a.207.207 0 0 0-.081-.093.331.331 0 0 0-.138-.077 2.204 2.204 0 0 0-.428-.041c-.291 0-.612.041-.954.129-.49.128-.908.318-1.193.54a.326.326 0 0 0-.102.35c.005.03.02.056.04.082 0 0 5.565 11.844 18.937 16.056M56.103 11.874C64.64 14.79 71.735 20.87 76.03 28.707a.304.304 0 0 0 .408.139 7.057 7.057 0 0 1 2.132-.664.315.315 0 0 0 .224-.462c-4.712-8.867-12.71-15.676-22.369-18.803a.322.322 0 0 0-.285.057.305.305 0 0 0-.118.272c.016.222.031.438.031.648 0 .556-.056 1.101-.153 1.62-.03.16.056.309.204.36M33.345 57.216c1.101-.267 2.076-.535 3.218-.838-.128-.288-.158-.468-.275-.72-.975.252-2.173.586-3.122.812l.179.746zM21.905 16.35c.066.035.128.22.148.478.02.118.03.246.066.385.026.113.143.345.393.38a.285.285 0 0 0 .27-.093l.54-.575c.026-.01.057-.025.088-.04 5.666-3.894 10.99-6.09 17.523-6.769a.298.298 0 0 0 .255-.195c.311-.767.378-1.45.378-1.903 0-.355-.036-.566-.041-.576a.307.307 0 0 0-.332-.257c-7.339.612-14.25 3.307-20.104 7.801a.24.24 0 0 0-.076.067c-.077.108-.092.252-.02.355.178.319.499.638.912.941M22.667 59.33c.056-.278.122-.54.204-.802-.525.072-1.05.149-1.556.216a7.813 7.813 0 0 1-.137.782c.49-.057.984-.124 1.489-.196"/>
        <path fill="#575756" d="M25.867 54.032c0 1.306.04 2.587.107 3.842-2.632-2.88-4.876-5.873-6.702-8.877a117.276 117.276 0 0 1 7.049-3.415 81.95 81.95 0 0 0-.454 8.45m57.166-12.657c.015-.061.015-.102-.006-.144 0-.01-.01-.01-.015-.015-.005-.057-.01-.118-.02-.165 0-.036 0-.066-.01-.092a.305.305 0 0 0-.266-.226 1.631 1.631 0 0 0-.158-.01c-.352.004-.76.102-1.188.287-.434.18-.79.417-1.035.669l-.005.005a.32.32 0 0 0-.097.278c.005.02.005.036.01.046.148 1.445.22 2.85.22 4.202 0 5.77-1.322 10.825-3.907 16.256.025-.463.045-.936.045-1.404-.005-5.461-1.999-11.653-5.645-17.758 1.26-.7 2.407-1.378 3.447-2.031-.193-.186-.367-.37-.54-.561a65.107 65.107 0 0 1-3.3 1.939 50.451 50.451 0 0 0-1.091-1.702c-.393.308-.801.586-1.224.853.346.52.673 1.04.994 1.553A121.831 121.831 0 0 1 61.7 46.94a86.4 86.4 0 0 0 .454-6.65l.02-.01a2.41 2.41 0 0 0-.79-.134c-.3-.01-.566.031-.77.098h-.01v.005h-.016l.016.01a81.029 81.029 0 0 1-.54 7.38c-.822.345-1.669.69-2.53 1.034-.046.298-.097.597-.164.89.883-.35 1.745-.7 2.586-1.054-1.336 10.47-4.519 19.635-8.466 25.822-6.844-1.903-14.31-6.007-21.073-12.07a59.642 59.642 0 0 1-2.785-2.639 73.575 73.575 0 0 1-.219-5.59c0-2.942.184-6.017.546-9.16 4.335-1.861 9.22-3.707 14.448-5.415a178.632 178.632 0 0 1 13.816-3.944v-.006l.01.006c.01-.103 0-.237-.036-.386-.046-.154-.081-.262-.148-.35a180.626 180.626 0 0 0-13.882 3.95c-5.084 1.671-9.853 3.456-14.111 5.276 1.652-13.371 6.344-24.654 11.78-30.378a8.85 8.85 0 0 1-.576-1.62C33.18 18 28.253 29.835 26.504 43.92c-.036.262-.061.525-.087.787-2.774 1.224-5.304 2.443-7.532 3.63-3.397-5.81-5.223-11.627-5.207-16.62 0-.428.02-.834.046-1.256a9.721 9.721 0 0 1-1.47-.18c.128-.272.256-.555.399-.823l.03-.046a.32.32 0 0 0 .01-.288c-.137-.329-.392-.684-.734-1.013-.393-.375-.79-.643-1.163-.746a.31.31 0 0 0-.316.108c-.02.026-.036.052-.051.077a38.927 38.927 0 0 0-4.718 18.592c0 1.99.148 3.996.454 5.986.005.052.02.093.051.144a.299.299 0 0 0 .26.144h.01c.363-.015.796-.139 1.26-.37.49-.237.883-.514 1.112-.823a.396.396 0 0 0 .061-.144c.01-.03.01-.067.005-.108a48.963 48.963 0 0 1-.26-4.953c0-5.477 1.071-10.414 3.575-15.706-.03.463-.056.926-.056 1.404.01 5.328 1.898 11.371 5.391 17.342-2.387 1.332-4.36 2.618-5.85 3.806a1.1 1.1 0 0 0 .184.334c.087.103.178.19.265.252l.02.015v-.01c1.449-1.152 3.402-2.422 5.769-3.739 2.162 3.585 4.911 7.144 8.17 10.502.53 6.202 1.872 11.633 3.886 15.783.326-.468.694-.915 1.081-1.327-1.54-3.425-2.662-7.78-3.238-12.738.51.493 1.03.972 1.56 1.445 6.768 6.063 14.214 10.24 21.186 12.27-.821 1.168-1.668 2.217-2.54 3.112l-.051.046v.031c.097.19.265.427.495.633.204.195.413.355.607.442v.005c1.076-1.106 2.106-2.396 3.09-3.842 2.637.654 5.197.988 7.604.993 1.377 0 2.703-.108 3.973-.33-5.309 3.39-10.684 4.99-17.294 5.55-.04.005-.066.015-.097.02a.393.393 0 0 0-.138.088c-.25.288-.453.725-.601 1.265-.097.355-.143.69-.143.993 0 .113 0 .216.02.319a.307.307 0 0 0 .306.257h.026c8.47-.268 16.534-3.276 23.174-8.738.026-.02.051-.046.072-.067a.314.314 0 0 0 .045-.34c-.168-.344-.5-.699-.933-1.012-.387-.273-.78-.463-1.122-.546a.312.312 0 0 0-.265.057c-.015.015-.036.03-.046.046-.658.504-1.31.972-1.969 1.425-.147-.324-.28-.648-.397-.988a20.957 20.957 0 0 1-4.61.494c-2.122.005-4.387-.272-6.743-.828 4.044-6.521 7.16-15.84 8.476-26.419.02-.175.036-.334.056-.504a117.765 117.765 0 0 0 8.033-3.805c3.57 5.95 5.477 11.941 5.472 17.053a18.7 18.7 0 0 1-.377 3.77s.571.432 1.494.345c.056-.278.102-.566.148-.849.122.185.265.37.439.555.351.37.714.643 1.045.798a.34.34 0 0 0 .122.02c.077 0 .148-.02.215-.082a.396.396 0 0 0 .066-.103 38.852 38.852 0 0 0 4.774-24.14M74.35 32.11c-.026.257-.072.509-.113.756 2.07.03 3.652.293 4.544.756l.005.005c.077-.072.148-.17.21-.273.086-.144.142-.288.158-.401h-.031l.005-.01c-1.081-.55-2.698-.803-4.779-.833M52.896 11.644c1.672 1.491 3.146 3.759 4.35 6.624.49-.17.99-.314 1.504-.422-1.28-3.096-2.886-5.626-4.824-7.37l-.03.031.004-.026c-.199.103-.438.304-.652.56-.164.201-.296.412-.373.592h.03l-.01.01zM82.408 130.793c-1.637 1.892-4.04 3.029-7.42 3.04h-6.38v-21.74h6.38c3.299.01 5.711 1.096 7.379 2.947 1.658 1.867 2.586 4.567 2.637 7.9-.072 3.24-.964 5.96-2.596 7.853m-7.42-21.055h-8.722v26.46h8.742c3.713 0 6.839-1.322 8.996-3.672 2.168-2.35 3.34-5.678 3.34-9.592 0-3.574-.994-6.865-3.07-9.298-2.075-2.432-5.237-3.908-9.287-3.898"/>
        <mask id="f" fill="#fff">
            <use xlink:href="#e"/>
        </mask>
        <path fill="#575756" d="M0 106.71h87.343v-.34H0zM64.505 136.197v-26.465H62.66L51.801 128.02l-10.858-18.288h-1.846v26.465h2.341V115.1l9.619 16.205h1.489l9.618-16.205v21.096zM17.788 133.832H2.34v-9.962h13.265v-2.366H2.34v-9.406h15.448v-2.36H.005v26.46h17.783zM37.337 112.095v-2.36H19.548v26.464h2.336v-12.368h13.27v-2.36h-13.27v-9.376zM.005 139.558h87.343v-.335H.005z" mask="url(#f)"/>
    </g>
</svg>
