<?xml version="1.0" encoding="UTF-8"?>
<svg width="63px" height="66px" viewBox="0 0 63 66" version="1.1" xmlns="http://www.w3.org/2000/svg" xmlns:xlink="http://www.w3.org/1999/xlink">
    <!-- Generator: Sketch 61.2 (89653) - https://sketch.com -->
    <title>Group 31</title>
    <desc>Created with Sketch.</desc>
    <g id="PADE-DESKTOP" stroke="none" stroke-width="1" fill="none" fill-rule="evenodd">
        <g id="4-Home-(PADE---Desktop)" transform="translate(-865.000000, -1914.000000)">
            <g id="Group-31" transform="translate(865.000000, 1914.000000)">
                <path d="M23,0 C35.7025492,0 46,10.2974508 46,23 C46,35.7025492 35.7025492,46 23,46 C22.8943121,46 22.7887907,45.9992871 22.6834404,45.997866 L22.5,46 C22.3228759,46 22.1470101,45.9925933 21.9724617,45.9779353 C9.74671609,45.4399304 0,35.358199 0,23 C0,10.641801 9.74671609,0.560069574 21.9724088,0.0225450812 C22.1470101,0.00740667904 22.3228759,0 22.5,0 C22.5612959,0 22.622441,0.000887014576 22.6834331,0.00265460796 Z M21,31 L14.4152524,31.0005306 C15.6176182,37.2237009 18.1485887,41.8193642 21.0006726,43.0368343 L21,31 Z M30.5847476,31.0005306 L24,31 L24.00033,43.0364062 C26.8520044,41.8182872 29.3825227,37.2229717 30.5847476,31.0005306 Z M41.7237587,31.0008477 L33.3110817,31.0006227 C32.4478329,35.81235 30.8161896,39.879803 28.6610303,42.5598854 C34.5507827,40.8570303 39.342097,36.5672395 41.7237587,31.0008477 Z M11.6889183,31.0006227 L4.27624135,31.0008477 C6.47476861,36.1392199 10.7266224,40.1897678 16.0001877,42.1208764 C14.0127078,39.4457703 12.5063317,35.5568644 11.6889183,31.0006227 Z M42.7379109,18.0007538 L33.7380743,18.0005571 C33.9100946,19.6121712 34,21.285472 34,23 C34,24.7148838 33.9100573,26.3885233 33.7379672,28.0004461 L42,28 L42.0006808,30.3196474 C42.8762965,28.0481708 43.3563218,25.5801434 43.3563218,23 C43.3563218,21.2750647 43.141775,19.6002394 42.7379109,18.0007538 Z M11.2619257,18.0005571 L3.26208914,18.0007538 C2.858225,19.6002394 2.64367816,21.2750647 2.64367816,23 C2.64367816,24.7252931 2.858314,26.4004552 3.26234043,28.0002413 L11.2620328,28.0004461 C11.0899427,26.3885233 11,24.7148838 11,23 C11,21.285472 11.0899054,19.6121712 11.2619257,18.0005571 Z M21,18 L13.9561401,17.9998688 C13.7729062,19.5971016 13.6744186,21.2717712 13.6744186,23 C13.6744186,24.7285895 13.7729473,26.4035975 13.9562548,28.0011313 L21,28 L21,18 Z M31.0438599,17.9998688 L24,18 L24,28 L31.0437452,28.0011313 C31.2124019,26.5312802 31.30929,24.9958442 31.3237002,23.4134329 L31.3255814,23 C31.3255814,21.2717712 31.2270938,19.5971016 31.0438599,17.9998688 Z M16.0001403,3.87866075 L15.7604624,3.96863335 C10.5975197,5.93373057 6.44080745,9.93939992 4.27581258,15.0001545 L11.6887384,15.0003799 C12.5061107,10.4437061 14.012562,6.554426 16.0001403,3.87866075 Z M21.0006726,2.96316566 C18.1484361,4.18070089 15.6173474,8.77679087 14.4150594,15.0004683 L21,15 Z M24.00033,2.96359378 L24,15 L30.5849406,15.0004683 C29.3827935,8.77752011 26.852157,4.18177798 24.00033,2.96359378 Z M28.6612975,3.44126179 L28.7656028,3.57176846 C30.8691254,6.2526787 32.4620754,10.2663505 33.3112616,15.0003799 L41.7241874,15.0001545 C39.3426721,9.43327535 34.5511361,5.14307185 28.6612975,3.44126179 Z" id="Combined-Shape-Copy" fill="#CF0F11" fill-rule="nonzero"></path>
                <g id="Group-15" transform="translate(23.000000, 29.000000)" fill="#FFFFFF" stroke="#CF0F11" stroke-width="2.5">
                    <polyline id="Path-28" points="14.95 27.8892037 14.95 34.5 18.8840664 32.7740481 23 34.5 23 27.6"></polyline>
                    <rect id="Rectangle" x="0" y="0" width="37.95" height="25.3" rx="1.84"></rect>
                    <circle id="Oval" cx="18.975" cy="24.725" r="5.175"></circle>
                    <line x1="14" y1="5" x2="23.2" y2="5" id="Path-31-Copy-2" stroke-linecap="round"></line>
                    <line x1="10.35" y1="11" x2="27.6" y2="11" id="Path-31" stroke-linecap="round"></line>
                    <line x1="10.35" y1="16.1" x2="13.8" y2="16.1" id="Path-32" stroke-linecap="round"></line>
                    <line x1="24.15" y1="16.1" x2="27.6" y2="16.1" id="Path-32-Copy" stroke-linecap="round"></line>
                </g>
            </g>
        </g>
    </g>
</svg>