<?xml version="1.0" encoding="UTF-8"?>
<svg width="62px" height="78px" viewBox="0 0 62 78" version="1.1" xmlns="http://www.w3.org/2000/svg" xmlns:xlink="http://www.w3.org/1999/xlink">
    <!-- Generator: Sketch 61.2 (89653) - https://sketch.com -->
    <title>Group 5</title>
    <desc>Created with Sketch.</desc>
    <g id="PADE-DESKTOP" stroke="none" stroke-width="1" fill="none" fill-rule="evenodd">
        <g id="4-Home-(PADE---Desktop)" transform="translate(-856.000000, -1466.000000)" stroke="#CF0F11" stroke-width="3">
            <g id="Group-5" transform="translate(858.000000, 1468.000000)">
                <path d="M14,61.0688686 L58.5215144,61.0688686 L55.0130722,46.0165565 C54.2961403,42.9406949 52.0678761,40.4385076 49.0953255,39.3713344 L40.5135096,36.290383 L40.5135096,36.290383 L36.2607572,41.0830273 L30.9575,35.7734599 L22.7490365,39.2029185 C19.9308233,40.3803551 17.8699247,42.8659233 17.2347815,45.8534434 L14,61.0688686 L14,61.0688686 Z" id="Path-24" fill="#FFFFFF" stroke-linejoin="round"></path>
                <line x1="22.5004567" y1="61.0688686" x2="23.8720192" y2="50.8020898" id="Path-25" stroke-linecap="round"></line>
                <line x1="48.4066827" y1="61.0688686" x2="49.7782452" y2="50.8020898" id="Path-25-Copy" stroke-linecap="round" transform="translate(49.092464, 55.935479) scale(-1, 1) translate(-49.092464, -55.935479) "></line>
                <polyline id="Path-26" stroke-linejoin="round" points="36.2607572 41.0830273 41.8547837 44.1007676 44.1223798 37.8411523"></polyline>
                <polyline id="Path-26-Copy" stroke-linejoin="round" transform="translate(31.951340, 40.623905) scale(-1, 1) translate(-31.951340, -40.623905) " points="27.6419231 40.9709599 33.9053245 44.1007676 36.2607572 37.1470417"></polyline>
                <path d="M35.7647837,33.8930513 C44.2957813,33.8930513 46.3591827,27.798508 46.3591827,24.9640128 C46.3591827,23.0743494 46.3591827,18.2083398 46.3591827,10.365984 C39.626899,13.2330204 34.167054,13.2330204 29.9796475,10.365984 C28.5284626,15.9016372 26.6957772,15.1397072 25.1703846,15.6994884 C25.1703846,20.1202093 25.1703846,23.2083841 25.1703846,24.9640128 C25.1703846,28.5521859 27.2337861,33.8930513 35.7647837,33.8930513 Z" id="Path-27" fill="#FFFFFF"></path>
                <path d="M40.1359135,33.2986402 L40.1359135,36.3201667 L36.2607572,40.9709599 L31.2742388,35.7734599 L31.2742388,33.2986402 C33.2280533,33.6949143 34.7049991,33.8930513 35.7050761,33.8930513 C36.7051531,33.8930513 38.1820989,33.6949143 40.1359135,33.2986402 Z" id="Path-28-Copy" fill="#FFFFFF" stroke-linejoin="round"></path>
                <path d="M25.1703846,16.0071827 C22.2864813,15.5326992 20.8445296,16.6580075 20.8445296,19.3831076 C20.8445296,22.1082077 22.2864813,23.1967484 25.1703846,22.6487296" id="Path-29"></path>
                <path d="M50.6648454,16.0071827 C47.7809421,15.5326992 46.3389904,16.6580075 46.3389904,19.3831076 C46.3389904,22.1082077 47.7809421,23.1967484 50.6648454,22.6487296" id="Path-29-Copy" transform="translate(48.501918, 19.344000) rotate(-180.000000) translate(-48.501918, -19.344000) "></path>
                <path d="M21.8609656,16.9029676 C20.3357121,5.63432252 24.9703182,5.15143483e-14 35.7647837,5.15143483e-14 C46.5592492,5.15143483e-14 51.230403,5.63432252 49.7782452,16.9029676" id="Path-30"></path>
                <path d="M0,51.8693563 C0,55.5448729 0,61.5884208 0,70 C5.43605317,68.0279447 12.4360532,67.6054914 21,68.7326401 C21,63.9301568 21,58.8860117 21,53.6002047 C14,50.8644033 7,50.2874539 0,51.8693563 Z" id="Path-23" fill="#FFFFFF" stroke-linejoin="round"></path>
                <path d="M21,51.8693563 C21,55.5448729 21,61.5884208 21,70 C26.4360532,68.0279447 33.4360532,67.6054914 42,68.7326401 C42,63.9301568 42,58.8860117 42,53.6002047 C35,50.8644033 28,50.2874539 21,51.8693563 Z" id="Path-23-Copy" fill="#FFFFFF" stroke-linejoin="round" transform="translate(31.500000, 60.500000) scale(-1, 1) translate(-31.500000, -60.500000) "></path>
                <path d="M0,70.5048828 L3.25439453,73.7902832 C6.56137604,72.9976555 9.22446198,72.5629224 11.2436523,72.486084 C13.2628427,72.4092455 16.5149586,72.6188809 21,73.1149902 L21,67.9421387" id="Path-3" stroke-linecap="round" stroke-linejoin="round"></path>
                <path d="M21,70.5048828 L24.2543945,73.7902832 C27.561376,72.9976555 30.224462,72.5629224 32.2436523,72.486084 C34.2628427,72.4092455 37.5149586,72.6188809 42,73.1149902 L42,67.9421387" id="Path-3-Copy" stroke-linecap="round" stroke-linejoin="round" transform="translate(31.500000, 70.866211) scale(-1, 1) translate(-31.500000, -70.866211) "></path>
            </g>
        </g>
    </g>
</svg>