<svg xmlns="http://www.w3.org/2000/svg" width="70" height="70" viewBox="0 0 70 70">
  <g id="calendar" transform="translate(0 0)">
    <path id="Shape" d="M64.166,70H5.833A5.85,5.85,0,0,1,0,64.166V26.833A5.849,5.849,0,0,1,5.833,21h7.684L34.175.342a1.165,1.165,0,0,1,1.65,0L56.483,21h7.683A5.851,5.851,0,0,1,70,26.833V64.166A5.852,5.852,0,0,1,64.166,70ZM5.833,23.333a3.5,3.5,0,0,0-3.5,3.5V64.166a3.5,3.5,0,0,0,3.5,3.5H64.166a3.5,3.5,0,0,0,3.5-3.5V26.833a3.5,3.5,0,0,0-3.5-3.5H58.816l1.509,1.508a1.167,1.167,0,0,1-.825,1.992H57.167a1.167,1.167,0,0,1-.41-2.26l-1.242-1.24H14.485l-1.242,1.24a1.167,1.167,0,0,1-.408,2.26H10.5a1.167,1.167,0,0,1-.825-1.992l1.508-1.508ZM35,2.816h0L16.816,21H53.184L35,2.816Z" fill="#555"/>
    <path id="Shape-2" data-name="Shape" d="M3.281,6.563A3.281,3.281,0,1,1,6.563,3.281,3.285,3.285,0,0,1,3.281,6.563Zm0-4.375A1.093,1.093,0,1,0,4.375,3.281,1.095,1.095,0,0,0,3.281,2.188Z" transform="translate(18.229 29.167)" fill="#555"/>
    <path id="Shape-3" data-name="Shape" d="M3.281,6.563A3.281,3.281,0,1,1,6.563,3.281,3.285,3.285,0,0,1,3.281,6.563Zm0-4.375A1.093,1.093,0,1,0,4.375,3.281,1.095,1.095,0,0,0,3.281,2.188Z" transform="translate(26.979 29.167)" fill="#555"/>
    <path id="Shape-4" data-name="Shape" d="M3.281,6.563A3.281,3.281,0,1,1,6.563,3.281,3.285,3.285,0,0,1,3.281,6.563Zm0-4.375A1.093,1.093,0,1,0,4.375,3.281,1.095,1.095,0,0,0,3.281,2.188Z" transform="translate(36.458 29.167)" fill="#555"/>
    <path id="Shape-5" data-name="Shape" d="M3.281,6.563A3.281,3.281,0,1,1,6.563,3.281,3.285,3.285,0,0,1,3.281,6.563Zm0-4.375A1.093,1.093,0,1,0,4.375,3.281,1.095,1.095,0,0,0,3.281,2.188Z" transform="translate(45.208 29.167)" fill="#555"/>
    <path id="Shape-6" data-name="Shape" d="M3.281,6.563A3.281,3.281,0,1,1,6.563,3.281,3.285,3.285,0,0,1,3.281,6.563Zm0-4.375A1.093,1.093,0,1,0,4.375,3.281,1.095,1.095,0,0,0,3.281,2.188Z" transform="translate(54.688 29.167)" fill="#555"/>
    <path id="Shape-7" data-name="Shape" d="M3.281,6.563A3.281,3.281,0,1,1,6.563,3.281,3.285,3.285,0,0,1,3.281,6.563Zm0-4.375A1.093,1.093,0,1,0,4.375,3.281,1.095,1.095,0,0,0,3.281,2.188Z" transform="translate(8.75 38.646)" fill="#555"/>
    <path id="Shape-8" data-name="Shape" d="M3.281,6.563A3.281,3.281,0,1,1,6.563,3.281,3.285,3.285,0,0,1,3.281,6.563Zm0-4.375A1.093,1.093,0,1,0,4.375,3.281,1.095,1.095,0,0,0,3.281,2.188Z" transform="translate(18.229 38.646)" fill="#555"/>
    <path id="Shape-9" data-name="Shape" d="M3.281,6.563A3.281,3.281,0,1,1,6.563,3.281,3.285,3.285,0,0,1,3.281,6.563Zm0-4.375A1.093,1.093,0,1,0,4.375,3.281,1.095,1.095,0,0,0,3.281,2.188Z" transform="translate(26.979 38.646)" fill="#555"/>
    <path id="Shape-10" data-name="Shape" d="M3.281,6.563A3.281,3.281,0,1,1,6.563,3.281,3.285,3.285,0,0,1,3.281,6.563Zm0-4.375A1.093,1.093,0,1,0,4.375,3.281,1.095,1.095,0,0,0,3.281,2.188Z" transform="translate(45.208 38.646)" fill="#555"/>
    <path id="Shape-11" data-name="Shape" d="M3.281,6.563A3.281,3.281,0,1,1,6.563,3.281,3.285,3.285,0,0,1,3.281,6.563Zm0-4.375A1.093,1.093,0,1,0,4.375,3.281,1.095,1.095,0,0,0,3.281,2.188Z" transform="translate(36.458 38.646)" fill="#555"/>
    <path id="Shape-12" data-name="Shape" d="M3.281,6.563A3.281,3.281,0,1,1,6.563,3.281,3.285,3.285,0,0,1,3.281,6.563Zm0-4.375A1.093,1.093,0,1,0,4.375,3.281,1.095,1.095,0,0,0,3.281,2.188Z" transform="translate(54.688 38.646)" fill="#555"/>
    <path id="Shape-13" data-name="Shape" d="M3.281,6.563A3.281,3.281,0,1,1,6.563,3.281,3.285,3.285,0,0,1,3.281,6.563Zm0-4.375A1.093,1.093,0,1,0,4.375,3.281,1.095,1.095,0,0,0,3.281,2.188Z" transform="translate(8.75 48.125)" fill="#555"/>
    <path id="Shape-14" data-name="Shape" d="M3.281,6.563A3.281,3.281,0,1,1,6.563,3.281,3.285,3.285,0,0,1,3.281,6.563Zm0-4.375A1.093,1.093,0,1,0,4.375,3.281,1.095,1.095,0,0,0,3.281,2.188Z" transform="translate(18.229 48.125)" fill="#555"/>
    <path id="Shape-15" data-name="Shape" d="M3.281,6.563A3.281,3.281,0,1,1,6.563,3.281,3.285,3.285,0,0,1,3.281,6.563Zm0-4.375A1.093,1.093,0,1,0,4.375,3.281,1.095,1.095,0,0,0,3.281,2.188Z" transform="translate(26.979 48.125)" fill="#555"/>
    <path id="Shape-16" data-name="Shape" d="M3.281,6.563A3.281,3.281,0,1,1,6.563,3.281,3.285,3.285,0,0,1,3.281,6.563Zm0-4.375A1.093,1.093,0,1,0,4.375,3.281,1.095,1.095,0,0,0,3.281,2.188Z" transform="translate(36.458 48.125)" fill="#555"/>
    <path id="Shape-17" data-name="Shape" d="M3.281,6.563A3.281,3.281,0,1,1,6.563,3.281,3.285,3.285,0,0,1,3.281,6.563Zm0-4.375A1.093,1.093,0,1,0,4.375,3.281,1.095,1.095,0,0,0,3.281,2.188Z" transform="translate(45.208 48.125)" fill="#555"/>
    <path id="Shape-18" data-name="Shape" d="M3.281,6.563A3.281,3.281,0,1,1,6.563,3.281,3.285,3.285,0,0,1,3.281,6.563Zm0-4.375A1.093,1.093,0,1,0,4.375,3.281,1.095,1.095,0,0,0,3.281,2.188Z" transform="translate(54.688 48.125)" fill="#555"/>
    <path id="Shape-19" data-name="Shape" d="M3.281,6.563A3.281,3.281,0,1,1,6.563,3.281,3.285,3.285,0,0,1,3.281,6.563Zm0-4.375A1.093,1.093,0,1,0,4.375,3.281,1.095,1.095,0,0,0,3.281,2.188Z" transform="translate(8.75 57.604)" fill="#555"/>
    <path id="Shape-20" data-name="Shape" d="M3.281,6.563A3.281,3.281,0,1,1,6.563,3.281,3.285,3.285,0,0,1,3.281,6.563Zm0-4.375A1.093,1.093,0,1,0,4.375,3.281,1.095,1.095,0,0,0,3.281,2.188Z" transform="translate(18.229 57.604)" fill="#555"/>
    <path id="Shape-21" data-name="Shape" d="M3.281,6.563A3.281,3.281,0,1,1,6.563,3.281,3.285,3.285,0,0,1,3.281,6.563Zm0-4.375A1.093,1.093,0,1,0,4.375,3.281,1.095,1.095,0,0,0,3.281,2.188Z" transform="translate(26.979 57.604)" fill="#555"/>
  </g>
</svg>
