<svg xmlns="http://www.w3.org/2000/svg" width="46" height="57" viewBox="0 0 46 57">
    <g fill="none" fill-rule="evenodd" stroke="#CF0F11" stroke-width="2.189">
        <path fill="#FFF" stroke-linejoin="round" d="M12.216 46.564h32.489l-2.56-10.984a6.79 6.79 0 0 0-4.319-4.85l-6.262-2.248-3.103 3.498-3.87-3.875-5.99 2.503a6.79 6.79 0 0 0-4.024 4.853l-2.36 11.103z"/>
        <path stroke-linecap="round" d="M18.419 46.564l1.001-7.492M38.324 46.564l-1-7.492"/>
        <path stroke-linejoin="round" d="M28.46 31.98l4.083 2.202 1.654-4.568M28.46 31.898l-4.57 2.284-1.719-5.075"/>
        <path fill="#FFF" d="M28.099 26.733c6.225 0 7.73-4.448 7.73-6.516V9.564c-4.912 2.093-8.896 2.093-11.952 0-1.059 4.04-2.396 3.484-3.51 3.892v6.761c0 2.618 1.506 6.516 7.732 6.516z"/>
        <path fill="#FFF" stroke-linejoin="round" d="M31.288 26.299v2.205l-2.827 3.394-3.64-3.793v-1.806c1.426.29 2.504.434 3.234.434s1.808-.145 3.233-.434z"/>
        <path d="M20.368 13.68c-2.105-.345-3.157.476-3.157 2.464 0 1.989 1.052 2.783 3.157 2.383M35.815 18.55c2.104.347 3.157-.474 3.157-2.463 0-1.988-1.053-2.783-3.157-2.383"/>
        <path d="M17.953 14.335C16.84 6.112 20.222 2 28.099 2c7.877 0 11.285 4.112 10.226 12.335"/>
        <path fill="#FFF" stroke-linejoin="round" d="M2 39.85v13.231c3.967-1.439 9.075-1.747 15.324-.925V41.114C12.216 39.117 7.108 38.696 2 39.85zM32.649 39.85v13.231c-3.967-1.439-9.075-1.747-15.325-.925V41.114c5.108-1.997 10.217-2.418 15.325-1.263z"/>
        <path stroke-linecap="round" stroke-linejoin="round" d="M2 53.45l2.375 2.397c2.413-.578 4.356-.896 5.83-.952 1.473-.056 3.846.097 7.12.46v-3.776"/>
        <path stroke-linecap="round" stroke-linejoin="round" d="M32.649 53.45l-2.375 2.397c-2.413-.578-4.357-.896-5.83-.952-1.474-.056-3.847.097-7.12.46v-3.776"/>
    </g>
</svg>
