<svg xmlns="http://www.w3.org/2000/svg" xmlns:xlink="http://www.w3.org/1999/xlink" width="137" height="40" viewBox="0 0 137 40">
    <defs>
        <path id="a" d="M0 39.123h136.618V0H0z"/>
    </defs>
    <g fill="none" fill-rule="evenodd">
        <path fill="#DD0332" d="M19.956 39.099c0-.162-.015-.358-.028-.442-.042-.16-.023-.517.013-.68.041-.168.015-.22-.02-.445-.05-.21-.05-.48-.035-.738.02-.148-.066-.236 0-.396.063-.169.07-.322.164-.392 0 0 .205-.075.357-.21l.147-.303s.276-.127.48-.196c0 0 .377-.178.531-.191l.26-.019s.163.127.378.076c.216-.044.527-.037.527-.037s.066.108.44.148l.345.092.397-.07.494-.177.211.044s.205.032.27-.021c.071-.036.342-.13.591-.258l.405-.369c.053-.021.136-.047.225-.145l.071-.178-.496-.171-1.277-.126c-.047-.03-.1-.107-.035-.186.077-.068.132-.093.265-.247l.248-.053.223-.045.242-.015.227-.26-.183-.087-.226-.087-.436-.057c0-.06.05-.156.211-.18.3-.107.563-.144.741-.264-.06-.017-.353-.024-.21-.133l.177-.087c.074-.037.25-.078.266-.12h-.18l-.172-.272s-.114 0-.25-.046c-.045 0-.174 0-.232-.048l-.325.008s-.199 0-.199-.033l.043-.27c.048-.015.111-.077.204-.106.08-.037.51-.145.437-.306 0 0 .072.044.231-.123l-.197-.089H24.712s-.186.062-.264.039l-.632-.076-.249-.106-.304-.108-.21-.112s-.108.03-.31.034l-.4-.045c-.262.01-.355-.034-.392-.034l-.867-.01s-.247.01-.257.018c-.032.008-.292.044-.333.067-.068.004-.438-.003-.478-.003l-.297-.027s.12-.037.222-.107l.203-.049.077-.173.314-.083.36-.127-.546-.252s.145-.006.176-.039c.035-.012.178-.033.312-.14 0 0 .461.004.527-.03a.338.338 0 0 1 .21 0c.081.034.217.08.222.118 0 0 .303 0 .386.04.09.03.436.094.476.094a.55.55 0 0 1 .201.081c.1.01.177.024.265-.025l.34.04c.051 0 .233.056.29.088l.274-.145s.023-.062 0-.19c.105 0 .194-.028.17-.12l.03-.188c.077 0 .196-.044.196-.044s.01-.049.225-.049c-.053-.174-.2-.139-.242-.139-.036-.008-.143-.082-.209-.106-.065-.009-.17 0-.239 0-.047.008-.09.05-.226-.128l.086-.232-.206-.053-.173-.079s.038-.119.127-.25c0 0 .017-.062.197-.14.028-.033.052-.073.18-.217l-.3-.082-1.42.034c-.062.028-.433.055-.433.055s-.226-.018-.28.028c-.058.026-.3.1-.648.15.09.026.258-.012.348.11 0 0 .25.015.326.015l.383.023s.058.033.095.234l-.224.084-.276-.005s-.5.07-.854.04c-.35-.047-.547-.088-.61-.079.036-.175-.13-.22-.165-.253l-.178-.059s-.05-.043-.068-.234l-.174-.107s.107-.055.107-.226c0-.154-.005-.205.067-.246l.235-.166c-.088-.135.011-.176.141-.176 0 0-.288-.05-.485-.126.01-.055.161-.159.21-.171a.872.872 0 0 1 .241-.05h.19l.218.013c.096.007.181.011.271.007.087-.007.248 0 .248 0s.064.065.166.186l.18-.044c.223.02.368-.007.471-.007l.57.099c.067 0 .313-.033.484.029h-.253l.02.19s-.047.1-.195.205c0 0 .118.032.208.046.085.006.196.036.208.119h.356s.191-.04.23-.04l.203-.01.155-.27s.134-.066.2-.084a.589.589 0 0 0 .221-.148l.37-.054c.098-.031.37-.031.461-.031.104 0 .242-.024.242-.158 0 0 .108-.024.164-.092-.04-.048-.128-.08-.178-.034a.89.89 0 0 1-.204.046s-.06-.012-.183 0c0 0-.204-.012-.348-.228 0 0 .078-.085.221-.085l.185-.06s.055-.117.173-.177l-.094-.196-.042-.234-.232-.119-.183-.042h-.352l-.19-.066-.334-.11-.256-.1-.368-.192-.313-.169-.235-.097-.612.015-.169-.015.006-.242.28-.243.164-.078s.4-.18.65-.05c0 0 .123 0 .262.035.148.032.297.031.384-.144l.88-.015.435-.033-.14-.168-.287-.103c-.102-.095-.157-.113-.306-.197-.04-.025-.09-.025-.22-.189-.067-.04-.15-.067-.207-.137-.042-.013-.143-.023-.265-.013-.124 0-.243.038-.333 0-.08-.03-.114-.077-.142-.197a1.7 1.7 0 0 0 .412-.096l.25-.01.358-.076c0-.043-.145-.043-.202-.051l-.305-.091a.753.753 0 0 1 .237-.062l.186-.058.167-.053a.439.439 0 0 0 .307-.19l-.268-.036-.606-.054-.209.145-.199.135-.327.01s-.298.012-.456-.145l.062-.176.072-.203.287-.044.778-.038.75.038-.118-.214c-.034.048-.156.037-.156.037l-.228-.029-.356-.052-.268-.088-.384.132s-.139.064-.359-.1c-.018-.233.213-.233.213-.233.243-.177.313-.194.313-.194s-.065-.06-.038-.175c.026-.01.082-.053.056-.193l.108-.185.274-.352s.185-.1.258-.217l-.189-.07h-.392s-.16-.091-.258-.08c-.087.001-.29-.011-.316-.084l-.293-.225-1.035-.16-.195-.13-.328-.192-.077-.193-.55-.03v-.24l.462-.078s.138-.071.2-.071c.074.006.206-.02.32-.043.103-.035.346-.086.482-.217l.34-.153.614-.056.33-.034c.04 0 .168-.009.19-.06l.265.002-.514-.213c-.09-.182-.194-.232-.279-.352 0 0 .15-.022.245-.052.093-.038.261-.057.332-.166l.313-.017.186-.018-.026-.181s-.326.044-.726.015c-.42-.035-.688-.094-.746-.07-.065.035-.472.076-.585.123l-.21-.028c.093-.158.246-.187.385-.158.14 0 .262 0 .375-.172 0 0 .035-.037.258-.213l.178-.068-.204-.071-.262-.164c.01-.125.08-.222.08-.222l.154-.197.166-.032s.247-.008.332-.181c0 0-.07-.147.052-.232l-.045-.19s.027-.05.174-.088l.074-.214-.176-.207-.303-.027-.274-.046-.234-.2-.369-.15c0-.06-.02-.137.053-.17.078-.035.256-.113.346-.105.093.011.242-.02.195-.113l.33-.074s-.068-.06.162-.187c0 0-.014 0-.429-.241l-.213-.094-.194-.113-.119-.203-1.076.103.041.215-.17.168s-.166.047-.257.027c-.088-.014-.265-.071-.324-.044-.08.03-.119.064-.255-.027v-.21l-.036-.239-.024-.191.164-.329.441-.06h1.057s.115.037.204.029c.084-.02.121-.083.367-.193l.106-.183c-.119-.018-.184-.037-.238-.114l-.139-.212-.218-.09-1.2.013-.213-.053-.335-.091-.013-.193c.011-.053.03-.087-.013-.182 0 0 0-.014.194-.136.071-.004.071-.071.2-.085.106-.01.315-.01.315-.01s.031-.114.2-.098c.146.017.238.097.252.237l.17.092.322-.035.254.033c.132.011.168.044.247.011.064-.023.122-.055.252-.044.122.013.162.033.251.077l-.053-.22-.284-.054-.207-.169-.074-.183-.143-.434-.084-.41c-.03-.09-.075-.124-.11-.278h-.254l-.505.028-.334-.159-.248.047-.29-.176-.015-.263.014-.247h.195s-.114-.146-.195-.169c-.07-.021-.016-.211-.016-.211l-.048-.25.105-.243.613-.137.518-.09.167-.192-.227-.036-.197-.036.197-.195-.239.023a1.21 1.21 0 0 1-.252-.069s-.168.069-.225.069l-.222-.125c-.018-.093-.018-.177-.018-.177l.178-.098-.192-.18-.264-.217c0-.082.065-.201.15-.346l.394.02-.199-.13-.196-.194-.084-.386.057-.304.458-.163-.062-.225-.173-.236-.196-.095-.256-.01.134-.207-.027-.232-.247.031-.216.143.08.206-.06.216-.17.187s-.069.158-.185.148c-.11-.01-.39-.01-.464-.031-.075-.023-.135-.058-.196 0-.053.056-.182.174-.463.205 0 .035.074.05.203.18.105.03.402.122.44.175.045.063.084.063.181.063l.386-.137.036.29c-.007.147-.053.223 0 .287-.136.145-.106.283-.245.375l-.177-.002c.14.067.09.159.09.245l.325.131s.007.155.032.222c.012.07.036.163.036.302l-.184.08h-.21s-.149.043-.286.036h-.207l.043.23.225-.067c.09.04.225.04.313.088l.041.305.265.048-.158.22c-.065-.07-.073-.03-.186-.077h-.553s-.223.027-.375 0c-.149-.019-.356 0-.459.145 0 0-.167.028-.232.049-.054.042-.109.046-.17.118 0 0 .321.05.53.067.211.007.554 0 .628 0 .075 0 .155.029.295-.04l.256-.057.4.07c-.134.141-.173.096-.216.077-.059-.014-.247-.043-.34 0-.122.031-.232.064-.393.265-.048.048-.187.055-.187.103 0 .064.066.09.185.09.117 0 .31-.026.327.046.01.085.105.235.207.144.034 0 .017-.052.135-.216.047-.03.238-.072.306.002.01.077-.008.2-.06.214.011.202-.054.208-.246.287 0 .064.041.017.192.082-.018.066-.044.165.164.26l-.28.088-.313.054-.24-.092-.243.005s-.199-.005-.32.03a.505.505 0 0 1-.339-.008c-.087-.054-.23-.039-.42-.01-.164.02-.249.02-.249.083 0 0 .27 0 .475.047l.056.183.358.01v.251s-.138.077-.358.168l.092.202s.09 0 .223.1l.275.043s.092-.036.26.046c.056.01.204.057.252.124.073 0 .163-.013.28.038.08.037.176.11.392.177 0 0 .061.223.025.31-.037.096-.085.129-.216.239 0 .058-.104.133-.303.262.013.034.021.09-.037.197.037.023.132.027.35.193.097.188.222.14.23.31l-.199-.033-.242-.081s-.07-.052-.164.024c-.012.036-.043.09-.207-.024-.046 0-.292-.027-.348-.008-.047.008-.073.08-.232.068l-.21-.06-.185-.18h-.176l.084-.239-.226-.052s.063-.297-.08-.297c-.149-.007-.327-.08-.295.053.036.146.036.227.036.227s-.213-.064-.364.126c.151.027.273.027.28.079l-.007.203.314.072c.03.074.036.209-.077.168-.063 0-.182 0-.165.074 0 .036.157.065.265.237 0 0-.023.027-.065.19-.07.003-.098.046.042.176-.058.147-.16.16-.184.246.034-.008.126-.028.3.195-.028.053-.044.095-.209.117h-.272l-.152.231a.462.462 0 0 1-.254.065c-.099-.018-.269-.039-.292.041-.012.08.14.028.224.074.068.029.34.056.364.115.216 0 .291-.075.325-.059l.173.04c.013-.007.065.008.174.092l.201.088.22.046v.386l-.169-.041c-.025-.033-.04-.111-.089-.202 0 0 0 .09-.244-.005 0-.017-.028-.024-.04-.184l-.169-.014s-.033-.013-.198.151l-.244.143h-.31l-.17-.01s-.04-.023-.06-.233l-.316.112s-.148.166-.148.242c0 .05-.05.122-.186.157l-.25.066s.111.064.204.225a2.947 2.947 0 0 0-.343.093c-.042.016-.08.051-.19.11l.087.228c.052.045.212.182.338.192.09.02.176.028.325.186.128 0 .287 0 .54-.012.21-.017.33-.043.578-.007.252.042.343.007.275.157l-.523-.01a.569.569 0 0 0-.383.075l.221.113c.075.05.121.102.196.116.081.002.175-.024.175.051-.004.076-.094.1-.182.121-.089.011-.232-.021-.346-.045-.083-.038-.187-.076-.242-.038-.03.038-.089.062-.18.051-.114-.013-.129 0-.248.043l-.7.083c-.096 0-.27-.022-.27-.022s-.16.022-.2.158c0 0 .07.01.18.092.061.067.12.067.232.078.126.006.237-.064.338-.011.093.025.214.054.218.114 0 .078-.04.174.052.203.098.028.574.063.727-.018.056.018.257.043.325.071a.7.7 0 0 0 .292-.011c.095-.017.295-.036.346-.167l.17-.03c.08.051.184.18.246.18h.481l-.008.209s-.094-.05-.2-.023c-.098.023-.453.059-.572.082a4.487 4.487 0 0 1-.292 0c-.014.185-.014.24.175.338.04.071.13.12.236.153.118.058.13.076.18.117.04.065.077.111.187.087l.202-.016c.06.029.22.034.202.104 0 .089-.045.12-.16.225-.052.072-.189.132-.38.089-.076 0-.625-.054-.699-.145l-.614.003s-.156-.052-.209-.003c-.057.029-.104.055-.238.116 0 0 0 .169-.225.2-.224.035-.61.051-.61.051l-.044.226-.4.022-.194.055s-.358.03-.349.09c0 .051.197.008.35.02.143.01.693-.02.942.01.247.021.681.078.766.042.078-.041.277-.132.371-.026.094.095.302.128.454.128.146.004.204.048.204.048v.414l.028.525s.04.202.236.247l-.25.234-.82-.056-.186.056-.096-.194s-.124.034-.215 0c-.055-.032-.187-.138-.187-.138l-.172.01-.167-.093-.1-.191h-.264l-.047-.184v-.227l-.278-.031c-.122 0-.153.03-.273.053l-.247.105s-.11.154-.277.174c-.169.01-.256.01-.278.11l.37.19s.074-.007.233.039l.136.235c.088.057.132.066.124.231 0 0 .101-.01.28.098l-.095.28c-.252.221-.246.387-.246.442l-.117.205s-.179 0-.334.05c-.157.052-.18.035-.329-.05-.022 0-.16.04-.197.105-.029.072-.069.114.024.247.094.197.094.232.173.369l.27.138.563.112c.096.018.204.018.311.007l.194-.027.48-.092s.196 0 .395.02c.185.018.341 0 .407.042.07.043.145.074.016.264.056.01.621.08.621.08l.216.055.174.054s.161.05.257.216c.086.018.333.018.5.074l.136.237c.066.098.188.216.392.392 0 0 .201-.007.28.01.067.009.211.041.293.041.087-.012.19-.05.23-.058.17.185.15.185-.005.27l-.184.04-.713.026s-.066-.066-.254-.151l-.018-.178-.359-.087-.165-.097-.047-.23s-.152.036-.26-.05l-.312-.045-.22-.128-.347-.16c-.093-.04-.215-.073-.502.02l-.168.074c-.05.022-.13.066-.272.018 0 0-.438.084-.627.084-.193 0-.477-.048-.579 0 0 0-.009.03-.196.114-.023.033-.066.064-.15.176 0 .03 0 .127-.04.177l.081.173s-.115.028-.274.091l-.689.094c-.228.195-.392.195-.444.318l.633-.006c.11-.007.425-.035.48-.027.053.015.44.108.613.124.183 0 .154-.046.225-.03.084 0 .202-.094.265-.094.063-.008.211.015.23.043l.166.087c.054.015.173.084.255.318 0 0 .171.032.293.091.155.142.301.183.415.282.08.058.07.084.008.23-.052.025-.176.05-.323.025l-.207.082s.063.018.198.178c.026.016.074.037.01.185l-.245.085-.065.182a1.001 1.001 0 0 1-.343.16c.004.048.067.124.133.233-.005.046-.194.12-.332.15-.193.145-.224.174-.156.379 0 0-.887.046-1.023.03-.172 0-.382-.115-.552-.056l-.378.117-.134.183-.05.244s-.09.058-.254.1c0 .033.017.033.213.11.188.158.22.172.225.34l-.575.138s-.19.03-.19.14c.037.055.126.095.205.095.067 0 .13-.046.297.034a.41.41 0 0 1-.037.182c.176.197.263.19.318.165.075-.014.43-.104.58-.014.032.046.111.039.235.039h.36s.13.064.321.23c0 0 .028.13.137.203.127.092.167.072.18.12l.168.094c.048-.022.206-.094.248-.172.03-.088.08-.155.227-.244.052.004.503.039.633.039l.677.005s.134.113.212.088c.07-.032.154-.043.24-.145.057-.016.377-.082.463-.039.065.04.106.023-.06.208a2.057 2.057 0 0 0-.474.065v.195s-.143-.03-.199-.05l-.182-.044c-.277.08-.406-.013-.61.094-.045 0-.092-.05-.197.14 0 0-.09.022-.153.085-.065.062-.215.301-.273.324-.066.034-.077.057-.085.231-.26.12-.316.07-.456.036l-.18.155c-.032.035-.108.19-.192.177-.096-.024-.369-.102-.445-.074-.086.035-.36.074-.45.116-.1.051-.184.122-.43.122-.252-.013-.454.027-.454.027l-.297.262-.108.273c0 .082.021.168-.078.354 0 0-.015.107.067.177.073.068.052.172.282.172.227 0 .55-.062.802.066.01.034.202.034.254.069.04.023.198.098.198.098s.078.028.241-.002c.17-.044.33-.09.33-.229 0 0 .03 0 .196-.114l.032.3s.29-.014.427.03c.031.026.17-.026.213-.03.048-.03.233 0 .243.043 0 .048.032.242-.094.242-.107-.008-.24.01-.24.01l-.287-.052a.844.844 0 0 0-.348.052l-1.992.235-.217.22-.205-.02s-.075.03-.21.129l-.194.169-.34.131.45.09.294.192.083.204.244-.132.195.07.381.108.346-.087.32-.184-.274-.086.01-.175.25-.1.274-.092h.32l.308.123.256.107.145.195h.176l.54.127.3-.057 1.486.15.396.111.19.16s.488.052.58.052c.104 0 .3-.008.41.038.104.043.142.082.082.272-.109 0-.66.057-.82.04-.16-.021-.303-.04-.48-.07l-.558-.203c-.09-.039-.203-.093-.372-.085-.16.008-.75.068-.93.042-.185-.034-.359-.163-.413-.186-.062-.024-.294-.055-.555.026-.26.084-.338.049-.482.164l-.093.361-.35-.032h-.264l.152.213c.041.034.218.067.272.077.062.011.265.015.32.035.04.018.193.103.15.186l.106.266c.092.016.613.036.714.016.084-.035.232-.135.365-.282l.252-.009s.207.08.562.062l.592-.062c.156-.102.235-.05.375-.08.131-.044.247-.079.334-.28 0 0 .476.037.572.011.097-.012.384-.12.47-.049.103.082.207.082.315.155l-.052.295-.393-.028.003.174.407.246s-.064.475-.064.688c0 .22.032.495.087.648.071.16.144.698.076 1.162-.04.22-.065.362-.09.465C8.266 38.952 0 30.262 0 19.562 0 8.76 8.432 0 18.85 0 29.251 0 37.69 8.76 37.69 19.562c0 10.42-7.852 18.936-17.735 19.537z"/>
        <path fill="#221F20" d="M43.14 35.022h5.222c1.612 0 2.82-.655 2.82-2.34 0-1.775-1.075-2.273-2.52-2.273H43.14v4.613zm0-5.785h4.919c1.678 0 2.753-.55 2.753-2.186 0-1.5-.974-1.983-2.331-1.983H43.14v4.17zM41.898 23.9h6.817c2.35 0 3.343 1.36 3.343 3.1 0 1.188-.641 2.29-2.067 2.633v.034c1.579.244 2.533 1.432 2.533 3.016 0 2.566-2.115 3.51-3.96 3.51h-6.666V23.9zM66.006 31.442c0 2.238-.603 5.06-5.355 5.06-4.75 0-5.355-2.822-5.355-5.06V23.9h1.243v7.543c0 3.219 2.03 3.892 4.112 3.892 2.082 0 4.115-.673 4.115-3.892V23.9h1.24v7.543zM77.638 27.41c-.167-2.099-1.827-2.65-3.76-2.65-1.927 0-3.388.776-3.388 2.169 0 1.602 1.46 1.981 4.378 2.479 2.184.38 4.366.897 4.366 3.254 0 3.015-2.668 3.84-5.004 3.84-3.037 0-5.252-1.065-5.437-4.371h1.242c.216 2.58 1.895 3.203 4.195 3.203 1.798 0 3.66-.502 3.66-2.446 0-1.877-2.182-2.103-4.361-2.464-2.856-.464-4.383-1.29-4.383-3.27 0-2.687 2.419-3.565 4.732-3.565 2.45 0 4.918.895 5 3.822h-1.24z"/>
        <mask id="b" fill="#fff">
            <use xlink:href="#a"/>
        </mask>
        <path fill="#221F20" d="M82.251 36.192h1.24V23.898h-1.24zM87.065 23.9h1.495l8.378 10.503h.031V23.899h1.245v12.293H96.77l-8.427-10.5h-.034v10.5h-1.243zM101.603 23.9h9.537v1.169h-8.293v4.169h7.991v1.172h-7.99v4.612h8.427v1.17h-9.672zM122.252 27.41c-.168-2.099-1.828-2.65-3.762-2.65-1.927 0-3.387.776-3.387 2.169 0 1.602 1.46 1.981 4.38 2.479 2.182.38 4.362.897 4.362 3.254 0 3.015-2.667 3.84-5.001 3.84-3.04 0-5.257-1.065-5.441-4.371h1.247c.214 2.58 1.9 3.203 4.194 3.203 1.796 0 3.658-.502 3.658-2.446 0-1.877-2.181-2.103-4.362-2.464-2.853-.464-4.383-1.29-4.383-3.27 0-2.687 2.418-3.565 4.733-3.565 2.456 0 4.92.895 5.005 3.822h-1.243zM135.021 27.41c-.167-2.099-1.827-2.65-3.76-2.65-1.93 0-3.39.776-3.39 2.169 0 1.602 1.46 1.981 4.38 2.479 2.184.38 4.367.897 4.367 3.254 0 3.015-2.672 3.84-5.003 3.84-3.038 0-5.256-1.065-5.442-4.371h1.244c.22 2.58 1.896 3.203 4.198 3.203 1.795 0 3.656-.502 3.656-2.446 0-1.877-2.18-2.103-4.362-2.464-2.855-.464-4.384-1.29-4.384-3.27 0-2.687 2.418-3.565 4.736-3.565 2.448 0 4.92.895 5.003 3.822h-1.243zM110.487 8.2c-.026-.533-.217-.99-.817-.99-.838 0-.95.946-.95 2.11 0 1.161.112 2.104.95 2.104.84 0 .901-1.029.901-1.697h-.969V9.22h1.52v2.615h-.455v-.685h-.016c-.129.43-.518.784-1.057.784-1.275 0-1.503-1.261-1.503-2.614 0-1.27.228-2.616 1.58-2.616 1.407 0 1.441 1.234 1.45 1.496h-.634zM112.627 9.086h.596c.358 0 1.009 0 1.009-.972 0-.495-.324-.805-.882-.805h-.723v1.777zm-.608-2.284h1.589c.77 0 1.257.465 1.257 1.263 0 .548-.186 1.127-.754 1.269v.013c.424.048.666.406.693.837l.04.86c.027.556.116.699.262.791h-.728c-.105-.11-.15-.48-.168-.728l-.04-.784c-.048-.688-.418-.73-.724-.73h-.82v2.242h-.607V6.802zM116.428 9.943h1.317l-.625-2.43h-.012l-.68 2.43zm.292-3.142h.812l1.318 5.034h-.63l-.353-1.382H116.3l-.363 1.382h-.631l1.413-5.034zM120.032 11.326h.631c1.046 0 1.162-1.1 1.162-2.002 0-.972-.062-2.015-1.162-2.015h-.63v4.017zm-.604-4.524h1.31c1.525 0 1.723 1.128 1.723 2.516 0 1.268-.31 2.517-1.658 2.517h-1.375V6.802zM123.305 6.803h.603v3.536c0 .742.234 1.084.834 1.084.647 0 .835-.378.835-1.084V6.803h.607v3.536c0 .965-.482 1.593-1.442 1.593-.983 0-1.437-.557-1.437-1.593V6.803zM127.764 9.943h1.319l-.623-2.43h-.015l-.681 2.43zm.294-3.142h.813l1.318 5.034h-.631l-.35-1.382h-1.568l-.361 1.382h-.635l1.414-5.034zM131.817 11.835h-.603V7.351h-1.232v-.548h3.072v.548h-1.237zM133.682 6.803h2.535v.549h-1.931v1.575h1.823v.552h-1.823v1.805h2.01v.55h-2.614zM110.323 14.93c0-.53-.185-.9-.764-.9-.509 0-.815.284-.815.822 0 1.423 2.323.572 2.323 2.42 0 1.17-.832 1.501-1.529 1.501-1.152 0-1.493-.608-1.493-1.685h.611c0 .567.034 1.177.922 1.177.483 0 .855-.354.855-.894 0-1.43-2.324-.598-2.324-2.456 0-.467.193-1.394 1.443-1.394.94 0 1.365.482 1.38 1.409h-.609zM114.512 16.94c-.054.957-.42 1.834-1.494 1.834-1.402 0-1.591-1.353-1.591-2.626 0-1.277.23-2.626 1.59-2.626 1.009 0 1.429.577 1.457 1.57h-.637c-.012-.572-.192-1.06-.82-1.06-.844 0-.951.948-.951 2.116 0 1.165.107 2.117.952 2.117.736 0 .84-.708.859-1.326h.635zM117.8 18.673h-.606v-2.434h-1.692v2.434h-.606V13.62h.606v2.066h1.692V13.62h.606zM118.978 16.148c0 1.168.112 2.116.956 2.116.84 0 .948-.948.948-2.116 0-1.17-.108-2.117-.949-2.117-.844 0-.956.948-.956 2.117m2.541 0c0 1.272-.228 2.627-1.585 2.627-1.36 0-1.589-1.355-1.589-2.627 0-1.274.229-2.627 1.59-2.627 1.356 0 1.585 1.353 1.585 2.627M122.629 16.148c0 1.168.112 2.116.952 2.116.845 0 .954-.948.954-2.116 0-1.17-.11-2.117-.954-2.117-.84 0-.952.948-.952 2.117m2.54 0c0 1.272-.225 2.627-1.588 2.627-1.357 0-1.583-1.355-1.583-2.627 0-1.274.226-2.627 1.583-2.627 1.363 0 1.589 1.353 1.589 2.627M125.715 13.62h.607v4.502h2.003v.552h-2.61zM130.63 16.148c0 1.168.112 2.116.952 2.116.842 0 .952-.948.952-2.116 0-1.17-.11-2.117-.952-2.117-.84 0-.951.948-.951 2.117m2.538 0c0 1.272-.226 2.627-1.587 2.627-1.357 0-1.586-1.355-1.586-2.627 0-1.274.229-2.627 1.586-2.627 1.36 0 1.587 1.353 1.587 2.627M133.715 13.62h2.546v.552h-1.936v1.585h1.826v.553h-1.826v2.364h-.61z" mask="url(#b)"/>
        <path fill="#DD0332" d="M51.715 11.025c-.086-1.73-1.276-3.161-2.937-3.161-1.74 0-2.904 1.283-3.195 3.16h6.132zm-6.132 2.832c.085 2.117 1.28 3.52 3.37 3.52 1.195 0 2.359-.568 2.823-1.7h4.622c-.903 3.576-4.13 5.127-7.5 5.127-4.91 0-8.256-3.042-8.256-8.229 0-4.74 3.69-8.14 8.136-8.14 5.412 0 8.114 4.175 7.882 9.422H45.583zM62.269 15.26c0 .774.317 1.34.812 1.728.464.357 1.138.536 1.831.536.957 0 2.325-.416 2.325-1.64 0-1.193-1.538-1.433-2.41-1.64-3.113-.803-7.006-.892-7.006-5.068 0-3.726 3.925-4.741 6.886-4.741 3.318 0 6.776.986 6.953 5.01H67.09c0-.656-.227-1.073-.636-1.34-.407-.27-.962-.39-1.573-.39-.812 0-2.12.09-2.12 1.163 0 1.461 3.314 1.73 5.58 2.238 3.052.624 3.838 2.889 3.838 4.172 0 4.144-3.838 5.516-7.24 5.516-3.57 0-7.233-1.224-7.383-5.545h4.712zM80.088 17.673c2.353 0 3.137-1.373 3.02-4.562-.7.447-1.977.536-3.05.837-1.106.267-2.036.744-2.036 1.967 0 1.25.96 1.758 2.066 1.758zm-6.396-8.018c.085-2.028 1.013-3.34 2.355-4.144 1.337-.776 3.08-1.076 4.795-1.076 3.578 0 7.03.807 7.03 5.19v6.766c0 1.313 0 2.742.586 3.965h-4.973c-.173-.475-.231-.953-.291-1.461-1.277 1.372-3.168 1.909-4.967 1.909-2.878 0-5.146-1.492-5.146-4.682 0-5.036 5.349-4.65 8.778-5.365.844-.178 1.308-.478 1.308-1.432 0-1.161-1.367-1.61-2.385-1.61-1.366 0-2.236.627-2.47 1.94h-4.62zM90.432 4.883h4.798V7h.056c.9-1.579 2.936-2.564 4.738-2.564 5.03 0 5.436 3.757 5.436 5.993v9.928h-4.941v-7.484c0-2.114.23-4.264-2.472-4.264-1.86 0-2.674 1.611-2.674 3.31v8.438h-4.941V4.883z" mask="url(#b)"/>
    </g>
</svg>
