<svg xmlns="http://www.w3.org/2000/svg" xmlns:xlink="http://www.w3.org/1999/xlink" width="232" height="86" viewBox="0 0 232 86">
    <defs>
        <path id="a" d="M0 86.52h231.831V.999H0z"/>
    </defs>
    <g fill="none" fill-rule="evenodd" transform="translate(0 -1)">
        <path fill="#706F6F" d="M0 69.89V59.652H1.46l3.267 5.18c.742 1.197 1.35 2.263 1.822 3.316l.045-.013c-.121-1.36-.153-2.601-.153-4.185v-4.298h1.247V69.89H6.346l-3.25-5.193c-.715-1.143-1.394-2.309-1.898-3.42l-.045.013c.076 1.292.099 2.52.099 4.217v4.383H0zM15.819 65.482c.018-.837-.347-2.17-1.84-2.17-1.364 0-1.94 1.247-2.048 2.17h3.888zm-3.906.954c.031 1.804 1.17 2.551 2.506 2.551.963 0 1.553-.166 2.039-.364l.243.945c-.468.207-1.292.472-2.466.472-2.246 0-3.61-1.503-3.61-3.712 0-2.232 1.32-3.965 3.461-3.965 2.403 0 3.02 2.097 3.02 3.452 0 .279-.01.49-.04.643l-5.153-.022zM21.598 60.775v1.764h1.912v1.013h-1.912v3.964c0 .91.256 1.431.999 1.431.364 0 .58-.031.778-.094l.063 1.021c-.26.086-.67.185-1.183.185-.63 0-1.13-.212-1.45-.567-.364-.405-.517-1.067-.517-1.93v-4.01H19.15v-1.013h1.138v-1.354l1.31-.41zM26.825 62.538l.985 3.721c.194.819.396 1.588.531 2.353h.045c.171-.742.41-1.534.657-2.34l1.197-3.735h1.125l1.139 3.677c.274.864.486 1.656.652 2.398h.045c.122-.742.32-1.52.563-2.389l1.044-3.685h1.323l-2.367 7.348h-1.215l-1.125-3.505a28.012 28.012 0 0 1-.653-2.43h-.031c-.185.881-.41 1.655-.666 2.443l-1.184 3.492h-1.219l-2.214-7.348h1.368zM41.6 69.054c1.277 0 2.227-1.21 2.227-2.875 0-1.242-.621-2.808-2.2-2.808-1.562 0-2.25 1.462-2.25 2.857 0 1.607.917 2.826 2.204 2.826h.018zm-.046 1c-1.98 0-3.528-1.463-3.528-3.78 0-2.462 1.63-3.902 3.645-3.902 2.115 0 3.537 1.53 3.537 3.762 0 2.736-1.894 3.92-3.64 3.92h-.014zM48.136 64.831c0-.868-.018-1.606-.063-2.295h1.17l.068 1.45h.04c.333-.995 1.157-1.616 2.052-1.616.135 0 .239.013.365.04v1.247c-.153-.01-.293-.032-.473-.032-.94 0-1.611.72-1.795 1.706-.032.198-.041.414-.041.639v3.92h-1.341l.018-5.059zM55.704 65.908h.027c.184-.261.427-.59.639-.841l2.173-2.53h1.593l-2.844 3.02 3.24 4.334h-1.629l-2.515-3.542-.684.774v2.767h-1.337V59.1h1.337v6.808zM70.183 69.054c1.278 0 2.228-1.21 2.228-2.875 0-1.242-.621-2.808-2.2-2.808-1.562 0-2.246 1.462-2.246 2.857 0 1.607.913 2.826 2.2 2.826h.018zm-.045 1c-1.975 0-3.523-1.463-3.523-3.78 0-2.462 1.624-3.902 3.64-3.902 2.115 0 3.537 1.53 3.537 3.762 0 2.736-1.894 3.92-3.64 3.92h-.014zM76.828 69.89v-6.336h-1.021V62.54h1.021v-.35c0-1.036.243-1.976.864-2.566.5-.495 1.17-.693 1.778-.693.481 0 .882.113 1.138.216l-.171 1.035a2.144 2.144 0 0 0-.86-.166c-1.124 0-1.426.999-1.426 2.12v.404h1.773v1.013H78.16v6.336h-1.332zM91.567 64.528c0-.774-.018-1.386-.063-1.99h1.188l.072 1.198h.036c.36-.684 1.215-1.364 2.426-1.364 1.017 0 2.6.599 2.6 3.128v4.387h-1.34v-4.239c0-1.188-.437-2.187-1.697-2.187-.873 0-1.552.626-1.795 1.368-.063.167-.09.41-.09.617v4.441h-1.337v-5.36zM102.771 60.775v1.764h1.912v1.013h-1.912v3.964c0 .91.257 1.431.999 1.431.365 0 .576-.031.779-.094l.063 1.021a3.876 3.876 0 0 1-1.188.185c-.626 0-1.13-.212-1.445-.567-.369-.405-.517-1.067-.517-1.93v-4.01h-1.139v-1.013h1.139v-1.354l1.309-.41zM111.976 65.482c.018-.837-.347-2.17-1.84-2.17-1.364 0-1.94 1.247-2.048 2.17h3.888zm-3.902.954c.027 1.804 1.166 2.551 2.507 2.551.958 0 1.552-.166 2.034-.364l.243.945c-.468.207-1.292.472-2.466.472-2.246 0-3.61-1.503-3.61-3.712 0-2.232 1.32-3.965 3.461-3.965 2.403 0 3.024 2.097 3.024 3.452a3.9 3.9 0 0 1-.04.643l-5.153-.022zM116.161 64.831c0-.868-.018-1.606-.063-2.295h1.17l.068 1.45h.04c.333-.995 1.157-1.616 2.052-1.616.13 0 .239.013.36.04v1.247c-.148-.01-.288-.032-.468-.032-.94 0-1.61.72-1.795 1.706-.032.198-.04.414-.04.639v3.92h-1.342l.018-5.059zM122.39 64.528c0-.774-.017-1.386-.062-1.99h1.188l.072 1.198h.036c.36-.684 1.215-1.364 2.425-1.364 1.022 0 2.601.599 2.601 3.128v4.387h-1.341v-4.239c0-1.188-.436-2.187-1.696-2.187-.873 0-1.553.626-1.796 1.368-.063.167-.09.41-.09.617v4.441h-1.336v-5.36zM135.913 66.137c-1.458-.032-3.114.23-3.114 1.656 0 .877.576 1.269 1.242 1.269.976 0 1.597-.603 1.809-1.224.045-.135.063-.293.063-.432v-1.27zm1.305 1.984c0 .644.031 1.27.108 1.773h-1.202l-.121-.931h-.045c-.392.576-1.202 1.089-2.246 1.089-1.49 0-2.245-1.044-2.245-2.11 0-1.774 1.58-2.741 4.419-2.728v-.153c0-.607-.171-1.714-1.674-1.7-.698 0-1.413.193-1.93.544l-.302-.891c.603-.383 1.503-.644 2.43-.644 2.259 0 2.808 1.535 2.808 3.006v2.745zM142.128 60.775v1.764h1.917v1.013h-1.917v3.964c0 .91.257 1.431 1.004 1.431.36 0 .58-.031.774-.094l.063 1.021a3.77 3.77 0 0 1-1.184.185c-.63 0-1.125-.212-1.449-.567-.36-.405-.513-1.067-.513-1.93v-4.01h-1.138v-1.013h1.138v-1.354l1.305-.41z"/>
        <mask id="b" fill="#fff">
            <use xlink:href="#a"/>
        </mask>
        <path fill="#706F6F" d="M146.772 69.889h1.332v-7.353h-1.332v7.353zm.639-8.703c-.508 0-.846-.396-.846-.873 0-.464.356-.842.873-.842.513 0 .846.378.846.842 0 .477-.333.873-.864.873h-.009zM154.578 69.054c1.278 0 2.228-1.21 2.228-2.875 0-1.242-.621-2.808-2.2-2.808-1.562 0-2.246 1.462-2.246 2.857 0 1.607.913 2.826 2.2 2.826h.018zm-.045 1c-1.975 0-3.528-1.463-3.528-3.78 0-2.462 1.63-3.902 3.645-3.902 2.115 0 3.537 1.53 3.537 3.762 0 2.736-1.894 3.92-3.64 3.92h-.014zM161.1 64.528c0-.774-.018-1.386-.063-1.99h1.188l.072 1.198h.036c.36-.684 1.215-1.364 2.425-1.364 1.022 0 2.601.599 2.601 3.128v4.387h-1.34v-4.239c0-1.188-.437-2.187-1.697-2.187-.873 0-1.553.626-1.796 1.368-.063.167-.09.41-.09.617v4.441H161.1v-5.36zM174.622 66.137c-1.458-.032-3.119.23-3.119 1.656 0 .877.58 1.269 1.247 1.269.976 0 1.597-.603 1.809-1.224.045-.135.063-.293.063-.432v-1.27zm1.305 1.984c0 .644.031 1.27.103 1.773h-1.197l-.121-.931h-.045c-.392.576-1.202 1.089-2.246 1.089-1.49 0-2.245-1.044-2.245-2.11 0-1.774 1.58-2.741 4.419-2.728v-.153c0-.607-.171-1.714-1.674-1.7-.698 0-1.418.193-1.93.544l-.302-.891c.603-.383 1.503-.644 2.43-.644 2.259 0 2.808 1.535 2.808 3.006v2.745zM179.289 69.893h1.337v-10.79h-1.337zM1.323 85.345c.275.054.635.067 1.107.067 1.373 0 2.628-.504 2.628-1.993 0-1.382-1.201-1.971-2.641-1.971H1.323v3.897zm0-4.887H2.52c1.382 0 2.205-.743 2.205-1.733 0-1.179-.895-1.665-2.232-1.665-.607 0-.958.036-1.17.09v3.308zM0 76.264c.576-.14 1.503-.22 2.417-.22 1.318 0 2.169.22 2.794.742.536.391.869.994.869 1.8 0 1.008-.67 1.872-1.737 2.254v.045c.976.225 2.11 1.03 2.11 2.547 0 .882-.346 1.553-.877 2.048-.702.661-1.854.958-3.524.958A16.1 16.1 0 0 1 0 86.321V76.264zM15.575 84.347c0 .756.018 1.427.058 2.003H14.45l-.077-1.197h-.031c-.333.594-1.12 1.368-2.426 1.368-1.156 0-2.533-.657-2.533-3.222V79h1.336v4.055c0 1.395.437 2.358 1.634 2.358.895 0 1.521-.63 1.764-1.233.076-.185.121-.423.121-.684V79h1.337v5.346zM18.831 84.998c.41.243 1.107.517 1.778.517.958 0 1.413-.468 1.413-1.098 0-.634-.378-.98-1.35-1.345-1.337-.486-1.962-1.197-1.962-2.084 0-1.183.967-2.155 2.538-2.155.742 0 1.395.198 1.79.459l-.319.95c-.288-.163-.819-.424-1.503-.424-.792 0-1.215.455-1.215 1.004 0 .625.423.9 1.382 1.26 1.26.472 1.926 1.107 1.926 2.218 0 1.305-1.017 2.219-2.732 2.219-.805 0-1.548-.216-2.065-.518l.32-1.003zM26.248 86.35h1.337V79h-1.337v7.349zm.64-8.703c-.5 0-.833-.392-.833-.864 0-.468.346-.846.86-.846.521 0 .855.378.855.846 0 .472-.334.864-.864.864h-.018zM31.024 80.99c0-.77-.018-1.386-.063-1.989h1.183l.077 1.202h.031c.36-.684 1.215-1.368 2.426-1.368 1.021 0 2.6.603 2.6 3.127v4.388h-1.336v-4.24c0-1.183-.44-2.182-1.7-2.182-.87 0-1.549.626-1.792 1.364-.063.166-.09.414-.09.625v4.433h-1.336v-5.36zM45.335 81.948c.018-.842-.347-2.174-1.84-2.174-1.364 0-1.94 1.251-2.048 2.174h3.888zm-3.906.954c.036 1.8 1.17 2.547 2.51 2.547.955 0 1.549-.162 2.035-.36l.238.94c-.468.212-1.287.473-2.461.473-2.246 0-3.61-1.503-3.61-3.708 0-2.232 1.324-3.97 3.461-3.97 2.399 0 3.024 2.098 3.024 3.452 0 .28-.013.49-.045.644l-5.152-.018zM49.323 84.998c.41.243 1.107.517 1.777.517.959 0 1.413-.468 1.413-1.098 0-.634-.382-.98-1.35-1.345-1.336-.486-1.962-1.197-1.962-2.084 0-1.183.968-2.155 2.534-2.155.742 0 1.4.198 1.795.459l-.32.95c-.287-.163-.823-.424-1.507-.424-.792 0-1.21.455-1.21 1.004 0 .625.418.9 1.381 1.26 1.26.472 1.926 1.107 1.926 2.218 0 1.305-1.017 2.219-2.736 2.219-.8 0-1.543-.216-2.06-.518l.319-1.003zM56.554 84.998c.41.243 1.107.517 1.777.517.959 0 1.409-.468 1.409-1.098 0-.634-.374-.98-1.346-1.345-1.336-.486-1.966-1.197-1.966-2.084 0-1.183.976-2.155 2.538-2.155.747 0 1.404.198 1.795.459l-.32.95c-.287-.163-.818-.424-1.502-.424-.792 0-1.21.455-1.21 1.004 0 .625.418.9 1.38 1.26 1.26.472 1.927 1.107 1.927 2.218 0 1.305-1.022 2.219-2.736 2.219-.806 0-1.548-.216-2.066-.518l.32-1.003zM72.28 82.603c-1.454-.036-3.11.23-3.11 1.651 0 .878.58 1.274 1.247 1.274.967 0 1.593-.603 1.804-1.224a1.3 1.3 0 0 0 .059-.432v-1.27zm1.314 1.984c0 .644.022 1.265.103 1.769h-1.206l-.117-.932h-.04c-.4.58-1.206 1.098-2.255 1.098-1.485 0-2.245-1.048-2.245-2.12 0-1.768 1.58-2.74 4.419-2.726v-.153c0-.608-.171-1.715-1.67-1.701-.702 0-1.413.193-1.926.549l-.31-.896c.612-.382 1.507-.639 2.43-.639 2.268 0 2.817 1.535 2.817 3.006v2.745zM76.951 80.99c0-.77-.018-1.386-.058-1.989h1.179l.08 1.202h.028c.36-.684 1.215-1.368 2.43-1.368 1.021 0 2.6.603 2.6 3.127v4.388h-1.34v-4.24c0-1.183-.441-2.182-1.701-2.182-.864 0-1.548.626-1.796 1.364-.058.166-.09.414-.09.625v4.433h-1.332v-5.36zM91.611 81.992c0-.185-.018-.396-.058-.58-.198-.829-.927-1.53-1.93-1.53-1.382 0-2.201 1.214-2.201 2.825 0 1.503.738 2.736 2.169 2.736.895 0 1.719-.612 1.962-1.597.04-.19.058-.37.058-.58v-1.274zm1.332-6.426v8.883c0 .652.018 1.4.068 1.908h-1.202l-.063-1.274h-.027c-.409.815-1.291 1.436-2.493 1.436-1.777 0-3.159-1.508-3.159-3.735-.009-2.462 1.521-3.951 3.299-3.951 1.138 0 1.89.53 2.214 1.107h.031v-4.374h1.332zM106.155 81.553h-3.965v3.685h4.433v1.112h-5.764V76.112h5.539v1.112h-4.207v3.24h3.964zM114.652 86.092c-.347.166-1.125.427-2.115.427-2.214 0-3.659-1.507-3.659-3.77 0-2.264 1.553-3.92 3.956-3.92.787 0 1.485.202 1.845.4l-.302 1.013c-.32-.162-.819-.342-1.543-.342-1.688 0-2.601 1.255-2.601 2.79 0 1.7 1.093 2.75 2.547 2.75a3.91 3.91 0 0 0 1.642-.347l.23.999zM120.384 85.516c1.278 0 2.237-1.206 2.237-2.87 0-1.247-.621-2.809-2.205-2.809-1.562 0-2.246 1.458-2.246 2.858 0 1.602.91 2.821 2.2 2.821h.014zm-.045 1.004c-1.97 0-3.523-1.463-3.523-3.78 0-2.466 1.624-3.906 3.65-3.906 2.105 0 3.536 1.534 3.536 3.766 0 2.736-1.899 3.92-3.645 3.92h-.018zM126.91 80.99c0-.77-.018-1.386-.063-1.989h1.184l.076 1.202h.027c.365-.684 1.22-1.368 2.435-1.368 1.021 0 2.6.603 2.6 3.127v4.388h-1.34v-4.24c0-1.183-.446-2.182-1.706-2.182-.864 0-1.543.626-1.79 1.364-.06.166-.09.414-.09.625v4.433h-1.333v-5.36zM139.593 85.516c1.278 0 2.237-1.206 2.237-2.87 0-1.247-.621-2.809-2.205-2.809-1.557 0-2.246 1.458-2.246 2.858 0 1.602.91 2.821 2.205 2.821h.01zm-.045 1.004c-1.97 0-3.523-1.463-3.523-3.78 0-2.466 1.624-3.906 3.65-3.906 2.105 0 3.536 1.534 3.536 3.766 0 2.736-1.899 3.92-3.645 3.92h-.018zM146.119 80.99c0-.77-.027-1.386-.063-1.989h1.17l.068 1.188h.04c.41-.702 1.094-1.354 2.322-1.354.99 0 1.75.603 2.066 1.471h.031c.23-.423.536-.729.837-.954.441-.333.914-.517 1.607-.517.994 0 2.43.639 2.43 3.186v4.329h-1.301v-4.158c0-1.431-.535-2.264-1.597-2.264-.774 0-1.35.558-1.593 1.197a2.324 2.324 0 0 0-.108.67v4.555h-1.305v-4.406c0-1.183-.518-2.016-1.535-2.016-.823 0-1.444.666-1.656 1.337a1.806 1.806 0 0 0-.108.652v4.433h-1.305v-5.36zM160.011 86.35h1.332V79h-1.332v7.349zm.644-8.703c-.509 0-.846-.392-.846-.864 0-.468.355-.846.868-.846.518 0 .85.378.85.846 0 .472-.332.864-.863.864h-.01zM170.023 86.092c-.35.166-1.13.427-2.115.427-2.214 0-3.658-1.507-3.658-3.77 0-2.264 1.548-3.92 3.95-3.92.793 0 1.486.202 1.85.4l-.301 1.013c-.32-.162-.82-.342-1.548-.342-1.683 0-2.601 1.255-2.601 2.79 0 1.7 1.093 2.75 2.551 2.75a3.91 3.91 0 0 0 1.643-.347l.23.999zM177.12 84.739c.594.382 1.445.67 2.358.67 1.35 0 2.142-.702 2.142-1.75 0-.94-.554-1.499-1.926-2.012-1.678-.612-2.704-1.494-2.704-2.92 0-1.593 1.318-2.777 3.307-2.777 1.03 0 1.814.248 2.245.504l-.36 1.076c-.323-.198-1.003-.49-1.93-.49-1.395 0-1.926.84-1.926 1.538 0 .954.621 1.427 2.03 1.971 1.732.684 2.596 1.503 2.596 3.006 0 1.58-1.152 2.966-3.569 2.966-.985 0-2.06-.306-2.61-.675l.347-1.107zM191.191 86.092c-.346.166-1.125.427-2.11.427-2.218 0-3.663-1.507-3.663-3.77 0-2.264 1.552-3.92 3.956-3.92.787 0 1.484.202 1.845.4l-.302 1.013c-.315-.162-.819-.342-1.543-.342-1.688 0-2.601 1.255-2.601 2.79 0 1.7 1.093 2.75 2.547 2.75a3.91 3.91 0 0 0 1.642-.347l.23.999zM193.977 75.567h1.337v4.59h.027c.216-.378.553-.729.963-.94.387-.248.86-.383 1.363-.383.99 0 2.57.608 2.57 3.146v4.374h-1.341v-4.221c0-1.206-.437-2.187-1.697-2.187-.873 0-1.534.603-1.795 1.336-.077.18-.09.378-.09.635v4.437h-1.337V75.567zM206.667 85.516c1.273 0 2.227-1.206 2.227-2.87 0-1.247-.62-2.809-2.2-2.809-1.562 0-2.25 1.458-2.25 2.858 0 1.602.918 2.821 2.205 2.821h.018zm-.05 1.004c-1.975 0-3.523-1.463-3.523-3.78 0-2.466 1.629-3.906 3.645-3.906 2.115 0 3.537 1.534 3.537 3.766 0 2.736-1.895 3.92-3.645 3.92h-.014zM216.238 85.516c1.278 0 2.237-1.206 2.237-2.87 0-1.247-.621-2.809-2.201-2.809-1.561 0-2.25 1.458-2.25 2.858 0 1.602.914 2.821 2.205 2.821h.009zm-.045 1.004c-1.971 0-3.523-1.463-3.523-3.78 0-2.466 1.629-3.906 3.65-3.906 2.11 0 3.536 1.534 3.536 3.766 0 2.736-1.894 3.92-3.645 3.92h-.018zM222.763 86.354h1.332V75.572h-1.332zM227.354 84.998c.41.243 1.107.517 1.777.517.959 0 1.409-.468 1.409-1.098 0-.634-.374-.98-1.35-1.345-1.332-.486-1.962-1.197-1.962-2.084 0-1.183.976-2.155 2.538-2.155.747 0 1.4.198 1.795.459l-.32.95c-.287-.163-.818-.424-1.502-.424-.792 0-1.215.455-1.215 1.004 0 .625.423.9 1.386 1.26 1.255.472 1.921 1.107 1.921 2.218 0 1.305-1.017 2.219-2.731 2.219-.806 0-1.548-.216-2.066-.518l.32-1.003zM86.755 69.893h1.337v-10.79h-1.337zM16.67 20.42c-8.771 0-15.143 5.684-15.143 13.505v19.642h4.662V34.25c0-5.733 4.41-9.9 10.48-9.9s10.476 4.167 10.476 9.9v19.318h4.671V33.925c0-7.821-6.376-13.505-15.147-13.505M39.609 53.563h4.104V23.219h-4.104zM135.673 35.278c-5.616-1.21-9.022-2.178-9.022-5.468 0-2.884 2.385-4.198 4.608-4.198h14.656v-3.857h-14.854c-5.17 0-8.78 3.335-8.78 8.118 0 6.435 6.323 7.835 11.898 9.072 5.225 1.166 9.738 2.165 9.738 6.453 0 1.071 0 4.334-6.786 4.334H122.34v3.852h14.197c9.711 0 11.754-4.662 11.754-8.564 0-7.024-6.7-8.473-12.618-9.742M41.663 8.537a3.355 3.355 0 0 0-3.388 3.393 3.355 3.355 0 0 0 3.388 3.393 3.356 3.356 0 0 0 3.393-3.393 3.356 3.356 0 0 0-3.393-3.393M156.301 45.798a3.355 3.355 0 0 0-3.393 3.389c0 1.903 1.49 3.397 3.393 3.397 1.9 0 3.389-1.494 3.389-3.397a3.354 3.354 0 0 0-3.389-3.389M67.896 54.438c-5.108.063-10.017-2.03-12.92-5.36-4.567-5.25-3.424-16.033-3.276-17.248l4.307.522c-.328 2.763-.563 10.652 2.245 13.878 3.672 4.212 11.943 5.571 17.541 1.071 2.759-2.227 3.97-5.17 3.677-9.018-.576-7.776-8.401-9.922-11.367-10.093-4.225-.239-10.048-2.084-12.865-5.571-3.42-4.23-3.83-8.168-3.848-9.666L51.246 1.05 55.589 1l.135 11.903c.018 1.044.319 3.816 2.884 6.989 1.652 2.034 5.841 3.748 9.742 3.969 5.815.333 14.729 4.36 15.449 14.103.396 5.3-1.382 9.576-5.292 12.712-3.195 2.579-6.957 3.722-10.611 3.762M107.599 53.673c-3.186 0-6.831-.08-8.86-.378-6.48-.954-10.585-6.547-10.715-14.598-.063-4.441 1.566-8.685 4.468-11.637 2.781-2.821 6.557-4.31 10.913-4.31 10.179 0 13.365 8.68 13.64 13.805.112 1.967-.64 3.182-1.283 3.87-1.467 1.54-3.555 1.593-3.785 1.593H97.024v-3.96h14.953c.18-.004.689-.094.927-.36.198-.216.216-.62.207-.922-.063-1.035-.81-10.085-9.706-10.085-3.33 0-6.048 1.053-8.1 3.141-2.17 2.2-3.389 5.41-3.33 8.811.09 6.075 2.84 10.09 7.34 10.75 3.703.55 14.138.257 14.246.253l.113 3.937c-.22.01-2.92.09-6.075.09" mask="url(#b)"/>
    </g>
</svg>
