<svg xmlns="http://www.w3.org/2000/svg" xmlns:xlink="http://www.w3.org/1999/xlink" width="215" height="95" viewBox="0 0 215 95">
    <defs>
        <path id="a" d="M1 .969h6.22v8H1z"/>
        <path id="c" d="M1 102.517h214.732V.724H1z"/>
        <path id="e" d="M32.265.925c-.268.658-3.03 1.458-4.48 1.576-1.445.143-3.156-.118-3.822.398-.647.533-2.756 1.31-3.41 1.31-.66 0-3.945-2.496-5.538-2.496-1.587 0-5.265.67-5.918 1.453-.653.788-2.77 1.166-3.286 1.042-.547-.118-1.2-.658-2.122 0-.92.67-3.024.404-3.416.795-.41.39 2.757 1.18 3.945 1.31 1.189.124 7.244 1.055 8.824 1.31 1.575.272 16.061.136 19.092.136 3.037 0 19.365-.528 21.338-.528 1.973 0 6.335-.521 8.021-.645 1.73-.15 1.842-1.056 2.116-1.453.274-.39 1.45-1.316 1.45-1.316.13-.521-1.176-1.707-2.9-1.434-1.705.261-6.192.516-7.635.391-1.431-.13-2.104-.39-3.684 0-1.58.392-2.103.522-2.632.261-.536-.26-1.183-1.322-2.24-1.192-1.059.143-1.98.658-3.019.801-1.07.13-2.122.391-3.043 0-.927-.41-1.717-.658-2.37-1.192C36.881.925 35.431.267 35.431.267s-2.9 0-3.167.658"/>
        <linearGradient id="f" x1="100%" x2="8.395%" y1="49.669%" y2="50.674%">
            <stop offset="0%" stop-color="#B1D9F4"/>
            <stop offset="42.031%" stop-color="#87ACDB"/>
            <stop offset="100%" stop-color="#6495CF"/>
        </linearGradient>
        <path id="h" d="M31.985.67c-1.045.658-.914 1.042-1.574 1.564-.647.54-.647.8-1.574 1.061-.51.143-2.502.13-2.776-.521 0 0-.66-.658-1.711-1.062-1.052-.384-2.234-.384-3.286-.384-1.058 0-1.717 0-2.632.124-.927.142-1.32.664-2.24.664-.927 0-1.593-.267-2.639-.267-1.051 0-3.69 1.049-6.714 1.837-3.03.795-5.408 2.899-5.794 3.68-.398.79.125 1.447 1.046 1.962.92.534 1.058-.26 1.966-.651.94-.398 2.52-1.577 3.703-1.838 1.176-.254 1.711 0 2.103.658.398.658-.137 1.57-1.176 1.968-1.058.397-1.188 2.234-1.45 2.892-.274.652-2.377 2.495-2.508 4.078-.13 1.57.53 5.251 1.176 6.555.673 1.316 2.116 3.29 3.436 3.817 1.319.515 2.103 1.452 3.951 2.104 1.848.652 2.24 1.57 2.9 1.7.66.137 1.182.652 1.182.652l-.137 2.098s-.522.789-.92 1.322c-.393.528-.393 1.707-.523 2.632-.144.925-.144 1.844.64 2.626.803.788 1.849 3.413 2.515 4.208.665.776 1.437 1.043 2.501 2.359.585.72.666 1.452.915 2.88.28 1.458-.517 3.165-.249 3.953.249.789 1.04 2.222 1.711 3.284.492.776 1.313 3.004 1.842 3.674.523.652 2.11 2.104 2.639 2.104.529 0 .118-.26-.398-.924-.53-.646-1.052-1.18-.53-1.968.53-.788 0-1.446 0-1.85 0-.378 0-.788.137-1.433.119-.665-.392-1.577.517-2.098.94-.534 1.842-.925 1.842-.925s-.653-1.31-.249-1.31c.386 0 1.313-.397 2.228-1.837.933-1.452.13-2.762 1.188-3.16 1.046-.39 1.712 0 2.104-1.315.398-1.304 0-4.463 1.051-5.251 1.064-.782 1.457-2.632.399-3.284-1.052-.658-2.24-1.179-3.025-1.576-.784-.391-2.115-.789-2.115-.789s0-.912-.79-1.706c-.791-.783-2.757-1.18-2.757-1.18s-1.575-2.234-2.502-2.234c-.927 0-2.247-.26-3.03-.522-.79-.267-1.575.118-1.849.658-.255.515-1.182 1.05-1.182 1.05s-.79-.659-1.575-.535c-.79.143-1.057-.515-1.057-1.7 0-1.192.136-1.577-.66-1.577-.79 0-.79-.521-.653-1.316.13-.788-.262-1.315-.803-.918-.517.39-1.699 1.837-2.365 1.18-.666-.659-1.052-2.223-.666-3.42.405-1.186 1.332-1.571 2.782-1.695 1.444-.137 3.024-.658 3.155 0 .124.658.927 1.042 1.325 1.042.386 0 .784-1.042.909-1.967.13-.913 1.711-1.837 2.626-2.626.933-.782 3.304-2.365 3.827-3.147.535-.8 3.018-.67 6.316-1.452.909-.217.927-3.941 1.58-4.202.667-.26-1.58-1.186-1.58-1.186s-1.058-1.31.28-1.31c1.3 0 1.7.261 2.757 0 1.052-.272 1.587-1.309.79-1.973-.79-.658-1.313-1.31-1.313-1.831 0-.317-.317-.304-.66-.298-.236.006-.503.012-.659-.106-.324-.21-.56-1.216-1.207-1.216-.15 0-.318.056-.51.174"/>
        <linearGradient id="i" x1="64.996%" x2="50%" y1="2.414%" y2="100%">
            <stop offset="0%" stop-color="#B1D9F4"/>
            <stop offset="42.031%" stop-color="#87ACDB"/>
            <stop offset="100%" stop-color="#6495CF"/>
        </linearGradient>
        <path id="k" d="M1.543 1.346c-.908.658-1.835.919-.653 1.186 0 0 1.189.248 1.45.925.261.639-.797.639-1.182 1.694-.399 1.049.92 1.192 1.039 1.837.143.658.143 1.459.678 1.974.517.521 1.848-.919 2.626-1.837.797-.925 3.155-1.577 3.82-2.228.654-.652 2.895-1.844 3.293-2.632.398-.788 0-.919-.66-1.453-.66-.521-1.58-.658-2.24-.384-.66.26-2.365.651-3.56.651-1.188 0-1.705-.13-2.103-.788a.419.419 0 0 0-.373-.205c-.53 0-1.413.745-2.135 1.26"/>
        <linearGradient id="l" x1="94.161%" x2="0%" y1="27.75%" y2="76.089%">
            <stop offset="0%" stop-color="#B1D9F4"/>
            <stop offset="42.031%" stop-color="#87ACDB"/>
            <stop offset="100%" stop-color="#6495CF"/>
        </linearGradient>
        <path id="n" d="M28.208 1.403c-.933.521-2.24 2.104-3.82 2.495-1.587.397-2.508.919-3.566 1.583-1.052.645-1.575.397-2.757-.267-1.195-.658-2.365-1.577-3.298-1.577-.915 0-1.973 0-3.292 1.44-1.313 1.453-1.842 2.769-1.313 3.942.51 1.185-.268 1.582-.927 2.104-.66.534-1.842 0-2.502-.397-.66-.38-.255 1.582-.529 2.762-.255 1.179-1.711 2.501-1.972 3.68-.268 1.173 1.58 1.57.927 2.495-.666.913-2.508 2.229-3.168 3.681-.66 1.44-1.058 3.147-1.574 5.12-.541 1.962 1.45 4.464 2.757 5.252 1.319.782 2.514.645 3.696.645 1.176 0 1.705-.254 2.763-.254 1.04 0 1.587 1.713 1.842 3.16.268 1.433 1.32 2.24 1.58 3.01.256.794.131 1.98-.26 3.432-.393 1.44-.654 1.694-.654 2.874 0 1.185 1.319 2.116 1.319 3.805 0 1.713.517 3.295 1.568 3.817 1.058.534 1.711 1.707 2.247 1.316.516-.391 1.443-1.316 2.246-1.838.784-.527 1.568-1.44 1.836-1.973.255-.522.915-2.632 1.045-3.284.143-.658 1.593-1.18 2.11-3.023.523-1.83-.654-3.544-.921-4.332-.262-.794.404-1.316 1.052-1.831.66-.54 2.775-3.811 3.827-4.879 1.045-1.036 1.698-3.401 1.698-3.401s0-.8.399-1.7c.392-.932.927-.671 1.325-1.056.392-.397 1.046-3.029 1.575-3.687.535-.651.914.267 1.972.404 1.058.124.927.385 1.985.912 1.04.521.523 1.186.654 2.235.137 1.055.529 1.446 1.045 1.973.541.528.797 1.173 1.182 2.222.411 1.062 1.195.41 1.724-.378.53-.795.921-1.583 1.183-2.626.267-1.055.522-1.316.927-1.582.392-.261 1.45.266 2.501.651 1.052.398.928.664 1.718 1.583.784.919 2.228 5.239 3.149 6.04.927.8 1.064-.801 1.064-1.844 0-1.05 1.705-1.577 1.705-2.359 0-.788-.262-2.898-.262-3.544 0-.664 0-1.85.262-2.501.261-.658 1.182-.267 1.319-.782.13-.54 1.568-1.459 1.176-2.235-.386-.794-2.358-3.296-2.757-4.208-.38-.919 1.581-1.043 1.183-1.18-.386-.13.398-1.576 1.058-2.364.647-.788-1.842-3.16-2.9-3.544-1.046-.398-.921-1.577.118-1.974 1.064-.397 2.383.124 3.037.93.653.777 1.854 1.044 2.377.777.516-.26-.934-1.186-1.842-2.104-.933-.919-.398-1.434-.398-1.434-.137-2.371-11.47-4.99-12.508-5.257-1.064-.267-3.56.521-4.475.521-.927 0-2.887 0-4.094-.255-1.189-.266-2.763-1.055-3.815-1.588a2.742 2.742 0 0 0-1.182-.243c-.846 0-1.755.292-2.365.64"/>
        <linearGradient id="o" x1="74.904%" x2="6.982%" y1="7.908%" y2="91.45%">
            <stop offset="0%" stop-color="#B1D9F4"/>
            <stop offset="42.031%" stop-color="#87ACDB"/>
            <stop offset="100%" stop-color="#6495CF"/>
        </linearGradient>
        <path id="q" d="M1.994 2.648c-.79.93-1.841.664-1.71 1.837.13 1.185 2.24.788 3.16 1.185.928.398 1.307 1.05 1.98.528.659-.528.659-1.055.659-1.055s.392-1.98-.137-2.235c-.523-.26-.784-.521-1.711-.93-.324-.125-.579-.193-.84-.193-.467 0-.878.254-1.4.863"/>
        <linearGradient id="r" x1="100%" x2="0%" y1=".256%" y2="99.744%">
            <stop offset="0%" stop-color="#B1D9F4"/>
            <stop offset="42.031%" stop-color="#87ACDB"/>
            <stop offset="100%" stop-color="#6495CF"/>
        </linearGradient>
        <path id="t" d="M14.146.807c-1.189.267 0 1.322.653 1.974.653.664 1.2 2.098 1.2 2.892 0 .795-.547 2.501-1.592 2.626-1.052.13-1.046-1.186-1.842-1.713-.79-.516-1.593.527-3.168 1.191-1.574.652-3.154 2.626-4.735 3.408-1.574.788-2.77 1.713-3.56 2.886-.784 1.186-.392 1.72-.784 2.768-.392 1.05 1.052 1.18 1.705.789.654-.404 1.842-1.18 2.906-1.577 1.046-.397 1.693.13 2.24.788.523.658 1.052 2.756 1.843 3.01.79.274 2.24-.906 2.763-1.433.522-.528 1.71-1.192 2.37-1.713.654-.522 2.9-2.359 2.9-3.017 0-.658-.143-5.642 0-6.436.131-.782 0-2.098-.398-3.408-.38-1.26-1.468-3.048-2.365-3.048a.934.934 0 0 0-.136.013"/>
        <linearGradient id="u" x1="81.043%" x2="11.104%" y1="0%" y2="100%">
            <stop offset="0%" stop-color="#B1D9F4"/>
            <stop offset="42.031%" stop-color="#87ACDB"/>
            <stop offset="100%" stop-color="#6495CF"/>
        </linearGradient>
    </defs>
    <g fill="none" fill-rule="evenodd">
        <g transform="translate(-1 -8.379)">
            <g transform="translate(0 91.103)">
                <mask id="b" fill="#fff">
                    <use xlink:href="#a"/>
                </mask>
                <path fill="#000" d="M2.938 4.55c.417.199.803.267 1.164.267 1.114 0 1.481-.832 1.481-1.508 0-1.31-.722-1.993-1.935-1.993a5.71 5.71 0 0 0-.71.044v3.19zM.997 8.634h.211c.523 0 .747-.186.747-.918V2.235c0-.732-.224-.919-.747-.919H.997V.97c.41.012.946.037 1.456.037.61 0 1.226-.037 1.836-.037 1.81 0 2.377 1.241 2.377 2.123 0 1.011-.616 2.153-2.682 2.153-.355 0-.69-.037-1.046-.062v2.26c0 1.067.193 1.191.648 1.191h.323v.336c-.491-.007-.97-.032-1.456-.032-.51 0-1.045.025-1.456.032v-.336z" mask="url(#b)"/>
            </g>
            <path fill="#000" d="M10.164 97.46l-1.163.484c-.237.1-.753.317-.753.8 0 .305.292.826.908.826.361 0 .679-.21 1.046-.478a3.335 3.335 0 0 1-.038-.546V97.46zm0-.8c0-.61-.273-1.286-.945-1.286-.3 0-.847.304-.847.627 0 .18.069.335.15.51l-.722.34c-.106-.235-.193-.403-.193-.595 0-.36.255-.602.747-.9.485-.292.846-.41 1.064-.41 1.394 0 1.605 1 1.605 1.49v2.284c0 .59.1.714.286.714.106 0 .33-.075.504-.156v.305l-1.095.515c-.124.062-.168.062-.211.062-.156 0-.218-.292-.28-.646-.753.54-1.09.646-1.556.646-.822 0-1.27-.608-1.27-1.217 0-.695.417-.956 1.177-1.247l1.586-.621v-.416zM12.68 99.739h.2c.503 0 .603-.13.603-.788v-2.446c0-.372-.112-.54-.373-.54-.094 0-.28.044-.43.124v-.341c.473-.199 1.015-.46 1.469-.807h.118v1.167h.025c.367-.757.853-1.167 1.425-1.167.317 0 .529.068.678.112v1.055h-.18c-.081-.31-.41-.403-.716-.403-.454 0-1.163.34-1.163 1.433v2.011c0 .497.056.59.491.59h.218v.335c-.255-.006-.753-.03-1.12-.03-.392 0-.89.024-1.245.03v-.335zM16.983 95.417a5.016 5.016 0 0 0 1.83-1.961l.155-.037v1.632h1.792l-.168.484h-1.624v2.539c0 .608.193 1.359.983 1.359.367 0 .71-.174.884-.285l.168.186-.921.782a.75.75 0 0 1-.274.037c-.106 0-.834-.056-1.25-.509-.405-.44-.449-1.005-.449-1.508v-2.6h-1.126v-.119zM21.583 99.739h.199c.51 0 .603-.13.603-.788v-1.906c0-1.011-.136-1.18-.398-1.18-.1 0-.249.044-.404.125v-.335a7.31 7.31 0 0 0 1.475-.714h.112v.993c.416-.447.977-.993 1.71-.993a1.6 1.6 0 0 1 1.376.857c.212.39.249.887.249 1.359v2.036c0 .428.08.546.635.546h.155v.335c-.261-.006-.771-.03-1.15-.03-.405 0-.928.024-1.227.03v-.335h.206c.472 0 .516-.236.516-.931v-1.763c0-.608-.044-.894-.355-1.198-.155-.149-.404-.273-.784-.273-.473 0-.995.428-1.257.67v2.905c0 .497.056.59.492.59h.211v.335c-.261-.006-.746-.03-1.126-.03-.38 0-.877.024-1.238.03v-.335zM32.114 96.751c0-1.217-1.026-1.421-1.369-1.421-1.039 0-1.437 1.011-1.437 1.421h2.806zm.822 2.812c-.448.28-1.033.59-1.898.59-1.805 0-2.626-1.447-2.626-2.65 0-1.317 1.138-2.564 2.427-2.564 1.394 0 2.178.869 2.178 2.085v.112h-3.71c.05 1.421.66 2.55 2.054 2.55.834 0 1.307-.272 1.575-.47v.347zM34.035 99.739h.199c.504 0 .603-.13.603-.788v-2.446c0-.372-.105-.54-.367-.54-.1 0-.286.044-.435.124v-.341c.473-.199 1.014-.46 1.474-.807h.112v1.167h.025c.368-.757.847-1.167 1.425-1.167.318 0 .536.068.679.112v1.055h-.175c-.087-.31-.416-.403-.721-.403-.455 0-1.164.34-1.164 1.433v2.011c0 .497.062.59.492.59h.217v.335c-.261-.006-.753-.03-1.126-.03-.386 0-.884.024-1.238.03v-.335zM41.953 96.339h-.23c-.124-.447-.305-1.012-1.213-1.012-.704 0-.959.428-.959.751 0 .46.436.702.878.906l.616.28c.354.18 1.051.496 1.051 1.347 0 .831-.603 1.539-1.823 1.539-.647 0-1.17-.149-1.574-.286.018-.217.037-.422.037-.664 0-.242-.019-.447-.037-.664h.317c.087.795.548 1.235 1.25 1.235.524 0 1.071-.205 1.071-.838 0-.527-.43-.726-.809-.918l-.834-.435c-.298-.136-.902-.484-.902-1.229 0-.583.473-1.415 1.736-1.415.598 0 1.083.155 1.382.236l.043 1.167zM43.114 99.739h.18c.374 0 .716-.143.716-.931V92.8c0-.348-.143-.565-.417-.565-.193 0-.386.093-.48.124v-.379a11.62 11.62 0 0 0 1.681-.813h.106c-.031.261-.044 1.05-.044 2.135v2.483c.51-.378 1.064-.844 1.718-.844.653 0 1.014.273 1.282.646.298.39.336.813.336 1.533v1.787c0 .714.118.82.634.832h.187v.335c-.33-.006-.902-.03-1.35-.03-.374 0-.847.024-1.127.03v-.335h.206c.473-.025.597-.155.597-.98v-1.726c0-.348 0-.695-.174-.987-.168-.26-.46-.472-.915-.472-.498 0-.99.373-1.394.633v2.812c0 .596.118.708.61.72h.156v.335c-.274-.006-.778-.03-1.239-.03-.417 0-.964.024-1.27.03v-.335zM51.281 92.702c.324 0 .573.242.573.558a.56.56 0 0 1-.573.559.558.558 0 1 1 0-1.117zm-1.319 7.044h.23c.405 0 .666-.148.666-.937v-2.265c0-.46-.143-.578-.355-.578-.161 0-.36.069-.485.118v-.335a8.982 8.982 0 0 0 1.587-.813h.106v3.873c0 .789.261.937.666.937h.224v.323c-.424-.006-.959-.025-1.32-.025-.36 0-.89.019-1.319.025v-.323zM55.152 99.212c.386.31.71.565 1.419.565 1.101 0 1.711-.857 1.711-1.95 0-1.613-.933-2.203-1.711-2.203-.61 0-1.008.298-1.42.627v2.961zm-1.693 2.967h.15c.516 0 .69-.199.69-.701v-4.935c0-.46-.143-.57-.354-.57-.162 0-.361.061-.486.11v-.334c.486-.18 1.264-.578 1.568-.807h.125v.838c.473-.373 1.101-.838 1.885-.838 1.388 0 2.098 1.241 2.098 2.433 0 1.303-.86 2.78-2.757 2.78-.504 0-1.027-.16-1.226-.273v1.596c0 .595.162.701.616.701h.193v.335c-.361-.012-.778-.037-1.17-.037-.448 0-.946.025-1.332.037v-.335zM65.167 92.702c.324 0 .572.242.572.558a.56.56 0 0 1-.572.559.558.558 0 1 1 0-1.117zm-1.32 7.044h.231c.404 0 .666-.148.666-.937v-2.265c0-.46-.143-.578-.355-.578-.162 0-.36.069-.479.118v-.335a9.132 9.132 0 0 0 1.58-.813h.106v3.873c0 .789.262.937.672.937h.224v.323c-.429-.006-.964-.025-1.325-.025-.355 0-.89.019-1.32.025v-.323zM67.391 99.739h.2c.503 0 .609-.13.609-.788v-1.906c0-1.011-.143-1.18-.404-1.18-.094 0-.25.044-.405.125v-.335a7.31 7.31 0 0 0 1.475-.714h.118v.993c.41-.447.97-.993 1.705-.993.392 0 1.033.205 1.375.857.212.39.25.887.25 1.359v2.036c0 .428.08.546.634.546h.156v.335c-.262-.006-.766-.03-1.158-.03-.398 0-.92.024-1.22.03v-.335h.206c.473 0 .516-.236.516-.931v-1.763c0-.608-.043-.894-.354-1.198-.156-.149-.405-.273-.784-.273-.473 0-.996.428-1.257.67v2.905c0 .497.056.59.491.59h.218v.335c-.261-.006-.753-.03-1.133-.03s-.877.024-1.238.03v-.335zM77.716 99.739h.205c.517 0 .747-.186.747-.919v-5.48c0-.733-.23-.925-.747-.925h-.205v-.335c.392.006.94.03 1.444.03.498 0 .97-.024 1.443-.03v.335h-.211c-.51 0-.734.192-.734.925v5.48c0 .733.224.919.734.919h.211v.335c-.473-.006-.945-.03-1.443-.03-.504 0-1.052.024-1.444.03v-.335zM81.684 99.739h.2c.504 0 .603-.13.603-.788v-1.906c0-1.011-.143-1.18-.404-1.18-.088 0-.243.044-.399.125v-.335a7.31 7.31 0 0 0 1.475-.714h.106v.993c.417-.447.983-.993 1.717-.993a1.6 1.6 0 0 1 1.376.857c.211.39.249.887.249 1.359v2.036c0 .428.074.546.634.546h.156v.335c-.268-.006-.772-.03-1.158-.03-.398 0-.92.024-1.22.03v-.335h.2c.48 0 .523-.236.523-.931v-1.763c0-.608-.044-.894-.355-1.198-.156-.149-.405-.273-.784-.273-.473 0-.996.428-1.257.67v2.905c0 .497.05.59.491.59h.218v.335c-.267-.006-.753-.03-1.132-.03-.38 0-.878.024-1.239.03v-.335zM88.09 95.417a5.094 5.094 0 0 0 1.823-1.961l.15-.037v1.632h1.791l-.155.484h-1.637v2.539c0 .608.2 1.359.983 1.359.38 0 .71-.174.884-.285l.18.186-.92.782a.812.812 0 0 1-.274.037c-.112 0-.84-.056-1.264-.509-.398-.44-.441-1.005-.441-1.508v-2.6h-1.12v-.119zM96.567 96.751c0-1.217-1.02-1.421-1.37-1.421-1.038 0-1.43 1.011-1.43 1.421h2.8zm.821 2.812c-.448.28-1.033.59-1.898.59-1.804 0-2.62-1.447-2.62-2.65 0-1.317 1.133-2.564 2.421-2.564 1.394 0 2.178.869 2.178 2.085v.112h-3.702c.043 1.421.653 2.55 2.047 2.55.834 0 1.307-.272 1.574-.47v.347zM98.487 99.739h.2c.503 0 .603-.13.603-.788v-2.446c0-.372-.106-.54-.367-.54-.1 0-.286.044-.436.124v-.341c.473-.199 1.015-.46 1.475-.807h.112v1.167h.025c.36-.757.846-1.167 1.425-1.167.317 0 .535.068.678.112v1.055h-.174c-.087-.31-.417-.403-.722-.403-.454 0-1.163.34-1.163 1.433v2.011c0 .497.056.59.491.59h.218v.335c-.261-.006-.753-.03-1.126-.03-.386 0-.884.024-1.239.03v-.335zM103.04 99.739h.205c.497 0 .597-.13.597-.788v-1.906c0-1.011-.143-1.18-.404-1.18a.954.954 0 0 0-.399.125v-.335a6.96 6.96 0 0 0 1.469-.714h.118v.993c.41-.447.983-.993 1.711-.993.386 0 1.027.205 1.382.857.211.39.249.887.249 1.359v2.036c0 .428.068.546.628.546h.162v.335c-.267-.006-.772-.03-1.164-.03-.398 0-.914.024-1.22.03v-.335h.2c.473 0 .523-.236.523-.931v-1.763c0-.608-.05-.894-.361-1.198-.156-.149-.399-.273-.778-.273-.473 0-1.002.428-1.263.67v2.905c0 .497.056.59.497.59h.212v.335c-.255-.006-.753-.03-1.12-.03-.392 0-.884.024-1.245.03v-.335zM112.774 97.46l-1.17.484c-.23.1-.753.317-.753.8 0 .305.3.826.909.826.367 0 .685-.21 1.045-.478a3.535 3.535 0 0 1-.03-.546V97.46zm0-.8c0-.61-.273-1.286-.952-1.286-.305 0-.846.304-.846.627 0 .18.068.335.156.51l-.722.34c-.112-.235-.2-.403-.2-.595 0-.36.256-.602.747-.9.492-.292.847-.41 1.064-.41 1.394 0 1.606 1 1.606 1.49v2.284c0 .59.106.714.28.714.118 0 .342-.075.51-.156v.305l-1.095.515c-.118.062-.168.062-.212.062-.149 0-.217-.292-.28-.646-.753.54-1.082.646-1.555.646-.822 0-1.27-.608-1.27-1.217 0-.695.423-.956 1.183-1.247l1.586-.621v-.416zM115.035 95.417a5.06 5.06 0 0 0 1.83-1.961l.155-.037v1.632h1.792l-.168.484h-1.624v2.539c0 .608.193 1.359.983 1.359.368 0 .704-.174.884-.285l.174.186-.927.782a.735.735 0 0 1-.267.037c-.113 0-.84-.056-1.264-.509-.398-.44-.442-1.005-.442-1.508v-2.6h-1.126v-.119zM120.93 92.702c.324 0 .573.242.573.558a.56.56 0 0 1-.573.559.558.558 0 1 1 0-1.117zm-1.32 7.044h.231c.405 0 .666-.148.666-.937v-2.265c0-.46-.143-.578-.355-.578-.162 0-.36.069-.485.118v-.335a8.982 8.982 0 0 0 1.587-.813h.105v3.873c0 .789.262.937.666.937h.23v.323c-.429-.006-.964-.025-1.325-.025-.36 0-.89.019-1.32.025v-.323zM125.67 95.327c-.697 0-1.388.657-1.388 1.936 0 1.08.573 2.514 1.786 2.514 1.07 0 1.475-.813 1.475-1.88 0-1.292-.635-2.57-1.873-2.57m.187-.385c1.624 0 2.626 1.235 2.626 2.743 0 1.328-1.064 2.464-2.577 2.464-1.263 0-2.57-.987-2.57-2.675 0-1.204.89-2.532 2.52-2.532M129.59 99.739h.199c.504 0 .603-.13.603-.788v-1.906c0-1.011-.143-1.18-.404-1.18a.98.98 0 0 0-.398.125v-.335a7.31 7.31 0 0 0 1.475-.714h.105v.993c.417-.447.984-.993 1.718-.993.38 0 1.033.205 1.375.857.212.39.249.887.249 1.359v2.036c0 .428.068.546.629.546h.161v.335c-.267-.006-.771-.03-1.157-.03-.398 0-.921.024-1.22.03v-.335h.2c.472 0 .522-.236.522-.931v-1.763c0-.608-.05-.894-.36-1.198-.15-.149-.4-.273-.785-.273-.473 0-.996.428-1.263.67v2.905c0 .497.062.59.498.59h.217v.335c-.26-.006-.753-.03-1.126-.03-.386 0-.884.024-1.238.03v-.335zM139.319 97.46l-1.164.484c-.23.1-.753.317-.753.8a.89.89 0 0 0 .902.826c.367 0 .685-.21 1.046-.478a3.535 3.535 0 0 1-.031-.546V97.46zm0-.8c0-.61-.274-1.286-.94-1.286-.305 0-.859.304-.859.627 0 .18.075.335.156.51l-.722.34c-.106-.235-.2-.403-.2-.595 0-.36.256-.602.754-.9.485-.292.846-.41 1.058-.41 1.4 0 1.611 1 1.611 1.49v2.284c0 .59.1.714.287.714.105 0 .33-.075.504-.156v.305l-1.102.515c-.118.062-.162.062-.205.062-.156 0-.218-.292-.28-.646-.753.54-1.09.646-1.556.646-.828 0-1.27-.608-1.27-1.217 0-.695.418-.956 1.177-1.247l1.587-.621v-.416zM141.81 91.98a11.473 11.473 0 0 0 1.668-.806h.112c-.025.254-.037 1.042-.037 2.122v5.512c0 .794.26.931.665.931h.23v.335c-.435-.012-.951-.03-1.319-.03-.36 0-.89.018-1.319.03v-.335h.23c.405 0 .66-.137.66-.931v-6.014c0-.342-.137-.56-.417-.56-.193 0-.38.088-.473.125v-.379zM148.963 99.739h.199c.554 0 .747-.285.778-1.651.03-1.564.118-3.128.118-4.748 0-.751-.23-.925-.828-.925h-.193v-.335c.336.006.61.03.965.03.336 0 .76-.024.902-.03l3.093 6.598 2.732-6.598c.367.006.71.03 1.04.03.341 0 .684-.024 1.032-.03v.335h-.137c-.516 0-.877.124-.877.925 0 .57.056 3.389.074 5.083.02 1.13.125 1.316.79 1.316h.219v.335c-.368-.006-.84-.03-1.45-.03-.567 0-1.07.024-1.45.03v-.335h.161c.629 0 .76-.199.76-1.192v-5.654h-.019l-3.024 7.287h-.25l-3.098-6.642h-.019v4.606c0 1.229.112 1.595.722 1.595h.168v.335c-.286-.006-.697-.03-1.201-.03-.504 0-.865.024-1.207.03v-.335zM162.964 97.46l-1.164.484c-.23.1-.752.317-.752.8a.89.89 0 0 0 .902.826c.373 0 .684-.21 1.045-.478a3.535 3.535 0 0 1-.03-.546V97.46zm0-.8c0-.61-.274-1.286-.94-1.286-.31 0-.858.304-.858.627 0 .18.08.335.155.51l-.722.34c-.105-.235-.199-.403-.199-.595 0-.36.255-.602.753-.9.486-.292.847-.41 1.058-.41 1.4 0 1.612 1 1.612 1.49v2.284c0 .59.1.714.286.714.106 0 .33-.075.504-.156v.305l-1.095.515c-.124.062-.168.062-.212.062-.155 0-.217-.292-.286-.646-.753.54-1.083.646-1.556.646-.821 0-1.263-.608-1.263-1.217 0-.695.417-.956 1.176-1.247l1.587-.621v-.416zM165.48 99.739h.2c.503 0 .603-.13.603-.788v-1.906c0-1.011-.143-1.18-.405-1.18-.087 0-.242.044-.398.125v-.335a7.31 7.31 0 0 0 1.475-.714h.112v.993c.41-.447.977-.993 1.711-.993.392 0 1.033.205 1.375.857.212.39.25.887.25 1.359v2.036c0 .428.074.546.634.546h.156v.335c-.268-.006-.772-.03-1.158-.03-.398 0-.92.024-1.22.03v-.335h.2c.479 0 .522-.236.522-.931v-1.763c0-.608-.043-.894-.36-1.198-.15-.149-.399-.273-.778-.273-.473 0-.996.428-1.257.67v2.905c0 .497.05.59.491.59h.212v.335c-.262-.006-.747-.03-1.127-.03s-.877.024-1.238.03v-.335zM175.216 97.46l-1.17.484c-.23.1-.753.317-.753.8 0 .305.292.826.908.826.368 0 .679-.21 1.046-.478a3.535 3.535 0 0 1-.031-.546V97.46zm0-.8c0-.61-.274-1.286-.946-1.286-.305 0-.853.304-.853.627 0 .18.075.335.15.51l-.716.34c-.112-.235-.2-.403-.2-.595 0-.36.256-.602.754-.9.485-.292.846-.41 1.058-.41 1.394 0 1.605 1 1.605 1.49v2.284c0 .59.1.714.287.714.112 0 .33-.075.504-.156v.305l-1.09.515c-.13.062-.167.062-.211.062-.162 0-.224-.292-.286-.646-.76.54-1.083.646-1.556.646-.815 0-1.27-.608-1.27-1.217 0-.695.424-.956 1.183-1.247l1.587-.621v-.416zM180.12 97.975c.71 0 1.014-.534 1.014-1.18 0-1.073-.529-1.514-1.101-1.514-.542 0-1.002.522-1.002 1.223 0 .683.367 1.471 1.089 1.471zm.18 4.152c.86 0 1.674-.291 1.674-1.03 0-.776-.858-.98-1.83-.98-.429 0-1.61 0-1.61.98 0 .515.466 1.03 1.766 1.03zm2.26-6.51h-.971c.174.217.41.484.41 1.042 0 1.136-1.12 1.651-1.804 1.651-.206 0-.405-.018-.467-.03-.205.123-.685.427-.685.645 0 .31.554.341 1.189.372 1.45.08 2.365.317 2.365 1.558 0 1.142-1.195 1.657-2.377 1.657-.822 0-2.303-.248-2.303-1.409 0-.707.56-1.073 1.126-1.173v-.018c-.18-.038-.771-.174-.771-.702 0-.347.274-.59.946-1.005l.093-.062c-.697-.286-1.133-.85-1.133-1.471 0-1.012.84-1.732 1.898-1.732.436 0 .722.093.971.205h1.836l-.324.471zM108.417 9.03c-42.788 0-77.599 17.671-77.599 39.383 0 21.705 34.81 39.37 77.6 39.37 42.794 0 77.604-17.665 77.604-39.37 0-21.712-34.81-39.383-77.605-39.383m0 79.07c-42.963 0-77.916-17.802-77.916-39.687 0-21.898 34.953-39.712 77.916-39.712 42.975 0 77.935 17.814 77.935 39.712 0 21.885-34.96 39.687-77.935 39.687"/>
            <path fill="#000" d="M103.21 88.107c-14.674-1.167-29.846-6.076-41.607-13.45-12.495-7.84-19.39-17.323-19.39-26.702 0-16.759 18.917-31.717 48.19-38.11l.068.322c-29.117 6.356-47.928 21.184-47.928 37.788 0 9.26 6.838 18.645 19.234 26.423 11.724 7.361 26.827 12.233 41.457 13.4l-.025.33z"/>
            <path fill="#000" d="M98.408 87.78c-11.63-3.445-22.278-9-29.969-15.647-8.364-7.225-12.782-15.213-12.782-23.121 0-17.628 18.924-33.368 48.19-40.084l.08.316C74.806 15.935 55.994 31.54 55.994 49.012c0 7.814 4.381 15.716 12.651 22.86 7.66 6.623 18.27 12.16 29.864 15.592l-.1.316zM119.507 87.78l-.1-.316c11.594-3.433 22.204-8.97 29.858-15.592 8.283-7.144 12.664-15.046 12.664-22.86 0-17.472-18.812-33.077-47.935-39.768l.075-.316c29.278 6.716 48.19 22.45 48.19 40.084 0 7.908-4.419 15.896-12.776 23.12-7.691 6.648-18.339 12.203-29.976 15.648"/>
            <path fill="#000" d="M113.522 88.107l-.025-.329c14.624-1.167 29.739-6.039 41.45-13.4 12.402-7.778 19.235-17.162 19.235-26.423 0-16.604-18.812-31.426-47.928-37.788l.068-.322c29.272 6.393 48.19 21.351 48.19 38.11 0 9.379-6.889 18.863-19.378 26.702-11.774 7.374-26.933 12.283-41.612 13.45"/>
            <mask id="d" fill="#fff">
                <use xlink:href="#c"/>
            </mask>
            <path fill="#000" d="M30.664 47.921h155.79v-.335H30.664zM38.493 31.324h139.92v-.329H38.494zM35.394 62.266h146.119v-.336H35.393zM52.606 75.964h111.7v-.335h-111.7z" mask="url(#d)"/>
            <path fill="#000" d="M107.915 87.683h.336V8.73h-.336zM118.316 86.907l-.168-.286c.137-.087 14.058-8.727 16.51-39.016 1.823-22.37-18.955-37.794-19.16-37.943l.192-.267c.212.155 21.133 15.685 19.31 38.235-.728 8.789-2.906 21.32-9.266 31.17-3.82 5.91-7.386 8.082-7.418 8.107" mask="url(#d)"/>
            <path fill="#000" d="M121.477 85.992l-.15-.292c.057-.037 6.504-3.389 12.92-9.745 5.905-5.871 12.993-15.566 13.192-28.47.199-12.886-8.476-22.476-15.788-28.248-7.946-6.275-16.036-9.522-16.11-9.553l.111-.31c.094.037 8.227 3.296 16.199 9.596 7.374 5.822 16.123 15.492 15.911 28.52-.205 13.016-7.336 22.792-13.292 28.701-6.447 6.4-12.925 9.764-12.993 9.801M104.413 87.398c-.087-.112-8.806-10.378-9.39-39.904C94.5 21.319 105.488 9.017 105.6 8.899l.243.217c-.112.125-11.02 12.346-10.498 38.372.597 29.39 9.228 39.587 9.316 39.693l-.25.217z" mask="url(#d)"/>
            <path fill="#000" d="M97.169 86.483c-.156-.18-16.062-18.534-15.582-38.874.348-14.43 6.216-24.052 11.089-29.588 5.283-5.996 10.554-8.615 10.61-8.64l.143.298c-.056.018-5.277 2.62-10.517 8.578-4.822 5.487-10.66 15.04-10.99 29.365-.485 20.215 15.34 38.47 15.496 38.638l-.25.223z" mask="url(#d)"/>
            <path fill="#000" d="M93.389 85.325c-.237-.137-24.182-15.145-24.182-37.577 0-6.138 2.445-15.654 14.088-26.143 6.945-6.263 13.983-9.956 14.052-9.993l.155.291c-.28.143-27.96 14.785-27.96 35.845 0 22.24 23.778 37.148 24.015 37.297l-.168.28zM187.413 96.751c0-1.217-1.027-1.421-1.37-1.421-1.039 0-1.437 1.011-1.437 1.421h2.807zm.82 2.812c-.44.28-1.032.59-1.897.59-1.805 0-2.626-1.447-2.626-2.65 0-1.317 1.139-2.564 2.427-2.564 1.4 0 2.184.869 2.184 2.085v.112h-3.715c.05 1.421.66 2.55 2.054 2.55.833 0 1.306-.272 1.574-.47v.347zM189.332 99.739h.2c.51 0 .603-.13.603-.788v-1.906c0-1.011-.137-1.18-.398-1.18-.1 0-.25.044-.405.125v-.335a7.31 7.31 0 0 0 1.475-.714h.112v.894c.473-.404 1.027-.894 1.724-.894.697 0 1.313.273 1.612.968.429-.422 1.101-.968 1.935-.968.572 0 1.002.193 1.25.521.262.342.35.702.35 1.385v2.203c0 .596.148.689.609.689h.187v.335c-.411-.006-.797-.03-1.176-.03-.399 0-.79.024-1.251.03v-.335h.112c.585 0 .66-.211.66-.875v-2.098c0-.82-.418-1.192-1.164-1.192-.567 0-.952.348-1.382.646v2.93c0 .49.156.589.567.589h.236v.335c-.386-.006-.76-.03-1.133-.03-.41 0-.827.024-1.269.03v-.335h.106c.491 0 .64-.118.64-.59v-2.364c0-.764-.466-1.21-1.17-1.21-.565 0-.945.347-1.368.645v2.849c0 .57.224.67.585.67h.218v.335c-.424-.006-.84-.03-1.27-.03-.398 0-.84.024-1.195.03v-.335zM203.395 96.751c0-1.217-1.027-1.421-1.376-1.421-1.039 0-1.43 1.011-1.43 1.421h2.806zm.821 2.812c-.448.28-1.033.59-1.898.59-1.81 0-2.632-1.447-2.632-2.65 0-1.317 1.145-2.564 2.433-2.564 1.394 0 2.178.869 2.178 2.085v.112h-3.709c.044 1.421.654 2.55 2.054 2.55.827 0 1.307-.272 1.574-.47v.347zM205.315 99.739h.2c.497 0 .603-.13.603-.788v-1.906c0-1.011-.15-1.18-.41-1.18a.958.958 0 0 0-.393.125v-.335a6.915 6.915 0 0 0 1.462-.714h.119v.993c.41-.447.983-.993 1.711-.993.386 0 1.033.205 1.381.857.212.39.25.887.25 1.359v2.036c0 .428.068.546.628.546h.162v.335c-.268-.006-.772-.03-1.164-.03-.392 0-.915.024-1.213.03v-.335h.199c.473 0 .516-.236.516-.931v-1.763c0-.608-.043-.894-.36-1.198-.15-.149-.399-.273-.779-.273-.473 0-.995.428-1.257.67v2.905c0 .497.05.59.492.59h.218v.335c-.262-.006-.753-.03-1.127-.03-.385 0-.883.024-1.238.03v-.335zM211.714 95.417a5.048 5.048 0 0 0 1.823-1.961l.156-.037v1.632h1.792l-.162.484h-1.63v2.539c0 .608.193 1.359.983 1.359.373 0 .703-.174.89-.285l.168.186-.921.782a.79.79 0 0 1-.274.037c-.106 0-.834-.056-1.263-.509-.398-.44-.442-1.005-.442-1.508v-2.6h-1.12v-.119z" mask="url(#d)"/>
            <path fill="#88ADDB" d="M129.03 55.503s.268 1.186.268 1.968c0 .788-.915 2.495-1.444 3.159-.535.652-2.246 2.098-2.377 1.18-.137-.926 1.052-2.366 1.842-3.551.797-1.18.797-2.886 1.711-2.756" mask="url(#d)"/>
            <path fill="#070707" d="M7.702 89.8h201.222V85.54H7.702z" mask="url(#d)"/>
            <path fill="#F7A61D" d="M7.702 88.992h201.222v-4.258H7.702z" mask="url(#d)"/>
            <path fill="#243E76" d="M22.349 50.175c-.89 0-1.425.05-2.11.186l-.124.031V65.55l.124.018c.946.211 2.265.354 3.217.354 4.73 0 7.126-2.297 7.126-6.828 0-4.115-2.147-8.919-8.233-8.919zm-12.01 31.742c2.955-.087 4.02-1.16 4.02-4.065V54.234c0-2.898-1.065-3.978-4.02-4.059v-1.11c1.543.086 3.77.136 5.88.136 1.282 0 2.552-.038 3.84-.069 1.275-.037 2.557-.074 3.833-.074 8.27 0 12.639 3.308 12.639 9.558 0 5.847-4.17 8.808-12.403 8.808-1.288 0-3.042-.05-3.833-.149l-.18-.019v10.596c0 2.904 1.051 3.978 4.001 4.065v1.111l-1.63-.037c-2.614-.075-3.977-.1-5.259-.1-1.275 0-2.626.025-5.233.1l-1.655.037v-1.11z" mask="url(#d)"/>
            <path fill="#000" d="M115.637 49.38c-3.858.1-5.507.131-7.057.131-1.55 0-3.186-.031-7.05-.13v1.44c3.142.043 4.013 1.21 4.013 3.898v23.623c0 2.7-.87 3.848-4.013 3.904v1.434c3.864-.087 5.5-.137 7.05-.137 1.55 0 3.199.05 7.057.137v-1.434c-3.136-.056-4.014-1.204-4.014-3.904V54.719c0-2.688.878-3.855 4.014-3.898v-1.44zm-13.784.336l.834.018c3.1.075 4.512.112 5.893.112 1.388 0 2.8-.037 5.9-.112l.827-.018v.788c-2.912.118-4.001 1.291-4.001 4.215v23.623c0 2.93 1.089 4.09 4.001 4.22v.789l-1.089-.025c-2.856-.08-4.288-.124-5.638-.124-1.344 0-2.781.043-5.632.124l-1.095.025v-.788c2.925-.13 4.026-1.291 4.026-4.221V54.719c0-2.924-1.101-4.097-4.026-4.215v-.788zM210.492 49.484a82.775 82.775 0 0 1-4.828.142c-1.457 0-3.143-.03-4.78-.142L189.136 75.9l-11.357-26.416a76.842 76.842 0 0 1-4.537.142c-1.15 0-3.528-.08-5.158-.142v1.446c3.18.242 3.715.732 3.715 3.81 0 1.44-.094 3.036-.15 4.532l-.473 18.019c-.105 3.612-.441 4.673-4.163 5.064v1.44c1.693-.037 3.386-.136 5.265-.136 1.88 0 3.584.1 5.314.136v-1.44c-3.142-.099-3.957-1.204-3.957-3.612V55.56h.1l12.65 28.564h1.413l13.086-30.302h.088l.292 18.36c.05 1.887.1 3.811.1 5.493 0 4.004-.729 4.445-4.064 4.68v1.44c2.427-.037 5.221-.136 7.07-.136 1.829 0 4.617.1 6.987.136v-1.44c-2.993-.155-3.963-.77-4-4.245l-.3-15.952c-.05-2.408-.087-5.536-.087-7.46 0-2.998 1.152-3.768 3.522-3.768v-1.446zm-32.918.347l11.27 26.193.285.696.312-.696 11.649-26.193a87.5 87.5 0 0 0 4.574.13c1.244 0 2.762-.043 4.492-.13v.782c-2.122.062-3.522.85-3.522 4.084 0 2.067.05 5.314.1 7.474l.286 15.945c.05 3.569 1.102 4.357 4.014 4.55v.8c-.753-.012-1.55-.037-2.327-.055a154.67 154.67 0 0 0-4.338-.087c-1.176 0-2.713.037-4.337.087-.803.018-1.612.043-2.39.055v-.806c3.218-.267 4.045-.888 4.045-4.985 0-1.682-.043-3.55-.1-5.499l-.28-18.36-.006-.323h-.641l-.08.205-13.006 30.104h-.971l-12.564-28.378-.093-.187h-.642v23.506c0 2.681 1.077 3.768 3.958 3.929v.794c-.466-.012-.94-.03-1.412-.055a92.147 92.147 0 0 0-3.572-.087c-1.27 0-2.452.043-3.59.093-.449.018-.897.037-1.351.05v-.82c3.696-.447 4.07-1.781 4.157-5.344l.491-18.019c.007-.54.032-1.092.056-1.638.05-.969.094-1.98.094-2.905 0-3.116-.61-3.836-3.721-4.11v-.8l.79.025c1.475.044 3.124.106 4.038.106 1.127 0 2.508-.044 4.332-.13z" mask="url(#d)"/>
        </g>
        <g transform="translate(76.536 69.311)">
            <mask id="g" fill="#fff">
                <use xlink:href="#e"/>
            </mask>
            <path fill="url(#f)" d="M32.265.925c-.268.658-3.03 1.458-4.48 1.576-1.445.143-3.156-.118-3.822.398-.647.533-2.756 1.31-3.41 1.31-.66 0-3.945-2.496-5.538-2.496-1.587 0-5.265.67-5.918 1.453-.653.788-2.77 1.166-3.286 1.042-.547-.118-1.2-.658-2.122 0-.92.67-3.024.404-3.416.795-.41.39 2.757 1.18 3.945 1.31 1.189.124 7.244 1.055 8.824 1.31 1.575.272 16.061.136 19.092.136 3.037 0 19.365-.528 21.338-.528 1.973 0 6.335-.521 8.021-.645 1.73-.15 1.842-1.056 2.116-1.453.274-.39 1.45-1.316 1.45-1.316.13-.521-1.176-1.707-2.9-1.434-1.705.261-6.192.516-7.635.391-1.431-.13-2.104-.39-3.684 0-1.58.392-2.103.522-2.632.261-.536-.26-1.183-1.322-2.24-1.192-1.059.143-1.98.658-3.019.801-1.07.13-2.122.391-3.043 0-.927-.41-1.717-.658-2.37-1.192C36.881.925 35.431.267 35.431.267s-2.9 0-3.167.658" mask="url(#g)"/>
        </g>
        <g transform="translate(56.006 3.897)">
            <mask id="j" fill="#fff">
                <use xlink:href="#h"/>
            </mask>
            <path fill="url(#i)" d="M31.985.67c-1.045.658-.914 1.042-1.574 1.564-.647.54-.647.8-1.574 1.061-.51.143-2.502.13-2.776-.521 0 0-.66-.658-1.711-1.062-1.052-.384-2.234-.384-3.286-.384-1.058 0-1.717 0-2.632.124-.927.142-1.32.664-2.24.664-.927 0-1.593-.267-2.639-.267-1.051 0-3.69 1.049-6.714 1.837-3.03.795-5.408 2.899-5.794 3.68-.398.79.125 1.447 1.046 1.962.92.534 1.058-.26 1.966-.651.94-.398 2.52-1.577 3.703-1.838 1.176-.254 1.711 0 2.103.658.398.658-.137 1.57-1.176 1.968-1.058.397-1.188 2.234-1.45 2.892-.274.652-2.377 2.495-2.508 4.078-.13 1.57.53 5.251 1.176 6.555.673 1.316 2.116 3.29 3.436 3.817 1.319.515 2.103 1.452 3.951 2.104 1.848.652 2.24 1.57 2.9 1.7.66.137 1.182.652 1.182.652l-.137 2.098s-.522.789-.92 1.322c-.393.528-.393 1.707-.523 2.632-.144.925-.144 1.844.64 2.626.803.788 1.849 3.413 2.515 4.208.665.776 1.437 1.043 2.501 2.359.585.72.666 1.452.915 2.88.28 1.458-.517 3.165-.249 3.953.249.789 1.04 2.222 1.711 3.284.492.776 1.313 3.004 1.842 3.674.523.652 2.11 2.104 2.639 2.104.529 0 .118-.26-.398-.924-.53-.646-1.052-1.18-.53-1.968.53-.788 0-1.446 0-1.85 0-.378 0-.788.137-1.433.119-.665-.392-1.577.517-2.098.94-.534 1.842-.925 1.842-.925s-.653-1.31-.249-1.31c.386 0 1.313-.397 2.228-1.837.933-1.452.13-2.762 1.188-3.16 1.046-.39 1.712 0 2.104-1.315.398-1.304 0-4.463 1.051-5.251 1.064-.782 1.457-2.632.399-3.284-1.052-.658-2.24-1.179-3.025-1.576-.784-.391-2.115-.789-2.115-.789s0-.912-.79-1.706c-.791-.783-2.757-1.18-2.757-1.18s-1.575-2.234-2.502-2.234c-.927 0-2.247-.26-3.03-.522-.79-.267-1.575.118-1.849.658-.255.515-1.182 1.05-1.182 1.05s-.79-.659-1.575-.535c-.79.143-1.057-.515-1.057-1.7 0-1.192.136-1.577-.66-1.577-.79 0-.79-.521-.653-1.316.13-.788-.262-1.315-.803-.918-.517.39-1.699 1.837-2.365 1.18-.666-.659-1.052-2.223-.666-3.42.405-1.186 1.332-1.571 2.782-1.695 1.444-.137 3.024-.658 3.155 0 .124.658.927 1.042 1.325 1.042.386 0 .784-1.042.909-1.967.13-.913 1.711-1.837 2.626-2.626.933-.782 3.304-2.365 3.827-3.147.535-.8 3.018-.67 6.316-1.452.909-.217.927-3.941 1.58-4.202.667-.26-1.58-1.186-1.58-1.186s-1.058-1.31.28-1.31c1.3 0 1.7.261 2.757 0 1.052-.272 1.587-1.309.79-1.973-.79-.658-1.313-1.31-1.313-1.831 0-.317-.317-.304-.66-.298-.236.006-.503.012-.659-.106-.324-.21-.56-1.216-1.207-1.216-.15 0-.318.056-.51.174" mask="url(#j)"/>
        </g>
        <g transform="translate(91.843 2.035)">
            <mask id="m" fill="#fff">
                <use xlink:href="#k"/>
            </mask>
            <path fill="url(#l)" d="M1.543 1.346c-.908.658-1.835.919-.653 1.186 0 0 1.189.248 1.45.925.261.639-.797.639-1.182 1.694-.399 1.049.92 1.192 1.039 1.837.143.658.143 1.459.678 1.974.517.521 1.848-.919 2.626-1.837.797-.925 3.155-1.577 3.82-2.228.654-.652 2.895-1.844 3.293-2.632.398-.788 0-.919-.66-1.453-.66-.521-1.58-.658-2.24-.384-.66.26-2.365.651-3.56.651-1.188 0-1.705-.13-2.103-.788a.419.419 0 0 0-.373-.205c-.53 0-1.413.745-2.135 1.26" mask="url(#m)"/>
        </g>
        <g transform="translate(99.566 2.897)">
            <mask id="p" fill="#fff">
                <use xlink:href="#n"/>
            </mask>
            <path fill="url(#o)" d="M28.208 1.403c-.933.521-2.24 2.104-3.82 2.495-1.587.397-2.508.919-3.566 1.583-1.052.645-1.575.397-2.757-.267-1.195-.658-2.365-1.577-3.298-1.577-.915 0-1.973 0-3.292 1.44-1.313 1.453-1.842 2.769-1.313 3.942.51 1.185-.268 1.582-.927 2.104-.66.534-1.842 0-2.502-.397-.66-.38-.255 1.582-.529 2.762-.255 1.179-1.711 2.501-1.972 3.68-.268 1.173 1.58 1.57.927 2.495-.666.913-2.508 2.229-3.168 3.681-.66 1.44-1.058 3.147-1.574 5.12-.541 1.962 1.45 4.464 2.757 5.252 1.319.782 2.514.645 3.696.645 1.176 0 1.705-.254 2.763-.254 1.04 0 1.587 1.713 1.842 3.16.268 1.433 1.32 2.24 1.58 3.01.256.794.131 1.98-.26 3.432-.393 1.44-.654 1.694-.654 2.874 0 1.185 1.319 2.116 1.319 3.805 0 1.713.517 3.295 1.568 3.817 1.058.534 1.711 1.707 2.247 1.316.516-.391 1.443-1.316 2.246-1.838.784-.527 1.568-1.44 1.836-1.973.255-.522.915-2.632 1.045-3.284.143-.658 1.593-1.18 2.11-3.023.523-1.83-.654-3.544-.921-4.332-.262-.794.404-1.316 1.052-1.831.66-.54 2.775-3.811 3.827-4.879 1.045-1.036 1.698-3.401 1.698-3.401s0-.8.399-1.7c.392-.932.927-.671 1.325-1.056.392-.397 1.046-3.029 1.575-3.687.535-.651.914.267 1.972.404 1.058.124.927.385 1.985.912 1.04.521.523 1.186.654 2.235.137 1.055.529 1.446 1.045 1.973.541.528.797 1.173 1.182 2.222.411 1.062 1.195.41 1.724-.378.53-.795.921-1.583 1.183-2.626.267-1.055.522-1.316.927-1.582.392-.261 1.45.266 2.501.651 1.052.398.928.664 1.718 1.583.784.919 2.228 5.239 3.149 6.04.927.8 1.064-.801 1.064-1.844 0-1.05 1.705-1.577 1.705-2.359 0-.788-.262-2.898-.262-3.544 0-.664 0-1.85.262-2.501.261-.658 1.182-.267 1.319-.782.13-.54 1.568-1.459 1.176-2.235-.386-.794-2.358-3.296-2.757-4.208-.38-.919 1.581-1.043 1.183-1.18-.386-.13.398-1.576 1.058-2.364.647-.788-1.842-3.16-2.9-3.544-1.046-.398-.921-1.577.118-1.974 1.064-.397 2.383.124 3.037.93.653.777 1.854 1.044 2.377.777.516-.26-.934-1.186-1.842-2.104-.933-.919-.398-1.434-.398-1.434-.137-2.371-11.47-4.99-12.508-5.257-1.064-.267-3.56.521-4.475.521-.927 0-2.887 0-4.094-.255-1.189-.266-2.763-1.055-3.815-1.588a2.742 2.742 0 0 0-1.182-.243c-.846 0-1.755.292-2.365.64" mask="url(#p)"/>
        </g>
        <g transform="translate(154.349 36.07)">
            <mask id="s" fill="#fff">
                <use xlink:href="#q"/>
            </mask>
            <path fill="url(#r)" d="M1.994 2.648c-.79.93-1.841.664-1.71 1.837.13 1.185 2.24.788 3.16 1.185.928.398 1.307 1.05 1.98.528.659-.528.659-1.055.659-1.055s.392-1.98-.137-2.235c-.523-.26-.784-.521-1.711-.93-.324-.125-.579-.193-.84-.193-.467 0-.878.254-1.4.863" mask="url(#s)"/>
        </g>
        <g transform="translate(152.21 40.139)">
            <mask id="v" fill="#fff">
                <use xlink:href="#t"/>
            </mask>
            <path fill="url(#u)" d="M14.146.807c-1.189.267 0 1.322.653 1.974.653.664 1.2 2.098 1.2 2.892 0 .795-.547 2.501-1.592 2.626-1.052.13-1.046-1.186-1.842-1.713-.79-.516-1.593.527-3.168 1.191-1.574.652-3.154 2.626-4.735 3.408-1.574.788-2.77 1.713-3.56 2.886-.784 1.186-.392 1.72-.784 2.768-.392 1.05 1.052 1.18 1.705.789.654-.404 1.842-1.18 2.906-1.577 1.046-.397 1.693.13 2.24.788.523.658 1.052 2.756 1.843 3.01.79.274 2.24-.906 2.763-1.433.522-.528 1.71-1.192 2.37-1.713.654-.522 2.9-2.359 2.9-3.017 0-.658-.143-5.642 0-6.436.131-.782 0-2.098-.398-3.408-.38-1.26-1.468-3.048-2.365-3.048a.934.934 0 0 0-.136.013" mask="url(#v)"/>
        </g>
        <path fill="#243E76" d="M100.69 74.024c2.968-.086 4.02-1.16 4.02-4.065V46.348c0-2.911-1.052-3.985-4.02-4.066v-1.117l.946.025c3.124.08 4.561.118 5.95.118 1.387 0 2.824-.037 5.954-.118l.934-.025v1.117c-2.956.081-4.014 1.155-4.014 4.066v23.611c0 2.905 1.058 3.979 4.014 4.065v1.112l-1.232-.032c-2.894-.074-4.313-.105-5.657-.105-1.338 0-2.763.031-5.65.105l-1.245.032v-1.112z"/>
        <path fill="#000" d="M22.455 57.374c-.959 0-2.26-.137-3.187-.342V42.148c.685-.142 1.214-.186 2.079-.186 6.279 0 8.065 5.195 8.065 8.764 0 4.68-2.608 6.648-6.957 6.648m.435-16.864c-2.557 0-5.121.149-7.685.149-2.016 0-4.393-.044-6.03-.15v1.453c3.143.044 4.014 1.204 4.014 3.898v23.611c0 2.7-.871 3.855-4.014 3.898v1.446c3.864-.087 5.501-.143 7.05-.143 1.544 0 3.199.056 7.051.143V73.37c-3.136-.043-4.008-1.198-4.008-3.898V59.056c.778.1 2.47.155 3.865.155 8.892 0 12.564-3.376 12.564-8.963 0-5.549-3.342-9.738-12.807-9.738m-.435 17.199c4.835 0 7.287-2.352 7.287-6.983 0-6.716-4.524-9.099-8.395-9.099-.89 0-1.444.05-2.135.192l-.267.062V57.3l.261.05c.952.205 2.296.36 3.249.36m.435-16.864c8.277 0 12.47 3.165 12.47 9.403 0 5.81-3.988 8.628-12.227 8.628-1.288 0-3.037-.044-3.815-.137l-.373-.043V69.47c0 2.936 1.089 4.097 4.001 4.22v.79l-1.431-.044c-2.663-.062-4.001-.093-5.29-.093-1.294 0-2.613.03-5.245.093l-1.481.043v-.788c2.924-.124 4.02-1.285 4.02-4.22V45.86c0-2.923-1.096-4.103-4.02-4.22v-.776c1.543.08 3.69.124 5.706.124 1.288 0 2.595-.038 3.864-.075 1.245-.037 2.552-.068 3.821-.068"/>
        <path fill="#243E76" d="M185.495 75.589L172.85 47.024h-.28l-.106.162v23.176c0 2.65 1.045 3.656 3.964 3.768v1.123c-.535-.012-1.058-.03-1.593-.05a80.616 80.616 0 0 0-3.56-.092c-1.257 0-2.439.043-3.578.093-.51.018-1.014.037-1.518.05v-1.136c3.715-.41 4.063-1.633 4.157-5.202l.485-18.012c.019-.546.031-1.086.056-1.645.044-.987.087-1.968.087-2.892 0-3.085-.56-3.706-3.721-3.967v-1.117l.977.025c1.456.056 3.118.105 4.02.105 1.145 0 2.551-.043 4.437-.13l11.462 26.646 11.842-26.646c1.531.08 3.193.13 4.674.13 1.288 0 2.856-.043 4.673-.13v1.111c-2.184.031-3.528.733-3.528 3.917 0 2.073.05 5.325.1 7.479l.292 15.946c.037 3.506 1.089 4.226 4.007 4.388v1.13c-.802-.013-1.661-.038-2.495-.056-1.593-.044-3.167-.087-4.344-.087-1.163 0-2.713.043-4.318.087-.865.018-1.743.043-2.57.055v-1.13c3.273-.254 4.05-.769 4.05-4.822 0-1.682-.049-3.557-.099-5.5l-.28-18.52h-.274l-.136.105-13.05 30.203h-1.188z"/>
    </g>
</svg>
