<svg xmlns="http://www.w3.org/2000/svg" xmlns:xlink="http://www.w3.org/1999/xlink" width="311" height="87" viewBox="0 0 311 87">
    <defs>
        <path id="a" d="M0 86.822h310.452V0H0z"/>
    </defs>
    <g fill="none" fill-rule="evenodd">
        <path fill="#575756" d="M228.226 10.528c-1.174-1.331-2.448-2.298-3.812-2.9-1.363-.596-2.868-.9-4.52-.9-1.83 0-3.458.304-4.869.9-1.415.602-2.58 1.436-3.496 2.502a10.98 10.98 0 0 0-2.08 3.694c-.477 1.403-.709 2.904-.709 4.5 0 1.597.274 3.098.812 4.496a11.612 11.612 0 0 0 2.26 3.7c.967 1.07 2.133 1.899 3.496 2.496 1.368.601 2.892.9 4.586.9 3.628 0 6.431-1.284 8.408-3.866l4.1 3.667c-1.609 1.733-3.487 3.003-5.652 3.803a19.84 19.84 0 0 1-6.856 1.194c-2.543 0-4.869-.403-6.992-1.194-2.11-.8-3.916-1.937-5.398-3.406-1.486-1.463-2.637-3.197-3.463-5.196-.82-1.999-1.236-4.197-1.236-6.594 0-2.354.415-4.533 1.236-6.527a15.386 15.386 0 0 1 3.496-5.2c1.51-1.465 3.308-2.606 5.407-3.43 2.09-.82 4.407-1.227 6.95-1.227 2.449 0 4.766.398 6.955 1.193 2.189.8 4.11 2.042 5.765 3.733l-4.388 3.662zM236.842 18.322c0-2.444.449-4.656 1.345-6.655.896-2 2.118-3.723 3.67-5.168 1.558-1.445 3.412-2.563 5.578-3.368 2.165-.796 4.52-1.198 7.063-1.198s4.893.402 7.063 1.198c2.16.805 4.025 1.923 5.577 3.368a15.744 15.744 0 0 1 3.67 5.168c.897 1.999 1.34 4.21 1.34 6.655 0 2.45-.443 4.666-1.34 6.66a15.695 15.695 0 0 1-3.67 5.168c-1.552 1.45-3.416 2.563-5.577 3.363-2.17.796-4.52 1.199-7.063 1.199s-4.898-.403-7.063-1.199c-2.166-.8-4.02-1.914-5.577-3.363-1.553-1.445-2.775-3.164-3.671-5.168-.896-1.994-1.345-4.21-1.345-6.66m5.931 0c0 1.649.274 3.164.816 4.566a10.36 10.36 0 0 0 2.364 3.662 11.302 11.302 0 0 0 3.709 2.473c1.434.596 3.043.89 4.836.89 1.788 0 3.402-.294 4.84-.89a11.38 11.38 0 0 0 3.704-2.473 10.571 10.571 0 0 0 2.369-3.662c.538-1.402.811-2.917.811-4.566 0-1.644-.273-3.164-.811-4.561a10.571 10.571 0 0 0-2.369-3.662 11.306 11.306 0 0 0-3.703-2.473c-1.44-.597-3.053-.89-4.841-.89-1.793 0-3.402.293-4.836.89-1.44.602-2.676 1.426-3.709 2.473a10.36 10.36 0 0 0-2.364 3.662c-.542 1.397-.816 2.917-.816 4.561M280.698 10.13c0-1.421-.052-2.752-.142-3.998a42.92 42.92 0 0 1-.146-3.401h5.233c0 .848.023 1.69.066 2.534.047.848.075 1.71.075 2.596h.137c.377-.753.91-1.483 1.585-2.193.689-.71 1.5-1.35 2.444-1.9.94-.554 2-1 3.176-1.33 1.18-.337 2.444-.503 3.812-.503 2.16 0 4.039.313 5.62.933 1.575.62 2.877 1.488 3.915 2.6 1.034 1.11 1.803 2.454 2.289 4.027.5 1.577.745 3.297.745 5.168v19.25h-5.51v-18.72c0-2.62-.61-4.684-1.831-6.195-1.222-1.511-3.129-2.27-5.724-2.27-1.788 0-3.326.294-4.623.868-1.293.577-2.355 1.402-3.176 2.467-.825 1.066-1.434 2.33-1.835 3.8-.401 1.463-.6 3.078-.6 4.855v15.195h-5.51V10.13z"/>
        <mask id="b" fill="#fff">
            <use xlink:href="#a"/>
        </mask>
        <path fill="#575756" d="M188.26 33.92h5.506V2.739h-5.506z" mask="url(#b)"/>
        <path fill="#498BCA" d="M94.883 36.82a45.307 45.307 0 0 0-1.543-6.399c-.656-2.08-1.529-4.078-2.5-5.996-.968-1.924-2.105-3.733-3.318-5.453a40.92 40.92 0 0 0-3.944-4.779c-.368-.374-.68-.725-1.085-1.104-.359-.336-.713-.668-1.067-1.004-.335-.327-.73-.654-1.108-.98-.383-.318-.76-.64-1.137-.957a46.009 46.009 0 0 0-9.338-5.798 45.081 45.081 0 0 0-8.804-3.074 42.644 42.644 0 0 0-7.1-1.123c-.496-.033-.963-.085-1.407-.104a61.94 61.94 0 0 0-1.24-.029c-.388-.01-.741-.014-1.067-.019-.326.01-.623.015-.892.02-1.057.042-1.623.06-1.623.06s.444.058 1.265.162c.099.019.207.033.32.052.114.024.227.052.35.08.245.057.514.129.797.195.293.052.59.17.906.289.316.113.656.218 1 .355 1.383.587 2.94 1.525 4.506 2.823 1.562 1.308 3.1 3.018 4.53 5.035 1.415 2.023 2.703 4.382 3.845 6.95.264.653.547 1.278.807 1.965.056.161.118.318.174.474-.023.01-.047.01-.075.014-.93.161-1.888.317-2.864.488-.977.137-1.949.227-2.944.355-.496.052-.996.119-1.5.176-.25.033-.5.066-.756.09l-.778.056c-1.043.067-2.09.128-3.147.218-1.057.104-2.133.086-3.204.119-.632.023-1.269.038-1.901.052a293.707 293.707 0 0 0-.302-6.404c-.1-2.033-.227-3.899-.345-5.547-.103-1.649-.226-3.093-.325-4.278-.095-1.184-.198-2.108-.255-2.742-.066-.64-.104-.976-.104-.976s-.033.336-.099.976c-.056.634-.16 1.558-.255 2.742-.094 1.185-.221 2.63-.325 4.278a240.955 240.955 0 0 0-.345 5.547c-.108 1.98-.221 4.135-.302 6.404-.637-.014-1.278-.038-1.915-.052-1.095-.033-2.199-.02-3.232-.123-1.043-.09-2.08-.157-3.11-.218l-.773-.057c-.255-.024-.51-.057-.76-.09-.514-.057-1.019-.123-1.519-.18-1.005-.128-1.996-.223-2.958-.355-.963-.171-1.902-.323-2.812-.479-.033-.005-.066-.014-.095-.019.057-.147.113-.303.165-.455.255-.672.548-1.321.817-1.98 1.141-2.576 2.425-4.93 3.85-6.953 1.425-2.018 2.963-3.728 4.524-5.03 1.572-1.303 3.124-2.237 4.516-2.824.34-.142.68-.242.995-.36.316-.114.614-.232.901-.284.288-.066.552-.138.793-.194.123-.029.24-.057.354-.08.113-.02.222-.034.325-.053l1.26-.161S47.15.063 46.092.02c-.26-.004-.562-.01-.887-.019-.326.005-.684.01-1.066.02l-1.246.028c-.444.023-.91.07-1.406.109a42.522 42.522 0 0 0-7.096 1.122 44.869 44.869 0 0 0-8.804 3.075 45.928 45.928 0 0 0-9.338 5.797c-1.49 1.242-3.005 2.563-4.392 4.036l-.514.536-.52.577c-.34.394-.693.787-1.019 1.19-.646.81-1.302 1.624-1.896 2.486-1.213 1.715-2.35 3.53-3.317 5.452-.972 1.914-1.85 3.913-2.5 5.992a45.321 45.321 0 0 0-1.548 6.4A47.365 47.365 0 0 0 0 43.41l.047 1.634c.005.521.066 1.099.109 1.658.07 1.132.236 2.207.387 3.302a44.772 44.772 0 0 0 1.547 6.394c.651 2.08 1.524 4.083 2.496 5.997.967 1.923 2.104 3.733 3.317 5.452a41.535 41.535 0 0 0 3.944 4.784c.368.375.68.72 1.086 1.104.358.327.712.668 1.066 1 .335.322.731.653 1.109.98.382.317.764.644 1.137.962a46.138 46.138 0 0 0 9.337 5.798 45.532 45.532 0 0 0 8.809 3.074c2.703.649 5.11.985 7.091 1.118.5.033.967.09 1.406.109.444.01.859.019 1.246.023.387.01.74.02 1.066.024.326-.01.628-.019.892-.024l1.618-.057s-.434-.066-1.255-.165a29.318 29.318 0 0 0-.325-.043c-.104-.033-.227-.062-.35-.09-.245-.057-.509-.123-.802-.19-.287-.056-.585-.175-.9-.284-.317-.118-.657-.222-.996-.364-1.383-.588-2.944-1.52-4.51-2.819-1.563-1.312-3.1-3.022-4.53-5.035-1.416-2.027-2.704-4.386-3.846-6.954-.264-.649-.547-1.279-.806-1.966l-.175-.473c.024-.005.047-.005.07-.014.935-.157 1.893-.318 2.874-.488.967-.138 1.94-.228 2.94-.35a92.34 92.34 0 0 0 1.5-.186c.25-.023.5-.061.755-.085l.778-.052a188.85 188.85 0 0 0 3.147-.223c1.057-.104 2.128-.085 3.204-.118.632-.019 1.27-.033 1.906-.047.076 2.269.194 4.42.302 6.409.1 2.022.227 3.889.34 5.537.104 1.653.231 3.093.33 4.277.09 1.185.194 2.113.25 2.748l.1.975s.037-.34.103-.975c.057-.635.16-1.563.255-2.748.094-1.184.222-2.624.325-4.277.114-1.648.241-3.515.34-5.537.109-1.99.227-4.14.302-6.41.642.015 1.279.034 1.92.048 1.095.033 2.199.019 3.232.128 1.043.08 2.081.151 3.114.218l.77.052c.254.024.509.061.764.085.51.066 1.014.128 1.514.185 1.01.128 1.996.223 2.963.36.958.16 1.897.322 2.808.474.033.01.06.014.094.019-.057.146-.113.303-.165.454-.255.668-.552 1.327-.816 1.98-1.142 2.577-2.426 4.931-3.85 6.959-1.43 2.013-2.963 3.723-4.525 5.03-1.567 1.303-3.124 2.231-4.51 2.819-.345.142-.685.246-1.001.364-.316.11-.613.228-.901.285l-.793.19c-.123.027-.24.056-.354.09a18.71 18.71 0 0 0-.32.042c-.826.1-1.27.165-1.27.165l1.623.057c.27.005.562.015.887.024.33-.005.684-.014 1.067-.024.387-.01.802-.019 1.245-.028.444-.02.91-.071 1.406-.11 1.987-.132 4.393-.463 7.096-1.117a45.642 45.642 0 0 0 8.81-3.074 45.772 45.772 0 0 0 9.332-5.798c1.49-1.246 3.005-2.563 4.397-4.04l.51-.536.519-.573c.34-.393.693-.786 1.019-1.189.646-.815 1.302-1.63 1.897-2.492 1.212-1.714 2.354-3.524 3.316-5.452.972-1.913 1.85-3.912 2.501-5.992a44.772 44.772 0 0 0 1.548-6.394c.146-1.09.316-2.189.387-3.283.037-.55.103-1.109.103-1.653l.052-1.696a47.358 47.358 0 0 0-.542-6.551M83.186 18.224c.576.772 1.166 1.549 1.699 2.373 2.208 3.245 3.911 6.916 5.152 10.767a42.203 42.203 0 0 1 1.373 5.94 42.87 42.87 0 0 1 .439 5.945c-.585-.048-1.307-.114-2.156-.175-1.255-.086-2.775-.209-4.53-.304-1.75-.113-3.722-.227-5.874-.326-1.675-.076-3.458-.166-5.327-.233-.066-2.946-.278-6.02-.689-8.938-.132-.829-.264-1.658-.4-2.477-.133-.82-.336-1.63-.5-2.435-.09-.403-.166-.81-.265-1.208-.104-.393-.208-.791-.311-1.189-.208-.786-.401-1.573-.661-2.335-.25-.768-.477-1.53-.731-2.283-.18-.45-.35-.9-.524-1.36.689-.237 1.368-.464 2.015-.687.778-.298 1.514-.62 2.208-.919l1.024-.43c.16-.072.32-.148.48-.21l.463-.236c1.199-.63 2.256-1.16 3.067-1.658.52-.322.953-.61 1.312-.843.288.294.599.673.9 1 .317.36.628.72.926 1.098.297.375.613.74.91 1.123M63.044 7.931c-1.68-2.027-3.524-3.68-5.336-4.903A18.12 18.12 0 0 0 52.707.622c.363.057.74.133 1.137.194 1.93.318 4.237.881 6.804 1.696a48.914 48.914 0 0 1 8.228 3.543 48.823 48.823 0 0 1 8.526 5.969c.33.307.67.615 1 .928.33.303.67.611 1.005.971.26.27.524.535.788.815-.396.142-.859.308-1.392.516-.443.194-.962.317-1.505.497-.543.17-1.132.36-1.76.555-.609.218-1.316.36-2.029.559-.722.18-1.458.407-2.25.587-.713.147-1.449.313-2.218.478-.127-.293-.255-.587-.387-.88-.302-.683-.665-1.38-.99-2.047-1.355-2.662-2.926-5.04-4.62-7.072M51.08 23.316c1.118-.033 2.232-.066 3.331-.208 2.199-.223 4.36-.422 6.455-.853 1.038-.199 2.08-.36 3.057-.587.962-.247 1.901-.498 2.812-.734.104-.024.203-.048.302-.076l.434 1.345c.217.715.401 1.464.609 2.203a75.328 75.328 0 0 1 1.76 9.274c.316 2.79.5 5.533.561 8.408-1.883-.061-3.826-.128-5.822-.166a571.922 571.922 0 0 0-8.3-.142c-2.24-.033-4.51-.038-6.784-.047-.01-2.146-.014-4.287-.047-6.404-.029-2.662-.08-5.291-.151-7.825a268.24 268.24 0 0 0-.123-4.122c.632-.023 1.27-.047 1.906-.066m-19.533-1.634c.981.227 2.005.384 3.038.578 2.057.426 4.251.635 6.474.852 1.123.143 2.203.171 3.302.204.628.02 1.27.048 1.897.066-.052 1.341-.094 2.715-.127 4.122a507.802 507.802 0 0 0-.151 7.825 716.501 716.501 0 0 0-.047 6.404c-2.275.005-4.544.014-6.785.043-2.826.028-5.605.075-8.3.142-1.995.038-3.94.104-5.817.166a88.46 88.46 0 0 1 .557-8.404 74.05 74.05 0 0 1 1.76-9.27c.202-.734.377-1.45.594-2.179.151-.464.293-.914.439-1.369.099.024.198.053.297.076.93.247 1.887.493 2.869.744m-13.527-9.663a48.852 48.852 0 0 1 8.53-5.969 48.588 48.588 0 0 1 8.229-3.543c2.566-.815 4.874-1.378 6.803-1.696.406-.061.793-.137 1.166-.199-1.5.45-3.251 1.208-5.025 2.421-1.812 1.217-3.652 2.87-5.336 4.903-1.69 2.027-3.265 4.41-4.62 7.062-.32.668-.674 1.34-.986 2.028-.127.308-.26.596-.391.9-.774-.166-1.524-.337-2.246-.488-.797-.18-1.515-.408-2.236-.583-.708-.194-1.402-.331-2.02-.55-.632-.198-1.217-.397-1.77-.563-.542-.18-1.07-.308-1.504-.493-.529-.208-.991-.374-1.387-.516a53.663 53.663 0 0 1 2.793-2.714M5.389 31.364c1.23-3.856 2.943-7.522 5.147-10.767.533-.829 1.123-1.606 1.703-2.373.292-.384.6-.739.892-1.108l.448-.555.486-.559c.297-.34.6-.672.906-1.004.363.237.802.53 1.326.858.82.502 1.863 1.023 3.062 1.653.146.07.302.156.457.232.16.066.321.142.486.213.335.142.675.289 1.024.436.703.298 1.453.63 2.227.924.642.222 1.312.445 1.991.686-.16.44-.335.881-.505 1.327-.26.739-.49 1.525-.745 2.292-.264.777-.453 1.559-.665 2.35-.1.393-.203.79-.307 1.189-.1.398-.18.8-.269 1.203-.16.805-.363 1.615-.495 2.435-.137.82-.27 1.648-.406 2.477-.406 2.937-.618 5.935-.689 8.934-1.868.066-3.652.156-5.322.237-2.156.094-4.124.208-5.879.322-1.746.094-3.274.218-4.53.308-.844.061-1.566.123-2.156.17.015-1.985.156-3.974.44-5.94a41.555 41.555 0 0 1 1.372-5.94M12.24 68.6c-.576-.776-1.165-1.553-1.699-2.373-2.208-3.25-3.911-6.916-5.152-10.771a42.292 42.292 0 0 1-1.373-5.936c-.122-1.009-.273-2.032-.325-3.026-.033-.503-.085-.981-.085-1.526l-.029-1.392c.59.052 1.312.113 2.157.17 1.255.09 2.783.213 4.529.308 1.755.114 3.723.232 5.879.327 1.67.076 3.454.166 5.322.237.066 2.97.278 6.01.689 8.933.132.83.264 1.654.4 2.478.138.82.336 1.625.501 2.43.09.402.165.815.264 1.203.104.403.208.8.312 1.194.207.79.4 1.577.66 2.335.25.767.477 1.535.741 2.278.17.46.34.91.514 1.36-.693.237-1.368.469-2.014.687-.779.303-1.515.625-2.213.919-.345.151-.684.293-1.015.44-.165.071-.325.142-.486.209-.155.08-.311.16-.462.232-1.203.634-2.25 1.16-3.067 1.658-.519.322-.953.61-1.316.847-.283-.293-.59-.672-.897-1.004-.316-.355-.627-.72-.924-1.099-.298-.37-.614-.734-.911-1.118M32.386 78.89c1.68 2.032 3.52 3.685 5.331 4.907a18.03 18.03 0 0 0 5.001 2.402c-.363-.057-.74-.133-1.137-.194-1.93-.318-4.237-.882-6.803-1.696a48.53 48.53 0 0 1-8.229-3.543 49.252 49.252 0 0 1-8.53-5.964c-.326-.308-.66-.616-.996-.933-.33-.303-.67-.611-1.005-.967-.26-.27-.523-.54-.788-.82.397-.136.859-.307 1.392-.515.444-.195.963-.313 1.505-.498.543-.17 1.133-.36 1.76-.559.613-.213 1.317-.35 2.029-.55.722-.18 1.458-.407 2.25-.587.713-.151 1.454-.312 2.218-.478.127.294.255.587.387.881.302.682.665 1.374.99 2.046 1.36 2.663 2.93 5.04 4.625 7.068m11.96-15.385c-1.118.037-2.232.066-3.33.208-2.2.227-4.36.426-6.455.853-1.038.199-2.081.364-3.058.587-.962.251-1.896.497-2.812.734a7.235 7.235 0 0 0-.306.076c-.142-.445-.284-.89-.43-1.34-.212-.725-.4-1.464-.604-2.203a73.84 73.84 0 0 1-1.76-9.28 88.251 88.251 0 0 1-.561-8.403c1.878.066 3.822.133 5.817.17 2.695.062 5.474.11 8.3.138 2.24.033 4.51.043 6.79.047.004 2.146.013 4.283.046 6.405.029 2.662.085 5.29.151 7.825.029 1.402.076 2.776.128 4.12-.632.02-1.279.044-1.916.063m19.533 1.638c-.98-.227-2.005-.383-3.038-.587-2.052-.417-4.251-.625-6.473-.848-1.128-.142-2.204-.166-3.303-.203-.632-.02-1.27-.043-1.897-.062.047-1.345.095-2.719.123-4.121.075-2.534.123-5.163.15-7.825.034-2.122.043-4.259.053-6.405 2.274-.01 4.543-.019 6.784-.052a649.77 649.77 0 0 0 8.3-.137 421.83 421.83 0 0 0 5.827-.17l-.029 1.132c.005.814-.07 1.629-.113 2.444-.075 1.624-.255 3.23-.424 4.831a74.75 74.75 0 0 1-1.756 9.27c-.203.74-.382 1.455-.599 2.18-.15.463-.292.918-.439 1.368a775.253 775.253 0 0 0-3.166-.815m13.527 9.664c-2.77 2.401-5.666 4.395-8.53 5.963a48.75 48.75 0 0 1-8.228 3.543c-2.567.82-4.874 1.379-6.804 1.696-.406.062-.793.142-1.16.194a17.962 17.962 0 0 0 5.02-2.41c1.811-1.218 3.656-2.871 5.336-4.908 1.693-2.027 3.27-4.405 4.619-7.058.32-.672.674-1.345.986-2.037.127-.303.26-.592.391-.895l2.246.488c.793.18 1.52.407 2.237.587.707.195 1.406.327 2.024.545.627.199 1.212.398 1.764.564.548.18 1.071.303 1.506.492.533.209.99.375 1.387.517a57.948 57.948 0 0 1-2.794 2.719M91.74 46.479c-.052 1.019-.203 2.032-.33 3.041a41.853 41.853 0 0 1-1.373 5.94c-1.231 3.851-2.944 7.518-5.147 10.767-.529.824-1.119 1.601-1.704 2.373-.292.384-.594.74-.891 1.104l-.449.554-.486.56c-.297.345-.599.672-.906 1.003-.363-.236-.797-.53-1.325-.852-.821-.502-1.864-1.023-3.062-1.658-.151-.071-.302-.152-.458-.227-.16-.072-.321-.147-.481-.214-.34-.146-.68-.289-1.029-.44-.703-.299-1.453-.625-2.227-.92l-1.991-.686c.165-.44.335-.886.505-1.326.26-.744.49-1.53.745-2.302.26-.772.458-1.55.66-2.34.105-.394.208-.791.312-1.194.104-.398.175-.8.27-1.203.16-.805.362-1.61.5-2.43l.396-2.478c.203-1.667.443-3.349.528-5.04.052-.847.127-1.7.132-2.548l.033-1.35c1.869-.071 3.652-.161 5.327-.237 2.152-.095 4.124-.213 5.874-.327 1.755-.094 3.275-.218 4.53-.303.849-.057 1.57-.123 2.16-.175l-.032 1.374c.009.506-.052 1.023-.08 1.534" mask="url(#b)"/>
        <path fill="#575756" d="M138.055 26.52c0 1.42.048 2.751.137 3.997.1 1.246.147 2.378.147 3.401h-5.233a56.6 56.6 0 0 0-.061-2.534 42.324 42.324 0 0 1-.076-2.596h-.137c-.377.753-.915 1.483-1.59 2.193-.688.716-1.5 1.346-2.434 1.9-.944.554-2.01 1-3.185 1.336-1.18.331-2.444.497-3.808.497-2.165 0-4.043-.313-5.619-.933-1.576-.62-2.878-1.488-3.916-2.6-1.038-1.11-1.802-2.45-2.293-4.027-.5-1.577-.74-3.297-.74-5.168V2.736h5.505v18.72c0 2.619.609 4.684 1.831 6.195 1.231 1.511 3.133 2.265 5.728 2.265 1.788 0 3.321-.29 4.624-.863 1.292-.577 2.354-1.402 3.17-2.467.826-1.066 1.444-2.331 1.84-3.8.401-1.463.604-3.078.604-4.864V2.736h5.506v23.783zM148.506 10.13a53.04 53.04 0 0 0-.142-3.998 45.13 45.13 0 0 1-.141-3.401h5.227c0 .848.02 1.69.066 2.534.048.848.071 1.71.071 2.596h.142c.377-.753.91-1.483 1.59-2.193.684-.71 1.495-1.35 2.44-1.9.938-.554 2-1 3.174-1.33 1.175-.337 2.45-.503 3.813-.503 2.165 0 4.038.313 5.614.933 1.576.62 2.883 1.488 3.921 2.6 1.033 1.11 1.798 2.454 2.293 4.027.496 1.577.74 3.297.74 5.168v19.25h-5.505v-18.72c0-2.62-.609-4.684-1.836-6.195-1.226-1.511-3.132-2.27-5.723-2.27-1.788 0-3.326.294-4.624.868-1.292.577-2.354 1.402-3.17 2.467-.83 1.066-1.444 2.33-1.845 3.8-.396 1.463-.6 3.078-.6 4.855v15.195h-5.505V10.13zM108.952 45.232h201.5v-.488h-201.5zM301.529 63.706h.797V59.02h-.797v-1.104h3.458c1.029 0 1.807.204 2.543.91.713.672 1.033 1.6 1.033 2.558 0 .871-.311 1.743-.934 2.397-.726.772-1.585 1.018-2.66 1.018h-3.44v-1.094zm2.189-.09h1.085c.698 0 1.302-.085 1.779-.602.396-.436.594-1.07.594-1.63 0-.62-.179-1.297-.637-1.747-.495-.488-1.038-.554-1.717-.554h-1.104v4.533zM285.868 63.84h.806l-.429-1.032h-2.571l-.416 1.032h.788v.967h-2.977v-1.1h.779l2.128-4.694h-.807V57.92h2.44l2.552 5.789h.778v1.099h-3.071v-.967zm-.887-4.41h-.015l-.934 2.364h1.864l-.915-2.364zM295.22 63.706h.798V59.02h-.797v-1.104h5.407v2.075h-1.392v-.9h-1.826v1.724h2.119v1.014h-2.119v1.824h1.826v-.933h1.392V64.8h-5.407zM290.968 62.757c0 .569.406 1.057 1.08 1.057.6 0 1.076-.36 1.076-.952 0-.682-.684-.853-1.25-1.005-.529-.151-.982-.274-1.43-.587-.524-.374-.797-.895-.797-1.51 0-1.138 1.028-1.986 2.203-1.986.505 0 .991.152 1.302.536v-.389h1.062v1.848h-1.24c-.015-.507-.411-.891-.954-.891-.547 0-.99.313-.99.853 0 .672.627.82 1.193.97.566.152 1.095.294 1.566.63.463.356.727.872.727 1.445 0 1.25-.981 2.16-2.312 2.16-.561 0-1.052-.184-1.401-.587v.455h-1.104v-2.047h1.269zM274.869 63.706h.788V59.02h-.788v-1.104h3.237c.542 0 1.075.048 1.514.36.467.337.684.815.684 1.37 0 .62-.335 1.198-.948 1.458.807.318 1.264.957 1.264 1.777 0 .55-.245 1.103-.684 1.459-.49.407-1.052.459-1.675.459h-3.392v-1.094zm2.175-.052h.77c.325 0 .721.01 1.009-.176a.877.877 0 0 0 .41-.748.912.912 0 0 0-.4-.777c-.298-.204-.652-.204-1.01-.204h-.779v1.905zm.014-2.99h.703c.335 0 .656.02.94-.175.226-.146.325-.393.325-.648a.795.795 0 0 0-.378-.692c-.255-.147-.58-.128-.877-.128h-.713v1.644zM268.815 63.706h.797V64.8h-2.972v-1.094h.787v-1.303l-1.934-3.382h-.736v-1.104h2.821v1.104h-.674l1.226 2.269 1.218-2.269h-.699v-1.104h2.813v1.104h-.727l-1.92 3.382zM271.48 62.853h2.613v-1.165h-2.614zM254.384 57.924v1.089h.797v4.69h-.797V64.8h2.972v-1.099h-.783v-4.689h.783v-1.09zM261.802 63.706h.797V64.8h-2.986v-1.094h.797v-4.623h-1.066v1.004h-1.109v-2.17h5.742v2.17h-1.1v-1.004h-1.075zM242.445 59.02h-.788v-1.099h3.26c.718 0 1.34.062 1.911.53.571.465.869 1.104.869 1.815 0 .99-.703 1.985-1.812 2.07l1.137 1.364h.83v1.104h-1.708l-2.312-3.098V63.7h.628v1.104h-2.803V63.7h.788v-4.68zm2.147 2.563c.43 0 .85-.02 1.213-.284.33-.237.5-.602.5-.99 0-.37-.16-.74-.477-.976-.307-.237-.646-.237-1.033-.237h-.963v2.487h.76zM250.131 62.757c0 .569.406 1.057 1.08 1.057.604 0 1.076-.36 1.076-.952 0-.682-.684-.853-1.245-1.005-.533-.151-.982-.274-1.43-.587-.524-.374-.797-.895-.797-1.51 0-1.138 1.028-1.986 2.203-1.986.5 0 .99.152 1.298.536v-.389h1.066v1.848h-1.25c-.01-.507-.406-.891-.944-.891-.547 0-.99.313-.99.853 0 .672.627.82 1.193.97.566.152 1.09.294 1.566.63.463.356.722.872.722 1.445 0 1.25-.981 2.16-2.307 2.16-.561 0-1.057-.184-1.406-.587v.455h-1.104v-2.047h1.27zM222.07 64.802h-1.292l-3.44-4.533v3.44h.798v1.093h-2.973v-1.094h.788v-4.69h-.788V57.92h2.043l3.473 4.613V59.02h-.798v-1.1h2.978v1.1h-.788zM223.568 57.924v1.089h.793v4.69h-.793V64.8h2.973v-1.099h-.784v-4.689h.784v-1.09zM231.668 64.802h-1.519l-2.1-5.783h-.783v-1.1h2.954v1.1h-.694l1.444 3.97 1.543-3.97h-.713v-1.1h2.879v1.1h-.779zM235.35 63.706h.797V59.02h-.797v-1.104h5.407v2.075h-1.388v-.9h-1.835v1.724h2.128v1.014h-2.128v1.824h1.835v-.933h1.388V64.8h-5.407zM189.762 61.36c0-2.022 1.727-3.614 3.85-3.614 2.076 0 3.803 1.601 3.803 3.558 0 2.013-1.694 3.642-3.827 3.642-2.109 0-3.826-1.6-3.826-3.585m6.223-.048c0-1.236-1.07-2.25-2.382-2.25-1.326 0-2.411 1-2.411 2.26 0 1.274 1.042 2.311 2.396 2.311 1.36 0 2.397-1.047 2.397-2.32M198.604 59.02h-.788v-1.099h3.26c.718 0 1.34.062 1.912.53.57.465.868 1.104.868 1.815 0 .99-.703 1.985-1.812 2.07l1.137 1.364h.83v1.104h-1.708l-2.312-3.098V63.7h.628v1.104h-2.803V63.7h.788v-4.68zm2.147 2.563c.43 0 .85-.02 1.213-.284.33-.237.505-.602.505-.99 0-.37-.166-.74-.482-.976-.306-.237-.646-.237-1.033-.237h-.963v2.487h.76zM214.528 57.92v1.098h-.788v3.41c0 .72-.122 1.29-.67 1.815-.514.512-1.198.696-1.925.696-.703 0-1.359-.156-1.878-.64-.594-.549-.73-1.15-.73-1.908v-3.373h-.789V57.92h2.845v1.1h-.665v3.24c0 .326.01.677.212.96.227.323.609.484 1.005.484.364 0 .708-.133.934-.412.25-.299.274-.678.274-1.033v-3.24h-.67V57.92h2.845zM184.63 59.02h-.798v-1.099h5.444v2.075h-1.387v-.9h-1.868v1.767h2.114v1.013h-2.114V63.7h.797v1.104h-2.986V63.7h.797zM179.11 63.706h.797V64.8h-2.973v-1.094h.783v-4.003l-2.014 5.097h-.982l-2.07-5.097v4.003h.848V64.8h-3.033v-1.094h.797V59.02h-.797v-1.104h2.736l1.982 4.865 1.981-4.865h2.742v1.104h-.798zM169.797 57.92v1.098h-.787v3.41c0 .72-.123 1.29-.666 1.815-.519.512-1.203.696-1.934.696-.698 0-1.354-.156-1.873-.64-.595-.549-.732-1.15-.732-1.908v-3.373h-.788V57.92h2.845v1.1h-.665v3.24c0 .326.01.677.213.96.226.323.603.484 1 .484.368 0 .712-.133.939-.412.25-.299.273-.678.273-1.033v-3.24h-.67V57.92h2.845zM159.292 57.924v1.089h.797v4.69h-.797V64.8h2.972v-1.099h-.783v-4.689h.783v-1.09zM156.283 63.706h.798V64.8h-2.982v-1.094h.797v-4.623h-1.071v1.004h-1.109v-2.17h5.742v2.17h-1.1v-1.004h-1.075zM133.67 62.757c0 .569.405 1.057 1.08 1.057.6 0 1.07-.36 1.07-.952 0-.682-.679-.853-1.245-1.005-.533-.151-.981-.274-1.425-.587-.528-.374-.802-.895-.802-1.51 0-1.138 1.029-1.986 2.204-1.986.505 0 .99.152 1.302.536v-.389h1.062v1.848h-1.241c-.015-.507-.41-.891-.953-.891-.548 0-.991.313-.991.853 0 .672.627.82 1.193.97.567.152 1.09.294 1.567.63.462.356.726.872.726 1.445 0 1.25-.98 2.16-2.311 2.16-.562 0-1.057-.184-1.402-.587v.455H132.4v-2.047h1.27zM137.848 61.36c0-2.022 1.722-3.614 3.846-3.614 2.08 0 3.807 1.601 3.807 3.558 0 2.013-1.694 3.642-3.831 3.642-2.109 0-3.822-1.6-3.822-3.585m6.219-.048c0-1.236-1.071-2.25-2.383-2.25-1.326 0-2.406 1-2.406 2.26 0 1.274 1.038 2.311 2.392 2.311 1.359 0 2.397-1.047 2.397-2.32M146.685 59.02h-.787v-1.099h3.26c.722 0 1.344.062 1.915.53.571.465.864 1.104.864 1.815 0 .99-.699 1.985-1.807 2.07l1.137 1.364h.825v1.104h-1.708l-2.311-3.098V63.7h.632v1.104h-2.807V63.7h.787v-4.68zm2.147 2.563c.434 0 .854-.02 1.218-.284.325-.237.5-.602.5-.99 0-.37-.166-.74-.477-.976-.311-.237-.651-.237-1.038-.237h-.962v2.487h.76zM130.974 64.802h-1.293l-3.44-4.533v3.44h.798v1.093h-2.973v-1.094h.788v-4.69h-.788V57.92h2.048l3.468 4.613V59.02h-.797v-1.1h2.977v1.1h-.788zM113.976 60.089c-.41-.654-1.227-1.052-2.014-1.052-1.378 0-2.388.985-2.388 2.279 0 1.231 1.052 2.264 2.369 2.264.84 0 1.604-.38 2.052-1.042h1.505c-.476 1.407-1.986 2.401-3.548 2.401a4.002 4.002 0 0 1-2.675-1.06 3.553 3.553 0 0 1-1.1-2.573c0-1.933 1.652-3.571 3.728-3.571.844 0 1.66.27 2.255.852v-.696h1.142v2.198h-1.326zM116.087 61.36c0-2.022 1.726-3.614 3.845-3.614 2.08 0 3.808 1.601 3.808 3.558 0 2.013-1.694 3.642-3.832 3.642-2.104 0-3.821-1.6-3.821-3.585m6.218-.048c0-1.236-1.07-2.25-2.383-2.25-1.32 0-2.406 1-2.406 2.26 0 1.274 1.038 2.311 2.392 2.311 1.36 0 2.397-1.047 2.397-2.32M307.943 82.806h-2.251l-5.95-7.858v5.954h1.383v1.904h-5.157v-1.904h1.363v-8.124h-1.363v-1.913h3.543l6.02 7.995v-6.082h-1.382v-1.913h5.157v1.913h-1.363z" mask="url(#b)"/>
        <path fill="#575756" d="M282.997 76.839c0-3.51 2.996-6.267 6.681-6.267 3.595 0 6.591 2.77 6.591 6.167 0 3.491-2.944 6.314-6.643 6.314-3.652 0-6.629-2.77-6.629-6.214m10.79-.09c0-2.132-1.858-3.903-4.128-3.903-2.302 0-4.18 1.733-4.18 3.922 0 2.212 1.807 4.016 4.147 4.016 2.354 0 4.161-1.823 4.161-4.035M263.543 81.132h1.402l-.746-1.79h-4.449l-.727 1.79h1.369v1.677h-5.157v-1.91h1.344l3.685-8.123h-1.401v-1.91h4.237l4.43 10.034h1.345v1.909h-5.332v-1.677zm-1.542-7.636h-.02l-1.608 4.093h3.222l-1.594-4.093zM273.588 80.9h1.382v1.9h-5.175v-1.9h1.382v-8.005h-1.854v1.738h-1.92v-3.76h9.96v3.76h-1.911v-1.738h-1.864z" mask="url(#b)"/>
        <path fill="#575756" d="M281.72 80.9h1.364v1.9h-5.157v-1.9h1.383v-8.124h-1.383v-1.904h5.157v1.904h-1.363zM220.154 80.9h1.382v-8.124h-1.382v-1.904h6.001c1.774 0 3.138.35 4.416 1.568 1.222 1.17 1.789 2.776 1.789 4.429 0 1.525-.548 3.027-1.633 4.159-1.255 1.345-2.746 1.772-4.6 1.772h-5.973v-1.9zm3.793-.152h1.897c1.203 0 2.246-.151 3.076-1.051.694-.753 1.029-1.857 1.029-2.828 0-1.066-.317-2.236-1.095-3.022-.873-.839-1.807-.952-2.977-.952h-1.93v7.853zM243.717 70.871v1.9h-1.363v5.92c0 1.237-.213 2.222-1.152 3.141-.905.89-2.09 1.203-3.35 1.203-1.221 0-2.354-.26-3.26-1.099-1.028-.952-1.26-2.008-1.26-3.306v-5.86h-1.363v-1.899h4.926v1.9h-1.152v5.622c0 .569.015 1.17.373 1.668.392.554 1.048.833 1.737.833.636 0 1.222-.232 1.627-.71.43-.526.463-1.17.463-1.79V72.77h-1.152v-1.9h4.926zM253.393 74.632c-.707-1.137-2.128-1.823-3.491-1.823-2.392 0-4.143 1.705-4.143 3.945 0 2.137 1.821 3.922 4.11 3.922 1.453 0 2.779-.644 3.562-1.8h2.604c-.835 2.445-3.444 4.16-6.147 4.16-1.704 0-3.445-.697-4.648-1.834a6.187 6.187 0 0 1-1.915-4.471c0-3.335 2.878-6.177 6.468-6.177 1.472 0 2.893.469 3.916 1.468V70.82h1.982v3.813h-2.298zM210.09 80.9h1.383v-8.124h-1.382v-1.904h9.365v3.59h-2.401V72.91h-3.17v2.97h3.684v1.772h-3.685v3.164h3.17v-1.62h2.402V82.8h-9.365zM195.457 80.9h1.383v-8.124h-1.383v-1.904h9.37v3.59h-2.406V72.91h-3.17v2.97h3.685v1.772h-3.685v3.164h3.17v-1.62h2.407V82.8h-9.37zM189.946 82.806H187.3l-3.624-10.028h-1.368v-1.913h5.124v1.913h-1.208l2.496 6.888 2.68-6.888h-1.222v-1.913h4.977v1.913h-1.35zM172.419 80.9h1.382v1.9h-5.176v-1.9h1.383v-8.005h-1.854v1.738h-1.92v-3.76h9.964v3.76h-1.915v-1.738h-1.864zM180.556 80.9h1.36v1.9h-5.158v-1.9h1.383v-8.124h-1.383v-1.904h5.157v1.904h-1.359zM151.358 74.632c-.708-1.137-2.128-1.823-3.492-1.823-2.392 0-4.142 1.705-4.142 3.945 0 2.137 1.821 3.922 4.11 3.922 1.453 0 2.778-.644 3.562-1.8H154c-.835 2.445-3.44 4.16-6.148 4.16-1.703 0-3.444-.697-4.647-1.834a6.187 6.187 0 0 1-1.916-4.471c0-3.335 2.874-6.177 6.469-6.177 1.472 0 2.892.469 3.916 1.468V70.82h1.982v3.813h-2.298zM165.886 70.871v1.9h-1.364v5.92c0 1.237-.212 2.222-1.151 3.141-.91.89-2.095 1.203-3.35 1.203-1.222 0-2.354-.26-3.265-1.099-1.024-.952-1.255-2.008-1.255-3.306v-5.86h-1.364v-1.899h4.926v1.9h-1.151v5.622c0 .569.014 1.17.373 1.668.391.554 1.042.833 1.736.833.637 0 1.222-.232 1.628-.71.424-.526.457-1.17.457-1.79V72.77h-1.146v-1.9h4.926zM131.799 80.9h1.382v-8.124H131.8v-1.904h9.37v3.59h-2.406V72.91h-3.17v2.97h3.684v1.772h-3.685v3.164h3.17v-1.62h2.407V82.8h-9.37zM131.282 82.806h-5.19v-1.752h1.237l-2.265-2.729-2.288 2.729h1.26v1.752h-5.19v-1.904h1.236l3.529-4.145-3.331-3.979h-1.288v-1.913h5.204v1.762h-1.17l2.038 2.539 2.038-2.54h-1.17v-1.761h5.233v1.913h-1.284l-3.402 3.98 3.515 4.144h1.288zM108.834 80.9h1.383v-8.124h-1.383v-1.904h9.375v3.59h-2.406V72.91h-3.175v2.97h3.685v1.772h-3.685v3.164h3.175v-1.62h2.406V82.8h-9.375z" mask="url(#b)"/>
    </g>
</svg>
