<svg xmlns="http://www.w3.org/2000/svg" width="69.863" height="70" viewBox="0 0 69.863 70"><path d="M63.051,70H51.044a1.368,1.368,0,0,1-1.365-1.367V46.29H48.515a4.32,4.32,0,0,1-4.3-4.276,7.38,7.38,0,0,1-1.348.366v2.425a1.364,1.364,0,1,1-2.729,0V38.22H29.764V67.266h3.82V44.2a1.364,1.364,0,1,1,2.729,0V67.266h3.821V55.378a1.364,1.364,0,1,1,2.729,0V68.633A1.367,1.367,0,0,1,41.5,70H28.4a1.367,1.367,0,0,1-1.364-1.367V42.38A7.417,7.417,0,0,1,25.653,42a4.318,4.318,0,0,1-4.3,4.289H20.185V68.633A1.367,1.367,0,0,1,18.821,70H6.813a1.367,1.367,0,0,1-1.364-1.367V46.29H4.3A4.313,4.313,0,0,1,0,41.977V30.787a10.816,10.816,0,0,1,7.91-10.4,6.372,6.372,0,0,1-1.427-4.011V15.128a6.344,6.344,0,1,1,12.688,0v1.247a6.373,6.373,0,0,1-1.428,4.012,10.761,10.761,0,0,1,3.1,1.417V20.789a7.483,7.483,0,0,1,7.467-7.482h.881A7.484,7.484,0,0,1,27.5,8.575V7.466a7.452,7.452,0,1,1,14.9,0V8.575a7.487,7.487,0,0,1-1.692,4.732h.881a7.483,7.483,0,0,1,7.467,7.482v.991a10.79,10.79,0,0,1,3.064-1.392,6.374,6.374,0,0,1-1.427-4.012V15.128a6.344,6.344,0,1,1,12.687,0v1.247a6.376,6.376,0,0,1-1.427,4.011,10.817,10.817,0,0,1,7.909,10.4v11.19a4.313,4.313,0,0,1-4.3,4.313H64.416V68.633A1.367,1.367,0,0,1,63.051,70ZM57.038,44.843A1.367,1.367,0,0,1,58.4,46.21v1.436a1.375,1.375,0,0,1,.017.2V67.266h3.266V40.878H52.408V67.266h3.266V46.21A1.367,1.367,0,0,1,57.038,44.843Zm-44.213,0a1.367,1.367,0,0,1,1.364,1.367V67.266h3.267V40.878H8.177V67.266h3.266V47.851a1.374,1.374,0,0,1,.017-.2V46.21A1.367,1.367,0,0,1,12.825,44.843ZM63.05,30.559a1.368,1.368,0,0,1,1.365,1.368V43.555H65.56a1.578,1.578,0,0,0,1.575-1.578V30.787a8.057,8.057,0,0,0-8.041-8.056H54.979a8.058,8.058,0,0,0-5.923,2.61V35.01a7.447,7.447,0,0,1-2.117,5.212v1.756a1.577,1.577,0,0,0,1.574,1.577h1.165V36.278a1.365,1.365,0,1,1,2.73,0v1.866h9.278V31.927A1.368,1.368,0,0,1,63.05,30.559Zm-44.23,4.352a1.367,1.367,0,0,1,1.364,1.367v7.277H21.35a1.578,1.578,0,0,0,1.574-1.578V40.185a7.45,7.45,0,0,1-2.083-5.175V25.377a8.056,8.056,0,0,0-5.958-2.646H10.769a8.057,8.057,0,0,0-8.041,8.056v11.19A1.578,1.578,0,0,0,4.3,43.555H5.448V31.926a1.365,1.365,0,1,1,2.73,0v6.218h9.278V36.278A1.368,1.368,0,0,1,18.821,34.911ZM41.5,19.422a1.367,1.367,0,0,1,1.364,1.367V39.582a4.762,4.762,0,0,0,3.464-4.572V20.789a4.748,4.748,0,0,0-4.738-4.747H36.268v3.736a1.364,1.364,0,1,1-2.729,0V16.042H28.309a4.748,4.748,0,0,0-4.739,4.747V35.01a4.762,4.762,0,0,0,3.465,4.571V20.789a1.364,1.364,0,1,1,2.729,0v14.7H40.135v-14.7A1.367,1.367,0,0,1,41.5,19.422Zm15.538-7.916a3.623,3.623,0,0,0-3.614,3.623v1.247a3.615,3.615,0,1,0,7.23,0V15.128A3.623,3.623,0,0,0,57.037,11.506Zm-44.21,0a3.623,3.623,0,0,0-3.615,3.623v1.247a3.615,3.615,0,1,0,7.23,0V15.128A3.623,3.623,0,0,0,12.827,11.506ZM34.949,2.734a4.733,4.733,0,0,0-4.722,4.732V8.575a4.723,4.723,0,1,0,9.445,0V7.466A4.733,4.733,0,0,0,34.949,2.734Z" fill="#555"/><path d="M2.329.4a1.368,1.368,0,1,0,.4.967A1.368,1.368,0,0,0,2.329.4Z" transform="translate(40.135 48.634)" fill="#555"/><path d="M2.329.4A1.362,1.362,0,0,0,.4.4a1.367,1.367,0,0,0,.965,2.334A1.368,1.368,0,0,0,2.329.4Z" transform="translate(33.539 23.52)" fill="#555"/></svg>