<svg xmlns="http://www.w3.org/2000/svg" width="156" height="345" viewBox="0 0 156 345"><path d="M93.588,340.47a19.1,19.1,0,0,1,.119-6.6c.412-1.637.156-2.138-.2-4.335a24.227,24.227,0,0,1-.334-7.153c.177-1.442-.669-2.285,0-3.853.62-1.644.688-3.129,1.631-3.8a12.894,12.894,0,0,0,3.559-2.05l1.473-2.938s2.743-1.222,4.777-1.907c0,0,3.774-1.721,5.308-1.839,1.612-.132,2.595-.185,2.595-.185a4.892,4.892,0,0,0,3.774.73,29.86,29.86,0,0,1,5.268-.352s.658,1.058,4.384,1.441l3.459.892,3.951-.686,4.935-1.721,2.1.427s2.045.309,2.694-.192c.707-.353,3.42-1.269,5.907-2.505l4.05-3.589a5.256,5.256,0,0,0,2.231-1.422l.727-1.716-4.954-1.667-12.756-1.23a1.153,1.153,0,0,1-.354-1.8,16.591,16.591,0,0,0,2.654-2.4l2.477-.52,2.22-.431,2.428-.132,2.25-2.521-1.827-.857-2.252-.849-4.354-.56c0-.563.491-1.509,2.1-1.75,3-1.034,5.632-1.383,7.41-2.554-.619-.162-3.538-.235-2.093-1.28l1.75-.853c.756-.357,2.486-.765,2.663-1.177h-1.809l-1.709-2.632a8.879,8.879,0,0,1-2.5-.446,4.662,4.662,0,0,1-2.319-.471l-3.233.079s-1.986,0-1.986-.314l.423-2.628c.482-.143,1.12-.751,2.044-1.035.787-.358,5.071-1.4,4.355-2.951,0,0,.716.421,2.318-1.211l-1.984-.854h-5.613a7.334,7.334,0,0,1-2.645.378l-6.309-.75-2.487-1.023-3.027-1.06-2.1-1.078a14.774,14.774,0,0,1-3.106.328l-3.981-.437a14.065,14.065,0,0,1-3.922-.338l-8.649-.1s-2.457.1-2.575.187c-.306.088-2.91.422-3.322.643-.668.044-4.364-.031-4.758-.031l-2.968-.253a9.329,9.329,0,0,0,2.2-1.031l2.034-.48.778-1.677,3.124-.815,3.6-1.221-5.445-2.445s1.436-.059,1.75-.4a7.9,7.9,0,0,0,3.125-1.348s4.6.04,5.249-.3a3.5,3.5,0,0,1,2.084,0c.816.343,2.182.794,2.241,1.156a15.883,15.883,0,0,1,3.853.393,43.768,43.768,0,0,0,4.737.916,5.3,5.3,0,0,1,2,.784,4.316,4.316,0,0,0,2.655-.256l3.4.388a10.7,10.7,0,0,1,2.869.853l2.753-1.4a3.715,3.715,0,0,0,0-1.854c1.061,0,1.945-.269,1.7-1.156l.285-1.838a7.577,7.577,0,0,0,1.976-.427s.089-.471,2.241-.471a1.99,1.99,0,0,0-2.419-1.342c-.363-.089-1.414-.8-2.083-1.042a22.853,22.853,0,0,0-2.388,0c-.472.079-.914.487-2.261-1.235l.865-2.25-2.065-.52-1.72-.76a10,10,0,0,1,1.268-2.432s.167-.6,1.976-1.362c.266-.31.511-.7,1.78-2.109l-2.988-.8-14.173.328a31.727,31.727,0,0,1-4.325.549s-2.261-.187-2.8.26a31.02,31.02,0,0,1-6.468,1.465c.9.246,2.576-.122,3.47,1.07,0,0,2.487.146,3.263.146l3.833.22s.57.314.944,2.277l-2.241.823-2.752-.064a48.782,48.782,0,0,1-8.532.392,53.152,53.152,0,0,0-6.095-.76c.374-1.716-1.3-2.142-1.631-2.46l-1.789-.574s-.5-.422-.668-2.275l-1.74-1.05a2.334,2.334,0,0,0,1.062-2.191c0-1.49-.049-1.986.679-2.388l2.329-1.608c-.874-1.309.128-1.711,1.425-1.711a32.963,32.963,0,0,1-4.856-1.221c.1-.534,1.613-1.529,2.083-1.666a9.3,9.3,0,0,1,2.419-.48h1.906l2.182.127a20.708,20.708,0,0,0,2.694.074c.863-.074,2.477,0,2.477,0s.649.622,1.651,1.794l1.789-.427a34.157,34.157,0,0,0,4.717-.054l5.7.952a14.033,14.033,0,0,1,4.816.285h-2.526l.206,1.848a5.987,5.987,0,0,1-1.946,1.981,18.818,18.818,0,0,0,2.075.446c.845.063,1.965.347,2.074,1.152h3.558s1.906-.388,2.279-.388l2.045-.084,1.553-2.627a18.263,18.263,0,0,1,1.985-.818,6.065,6.065,0,0,0,2.222-1.438s2.515-.357,3.677-.515a23.194,23.194,0,0,1,4.618-.313c1.022,0,2.4-.231,2.4-1.534a3.26,3.26,0,0,0,1.642-.892,1.389,1.389,0,0,0-1.781-.335,9.039,9.039,0,0,1-2.033.456,6.825,6.825,0,0,0-1.819,0,4.94,4.94,0,0,1-3.48-2.211,3.16,3.16,0,0,1,2.213-.828l1.837-.57a4.113,4.113,0,0,1,1.73-1.735l-.944-1.9-.413-2.27-2.319-1.147-1.828-.407h-3.5l-1.917-.659-3.332-1.054-2.556-.975L124.1,207.2l-3.106-1.645-2.36-.943-6.113.154-1.681-.154.059-2.354,2.781-2.357,1.651-.755s3.991-1.76,6.5-.5a12.214,12.214,0,0,1,2.605.339c1.474.334,2.968.319,3.833-1.378l8.776-.163,4.364-.313-1.415-1.633-2.86-1a12.428,12.428,0,0,0-3.057-1.907,4.84,4.84,0,0,1-2.181-1.835,6.442,6.442,0,0,1-2.073-1.338,9.1,9.1,0,0,0-2.654-.118c-1.239,0-2.418.362-3.322,0-.786-.295-1.13-.76-1.416-1.922a18.212,18.212,0,0,0,4.108-.916l2.487-.109,3.587-.73c0-.417-1.445-.417-2-.5l-3.057-.9a7.754,7.754,0,0,1,2.368-.6l1.848-.555,1.671-.52a4.428,4.428,0,0,0,3.067-1.839l-2.673-.367-6.055-.511-2.083,1.4-1.986,1.319-3.263.1s-2.978.112-4.56-1.417l.63-1.7.727-1.98,2.85-.421,7.764-.373,7.48.373-1.17-2.084c-.334.47-1.553.363-1.553.363l-2.28-.285-3.538-.505-2.693-.859-3.833,1.285s-1.376.617-3.577-.961a2.054,2.054,0,0,1,2.123-2.28,13.571,13.571,0,0,1,3.126-1.884,1.69,1.69,0,0,1-.374-1.686c.265-.1.816-.514.551-1.882l1.082-1.789,2.731-3.427a8.2,8.2,0,0,0,2.585-2.094l-1.9-.686h-3.9a5.906,5.906,0,0,0-2.585-.78c-.865.006-2.889-.112-3.155-.813l-2.92-2.182-10.339-1.554-1.947-1.271L98.5,149.919l-.765-1.878-5.5-.3v-2.325l4.619-.76a7.06,7.06,0,0,1,1.995-.691,14.5,14.5,0,0,0,3.195-.422c1.023-.338,3.45-.833,4.816-2.1l3.4-1.482,6.113-.549,3.293-.323c.393,0,1.681-.1,1.9-.594,0,0,1.494.016,2.653.016l-5.13-2.074c-.9-1.76-1.946-2.246-2.791-3.413a20.6,20.6,0,0,0,2.448-.5c.923-.368,2.6-.559,3.312-1.608l3.135-.177,1.848-.162-.246-1.764a40.647,40.647,0,0,1-7.263.146c-4.2-.333-6.86-.911-7.449-.676-.639.342-4.708.735-5.838,1.186l-2.093-.269a3.414,3.414,0,0,1,3.842-1.531c1.4,0,2.625,0,3.745-1.682a32.753,32.753,0,0,1,2.584-2.053l1.78-.668-2.046-.685-2.613-1.595a4.575,4.575,0,0,1,.806-2.153l1.523-1.911,1.661-.31s2.467-.083,3.312-1.763a1.812,1.812,0,0,1,.52-2.256l-.453-1.849s.275-.486,1.749-.844l.729-2.084-1.76-2.015-3.017-.254-2.743-.441-2.329-1.947L107.76,101.7c0-.573-.215-1.333.511-1.643a10.2,10.2,0,0,1,3.461-1.029c.934.111,2.417-.177,1.945-1.094l3.293-.716s-.678-.583,1.631-1.823c0,0-.147,0-4.285-2.335l-2.132-.917-1.926-1.1-1.2-1.966-10.743,1.01.4,2.074-1.692,1.633a7.073,7.073,0,0,1-2.555.27c-.885-.137-2.663-.7-3.243-.426a2.113,2.113,0,0,1-2.556-.27V91.347l-.354-2.329-.235-1.867,1.632-3.187,4.4-.574h10.556a6.482,6.482,0,0,0,2.034.264c.836-.186,1.209-.8,3.666-1.862l1.062-1.784c-1.179-.178-1.848-.354-2.379-1.1l-1.386-2.059-2.182-.873-11.982.118-2.123-.509-3.352-.9-.128-1.869a2.016,2.016,0,0,0-.117-1.756s0-.151,1.926-1.333c.707-.039.707-.691,1.984-.824,1.082-.1,3.165-.1,3.165-.1s.314-1.1,1.985-.94a2.524,2.524,0,0,1,2.526,2.309l1.7.891,3.2-.342,2.536.323c1.327.1,1.691.428,2.467.1a4.863,4.863,0,0,1,2.526-.421,5.987,5.987,0,0,1,2.506.751l-.541-2.149-2.83-.52-2.075-1.646-.728-1.775-1.435-4.222-.836-3.971a13.938,13.938,0,0,1-1.1-2.7h-2.526l-5.052.266-3.332-1.535-2.477.451-2.91-1.7-.137-2.554.137-2.393h1.947s-1.14-1.437-1.947-1.652c-.687-.21-.157-2.055-.157-2.055l-.481-2.435,1.051-2.35L95,37.2l5.189-.873,1.66-1.864-2.27-.338-1.965-.363,1.965-1.893L97.2,32.1a12.453,12.453,0,0,1-2.516-.677,10.9,10.9,0,0,1-2.25.677l-2.2-1.216a9.332,9.332,0,0,1-.188-1.706l1.77-.966-1.916-1.755-2.635-2.1a8.373,8.373,0,0,1,1.495-3.355L92.7,21.2l-1.986-1.274-1.966-1.888-.846-3.746.57-2.947,4.571-1.585-.619-2.186-1.71-2.295-1.966-.922L86.2,4.266l1.337-2.02L87.258,0,84.8.3,82.64,1.682l.786,2-.59,2.1L81.145,7.6S80.458,9.13,79.3,9.032c-1.091-.1-3.892-.1-4.638-.3-.747-.225-1.347-.559-1.947,0a7.1,7.1,0,0,1-4.629,1.99c0,.339.737.486,2.025,1.751,1.062.279,4.02,1.181,4.394,1.7.452.608.836.608,1.808.608l3.853-1.328.364,2.828c-.068,1.413-.53,2.148,0,2.774-1.366,1.409-1.052,2.751-2.448,3.639l-1.769-.019c1.4.661.885,1.544.885,2.377l3.265,1.269a9.967,9.967,0,0,0,.313,2.158,14.107,14.107,0,0,1,.374,2.932l-1.848.77h-2.1a10.118,10.118,0,0,1-2.85.358H72.28l.432,2.24,2.241-.641c.885.373,2.241.373,3.125.848l.4,2.952,2.663.466-1.593,2.143c-.648-.663-.728-.295-1.848-.755H72.182a15.887,15.887,0,0,1-3.745,0c-1.484-.177-3.548,0-4.59,1.411,0,0-1.661.275-2.3.471-.551.412-1.1.451-1.7,1.158,0,0,3.194.479,5.277.651,2.114.064,5.544,0,6.271,0a5.014,5.014,0,0,0,2.948-.407l2.566-.544,3.981.7c-1.337,1.348-1.73.917-2.152.737a6.935,6.935,0,0,0-3.4,0,6.239,6.239,0,0,0-3.923,2.574c-.472.475-1.867.53-1.867.986,0,.627.668.877,1.848.877s3.106-.25,3.264.446c.107.834,1.062,2.294,2.073,1.407.334,0,.177-.509,1.346-2.1.482-.286,2.38-.7,3.067.033.078.741-.078,1.933-.619,2.069.127,1.956-.53,2.01-2.448,2.78,0,.627.4.176,1.918.794-.168.651-.443,1.608,1.631,2.526l-2.8.858-3.1.538-2.408-.911-2.428.059a13.69,13.69,0,0,0-3.2.279,5.19,5.19,0,0,1-3.371-.068c-.866-.525-2.28-.378-4.2-.1-1.632.2-2.477.2-2.477.8a26.31,26.31,0,0,1,4.748.455l.549,1.781,3.588.088V62.6a39.316,39.316,0,0,1-3.588,1.617l.915,1.966a4.285,4.285,0,0,1,2.24.971l2.733.422a3.619,3.619,0,0,1,2.594.445,4.925,4.925,0,0,1,2.517,1.206,6.121,6.121,0,0,1,2.8.368,19.961,19.961,0,0,0,3.921,1.721s.6,2.178.236,3.02c-.364.916-.846,1.246-2.152,2.3,0,.568-1.033,1.3-3.017,2.554a2.213,2.213,0,0,1-.383,1.912,11.054,11.054,0,0,1,3.488,1.869c.994,1.829,2.242,1.378,2.32,3.025l-2-.328-2.408-.79a1.364,1.364,0,0,0-1.641.245c-.119.344-.432.872-2.064-.245a21.982,21.982,0,0,0-3.479-.078c-.452.078-.728.8-2.31.667l-2.114-.589L63.287,83.14H61.548l.835-2.324-2.271-.5s.639-2.894-.8-2.894c-1.475-.053-3.263-.779-2.939.525a10.231,10.231,0,0,1,.353,2.212,3.563,3.563,0,0,0-3.636,1.206c1.514.27,2.733.27,2.792.774,0,.269,0,.269-.059,1.971l3.134.7c.286.735.355,2.039-.766,1.638-.638,0-1.817,0-1.64.711,0,.352,1.553.638,2.634,2.3a6.431,6.431,0,0,0-.649,1.849c-.7.043-.982.455.422,1.71-.579,1.427-1.6,1.55-1.838,2.383.335-.083,1.259-.254,2.988,1.891-.265.521-.432.927-2.084,1.148h-2.7l-1.524,2.24a4.753,4.753,0,0,1-2.545.638c-.973-.186-2.683-.377-2.91.388-.108.779,1.386.27,2.231.716.678.28,3.4.564,3.637,1.113,2.163,0,2.909-.721,3.243-.55l1.73.368c.128-.064.659.087,1.739.9l2,.858,2.192.441V109.3l-1.681-.4c-.245-.323-.4-1.074-.894-1.967,0,0,0,.893-2.437-.034a4.452,4.452,0,0,1-.394-1.784l-1.69-.138s-.324-.132-1.975,1.467l-2.429,1.382H50.51l-1.681-.094s-.413-.231-.59-2.26l-3.165,1.078S43.6,108.156,43.6,108.9c0,.489-.51,1.192-1.867,1.535l-2.5.632a6.324,6.324,0,0,1,2.044,2.187,28.783,28.783,0,0,0-3.421.906c-.413.148-.8.5-1.916,1.074l.885,2.2c.521.44,2.114,1.784,3.372,1.868a5.14,5.14,0,0,1,3.243,1.809c1.278,0,2.87,0,5.386-.118a21.9,21.9,0,0,1,5.779-.072c2.515.411,3.42.072,2.752,1.529l-5.229-.1a5.821,5.821,0,0,0-3.823.726l2.2,1.108a5.631,5.631,0,0,0,1.956,1.114c.825.023,1.75-.227,1.75.509-.04.73-.925.961-1.809,1.167a12.688,12.688,0,0,1-3.459-.436c-.825-.372-1.867-.73-2.408-.372a2,2,0,0,1-1.818.515,3.953,3.953,0,0,0-2.467.417l-6.989.8c-.953,0-2.693-.221-2.693-.221a2.544,2.544,0,0,0-1.995,1.531,4.7,4.7,0,0,1,1.808.9c.6.638,1.19.638,2.3.755,1.258.06,2.378-.632,3.38-.117.924.254,2.134.529,2.172,1.112,0,.75-.394,1.688.531,1.966.963.295,5.72.618,7.244-.156.56.156,2.565.406,3.243.676a7.031,7.031,0,0,0,2.919-.1c.953-.167,2.948-.357,3.46-1.633l1.681-.284c.8.5,1.857,1.75,2.467,1.75H66.6L66.52,136.1a3.26,3.26,0,0,0-2.014-.221c-.974.221-4.521.565-5.711.795-1.316.029-2.24.029-2.909,0-.127,1.8-.127,2.324,1.749,3.294a4.038,4.038,0,0,0,2.349,1.482,6.307,6.307,0,0,1,1.8,1.138,1.507,1.507,0,0,0,1.877.843l2.014-.147c.59.265,2.182.314,2.005,1,0,.869-.442,1.168-1.593,2.191-.52.692-1.887,1.276-3.794.853-.746,0-6.241-.52-6.968-1.4l-6.143.034s-1.553-.509-2.083-.034c-.56.284-1.041.534-2.378,1.128,0,0,0,1.653-2.242,1.941-2.241.333-6.093.505-6.093.505l-.443,2.182-3.99.225-1.936.529s-3.577.295-3.48.868c0,.5,1.966.084,3.48.186,1.434.123,6.939-.186,9.415.123,2.468.192,6.8.741,7.647.4.786-.4,2.771-1.28,3.715-.255.923.927,3.007,1.24,4.531,1.24a3.853,3.853,0,0,1,2.034.477v4.015l.276,5.1a3.2,3.2,0,0,0,2.349,2.393l-2.506,2.27-8.177-.549-1.839.549-.973-1.874a4.371,4.371,0,0,1-2.142,0c-.551-.318-1.868-1.352-1.868-1.352l-1.71.112-1.671-.9-1-1.863H35.462l-.472-1.79v-2.206l-2.782-.29a11.774,11.774,0,0,0-2.712.506L27.029,160.6a4.605,4.605,0,0,1-2.771,1.7c-1.692.092-2.556.092-2.772,1.064l3.686,1.863a7.028,7.028,0,0,1,2.329.352l1.357,2.295c.885.549,1.317.632,1.239,2.242a5.338,5.338,0,0,1,2.81.951l-.953,2.71c-2.526,2.148-2.457,3.771-2.457,4.3l-1.17,1.984a12.863,12.863,0,0,0-3.332.485c-1.572.526-1.817.339-3.292-.485a3.361,3.361,0,0,0-1.965,1.03c-.3.692-.678,1.1.246,2.4.932,1.9.932,2.246,1.719,3.569l2.692,1.353,5.623,1.085a11.751,11.751,0,0,0,3.105.068l1.937-.26,4.786-.893s1.967,0,3.952.182c1.848.182,3.4,0,4.069.417.688.412,1.436.726.148,2.57.56.088,6.2.779,6.2.779l2.163.52,1.73.529a5.017,5.017,0,0,1,2.574,2.1,32.339,32.339,0,0,1,4.993.72l1.347,2.305a23.153,23.153,0,0,0,3.921,3.8,17.321,17.321,0,0,1,2.791.1c.679.074,2.1.392,2.93.392.864-.112,1.9-.5,2.3-.565,1.69,1.791,1.495,1.791-.059,2.619l-1.838.4-7.116.255a9.045,9.045,0,0,0-2.525-1.486l-.187-1.721-3.578-.848-1.65-.931-.462-2.236a3.541,3.541,0,0,1-2.615-.485l-3.106-.44-2.2-1.236-3.459-1.564c-.934-.386-2.152-.691-5.013.2l-1.68.716a3.271,3.271,0,0,1-2.7.172,52.025,52.025,0,0,1-6.261.818c-1.937,0-4.767-.471-5.779,0,0,0-.089.31-1.966,1.119-.227.3-.659.608-1.5,1.712a3.014,3.014,0,0,1-.394,1.7l.806,1.687a24.956,24.956,0,0,0-2.733.882l-6.88.908c-2.279,1.9-3.912,1.9-4.422,3.094l6.309-.064c1.112-.059,4.247-.33,4.8-.264a55.471,55.471,0,0,0,6.113,1.21c1.828,0,1.553-.442,2.25-.3.846,0,2.015-.912,2.644-.912a4.409,4.409,0,0,1,2.3.427l1.652.846c.551.148,1.73.814,2.545,3.089a13.7,13.7,0,0,1,2.939.88c1.534,1.373,3,1.779,4.128,2.745.807.55.7.818.089,2.227a6.088,6.088,0,0,1-3.233.244l-2.064.8s.628.176,1.985,1.726c.256.162.727.367.079,1.8l-2.438.823-.629,1.78a10.318,10.318,0,0,1-3.441,1.535,9.06,9.06,0,0,0,1.327,2.275c-.048.442-1.926,1.162-3.312,1.442-1.926,1.412-2.241,1.716-1.553,3.687,0,0-8.865.446-10.221.294-1.71,0-3.814-1.108-5.5-.536l-3.774,1.13L13.3,236.266l-.511,2.353a9.632,9.632,0,0,1-2.536.975c0,.333.177.333,2.123,1.065,1.877,1.539,2.2,1.672,2.25,3.3l-5.74,1.358S7,245.606,7,246.656a2.612,2.612,0,0,0,2.035.931,4.337,4.337,0,0,1,2.978.339,4.082,4.082,0,0,1-.374,1.764c1.749,1.923,2.614,1.844,3.165,1.6.747-.132,4.295-1.02,5.779-.132.334.451,1.121.372,2.359.372h3.6a16.563,16.563,0,0,1,3.2,2.24,3.472,3.472,0,0,0,1.366,1.972c1.278.882,1.661.7,1.8,1.153l1.671.931a6.482,6.482,0,0,0,2.486-1.682,4.291,4.291,0,0,1,2.261-2.374c.52.039,5.023.378,6.32.378l6.761.05s1.328,1.112,2.124.853a5.088,5.088,0,0,0,2.379-1.4c.571-.162,3.774-.789,4.64-.372.638.372,1.041.21-.62,2.021a21.352,21.352,0,0,0-4.727.612v1.913s-1.425-.319-1.985-.48l-1.809-.451c-2.771.784-4.059-.122-6.093.931-.452,0-.924-.48-1.966,1.348a3.6,3.6,0,0,0-1.524.814c-.659.608-2.153,2.937-2.733,3.158-.659.323-.767.549-.854,2.246-2.6,1.162-3.145.686-4.551.342l-1.78,1.505c-.334.339-1.09,1.844-1.926,1.72-.963-.234-3.686-.994-4.443-.72-.864.344-3.6.72-4.5,1.128a7.4,7.4,0,0,1-4.285,1.187,21.208,21.208,0,0,0-4.542.26l-2.958,2.55L9.18,276.01a5.386,5.386,0,0,1-.786,3.443,2.04,2.04,0,0,0,.668,1.716c.728.671.531,1.675,2.811,1.675s5.484-.607,8.02.638c.089.328,2,.328,2.535.666.393.242,1.965.956,1.965.956a5.366,5.366,0,0,0,2.409-.019c1.7-.431,3.293-.872,3.293-2.221,0,0,.314,0,1.965-1.112l.324,2.9a17.291,17.291,0,0,1,4.256.309c.315.265,1.691-.255,2.123-.309.473-.264,2.339,0,2.438.431,0,.472.3,2.354-.954,2.354a13.581,13.581,0,0,0-2.388.093l-2.869-.5a8.813,8.813,0,0,0-3.479.5l-19.874,2.281L9.456,291.96l-2.035-.2A9.963,9.963,0,0,0,5.327,293l-1.946,1.647L0,295.921l4.482.893,2.939,1.848.835,1.986,2.419-1.284,1.956.676,3.8,1.055,3.46-.844,3.185-1.784-2.722-.828.089-1.716,2.5-.976,2.733-.888h3.185l3.1,1.2,2.555,1.035,1.435,1.893H37.7l5.387,1.24,3.006-.55,14.832,1.447,3.961,1.088,1.887,1.549s4.876.519,5.789.519a12.768,12.768,0,0,1,4.1.363c1.041.418,1.415.785.816,2.628-1.09,0-6.6.55-8.187.378-1.612-.2-3.028-.378-4.787-.661l-5.573-1.971a7.826,7.826,0,0,0-3.716-.824c-1.593.088-7.489.652-9.3.4a14.667,14.667,0,0,1-4.108-1.809,10.429,10.429,0,0,0-5.544.27c-2.595.814-3.362.455-4.816,1.587l-.923,3.5-3.5-.318-2.635.014,1.524,2.054a10.051,10.051,0,0,0,2.723.755c.609.109,2.634.148,3.176.333.392.182,1.935,1.012,1.5,1.815l1.061,2.584a48.458,48.458,0,0,0,7.127.153,11.667,11.667,0,0,0,3.646-2.737l2.516-.093a15.116,15.116,0,0,0,5.622.6l5.9-.6c1.563-.979,2.359-.475,3.744-.769a4.468,4.468,0,0,0,3.332-2.721,41.474,41.474,0,0,0,5.721.111c.963-.111,3.823-1.181,4.679-.47,1.041.793,2.074.793,3.165,1.49l-.531,2.869-3.931-.27.039,1.7,4.069,2.382s-.649,4.61-.649,6.683a21.24,21.24,0,0,0,.866,6.291c.707,1.549,1.454,6.77.767,11.281-.414,2.127-.64,3.51-.906,4.53,0,0,7.079,0,14.31-.239a36.091,36.091,0,0,0-.276-4.291" fill="#e3e3e3"/></svg>