<svg xmlns="http://www.w3.org/2000/svg" width="21.251" height="27.789" viewBox="0 0 21.251 27.789"><path d="M19.436,27.789,1.579,27.78A1.494,1.494,0,0,1,.014,26.222c0-.046,0-3.272,0-7.364V15.313C0,9.057,0,1.966,0,1.837A1.856,1.856,0,0,1,1.871,0h8.455a4.369,4.369,0,0,1,2.464.871L20.135,6.89A3.419,3.419,0,0,1,21.251,9.3V25.932A1.838,1.838,0,0,1,19.436,27.789Zm-13.07-10.3a.549.549,0,0,0-.513.275.539.539,0,0,0,.061.573l4.226,6.016a.595.595,0,0,0,1,0l4.226-6.016a.541.541,0,0,0,.061-.573.549.549,0,0,0-.513-.275H12.443V11.523a.743.743,0,0,0-.727-.72H9.563a.722.722,0,0,0-.7.72v5.963Zm5.142-15.08v5.1a1.173,1.173,0,0,0,1.238,1.277h6.826Z" fill="#fff"/></svg>