<svg xmlns="http://www.w3.org/2000/svg" width="70" height="70" viewBox="0 0 70 70"><path d="M4.667,9.333A4.667,4.667,0,1,1,9.333,4.667,4.672,4.672,0,0,1,4.667,9.333Zm0-7A2.334,2.334,0,1,0,7,4.667,2.336,2.336,0,0,0,4.667,2.333Z" transform="translate(60.667 14)" fill="#555"/><path d="M4.667,9.333A4.667,4.667,0,1,1,9.333,4.667,4.672,4.672,0,0,1,4.667,9.333Zm0-7A2.334,2.334,0,1,0,7,4.667,2.336,2.336,0,0,0,4.667,2.333Z" transform="translate(0 52.5)" fill="#555"/><path d="M11.738,4.976,1.674.117A1.167,1.167,0,0,0,.66,2.218L10.725,7.077a1.167,1.167,0,0,0,1.014-2.1Z" transform="translate(51.333 10.499)" fill="#555"/><path d="M4.667,9.333A4.667,4.667,0,1,1,9.333,4.667,4.672,4.672,0,0,1,4.667,9.333Zm0-7A2.333,2.333,0,1,0,7,4.667,2.336,2.336,0,0,0,4.667,2.334Z" transform="translate(47.833 60.667)" fill="#555"/><path d="M11.738,4.976,1.674.117A1.167,1.167,0,0,0,.66,2.218L10.725,7.077a1.167,1.167,0,0,0,1.014-2.1Z" transform="translate(38.499 57.165)" fill="#555"/><path d="M4.667,9.333A4.667,4.667,0,1,1,9.333,4.667,4.672,4.672,0,0,1,4.667,9.333Zm0-7A2.334,2.334,0,1,0,7,4.667,2.336,2.336,0,0,0,4.667,2.333Z" transform="translate(30.333 31.5)" fill="#555"/><path d="M9.616,6.271,1.884.245A1.167,1.167,0,1,0,.449,2.087L8.181,8.112A1.167,1.167,0,1,0,9.616,6.271Z" transform="translate(23.333 26.834)" fill="#555"/><path d="M12.833,25.667A12.834,12.834,0,1,1,25.667,12.833,12.848,12.848,0,0,1,12.833,25.667Zm0-23.334a10.5,10.5,0,1,0,10.5,10.5A10.512,10.512,0,0,0,12.833,2.333Z" transform="translate(43.167 30.333)" fill="#555"/><path d="M4.667,9.333A4.667,4.667,0,1,1,9.333,4.667,4.672,4.672,0,0,1,4.667,9.333Zm0-7A2.334,2.334,0,1,0,7,4.667,2.336,2.336,0,0,0,4.667,2.333Z" transform="translate(51.333 35)" fill="#555"/><path d="M7,9.333A12.833,12.833,0,0,1,.582,7.6,1.171,1.171,0,0,1,0,6.593V3.517A3.571,3.571,0,0,1,3.615,0h6.769A3.573,3.573,0,0,1,14,3.519V6.594A1.168,1.168,0,0,1,13.418,7.6,12.838,12.838,0,0,1,7,9.333Zm-3.385-7A1.238,1.238,0,0,0,2.333,3.519V5.9A10.52,10.52,0,0,0,7,6.982,10.515,10.515,0,0,0,11.667,5.9V3.519a1.238,1.238,0,0,0-1.283-1.185Z" transform="translate(49 46.667)" fill="#555"/><path d="M12.833,25.666A12.833,12.833,0,1,1,25.667,12.833,12.848,12.848,0,0,1,12.833,25.666Zm0-23.333a10.5,10.5,0,1,0,10.5,10.5A10.512,10.512,0,0,0,12.833,2.333Z" transform="translate(15.167 44.333)" fill="#555"/><path d="M4.667,9.333A4.667,4.667,0,1,1,9.333,4.667,4.672,4.672,0,0,1,4.667,9.333Zm0-7A2.334,2.334,0,1,0,7,4.667,2.336,2.336,0,0,0,4.667,2.333Z" transform="translate(23.333 49)" fill="#555"/><path d="M7,9.333A12.833,12.833,0,0,1,.582,7.6,1.171,1.171,0,0,1,0,6.593V3.517A3.571,3.571,0,0,1,3.615,0h6.769A3.573,3.573,0,0,1,14,3.519V6.594A1.168,1.168,0,0,1,13.418,7.6,12.838,12.838,0,0,1,7,9.333Zm-3.385-7A1.238,1.238,0,0,0,2.333,3.519V5.9A10.519,10.519,0,0,0,7,6.982,10.518,10.518,0,0,0,11.667,5.9V3.519a1.238,1.238,0,0,0-1.283-1.185Z" transform="translate(21 60.667)" fill="#555"/><path d="M12.833,25.667A12.834,12.834,0,1,1,25.667,12.833,12.848,12.848,0,0,1,12.833,25.667Zm0-23.333a10.5,10.5,0,1,0,10.5,10.5A10.511,10.511,0,0,0,12.833,2.334Z" transform="translate(0 15.167)" fill="#555"/><path d="M4.667,9.333A4.667,4.667,0,1,1,9.333,4.667,4.672,4.672,0,0,1,4.667,9.333Zm0-7A2.334,2.334,0,1,0,7,4.667,2.336,2.336,0,0,0,4.667,2.333Z" transform="translate(8.167 19.833)" fill="#555"/><path d="M7,9.333A12.833,12.833,0,0,1,.582,7.6,1.171,1.171,0,0,1,0,6.593V3.517A3.571,3.571,0,0,1,3.615,0h6.769A3.573,3.573,0,0,1,14,3.519V6.594A1.168,1.168,0,0,1,13.418,7.6,12.838,12.838,0,0,1,7,9.333Zm-3.385-7A1.238,1.238,0,0,0,2.333,3.519V5.9A10.52,10.52,0,0,0,7,6.982,10.515,10.515,0,0,0,11.667,5.9V3.519a1.238,1.238,0,0,0-1.283-1.185Z" transform="translate(5.833 31.5)" fill="#555"/><path d="M12.833,25.667A12.834,12.834,0,1,1,25.667,12.833,12.848,12.848,0,0,1,12.833,25.667Zm0-23.333a10.5,10.5,0,1,0,10.5,10.5A10.511,10.511,0,0,0,12.833,2.334Z" transform="translate(28)" fill="#555"/><path d="M4.667,9.333A4.667,4.667,0,1,1,9.333,4.667,4.672,4.672,0,0,1,4.667,9.333Zm0-7A2.334,2.334,0,1,0,7,4.667,2.336,2.336,0,0,0,4.667,2.333Z" transform="translate(36.167 4.667)" fill="#555"/><path d="M7,9.333A12.833,12.833,0,0,1,.582,7.6,1.171,1.171,0,0,1,0,6.593V3.517A3.571,3.571,0,0,1,3.615,0h6.769A3.573,3.573,0,0,1,14,3.519V6.594A1.168,1.168,0,0,1,13.418,7.6,12.838,12.838,0,0,1,7,9.333Zm-3.385-7A1.238,1.238,0,0,0,2.333,3.519V5.9A10.52,10.52,0,0,0,7,6.982,10.515,10.515,0,0,0,11.667,5.9V3.519a1.238,1.238,0,0,0-1.283-1.185Z" transform="translate(33.833 16.333)" fill="#555"/><path d="M10.139.407A1.168,1.168,0,0,0,8.494.28L.409,7.2A1.166,1.166,0,1,0,1.925,8.97L10.01,2.052A1.166,1.166,0,0,0,10.139.407Z" transform="translate(19.916 11.667)" fill="#555"/><path d="M9.1,9.8,2.1.466a1.166,1.166,0,0,0-1.867,1.4l7,9.333A1.166,1.166,0,0,0,9.1,9.8Z" transform="translate(46.667 21.001)" fill="#555"/><path d="M8.617.467A1.167,1.167,0,0,0,6.984.233L.467,5.12a1.166,1.166,0,0,0,1.4,1.865L8.384,2.1A1.165,1.165,0,0,0,8.617.467Z" transform="translate(37.575 46.558)" fill="#555"/><path d="M9.333,0H1.167a1.167,1.167,0,0,0,0,2.333H9.333A1.167,1.167,0,0,0,9.333,0Z" transform="translate(7 56)" fill="#555"/><path d="M4.667,9.333A4.667,4.667,0,1,1,9.333,4.667,4.672,4.672,0,0,1,4.667,9.333Zm0-7A2.334,2.334,0,1,0,7,4.667,2.336,2.336,0,0,0,4.667,2.333Z" transform="translate(8.167)" fill="#555"/><path d="M1.167,0A1.166,1.166,0,0,0,0,1.167V9.333a1.167,1.167,0,1,0,2.333,0V1.167A1.166,1.166,0,0,0,1.167,0Z" transform="translate(11.667 7)" fill="#555"/></svg>