<svg xmlns="http://www.w3.org/2000/svg" width="70" height="70" viewBox="0 0 70 70"><path d="M64.354,70H30.484a5.652,5.652,0,0,1-5.645-5.646V36.129H22.581v5.055L9.944,36.129h-4.3A5.651,5.651,0,0,1,0,30.484V5.645A5.651,5.651,0,0,1,5.645,0H37.258A5.651,5.651,0,0,1,42.9,5.645v23.71h4.516V27.1a2.261,2.261,0,0,1,2.258-2.258h2.258A2.261,2.261,0,0,1,54.194,27.1v2.257h2.258V27.1a2.261,2.261,0,0,1,2.258-2.258h2.258A2.261,2.261,0,0,1,63.226,27.1v2.257h1.129A5.652,5.652,0,0,1,70,35V64.354A5.652,5.652,0,0,1,64.354,70ZM27.1,40.645v23.71a3.391,3.391,0,0,0,3.387,3.388H64.354a3.391,3.391,0,0,0,3.388-3.388V40.645Zm0-4.516v2.258H67.742V35a3.391,3.391,0,0,0-3.388-3.388H63.226v2.258a2.261,2.261,0,0,1-2.258,2.258H58.71a2.261,2.261,0,0,1-2.258-2.258V31.612H54.194v2.258a2.261,2.261,0,0,1-2.258,2.258H49.677a2.261,2.261,0,0,1-2.258-2.258V31.612H42.79a5.666,5.666,0,0,1-5.531,4.516ZM5.645,2.258A3.391,3.391,0,0,0,2.258,5.645V30.484a3.391,3.391,0,0,0,3.387,3.387h4.733l9.945,3.978V33.871H37.258a3.391,3.391,0,0,0,3.387-3.387V5.645a3.391,3.391,0,0,0-3.387-3.387ZM58.71,27.1v6.773h2.259V27.1Zm-9.032,0v6.773h2.259V27.1Z" fill="#555"/><path d="M9.53,18.989a1.775,1.775,0,0,0-.013-.215.981.981,0,0,1,.006-.33.445.445,0,0,0-.01-.217,1.321,1.321,0,0,1-.016-.358c.009-.072-.032-.115,0-.192s.033-.156.078-.19a.611.611,0,0,0,.17-.1l.07-.147s.132-.061.229-.1a1.229,1.229,0,0,1,.254-.093l.124-.009a.227.227,0,0,0,.181.037,1.37,1.37,0,0,1,.252-.018s.032.052.21.072l.165.045.19-.034.236-.086.1.021s.1.015.128-.01.164-.063.283-.125l.193-.179a.248.248,0,0,0,.107-.071l.034-.086-.237-.083-.61-.061a.059.059,0,0,1-.017-.09.815.815,0,0,0,.127-.12l.118-.026.106-.021.116-.007.108-.126-.087-.042-.108-.042-.208-.028c0-.029.023-.076.1-.088a1.807,1.807,0,0,0,.354-.128c-.029-.008-.169-.011-.1-.064l.085-.042c.035-.018.119-.038.127-.059H12.29l-.082-.132a.406.406,0,0,1-.119-.022.21.21,0,0,1-.111-.023l-.155,0s-.1,0-.1-.016l.021-.131a.908.908,0,0,1,.1-.052c.038-.018.243-.07.209-.148,0,0,.034.021.11-.06l-.094-.043H11.8a.32.32,0,0,1-.126.019l-.3-.037-.119-.051-.145-.053-.1-.054a.658.658,0,0,1-.149.016l-.191-.022a.653.653,0,0,1-.187-.016l-.414,0s-.118,0-.123.009a1.469,1.469,0,0,0-.159.032c-.032,0-.209,0-.228,0l-.142-.013a.444.444,0,0,0,.106-.052l.1-.024.037-.084.15-.04.172-.061-.261-.123s.069,0,.084-.019a.372.372,0,0,0,.149-.068,1.44,1.44,0,0,0,.252-.014.159.159,0,0,1,.1,0c.039.016.1.039.106.057a.737.737,0,0,1,.184.019,1.868,1.868,0,0,0,.227.046.26.26,0,0,1,.1.039.192.192,0,0,0,.127-.012l.162.019a.5.5,0,0,1,.138.043l.131-.07a.2.2,0,0,0,0-.092c.05,0,.093-.014.081-.058l.014-.092a.347.347,0,0,0,.094-.021s0-.023.107-.023a.094.094,0,0,0-.116-.068c-.017,0-.068-.04-.1-.051a.97.97,0,0,0-.114,0c-.022,0-.043.024-.108-.062l.041-.113-.1-.026-.083-.038a.532.532,0,0,1,.061-.122s.008-.03.094-.068c.013-.016.025-.035.086-.106l-.143-.04-.678.016a1.432,1.432,0,0,1-.207.027s-.108-.009-.134.013a1.423,1.423,0,0,1-.309.073c.043.013.123-.005.166.054,0,0,.119.007.156.007l.183.011s.028.016.045.114l-.107.041-.132,0a2.246,2.246,0,0,1-.408.019,2.715,2.715,0,0,0-.292-.038c.018-.085-.062-.107-.078-.123l-.085-.028s-.024-.021-.032-.114L9.3,13.47a.118.118,0,0,0,.051-.11c0-.075,0-.1.032-.12l.112-.081c-.042-.065.005-.085.067-.085a1.557,1.557,0,0,1-.232-.061c0-.027.077-.077.1-.083a.41.41,0,0,1,.116-.024h.091l.1.006a1.035,1.035,0,0,0,.129,0c.042,0,.118,0,.118,0s.031.031.079.09l.085-.021a1.506,1.506,0,0,0,.225,0l.272.048a.653.653,0,0,1,.231.014h-.121l.009.093a.286.286,0,0,1-.093.1.988.988,0,0,0,.1.022c.041,0,.094.017.1.058h.17s.091-.019.109-.019l.1,0,.074-.131a.82.82,0,0,1,.1-.041.281.281,0,0,0,.106-.072l.177-.026a1.108,1.108,0,0,1,.22-.015c.05,0,.116-.011.116-.077a.158.158,0,0,0,.078-.045c-.019-.023-.061-.038-.085-.016a.419.419,0,0,1-.1.022.321.321,0,0,0-.087,0,.234.234,0,0,1-.166-.111.148.148,0,0,1,.106-.041l.088-.029a.2.2,0,0,1,.083-.086l-.045-.1-.02-.114-.111-.058-.087-.02h-.168l-.091-.032-.16-.053-.122-.048-.176-.094-.149-.082-.112-.047-.292.007-.081-.007,0-.118.133-.118.079-.038a.428.428,0,0,1,.31-.024.566.566,0,0,1,.125.017.142.142,0,0,0,.183-.07l.42-.007.208-.016-.067-.082-.137-.05a.6.6,0,0,0-.146-.1.239.239,0,0,1-.105-.092.321.321,0,0,1-.1-.067.4.4,0,0,0-.127-.006.458.458,0,0,1-.159,0c-.038-.014-.054-.037-.068-.1a.8.8,0,0,0,.2-.046l.119,0,.171-.037c0-.021-.069-.021-.1-.025l-.146-.044a.355.355,0,0,1,.113-.03l.089-.028.08-.025a.209.209,0,0,0,.147-.092l-.128-.018-.289-.026-.1.07-.1.066-.156,0a.33.33,0,0,1-.218-.07l.03-.085.034-.1.137-.021.372-.018.358.018-.056-.1c-.016.023-.075.018-.075.018l-.109-.014-.17-.025-.128-.043-.183.064s-.066.031-.171-.048a.1.1,0,0,1,.1-.114.617.617,0,0,1,.149-.094.089.089,0,0,1-.018-.085c.012-.005.039-.026.027-.094l.052-.09.131-.171a.39.39,0,0,0,.123-.106l-.09-.034H10.91a.274.274,0,0,0-.123-.039c-.042,0-.139-.005-.151-.041l-.14-.109L10,9.4l-.093-.063-.157-.093-.037-.094-.263-.015V9.02l.221-.038a.33.33,0,0,1,.1-.034.672.672,0,0,0,.153-.021.6.6,0,0,0,.23-.105l.162-.075.293-.027.158-.016c.019,0,.08,0,.09-.029h.127l-.245-.1A.966.966,0,0,0,10.6,8.4a.948.948,0,0,0,.117-.025c.044-.018.125-.028.159-.081l.149-.008.089-.008L11.1,8.189a1.847,1.847,0,0,1-.347.007,3.184,3.184,0,0,0-.356-.034c-.031.017-.225.037-.279.06l-.1-.013a.161.161,0,0,1,.184-.077.175.175,0,0,0,.179-.084s.017-.018.123-.1l.085-.033-.1-.034-.125-.08a.237.237,0,0,1,.038-.108l.074-.1.079-.015a.2.2,0,0,0,.159-.088.093.093,0,0,1,.025-.113l-.021-.093s.013-.024.083-.042l.035-.1-.084-.1-.145-.013L10.483,7l-.112-.1-.176-.073c0-.029-.01-.067.025-.083a.464.464,0,0,1,.165-.051c.044.005.116-.009.093-.055l.158-.036s-.032-.029.077-.091c0,0-.007,0-.2-.117l-.1-.045L10.314,6.3l-.057-.1-.514.05.02.1-.081.082a.339.339,0,0,1-.123.013c-.042-.007-.127-.035-.155-.021a.1.1,0,0,1-.122-.013v-.1L9.265,6.2l-.011-.093.078-.159.211-.029h.5a.3.3,0,0,0,.1.013c.04-.01.058-.04.175-.094l.051-.089c-.057-.009-.088-.018-.114-.055l-.066-.1-.1-.043-.574.006-.1-.026-.16-.044-.006-.094A.108.108,0,0,0,9.24,5.3s0-.007.093-.066c.034,0,.034-.034.1-.041s.151,0,.151,0,.015-.055.1-.047a.123.123,0,0,1,.121.115l.081.045.154-.017.121.016c.063.005.08.021.118.005a.222.222,0,0,1,.12-.021.273.273,0,0,1,.12.037l-.025-.107-.136-.026-.1-.082-.035-.089-.068-.211-.04-.2a.749.749,0,0,1-.053-.135H9.931l-.241.014-.16-.077-.118.023-.139-.086-.007-.128.007-.12h.093s-.054-.071-.093-.082-.008-.1-.008-.1l-.023-.122.05-.118.293-.067.247-.044.08-.093L9.8,3.453,9.71,3.436,9.8,3.341l-.114.011a.571.571,0,0,1-.12-.033.509.509,0,0,1-.107.033l-.106-.061a.512.512,0,0,1-.009-.086l.085-.048L9.341,3.07l-.126-.105A.433.433,0,0,1,9.286,2.8l.189.01-.1-.063-.094-.095-.04-.187.027-.147.219-.079-.03-.11-.083-.115-.094-.046-.122,0,.064-.1-.013-.113L9.1,1.762l-.1.069.038.1L9,2.037l-.082.091s-.032.077-.088.072-.186,0-.222-.015-.064-.028-.094,0a.332.332,0,0,1-.221.1c0,.017.035.024.1.087a.761.761,0,0,1,.21.085c.022.031.041.031.087.031l.184-.067.017.141c0,.071-.025.108,0,.139-.065.07-.051.137-.117.182H8.691c.066.033.043.077.043.119l.156.064a.514.514,0,0,0,.015.108.738.738,0,0,1,.017.147l-.088.038h-.1a.466.466,0,0,1-.137.018H8.5l.021.112.107-.033c.043.019.107.019.149.043l.02.148.127.023-.075.107c-.031-.034-.035-.015-.089-.038H8.493a.724.724,0,0,1-.179,0,.23.23,0,0,0-.219.071s-.08.013-.111.023-.052.022-.081.057c0,0,.153.024.253.033s.265,0,.3,0A.229.229,0,0,0,8.6,3.9l.122-.027.191.034c-.064.068-.083.046-.1.037a.319.319,0,0,0-.162,0,.3.3,0,0,0-.188.129c-.023.023-.089.027-.089.05s.032.044.088.044.148-.012.156.022.05.114.1.07c.016,0,.008-.025.064-.1.022-.014.114-.035.146,0,0,.037,0,.1-.029.1.006.1-.025.1-.117.139,0,.031.02.008.092.04-.009.032-.021.08.078.126l-.134.043-.149.026-.115-.045-.116,0a.638.638,0,0,0-.153.014.238.238,0,0,1-.161,0,.321.321,0,0,0-.2,0c-.078.01-.119.01-.119.04a1.2,1.2,0,0,1,.227.023l.027.089.171,0v.123a1.74,1.74,0,0,1-.171.081l.044.1a.2.2,0,0,1,.106.049l.131.021a.165.165,0,0,1,.124.022.227.227,0,0,1,.12.06.278.278,0,0,1,.134.018,1,1,0,0,0,.187.086.362.362,0,0,1,.012.151c-.018.046-.041.062-.1.116,0,.028-.05.065-.145.128a.112.112,0,0,1-.018.1.537.537,0,0,1,.167.094c.047.091.106.068.11.15l-.1-.016-.116-.039A.063.063,0,0,0,8.633,6c-.006.017-.021.043-.1-.012a1.016,1.016,0,0,0-.166,0c-.022,0-.035.039-.111.033l-.1-.029-.088-.087H7.984l.04-.116-.108-.025s.03-.144-.038-.144-.156-.039-.141.026a.521.521,0,0,1,.017.11.167.167,0,0,0-.174.061c.072.013.13.013.133.038s0,.013,0,.1l.15.035c.014.036.017.1-.037.082-.03,0-.087,0-.079.036,0,.017.075.032.127.115a.318.318,0,0,0-.031.093c-.034,0-.047.022.02.085-.028.072-.077.078-.088.12.016,0,.06-.013.143.095-.013.026-.021.046-.1.057h-.13l-.073.113a.218.218,0,0,1-.121.031c-.047-.009-.128-.019-.139.02s.066.013.107.036.162.027.174.056c.1,0,.139-.036.155-.028l.083.019c.006,0,.031,0,.083.045l.1.043.105.022v.187l-.081-.02c-.012-.016-.019-.054-.043-.1,0,0,0,.044-.117,0A.22.22,0,0,1,7.9,7L7.816,7s-.016-.006-.095.073l-.117.069H7.457l-.081,0s-.02-.011-.029-.114L7.2,7.076s-.071.081-.071.118-.024.059-.089.076L6.918,7.3a.3.3,0,0,1,.1.109,1.389,1.389,0,0,0-.164.045c-.02.007-.038.025-.091.054l.042.11a.362.362,0,0,0,.161.094.242.242,0,0,1,.155.09c.061,0,.137,0,.257-.006a1,1,0,0,1,.277,0c.12.02.164,0,.131.077l-.25,0a.268.268,0,0,0-.183.036l.106.055c.036.024.058.05.094.056s.084-.011.084.025-.045.048-.087.059a.609.609,0,0,1-.165-.022c-.04-.018-.089-.037-.116-.018a.091.091,0,0,1-.086.025.185.185,0,0,0-.118.021l-.334.04c-.046,0-.129-.011-.129-.011a.121.121,0,0,0-.1.077.215.215,0,0,1,.086.045c.029.032.057.032.111.038s.113-.031.161-.005.1.026.1.055-.019.085.025.1a.771.771,0,0,0,.347-.008c.027.008.123.021.155.034a.329.329,0,0,0,.139-.005c.045-.008.141-.017.165-.081l.081-.014c.038.025.088.088.118.088h.23l0,.1a.147.147,0,0,0-.1-.011c-.046.011-.216.028-.273.04s-.108,0-.139,0c-.007.09-.007.116.084.164a.191.191,0,0,0,.113.075A.3.3,0,0,1,8,8.878a.071.071,0,0,0,.089.042l.1-.008c.029.014.1.016.1.05s-.021.058-.077.11a.172.172,0,0,1-.181.043.9.9,0,0,1-.334-.07H7.393s-.075-.025-.1,0-.05.027-.114.056c0,0,0,.082-.107.1s-.291.025-.291.025l-.021.11-.192.011-.092.026s-.171.015-.167.044.094,0,.167.009.331-.009.45.005a1.887,1.887,0,0,0,.366.02c.037-.02.132-.064.177-.012a.334.334,0,0,0,.217.062.177.177,0,0,1,.1.023v.2l.013.255a.16.16,0,0,0,.113.12l-.12.114L7.4,10.184l-.089.027-.046-.094a.2.2,0,0,1-.1,0c-.026-.015-.089-.067-.089-.067l-.082,0-.08-.045-.048-.093H6.737l-.022-.089V9.717L6.581,9.7a.541.541,0,0,0-.13.026l-.118.051a.219.219,0,0,1-.132.085c-.081,0-.122,0-.133.053l.177.093a.338.338,0,0,1,.111.018l.065.115c.042.027.063.032.059.112a.248.248,0,0,1,.134.047l-.045.136a.27.27,0,0,0-.117.215l-.056.1a.589.589,0,0,0-.16.024c-.075.025-.086.017-.157-.024a.159.159,0,0,0-.094.051.094.094,0,0,0,.011.12c.045.1.045.113.083.179l.129.067.269.054a.544.544,0,0,0,.149,0l.093-.013.229-.044s.094,0,.189.009a.705.705,0,0,1,.194.02c.033.021.069.036.008.129l.3.039.1.026.083.026a.237.237,0,0,1,.123.1,1.546,1.546,0,0,1,.239.036l.065.115a1.136,1.136,0,0,0,.187.19.809.809,0,0,1,.134,0,1.343,1.343,0,0,0,.14.02c.042-.006.09-.025.11-.028.081.09.072.09,0,.131l-.088.02-.341.012a.438.438,0,0,0-.121-.074l-.009-.086-.171-.042-.079-.047-.022-.111a.162.162,0,0,1-.125-.024l-.149-.022-.106-.062-.165-.078a.3.3,0,0,0-.24.01l-.08.035a.151.151,0,0,1-.13.009,2.375,2.375,0,0,1-.3.041,1.078,1.078,0,0,0-.277,0s0,.015-.094.055c-.011.016-.032.031-.072.086a.157.157,0,0,1-.019.086l.039.084a1.047,1.047,0,0,0-.131.044l-.329.045c-.109.095-.187.095-.212.154l.3,0c.053,0,.2-.017.229-.013a2.616,2.616,0,0,0,.293.06c.087,0,.074-.022.107-.015s.1-.045.127-.045a.2.2,0,0,1,.11.021l.079.042c.026.007.083.041.122.154a.647.647,0,0,1,.14.044c.074.069.144.089.2.137.038.028.033.041,0,.112a.284.284,0,0,1-.154.012l-.1.04s.03.009.095.087c.012.007.035.018,0,.09l-.117.041-.031.088a.475.475,0,0,1-.164.078.477.477,0,0,0,.064.114c0,.022-.093.058-.159.072-.092.071-.107.085-.075.184,0,0-.424.022-.489.014-.082,0-.182-.055-.264-.027l-.181.057-.064.089-.024.118a.448.448,0,0,1-.121.049c0,.016.008.016.1.053.09.077.1.084.107.165l-.275.067s-.091.015-.091.068a.125.125,0,0,0,.1.046.2.2,0,0,1,.142.017.2.2,0,0,1-.018.088c.084.1.126.092.152.08s.2-.051.277-.007c.016.022.053.019.113.019H6.31a.823.823,0,0,1,.153.112.173.173,0,0,0,.065.1c.061.045.08.035.085.058l.081.046a.3.3,0,0,0,.118-.084.212.212,0,0,1,.108-.119c.025,0,.24.019.3.019l.323,0s.064.055.1.043a.239.239,0,0,0,.114-.07.556.556,0,0,1,.222-.019c.031.019.051.011-.029.1a.967.967,0,0,0-.226.031v.095s-.068-.015-.1-.024l-.087-.022c-.132.039-.194-.006-.291.046-.021,0-.044-.024-.094.068a.173.173,0,0,0-.073.041c-.031.03-.1.146-.13.157s-.037.028-.041.113a.233.233,0,0,1-.218.017l-.086.075c-.015.017-.052.092-.092.086a.677.677,0,0,0-.213-.036c-.041.017-.172.036-.215.056a.343.343,0,0,1-.2.059.976.976,0,0,0-.217.013l-.142.127-.052.132a.279.279,0,0,1-.037.172.1.1,0,0,0,.032.086c.035.033.025.084.135.084a.817.817,0,0,1,.383.032c0,.016.1.016.121.033s.095.048.095.048a.242.242,0,0,0,.115,0c.081-.021.158-.044.158-.111,0,0,.014,0,.094-.056l.015.145a.778.778,0,0,1,.2.015c.015.012.081-.013.1-.015s.111,0,.116.021.015.118-.045.118a.631.631,0,0,0-.115,0L6.714,16.1a.4.4,0,0,0-.166.025l-.951.114-.1.107-.1-.01a.49.49,0,0,0-.1.062l-.093.082-.162.064.215.044.14.093.04.1.117-.064.093.034.182.053.165-.042.153-.09-.131-.041,0-.085.119-.049.131-.044h.152l.148.06.122.052.069.095h.084l.257.062.144-.028.71.073.189.054.091.078s.233.025.277.025a.589.589,0,0,1,.2.018c.05.021.068.04.039.132-.052,0-.315.027-.392.019s-.145-.019-.229-.033l-.266-.1a.359.359,0,0,0-.178-.041,3.914,3.914,0,0,1-.445.02.7.7,0,0,1-.2-.091.481.481,0,0,0-.265.013c-.125.041-.161.023-.23.08l-.044.175L6.333,17.1H6.207l.073.1a.481.481,0,0,0,.13.037c.03.005.127.007.152.017s.093.05.072.091l.051.129a2.215,2.215,0,0,0,.341.008A.576.576,0,0,0,7.2,17.35l.12,0a.7.7,0,0,0,.268.03l.283-.03c.075-.05.112-.024.179-.039a.215.215,0,0,0,.16-.136,1.823,1.823,0,0,0,.273.006c.046-.006.183-.059.224-.024s.1.04.151.075l-.025.143-.188-.014v.085l.194.12s-.031.231-.031.334a1.107,1.107,0,0,0,.042.314,1.373,1.373,0,0,1,.036.564c-.02.107-.031.176-.043.226A9.267,9.267,0,0,1,0,9.5,9.26,9.26,0,0,1,9,0a9.261,9.261,0,0,1,9,9.5A9.3,9.3,0,0,1,9.53,18.989Z" transform="translate(13 8)" fill="#555"/><path d="M4.516,0V4.516H0V0Z" transform="translate(45.161 51.935)" fill="#cf0f11"/><path d="M33.871,22.581H2.258A2.261,2.261,0,0,1,0,20.323V2.258A2.261,2.261,0,0,1,2.258,0H33.871a2.261,2.261,0,0,1,2.258,2.258V20.323A2.261,2.261,0,0,1,33.871,22.581Zm-4.516-6.774v4.516h4.518V15.807Zm-6.773,0v4.516H27.1V15.807Zm-6.774,0v4.516h4.516V15.807Zm-6.774,0v4.516h4.516V15.807Zm-6.774,0v4.516H6.774V15.807Zm27.1-6.774v4.516h4.518V9.032Zm-6.773,0v4.516H27.1V9.032Zm-6.774,0v4.516h4.516V9.032Zm-6.774,0v4.516h4.516V9.032Zm-6.774,0v4.516H6.774V9.032Zm27.1-6.774V6.774h4.516V2.258Zm-6.773,0V6.774H27.1V2.258Zm-6.774,0V6.774h4.516V2.258Zm-6.774,0V6.774h4.516V2.258Zm-6.774,0V6.774H6.774V2.258Z" transform="translate(29.355 42.903)" fill="#555"/></svg>