<svg xmlns="http://www.w3.org/2000/svg" width="93" height="67" viewBox="0 0 93 67">
  <g id="question" transform="translate(0 0)">
    <path id="Shape" d="M60.935,67a2.525,2.525,0,0,1-1.8-.752l-5.47-5.5H43.393a6.141,6.141,0,0,1-6.116-6.152V54.4a28.142,28.142,0,0,1-3.3.96V60.2A3.018,3.018,0,0,1,32.118,63a2.988,2.988,0,0,1-3.28-.655l-6.874-6.916A27.853,27.853,0,0,1,5.58,44.861,28.076,28.076,0,0,1,24.689.179,29.211,29.211,0,0,1,27.9,0a27.475,27.475,0,0,1,9.9,1.823A27.755,27.755,0,0,1,46.44,7.145a28.058,28.058,0,0,1,8.2,13.165H86.884A6.141,6.141,0,0,1,93,26.463V54.59a6.141,6.141,0,0,1-6.115,6.152h-23.4v3.689A2.56,2.56,0,0,1,61.913,66.8,2.533,2.533,0,0,1,60.935,67ZM55.308,23.24a28.152,28.152,0,0,1-3.857,19.717A27.849,27.849,0,0,1,40.189,53.162V54.59a3.217,3.217,0,0,0,3.2,3.223H54.265a1.445,1.445,0,0,1,1.03.429l5.28,5.313V59.278a1.462,1.462,0,0,1,1.456-1.465H86.884a3.217,3.217,0,0,0,3.2-3.223V26.463a3.217,3.217,0,0,0-3.2-3.223H55.308ZM27.894,2.93a26.349,26.349,0,0,0-2.884.161,24.815,24.815,0,0,0-14.86,7.286A25.115,25.115,0,0,0,22.97,52.644a1.448,1.448,0,0,1,.746.4L30.9,60.27a.081.081,0,0,0,.059.032A.124.124,0,0,0,31,60.291a.08.08,0,0,0,.06-.09V54.159a1.46,1.46,0,0,1,1.2-1.442A25.137,25.137,0,0,0,44.5,9.328,24.448,24.448,0,0,0,27.894,2.93Z" fill="#555"/>
    <path id="Path" d="M25.577.439a1.407,1.407,0,0,0-2.043,0L9.146,15.379,2.466,8.443a1.407,1.407,0,0,0-2.043,0,1.541,1.541,0,0,0,0,2.121l7.7,8a1.407,1.407,0,0,0,2.043,0l15.409-16A1.541,1.541,0,0,0,25.577.439Z" transform="translate(55 31)" fill="#555"/>
    <path id="Path-2" data-name="Path" d="M1.5,0h0A1.5,1.5,0,0,0,0,1.5H0A1.5,1.5,0,0,0,1.5,3h0A1.5,1.5,0,0,0,3,1.5H3A1.5,1.5,0,0,0,1.5,0Z" transform="translate(26 39)" fill="#555"/>
    <path id="Path-3" data-name="Path" d="M15.33,2.792A8.729,8.729,0,0,0,9,0,9.225,9.225,0,0,0,0,9.414,1.455,1.455,0,0,0,1.421,10.9,1.455,1.455,0,0,0,2.842,9.414,6.312,6.312,0,0,1,9,2.973a5.969,5.969,0,0,1,4.321,1.921,6.526,6.526,0,0,1,1.837,4.521,6.453,6.453,0,0,1-4.386,6.171A4.611,4.611,0,0,0,7.579,20.04v.474a1.422,1.422,0,1,0,2.842,0V20.04a1.671,1.671,0,0,1,1.168-1.607A9.431,9.431,0,0,0,18,9.415,9.55,9.55,0,0,0,15.33,2.792Z" transform="translate(19 14)" fill="#555"/>
  </g>
</svg>
