<svg xmlns="http://www.w3.org/2000/svg" width="71" height="70.999" viewBox="0 0 71 70.999">
  <g id="fireworks" transform="translate(71) rotate(90)">
    <path id="Shape" d="M5.634,19A5.412,5.412,0,0,1,1.8,17.42a6.591,6.591,0,0,1-1.78-4.98A7.058,7.058,0,0,1,6.055,6.062,7.084,7.084,0,0,1,12.437.016C12.59.005,12.745,0,12.9,0a6.553,6.553,0,0,1,4.516,1.795A5.5,5.5,0,0,1,18.989,6V17.807A1.187,1.187,0,0,1,17.8,18.992H5.945C5.854,19,5.761,19,5.671,19ZM12.546,2.393A4.88,4.88,0,0,0,8.31,7.184a1.182,1.182,0,0,1-1.13,1.131,4.882,4.882,0,0,0-4.8,4.229,4.222,4.222,0,0,0,1.084,3.189,3.067,3.067,0,0,0,2.168.89c.082,0,.166,0,.248-.01H16.616V5.944a3.149,3.149,0,0,0-.879-2.462,4.127,4.127,0,0,0-2.8-1.09l-.141,0h-.25Z" fill="#cf0f11"/>
    <path id="Shape-2" data-name="Shape" d="M4.336,14a4.415,4.415,0,0,1-3.085-1.248A4.533,4.533,0,0,1,.014,9.279c.126-2.72,2.65-4.122,4.774-4.5C5.162,2.658,6.563.131,9.276.012,9.384,0,9.493,0,9.6,0a4.569,4.569,0,0,1,3.146,1.25,4.54,4.54,0,0,1,1.239,3.475v8.109A1.166,1.166,0,0,1,12.822,14H4.336ZM9.384,2.339C7.992,2.4,7.079,4.2,7,5.89A1.158,1.158,0,0,1,5.89,7c-1.693.078-3.483.992-3.548,2.386a1.993,1.993,0,0,0,2.28,2.273h7.036V4.667A2.258,2.258,0,0,0,11.1,2.9a2.119,2.119,0,0,0-1.443-.566q-.056,0-.113,0Z" transform="translate(16 16)" fill="#cf0f11"/>
    <path id="Shape-3" data-name="Shape" d="M51.823,53a1.177,1.177,0,0,1-.388-.066L.79,35.267a1.178,1.178,0,0,1-.445-1.945L33.323.345A1.185,1.185,0,0,1,34.155,0a1.18,1.18,0,0,1,1.112.789L52.934,51.435a1.185,1.185,0,0,1-.279,1.22A1.17,1.17,0,0,1,51.823,53ZM28.268,31.808h0a8.236,8.236,0,0,1,6.773,12.921l14.866,5.182-.985-2.827a8.225,8.225,0,0,1-4.992-14.308l-1.99-5.7a8.244,8.244,0,1,1-5.312-15.22L33.661,3.337,21.756,15.242a8.234,8.234,0,0,1-4.089,15.38h-.023a8.185,8.185,0,0,1-7.112-4.147L3.339,33.669,20.051,39.5a8.239,8.239,0,0,1,8.217-7.691Zm16.542,3.47a5.876,5.876,0,0,0,3.244,9.3ZM28.266,34.142a5.891,5.891,0,0,0-5.889,5.9c0,.079,0,.164.007.26l7.957,2.776L32.7,43.9a5.889,5.889,0,0,0-4.437-9.761ZM20.022,16.979h0l-7.754,7.754a5.889,5.889,0,1,0,7.754-7.754Zm17.41-2.839a5.889,5.889,0,1,0,3.714,10.645Z" transform="translate(18 18)" fill="#cf0f11"/>
    <path id="Path" d="M13,1.182A1.182,1.182,0,0,0,11.818,0,11.831,11.831,0,0,0,0,11.818a1.182,1.182,0,0,0,2.364,0,9.465,9.465,0,0,1,9.455-9.455A1.182,1.182,0,0,0,13,1.182Z" transform="translate(3 31)" fill="#cf0f11"/>
    <path id="Path-2" data-name="Path" d="M12,6.857a1.172,1.172,0,0,0-1.2-1.143c-4.727,0-6.275-1.881-8.6-5.206A1.238,1.238,0,0,0,.534.192,1.11,1.11,0,0,0,.2,1.778C2.753,5.421,5.005,8,10.8,8A1.172,1.172,0,0,0,12,6.857Z" transform="translate(2 22)" fill="#cf0f11"/>
    <path id="Path-3" data-name="Path" d="M5.238,2.353A1.22,1.22,0,0,0,4.332.088,7.547,7.547,0,0,0,.276,4.246a7.254,7.254,0,0,0,1.037,6.144A1.216,1.216,0,1,0,3.395,9.133,4.977,4.977,0,0,1,2.572,5.04,5.112,5.112,0,0,1,5.238,2.353Z" transform="translate(14 35)" fill="#cf0f11"/>
    <path id="Shape-4" data-name="Shape" d="M3,6A3,3,0,1,1,6,3,3,3,0,0,1,3,6ZM3,2.4a.6.6,0,1,0,.6.6A.6.6,0,0,0,3,2.4Z" transform="translate(7 44)" fill="#cf0f11"/>
    <path id="Shape-5" data-name="Shape" d="M3,6A3,3,0,1,1,6,3,3,3,0,0,1,3,6ZM3,2.4a.6.6,0,1,0,.6.6A.6.6,0,0,0,3,2.4Z" transform="translate(0 28)" fill="#cf0f11"/>
    <path id="Path-4" data-name="Path" d="M13.109.311C7.159-1.162,1.658,2.71.033,9.528a1.193,1.193,0,0,0,.858,1.439A1.16,1.16,0,0,0,2.3,10.09c1.12-4.7,5-8.763,10.257-7.462a1.166,1.166,0,0,0,1.409-.877A1.193,1.193,0,0,0,13.108.311Z" transform="translate(32 5)" fill="#cf0f11"/>
    <path id="Path-5" data-name="Path" d="M1.375.034A1.111,1.111,0,0,0,.032.9,1.188,1.188,0,0,0,.85,2.331c3.037.786,4.632,4.83,3.63,9.208A1.188,1.188,0,0,0,5.3,12.967,1.066,1.066,0,0,0,5.56,13a1.127,1.127,0,0,0,1.079-.9C7.937,6.432,5.625,1.133,1.375.034Z" transform="translate(24)" fill="#cf0f11"/>
    <path id="Path-6" data-name="Path" d="M2.238,4.436A4.356,4.356,0,0,1,5.046,2.62a5.024,5.024,0,0,1,3.916,2,1.169,1.169,0,0,0,1.686-.065A1.381,1.381,0,0,0,10.68,2.75,7.222,7.222,0,0,0,4.819,0,6.8,6.8,0,0,0,.22,2.936,1.373,1.373,0,0,0,.527,4.764a1.177,1.177,0,0,0,1.709-.329Z" transform="translate(35 17)" fill="#cf0f11"/>
    <path id="Shape-6" data-name="Shape" d="M3,6H3a3.011,3.011,0,0,1-.712-.086A3,3,0,0,1,3,0a3.01,3.01,0,0,1,.714.086A3,3,0,0,1,3,6ZM3,2.4a.6.6,0,0,0-.027,1.2H3A.6.6,0,0,0,3,2.4Z" transform="translate(45 10)" fill="#cf0f11"/>
    <path id="Shape-7" data-name="Shape" d="M3,6H3A3,3,0,1,1,5.914,3.709,3.011,3.011,0,0,1,3,6ZM3,2.4A.6.6,0,1,0,3,3.6h.014A.6.6,0,0,0,3,2.4Z" transform="translate(32)" fill="#cf0f11"/>
    <path id="Path-7" data-name="Path" d="M.29.289A1.045,1.045,0,0,0,0,1,1,1,0,1,0,2,1a1.052,1.052,0,0,0-.29-.71,1.008,1.008,0,0,0-.16-.12.562.562,0,0,0-.17-.09.613.613,0,0,0-.191-.06A1,1,0,0,0,.29.289Z" transform="translate(31 31)" fill="#cf0f11"/>
    <path id="Path-8" data-name="Path" d="M.62,1.92A.99.99,0,0,0,2,1,1,1,0,1,0,0,1a.987.987,0,0,0,.29.71,1.146,1.146,0,0,0,.33.21Z" transform="translate(52 6)" fill="#cf0f11"/>
    <path id="Path-9" data-name="Path" d="M.29.279A1.161,1.161,0,0,0,.08.611a.951.951,0,0,0,0,.765,1.161,1.161,0,0,0,.21.332.985.985,0,0,0,1.09.211,1.17,1.17,0,0,0,.33-.211,1.172,1.172,0,0,0,.21-.332.955.955,0,0,0,0-.765A1.161,1.161,0,0,0,1.71.279,1.042,1.042,0,0,0,.29.279Z" transform="translate(6 59)" fill="#cf0f11"/>
    <path id="Path-10" data-name="Path" d="M1.56.171A.789.789,0,0,0,1.38.082a.616.616,0,0,0-.191-.06A.966.966,0,0,0,.08.618.987.987,0,0,0,.389,1.793a1,1,0,0,0,1.223,0A.989.989,0,0,0,1.92.618,1.144,1.144,0,0,0,1.71.29,1.679,1.679,0,0,0,1.56.171Z" transform="translate(3 51)" fill="#cf0f11"/>
    <path id="Path-11" data-name="Path" d="M1.38,1.92a1.17,1.17,0,0,0,.33-.21,1.166,1.166,0,0,0,.21-.331.948.948,0,0,0,0-.761A1.156,1.156,0,0,0,1.71.286a1.038,1.038,0,0,0-.33-.21.988.988,0,0,0-.76,0,1.032,1.032,0,0,0-.33.21A1.156,1.156,0,0,0,.08.617.84.84,0,0,0,0,1a.99.99,0,0,0,1.38.922Z" transform="translate(59 5)" fill="#cf0f11"/>
  </g>
</svg>
