<svg xmlns="http://www.w3.org/2000/svg" width="66.266" height="66.266" viewBox="0 0 66.266 66.266"><g transform="translate(1.388 1.388)"><path d="M1.6.522C1.086.5.551.489,0,.478" transform="translate(40.981 0.341)" fill="none" stroke="#555" stroke-linecap="round" stroke-miterlimit="10" stroke-width="2.775"/><path d="M31.746,0A31.746,31.746,0,1,0,63.491,31.745a32.086,32.086,0,0,0-.192-3.512" fill="none" stroke="#555" stroke-linecap="round" stroke-miterlimit="10" stroke-width="2.775"/><path d="M10.9,15.032A27.089,27.089,0,0,0,0,0" transform="translate(51.081 4.994)" fill="none" stroke="#555" stroke-linecap="round" stroke-miterlimit="10" stroke-width="2.775"/><path d="M46.586,17.021l-1.306.122v.79h-.41l-.44-.319-2.278-.562V15.579l-2.855.228-.9.47H37.263l-.546-.045-1.383.758v1.443L32.51,20.467l.228.866h.577l-.152.835-.394.152-.03,2.155,2.444,2.779h1.063l.061-.167H38.22l.546-.516h1.079l.607.607,1.609.167-.212,2.141,1.792,3.159-.957,1.807.076.85.745.729v2.05l.971,1.306v1.291A25.009,25.009,0,0,1,.121,27.558c-.015-.2-.03-.395-.045-.592v-.015C.015,26.314,0,25.661,0,24.992v-.44l.015-.364.015-.365v-.213c.015-.167.015-.319.031-.471l.015-.122a24.822,24.822,0,0,1,1.959-7.926v1.366l1.063.517v2.019l1.017,1.731.82.122.106-.593-.972-1.5-.2-1.457h.577l.243,1.5L6.1,20.847l-.365.667.9,1.367,2.232.562v-.365l.88.136-.076.638.7.122,1.079.3,1.534,1.731,1.943.152.2,1.594-1.337.927-.061,1.428-.2.865,1.928,2.414.152.836s.7.182.789.182c.076,0,1.564,1.139,1.564,1.139V39.9l.532.151-.365,2.02.9,1.184-.167,2,1.184,2.065,1.5,1.32,1.518.015.152-.486-1.124-.94.076-.456.2-.577.046-.577-.76-.031-.38-.471.624-.607.091-.456-.7-.2.03-.425,1-.151,1.519-.729.5-.941,1.595-2.035-.365-1.595.5-.834,1.458.03.987-.774.319-3.068,1.093-1.4.182-.881-.987-.318-.668-1.093-2.247-.015-1.776-.684-.091-1.275-.592-1.033-1.609-.03-.927-1.457-.835-.4-.045.44-1.5.091-.547-.775L16.7,24.2l-1.29,1.5-2.034-.349-.152-2.293-1.488-.258.607-1.124-.182-.652-1.943,1.306L8.989,22.2l-.44-.972.273-.987.669-1.245,1.564-.79h3.006v.911l1.078.5-.091-1.564.79-.79L17.4,16.232l.121-.729,1.564-1.625,1.671-.927L20.6,12.83l1.139-1.063.41.106.182.243.44-.471.106-.06-.47-.06-.486-.152V10.9l.258-.2.562-.015.243.122.227.44.273-.031v-.045l.076.031.774-.122.122-.4.44.122v.41l-.411.289.061.455,1.412.44v.015l.334-.031.015-.607-1.124-.516-.061-.3.926-.3.046-.9-.972-.593-.061-1.5-1.336.652h-.486l.121-1.154-1.822-.425L20.8,7.3V9.049l-1.351.426L18.9,10.6l-.592.106V9.247l-1.26-.167-.638-.425-.258-.926,2.277-1.336,1.108-.334.107.743.622-.03.046-.379L20.97,6.3l.015-.137L20.7,6.059l-.061-.4.805-.076.486-.5.015-.03h.015l.136-.152,1.686-.212.728.622L22.564,6.361l2.475.577.319-.82h1.079l.394-.729-.774-.183V4.3L23.673,3.234l-1.655.182-.941.486.061,1.2-.971-.151L20.013,4.3l.941-.85-1.7-.091-.486.151-.213.562.638.122-.136.622-1.079.076-.167.426-1.564.03a4.377,4.377,0,0,0-.106-.881c-.061,0,1.229-.03,1.229-.03l.926-.911-.5-.258-.683.667-1.124-.06-.683-.942H13.863l-1.5,1.124h1.382l.121.41-.349.334,1.518.046.243.547-1.731-.06L13.468,4.9l-1.078-.228-.577-.319h-.927A25.021,25.021,0,0,1,41.818,6.5l-.926.364-.5.531.121.622.607.092.365.911,1.048-.425.167,1.23h-.3L41.529,9.7l-.956.152-.927,1.306-1.321.213L38.144,12.5l.561.138-.167.729-1.305-.274-1.215.274-.244.667.2,1.4.714.334,1.184-.015.79-.06.258-.638,1.245-1.625.82.167.805-.729.152.562,1.988,1.351-.243.334-.9-.06.35.5.546.122.653-.274-.015-.789.289-.137-.228-.243-1.336-.744L42.7,12.5h1.108l.349.349.957.82.046.987.987,1.063.365-1.442.683-.379.121,1.184.669.729h.273c.273.7.532,1.412.744,2.126H47.831Z" transform="translate(7 7)" fill="#555"/></g></svg>