<svg xmlns="http://www.w3.org/2000/svg" width="40.834" height="36.544" viewBox="0 0 40.834 36.544"><path d="M27.049,30.417a2.075,2.075,0,0,1-.015-.244V5.744A5.8,5.8,0,0,1,32.879,0a5.39,5.39,0,0,1,4.567,2.507,5.157,5.157,0,0,1,5.1,4.638,3.738,3.738,0,0,1,2.41,3.019,4.648,4.648,0,0,1,2.1,3.725,4.406,4.406,0,0,1-.585,2.192,4.409,4.409,0,0,1-.371,4.936,4.413,4.413,0,0,1-.966,4.749v.022a5.736,5.736,0,0,1-4.058,5.471,7.177,7.177,0,0,1-14.022-.841ZM29.035,5.744v24.43a5.155,5.155,0,0,0,10.249-.626,3.806,3.806,0,0,0,3.843-3.759,3.67,3.67,0,0,0-.119-.911,2.46,2.46,0,0,0,.328-4.252A2.466,2.466,0,0,0,43.7,16.08a2.492,2.492,0,0,0,1.345-2.192,2.987,2.987,0,0,0-2.372-2.6A1.3,1.3,0,0,0,42.8,9.88a1.9,1.9,0,0,0-1.594-1,1.939,1.939,0,0,0-1.1.343,3.067,3.067,0,0,0,.46-1.595,3.171,3.171,0,0,0-3.2-3.132,5.488,5.488,0,0,0-1.074.2,3.611,3.611,0,0,0-3.41-2.7A3.806,3.806,0,0,0,29.035,5.744ZM12.2,31.259a5.736,5.736,0,0,1-4.058-5.471v-.022a4.413,4.413,0,0,1-.966-4.749A4.409,4.409,0,0,1,6.8,16.08a4.416,4.416,0,0,1-.585-2.192,4.65,4.65,0,0,1,2.1-3.725,3.738,3.738,0,0,1,2.41-3.019,5.157,5.157,0,0,1,5.1-4.638A5.391,5.391,0,0,1,20.388,0a5.8,5.8,0,0,1,5.845,5.744v24.43a2.075,2.075,0,0,1-.015.244,7.177,7.177,0,0,1-14.022.841ZM10.468,9.88a1.3,1.3,0,0,0,.122,1.412,2.987,2.987,0,0,0-2.372,2.6A2.494,2.494,0,0,0,9.563,16.08a2.466,2.466,0,0,0,.366,4.545,2.46,2.46,0,0,0,.329,4.252,3.67,3.67,0,0,0-.119.911,3.806,3.806,0,0,0,3.843,3.759,5.155,5.155,0,0,0,10.249.626V5.744a3.806,3.806,0,0,0-3.844-3.758,3.611,3.611,0,0,0-3.41,2.7,5.488,5.488,0,0,0-1.074-.2,3.171,3.171,0,0,0-3.2,3.132,3.067,3.067,0,0,0,.46,1.595,1.937,1.937,0,0,0-1.1-.343A1.9,1.9,0,0,0,10.468,9.88Z" transform="translate(-6.216)" fill="#cf0f11"/></svg>