<svg xmlns="http://www.w3.org/2000/svg" width="49.479" height="49.479" viewBox="0 0 49.479 49.479"><g transform="translate(0 0)"><circle cx="24.74" cy="24.74" r="24.74" transform="translate(0 0)" fill="#dd0332"/><path d="M27.344,3.237a9.613,9.613,0,0,1-3.222,1.086A6.857,6.857,0,0,0,26.589.5a10.062,10.062,0,0,1-3.562,1.675A5.182,5.182,0,0,0,18.93,0c-3.1,0-5.61,3.091-5.61,6.9a8.415,8.415,0,0,0,.146,1.573C8.8,8.188,4.67,5.44,1.9,1.263a8.12,8.12,0,0,0-.76,3.471,7.431,7.431,0,0,0,2.5,5.746A4.806,4.806,0,0,1,1.1,9.615c0,.029,0,.059,0,.088,0,3.345,1.935,6.134,4.5,6.768a4.61,4.61,0,0,1-2.533.119c.714,2.742,2.785,4.738,5.24,4.794a10.008,10.008,0,0,1-6.968,2.955A9.209,9.209,0,0,1,0,24.242a13.806,13.806,0,0,0,8.6,3.1C18.917,27.344,24.56,16.825,24.56,7.7c0-.3-.005-.6-.016-.893a13.166,13.166,0,0,0,2.8-3.573Z" transform="translate(11.068 11.068)" fill="#fff"/></g></svg>