<svg xmlns="http://www.w3.org/2000/svg" width="49.479" height="49.479" viewBox="0 0 49.479 49.479"><g transform="translate(0 0)"><circle cx="24.74" cy="24.74" r="24.74" transform="translate(0 0)" fill="#dd0332"/><g transform="translate(10.417 13.021)"><path d="M28.349,5.06a8.238,8.238,0,0,0-1.136-3.3A3.659,3.659,0,0,0,24.349.373C20.348.053,14.323,0,14.323,0h0S8.3.053,4.3.373A3.85,3.85,0,0,0,1.432,1.758,7.49,7.49,0,0,0,.3,5.06S0,7.777,0,10.494V13c0,2.717.3,5.38.3,5.38a8.238,8.238,0,0,0,1.136,3.3,4.565,4.565,0,0,0,3.161,1.438c2.272.266,9.73.32,9.73.32s6.026,0,10.026-.373a3.85,3.85,0,0,0,2.865-1.385,8.237,8.237,0,0,0,1.136-3.3s.3-2.717.3-5.38v-2.5c0-2.717-.3-5.433-.3-5.433" fill="#fff"/><path d="M0,0V11.719L10.417,5.994Z" transform="translate(11.719 6.51)" fill="#d11f3e"/></g></g></svg>